M48
; DRILL file {KiCad 7.0.11-7.0.11~ubuntu22.04.1} date Tue 05 Mar 2024 04:18:57 PM EST
; FORMAT={-:-/ absolute / inch / decimal}
; #@! TF.CreationDate,2024-03-05T16:18:57-05:00
; #@! TF.GenerationSoftware,Kicad,Pcbnew,7.0.11-7.0.11~ubuntu22.04.1
; #@! TF.FileFunction,Plated,1,2,PTH
FMAT,2
INCH
; #@! TA.AperFunction,Plated,PTH,ViaDrill
T1C0.0157
; #@! TA.AperFunction,Plated,PTH,ComponentDrill
T2C0.0299
; #@! TA.AperFunction,Plated,PTH,ComponentDrill
T3C0.0343
; #@! TA.AperFunction,Plated,PTH,ComponentDrill
T4C0.0394
%
G90
G05
T1
X5.012Y-2.237
X5.037Y-2.737
X5.217Y-2.902
X5.237Y-2.537
X5.337Y-3.037
X5.412Y-2.902
X5.507Y-2.687
X5.637Y-3.237
X5.737Y-2.937
X5.737Y-3.037
X5.737Y-3.137
X5.867Y-3.072
X5.967Y-2.837
T2
X5.8295Y-2.337
X5.8295Y-2.437
X5.8295Y-2.537
X5.8295Y-2.637
X6.137Y-2.337
X6.137Y-2.437
X6.137Y-2.537
X6.137Y-2.637
T3
X5.937Y-3.337
X5.937Y-3.3961
T4
X4.677Y-1.937
X4.777Y-1.937
X4.877Y-1.937
X4.977Y-1.937
X5.037Y-3.837
X5.077Y-1.937
X5.137Y-3.837
X5.177Y-1.937
X5.237Y-3.837
X5.277Y-1.937
X5.337Y-3.837
X5.377Y-1.937
X5.437Y-3.837
X5.477Y-1.937
X5.537Y-3.837
X5.577Y-1.937
X5.637Y-3.837
X5.737Y-1.937
X5.737Y-3.837
X5.837Y-1.937
X5.937Y-1.937
X5.937Y-3.837
X6.037Y-1.937
X6.037Y-3.837
X6.137Y-1.937
X6.137Y-3.837
X6.237Y-1.937
X6.237Y-3.837
X6.315Y-3.2776
X6.315Y-3.437
X6.315Y-3.5965
X6.337Y-1.937
X6.337Y-3.837
X6.437Y-1.937
X6.437Y-3.837
M30
