%TF.GenerationSoftware,KiCad,Pcbnew,7.0.11-7.0.11~ubuntu22.04.1*%
%TF.CreationDate,2024-03-05T16:18:53-05:00*%
%TF.ProjectId,PCB,5043422e-6b69-4636-9164-5f7063625858,rev?*%
%TF.SameCoordinates,Original*%
%TF.FileFunction,Legend,Top*%
%TF.FilePolarity,Positive*%
%FSLAX46Y46*%
G04 Gerber Fmt 4.6, Leading zero omitted, Abs format (unit mm)*
G04 Created by KiCad (PCBNEW 7.0.11-7.0.11~ubuntu22.04.1) date 2024-03-05 16:18:53*
%MOMM*%
%LPD*%
G01*
G04 APERTURE LIST*
%ADD10C,0.150000*%
%ADD11C,0.300000*%
%ADD12C,0.254000*%
%ADD13C,0.120000*%
%ADD14C,0.200000*%
G04 APERTURE END LIST*
D10*
X153037255Y-81719819D02*
X153227731Y-81719819D01*
X153227731Y-81719819D02*
X153322969Y-81767438D01*
X153322969Y-81767438D02*
X153418207Y-81862676D01*
X153418207Y-81862676D02*
X153465826Y-82053152D01*
X153465826Y-82053152D02*
X153465826Y-82386485D01*
X153465826Y-82386485D02*
X153418207Y-82576961D01*
X153418207Y-82576961D02*
X153322969Y-82672200D01*
X153322969Y-82672200D02*
X153227731Y-82719819D01*
X153227731Y-82719819D02*
X153037255Y-82719819D01*
X153037255Y-82719819D02*
X152942017Y-82672200D01*
X152942017Y-82672200D02*
X152846779Y-82576961D01*
X152846779Y-82576961D02*
X152799160Y-82386485D01*
X152799160Y-82386485D02*
X152799160Y-82053152D01*
X152799160Y-82053152D02*
X152846779Y-81862676D01*
X152846779Y-81862676D02*
X152942017Y-81767438D01*
X152942017Y-81767438D02*
X153037255Y-81719819D01*
X153894398Y-81719819D02*
X153894398Y-82529342D01*
X153894398Y-82529342D02*
X153942017Y-82624580D01*
X153942017Y-82624580D02*
X153989636Y-82672200D01*
X153989636Y-82672200D02*
X154084874Y-82719819D01*
X154084874Y-82719819D02*
X154275350Y-82719819D01*
X154275350Y-82719819D02*
X154370588Y-82672200D01*
X154370588Y-82672200D02*
X154418207Y-82624580D01*
X154418207Y-82624580D02*
X154465826Y-82529342D01*
X154465826Y-82529342D02*
X154465826Y-81719819D01*
X154799160Y-81719819D02*
X155370588Y-81719819D01*
X155084874Y-82719819D02*
X155084874Y-81719819D01*
X163090588Y-89138438D02*
X162995350Y-89090819D01*
X162995350Y-89090819D02*
X162852493Y-89090819D01*
X162852493Y-89090819D02*
X162709636Y-89138438D01*
X162709636Y-89138438D02*
X162614398Y-89233676D01*
X162614398Y-89233676D02*
X162566779Y-89328914D01*
X162566779Y-89328914D02*
X162519160Y-89519390D01*
X162519160Y-89519390D02*
X162519160Y-89662247D01*
X162519160Y-89662247D02*
X162566779Y-89852723D01*
X162566779Y-89852723D02*
X162614398Y-89947961D01*
X162614398Y-89947961D02*
X162709636Y-90043200D01*
X162709636Y-90043200D02*
X162852493Y-90090819D01*
X162852493Y-90090819D02*
X162947731Y-90090819D01*
X162947731Y-90090819D02*
X163090588Y-90043200D01*
X163090588Y-90043200D02*
X163138207Y-89995580D01*
X163138207Y-89995580D02*
X163138207Y-89662247D01*
X163138207Y-89662247D02*
X162947731Y-89662247D01*
X163566779Y-90090819D02*
X163566779Y-89090819D01*
X163566779Y-89090819D02*
X164138207Y-90090819D01*
X164138207Y-90090819D02*
X164138207Y-89090819D01*
X164614398Y-90090819D02*
X164614398Y-89090819D01*
X164614398Y-89090819D02*
X164852493Y-89090819D01*
X164852493Y-89090819D02*
X164995350Y-89138438D01*
X164995350Y-89138438D02*
X165090588Y-89233676D01*
X165090588Y-89233676D02*
X165138207Y-89328914D01*
X165138207Y-89328914D02*
X165185826Y-89519390D01*
X165185826Y-89519390D02*
X165185826Y-89662247D01*
X165185826Y-89662247D02*
X165138207Y-89852723D01*
X165138207Y-89852723D02*
X165090588Y-89947961D01*
X165090588Y-89947961D02*
X164995350Y-90043200D01*
X164995350Y-90043200D02*
X164852493Y-90090819D01*
X164852493Y-90090819D02*
X164614398Y-90090819D01*
X163074779Y-86026866D02*
X163836684Y-86026866D01*
X164217636Y-85407819D02*
X164884302Y-85407819D01*
X164884302Y-85407819D02*
X164455731Y-86407819D01*
X165455731Y-85407819D02*
X165550969Y-85407819D01*
X165550969Y-85407819D02*
X165646207Y-85455438D01*
X165646207Y-85455438D02*
X165693826Y-85503057D01*
X165693826Y-85503057D02*
X165741445Y-85598295D01*
X165741445Y-85598295D02*
X165789064Y-85788771D01*
X165789064Y-85788771D02*
X165789064Y-86026866D01*
X165789064Y-86026866D02*
X165741445Y-86217342D01*
X165741445Y-86217342D02*
X165693826Y-86312580D01*
X165693826Y-86312580D02*
X165646207Y-86360200D01*
X165646207Y-86360200D02*
X165550969Y-86407819D01*
X165550969Y-86407819D02*
X165455731Y-86407819D01*
X165455731Y-86407819D02*
X165360493Y-86360200D01*
X165360493Y-86360200D02*
X165312874Y-86312580D01*
X165312874Y-86312580D02*
X165265255Y-86217342D01*
X165265255Y-86217342D02*
X165217636Y-86026866D01*
X165217636Y-86026866D02*
X165217636Y-85788771D01*
X165217636Y-85788771D02*
X165265255Y-85598295D01*
X165265255Y-85598295D02*
X165312874Y-85503057D01*
X165312874Y-85503057D02*
X165360493Y-85455438D01*
X165360493Y-85455438D02*
X165455731Y-85407819D01*
X166074779Y-85407819D02*
X166408112Y-86407819D01*
X166408112Y-86407819D02*
X166741445Y-85407819D01*
X162820779Y-81581866D02*
X163582684Y-81581866D01*
X163201731Y-81962819D02*
X163201731Y-81200914D01*
X163963636Y-80962819D02*
X164630302Y-80962819D01*
X164630302Y-80962819D02*
X164201731Y-81962819D01*
X165201731Y-80962819D02*
X165296969Y-80962819D01*
X165296969Y-80962819D02*
X165392207Y-81010438D01*
X165392207Y-81010438D02*
X165439826Y-81058057D01*
X165439826Y-81058057D02*
X165487445Y-81153295D01*
X165487445Y-81153295D02*
X165535064Y-81343771D01*
X165535064Y-81343771D02*
X165535064Y-81581866D01*
X165535064Y-81581866D02*
X165487445Y-81772342D01*
X165487445Y-81772342D02*
X165439826Y-81867580D01*
X165439826Y-81867580D02*
X165392207Y-81915200D01*
X165392207Y-81915200D02*
X165296969Y-81962819D01*
X165296969Y-81962819D02*
X165201731Y-81962819D01*
X165201731Y-81962819D02*
X165106493Y-81915200D01*
X165106493Y-81915200D02*
X165058874Y-81867580D01*
X165058874Y-81867580D02*
X165011255Y-81772342D01*
X165011255Y-81772342D02*
X164963636Y-81581866D01*
X164963636Y-81581866D02*
X164963636Y-81343771D01*
X164963636Y-81343771D02*
X165011255Y-81153295D01*
X165011255Y-81153295D02*
X165058874Y-81058057D01*
X165058874Y-81058057D02*
X165106493Y-81010438D01*
X165106493Y-81010438D02*
X165201731Y-80962819D01*
X165820779Y-80962819D02*
X166154112Y-81962819D01*
X166154112Y-81962819D02*
X166487445Y-80962819D01*
D11*
X103094510Y-84560828D02*
X103094510Y-83060828D01*
X103808796Y-83560828D02*
X103808796Y-84560828D01*
X103808796Y-83703685D02*
X103880225Y-83632257D01*
X103880225Y-83632257D02*
X104023082Y-83560828D01*
X104023082Y-83560828D02*
X104237368Y-83560828D01*
X104237368Y-83560828D02*
X104380225Y-83632257D01*
X104380225Y-83632257D02*
X104451654Y-83775114D01*
X104451654Y-83775114D02*
X104451654Y-84560828D01*
X104951654Y-83060828D02*
X105808797Y-83060828D01*
X105380225Y-84560828D02*
X105380225Y-83060828D01*
X106880225Y-84489400D02*
X106737368Y-84560828D01*
X106737368Y-84560828D02*
X106451654Y-84560828D01*
X106451654Y-84560828D02*
X106308796Y-84489400D01*
X106308796Y-84489400D02*
X106237368Y-84346542D01*
X106237368Y-84346542D02*
X106237368Y-83775114D01*
X106237368Y-83775114D02*
X106308796Y-83632257D01*
X106308796Y-83632257D02*
X106451654Y-83560828D01*
X106451654Y-83560828D02*
X106737368Y-83560828D01*
X106737368Y-83560828D02*
X106880225Y-83632257D01*
X106880225Y-83632257D02*
X106951654Y-83775114D01*
X106951654Y-83775114D02*
X106951654Y-83917971D01*
X106951654Y-83917971D02*
X106237368Y-84060828D01*
X107594510Y-83560828D02*
X107594510Y-84560828D01*
X107594510Y-83703685D02*
X107665939Y-83632257D01*
X107665939Y-83632257D02*
X107808796Y-83560828D01*
X107808796Y-83560828D02*
X108023082Y-83560828D01*
X108023082Y-83560828D02*
X108165939Y-83632257D01*
X108165939Y-83632257D02*
X108237368Y-83775114D01*
X108237368Y-83775114D02*
X108237368Y-84560828D01*
X108880225Y-84489400D02*
X109023082Y-84560828D01*
X109023082Y-84560828D02*
X109308796Y-84560828D01*
X109308796Y-84560828D02*
X109451653Y-84489400D01*
X109451653Y-84489400D02*
X109523082Y-84346542D01*
X109523082Y-84346542D02*
X109523082Y-84275114D01*
X109523082Y-84275114D02*
X109451653Y-84132257D01*
X109451653Y-84132257D02*
X109308796Y-84060828D01*
X109308796Y-84060828D02*
X109094511Y-84060828D01*
X109094511Y-84060828D02*
X108951653Y-83989400D01*
X108951653Y-83989400D02*
X108880225Y-83846542D01*
X108880225Y-83846542D02*
X108880225Y-83775114D01*
X108880225Y-83775114D02*
X108951653Y-83632257D01*
X108951653Y-83632257D02*
X109094511Y-83560828D01*
X109094511Y-83560828D02*
X109308796Y-83560828D01*
X109308796Y-83560828D02*
X109451653Y-83632257D01*
X111237368Y-84489400D02*
X111451654Y-84560828D01*
X111451654Y-84560828D02*
X111808796Y-84560828D01*
X111808796Y-84560828D02*
X111951654Y-84489400D01*
X111951654Y-84489400D02*
X112023082Y-84417971D01*
X112023082Y-84417971D02*
X112094511Y-84275114D01*
X112094511Y-84275114D02*
X112094511Y-84132257D01*
X112094511Y-84132257D02*
X112023082Y-83989400D01*
X112023082Y-83989400D02*
X111951654Y-83917971D01*
X111951654Y-83917971D02*
X111808796Y-83846542D01*
X111808796Y-83846542D02*
X111523082Y-83775114D01*
X111523082Y-83775114D02*
X111380225Y-83703685D01*
X111380225Y-83703685D02*
X111308796Y-83632257D01*
X111308796Y-83632257D02*
X111237368Y-83489400D01*
X111237368Y-83489400D02*
X111237368Y-83346542D01*
X111237368Y-83346542D02*
X111308796Y-83203685D01*
X111308796Y-83203685D02*
X111380225Y-83132257D01*
X111380225Y-83132257D02*
X111523082Y-83060828D01*
X111523082Y-83060828D02*
X111880225Y-83060828D01*
X111880225Y-83060828D02*
X112094511Y-83132257D01*
X112737367Y-84560828D02*
X112737367Y-83560828D01*
X112737367Y-83060828D02*
X112665939Y-83132257D01*
X112665939Y-83132257D02*
X112737367Y-83203685D01*
X112737367Y-83203685D02*
X112808796Y-83132257D01*
X112808796Y-83132257D02*
X112737367Y-83060828D01*
X112737367Y-83060828D02*
X112737367Y-83203685D01*
X113451653Y-83560828D02*
X113451653Y-84560828D01*
X113451653Y-83703685D02*
X113523082Y-83632257D01*
X113523082Y-83632257D02*
X113665939Y-83560828D01*
X113665939Y-83560828D02*
X113880225Y-83560828D01*
X113880225Y-83560828D02*
X114023082Y-83632257D01*
X114023082Y-83632257D02*
X114094511Y-83775114D01*
X114094511Y-83775114D02*
X114094511Y-84560828D01*
X116237368Y-83060828D02*
X116523082Y-83060828D01*
X116523082Y-83060828D02*
X116665939Y-83132257D01*
X116665939Y-83132257D02*
X116808796Y-83275114D01*
X116808796Y-83275114D02*
X116880225Y-83560828D01*
X116880225Y-83560828D02*
X116880225Y-84060828D01*
X116880225Y-84060828D02*
X116808796Y-84346542D01*
X116808796Y-84346542D02*
X116665939Y-84489400D01*
X116665939Y-84489400D02*
X116523082Y-84560828D01*
X116523082Y-84560828D02*
X116237368Y-84560828D01*
X116237368Y-84560828D02*
X116094511Y-84489400D01*
X116094511Y-84489400D02*
X115951653Y-84346542D01*
X115951653Y-84346542D02*
X115880225Y-84060828D01*
X115880225Y-84060828D02*
X115880225Y-83560828D01*
X115880225Y-83560828D02*
X115951653Y-83275114D01*
X115951653Y-83275114D02*
X116094511Y-83132257D01*
X116094511Y-83132257D02*
X116237368Y-83060828D01*
X118165940Y-83560828D02*
X118165940Y-84560828D01*
X117523082Y-83560828D02*
X117523082Y-84346542D01*
X117523082Y-84346542D02*
X117594511Y-84489400D01*
X117594511Y-84489400D02*
X117737368Y-84560828D01*
X117737368Y-84560828D02*
X117951654Y-84560828D01*
X117951654Y-84560828D02*
X118094511Y-84489400D01*
X118094511Y-84489400D02*
X118165940Y-84417971D01*
X118665940Y-83560828D02*
X119237368Y-83560828D01*
X118880225Y-83060828D02*
X118880225Y-84346542D01*
X118880225Y-84346542D02*
X118951654Y-84489400D01*
X118951654Y-84489400D02*
X119094511Y-84560828D01*
X119094511Y-84560828D02*
X119237368Y-84560828D01*
X119737368Y-83560828D02*
X119737368Y-85060828D01*
X119737368Y-83632257D02*
X119880226Y-83560828D01*
X119880226Y-83560828D02*
X120165940Y-83560828D01*
X120165940Y-83560828D02*
X120308797Y-83632257D01*
X120308797Y-83632257D02*
X120380226Y-83703685D01*
X120380226Y-83703685D02*
X120451654Y-83846542D01*
X120451654Y-83846542D02*
X120451654Y-84275114D01*
X120451654Y-84275114D02*
X120380226Y-84417971D01*
X120380226Y-84417971D02*
X120308797Y-84489400D01*
X120308797Y-84489400D02*
X120165940Y-84560828D01*
X120165940Y-84560828D02*
X119880226Y-84560828D01*
X119880226Y-84560828D02*
X119737368Y-84489400D01*
X121737369Y-83560828D02*
X121737369Y-84560828D01*
X121094511Y-83560828D02*
X121094511Y-84346542D01*
X121094511Y-84346542D02*
X121165940Y-84489400D01*
X121165940Y-84489400D02*
X121308797Y-84560828D01*
X121308797Y-84560828D02*
X121523083Y-84560828D01*
X121523083Y-84560828D02*
X121665940Y-84489400D01*
X121665940Y-84489400D02*
X121737369Y-84417971D01*
X122237369Y-83560828D02*
X122808797Y-83560828D01*
X122451654Y-83060828D02*
X122451654Y-84346542D01*
X122451654Y-84346542D02*
X122523083Y-84489400D01*
X122523083Y-84489400D02*
X122665940Y-84560828D01*
X122665940Y-84560828D02*
X122808797Y-84560828D01*
X124308797Y-83560828D02*
X124665940Y-84560828D01*
X124665940Y-84560828D02*
X125023083Y-83560828D01*
X126380226Y-84560828D02*
X125523083Y-84560828D01*
X125951654Y-84560828D02*
X125951654Y-83060828D01*
X125951654Y-83060828D02*
X125808797Y-83275114D01*
X125808797Y-83275114D02*
X125665940Y-83417971D01*
X125665940Y-83417971D02*
X125523083Y-83489400D01*
X127023082Y-84417971D02*
X127094511Y-84489400D01*
X127094511Y-84489400D02*
X127023082Y-84560828D01*
X127023082Y-84560828D02*
X126951654Y-84489400D01*
X126951654Y-84489400D02*
X127023082Y-84417971D01*
X127023082Y-84417971D02*
X127023082Y-84560828D01*
X128023083Y-83060828D02*
X128165940Y-83060828D01*
X128165940Y-83060828D02*
X128308797Y-83132257D01*
X128308797Y-83132257D02*
X128380226Y-83203685D01*
X128380226Y-83203685D02*
X128451654Y-83346542D01*
X128451654Y-83346542D02*
X128523083Y-83632257D01*
X128523083Y-83632257D02*
X128523083Y-83989400D01*
X128523083Y-83989400D02*
X128451654Y-84275114D01*
X128451654Y-84275114D02*
X128380226Y-84417971D01*
X128380226Y-84417971D02*
X128308797Y-84489400D01*
X128308797Y-84489400D02*
X128165940Y-84560828D01*
X128165940Y-84560828D02*
X128023083Y-84560828D01*
X128023083Y-84560828D02*
X127880226Y-84489400D01*
X127880226Y-84489400D02*
X127808797Y-84417971D01*
X127808797Y-84417971D02*
X127737368Y-84275114D01*
X127737368Y-84275114D02*
X127665940Y-83989400D01*
X127665940Y-83989400D02*
X127665940Y-83632257D01*
X127665940Y-83632257D02*
X127737368Y-83346542D01*
X127737368Y-83346542D02*
X127808797Y-83203685D01*
X127808797Y-83203685D02*
X127880226Y-83132257D01*
X127880226Y-83132257D02*
X128023083Y-83060828D01*
D10*
X162658666Y-90818819D02*
X162658666Y-91533104D01*
X162658666Y-91533104D02*
X162611047Y-91675961D01*
X162611047Y-91675961D02*
X162515809Y-91771200D01*
X162515809Y-91771200D02*
X162372952Y-91818819D01*
X162372952Y-91818819D02*
X162277714Y-91818819D01*
X163277714Y-91247390D02*
X163182476Y-91199771D01*
X163182476Y-91199771D02*
X163134857Y-91152152D01*
X163134857Y-91152152D02*
X163087238Y-91056914D01*
X163087238Y-91056914D02*
X163087238Y-91009295D01*
X163087238Y-91009295D02*
X163134857Y-90914057D01*
X163134857Y-90914057D02*
X163182476Y-90866438D01*
X163182476Y-90866438D02*
X163277714Y-90818819D01*
X163277714Y-90818819D02*
X163468190Y-90818819D01*
X163468190Y-90818819D02*
X163563428Y-90866438D01*
X163563428Y-90866438D02*
X163611047Y-90914057D01*
X163611047Y-90914057D02*
X163658666Y-91009295D01*
X163658666Y-91009295D02*
X163658666Y-91056914D01*
X163658666Y-91056914D02*
X163611047Y-91152152D01*
X163611047Y-91152152D02*
X163563428Y-91199771D01*
X163563428Y-91199771D02*
X163468190Y-91247390D01*
X163468190Y-91247390D02*
X163277714Y-91247390D01*
X163277714Y-91247390D02*
X163182476Y-91295009D01*
X163182476Y-91295009D02*
X163134857Y-91342628D01*
X163134857Y-91342628D02*
X163087238Y-91437866D01*
X163087238Y-91437866D02*
X163087238Y-91628342D01*
X163087238Y-91628342D02*
X163134857Y-91723580D01*
X163134857Y-91723580D02*
X163182476Y-91771200D01*
X163182476Y-91771200D02*
X163277714Y-91818819D01*
X163277714Y-91818819D02*
X163468190Y-91818819D01*
X163468190Y-91818819D02*
X163563428Y-91771200D01*
X163563428Y-91771200D02*
X163611047Y-91723580D01*
X163611047Y-91723580D02*
X163658666Y-91628342D01*
X163658666Y-91628342D02*
X163658666Y-91437866D01*
X163658666Y-91437866D02*
X163611047Y-91342628D01*
X163611047Y-91342628D02*
X163563428Y-91295009D01*
X163563428Y-91295009D02*
X163468190Y-91247390D01*
X137933333Y-59814819D02*
X137600000Y-59338628D01*
X137361905Y-59814819D02*
X137361905Y-58814819D01*
X137361905Y-58814819D02*
X137742857Y-58814819D01*
X137742857Y-58814819D02*
X137838095Y-58862438D01*
X137838095Y-58862438D02*
X137885714Y-58910057D01*
X137885714Y-58910057D02*
X137933333Y-59005295D01*
X137933333Y-59005295D02*
X137933333Y-59148152D01*
X137933333Y-59148152D02*
X137885714Y-59243390D01*
X137885714Y-59243390D02*
X137838095Y-59291009D01*
X137838095Y-59291009D02*
X137742857Y-59338628D01*
X137742857Y-59338628D02*
X137361905Y-59338628D01*
X138885714Y-59814819D02*
X138314286Y-59814819D01*
X138600000Y-59814819D02*
X138600000Y-58814819D01*
X138600000Y-58814819D02*
X138504762Y-58957676D01*
X138504762Y-58957676D02*
X138409524Y-59052914D01*
X138409524Y-59052914D02*
X138314286Y-59100533D01*
X137933333Y-64174819D02*
X137600000Y-63698628D01*
X137361905Y-64174819D02*
X137361905Y-63174819D01*
X137361905Y-63174819D02*
X137742857Y-63174819D01*
X137742857Y-63174819D02*
X137838095Y-63222438D01*
X137838095Y-63222438D02*
X137885714Y-63270057D01*
X137885714Y-63270057D02*
X137933333Y-63365295D01*
X137933333Y-63365295D02*
X137933333Y-63508152D01*
X137933333Y-63508152D02*
X137885714Y-63603390D01*
X137885714Y-63603390D02*
X137838095Y-63651009D01*
X137838095Y-63651009D02*
X137742857Y-63698628D01*
X137742857Y-63698628D02*
X137361905Y-63698628D01*
X138266667Y-63174819D02*
X138885714Y-63174819D01*
X138885714Y-63174819D02*
X138552381Y-63555771D01*
X138552381Y-63555771D02*
X138695238Y-63555771D01*
X138695238Y-63555771D02*
X138790476Y-63603390D01*
X138790476Y-63603390D02*
X138838095Y-63651009D01*
X138838095Y-63651009D02*
X138885714Y-63746247D01*
X138885714Y-63746247D02*
X138885714Y-63984342D01*
X138885714Y-63984342D02*
X138838095Y-64079580D01*
X138838095Y-64079580D02*
X138790476Y-64127200D01*
X138790476Y-64127200D02*
X138695238Y-64174819D01*
X138695238Y-64174819D02*
X138409524Y-64174819D01*
X138409524Y-64174819D02*
X138314286Y-64127200D01*
X138314286Y-64127200D02*
X138266667Y-64079580D01*
D12*
X151007380Y-62474318D02*
X151007380Y-63502413D01*
X151007380Y-63502413D02*
X151067857Y-63623365D01*
X151067857Y-63623365D02*
X151128333Y-63683842D01*
X151128333Y-63683842D02*
X151249285Y-63744318D01*
X151249285Y-63744318D02*
X151491190Y-63744318D01*
X151491190Y-63744318D02*
X151612142Y-63683842D01*
X151612142Y-63683842D02*
X151672619Y-63623365D01*
X151672619Y-63623365D02*
X151733095Y-63502413D01*
X151733095Y-63502413D02*
X151733095Y-62474318D01*
X153003095Y-63744318D02*
X152277380Y-63744318D01*
X152640237Y-63744318D02*
X152640237Y-62474318D01*
X152640237Y-62474318D02*
X152519285Y-62655746D01*
X152519285Y-62655746D02*
X152398333Y-62776699D01*
X152398333Y-62776699D02*
X152277380Y-62837175D01*
D10*
X145454819Y-85376666D02*
X144978628Y-85709999D01*
X145454819Y-85948094D02*
X144454819Y-85948094D01*
X144454819Y-85948094D02*
X144454819Y-85567142D01*
X144454819Y-85567142D02*
X144502438Y-85471904D01*
X144502438Y-85471904D02*
X144550057Y-85424285D01*
X144550057Y-85424285D02*
X144645295Y-85376666D01*
X144645295Y-85376666D02*
X144788152Y-85376666D01*
X144788152Y-85376666D02*
X144883390Y-85424285D01*
X144883390Y-85424285D02*
X144931009Y-85471904D01*
X144931009Y-85471904D02*
X144978628Y-85567142D01*
X144978628Y-85567142D02*
X144978628Y-85948094D01*
X144454819Y-84471904D02*
X144454819Y-84948094D01*
X144454819Y-84948094D02*
X144931009Y-84995713D01*
X144931009Y-84995713D02*
X144883390Y-84948094D01*
X144883390Y-84948094D02*
X144835771Y-84852856D01*
X144835771Y-84852856D02*
X144835771Y-84614761D01*
X144835771Y-84614761D02*
X144883390Y-84519523D01*
X144883390Y-84519523D02*
X144931009Y-84471904D01*
X144931009Y-84471904D02*
X145026247Y-84424285D01*
X145026247Y-84424285D02*
X145264342Y-84424285D01*
X145264342Y-84424285D02*
X145359580Y-84471904D01*
X145359580Y-84471904D02*
X145407200Y-84519523D01*
X145407200Y-84519523D02*
X145454819Y-84614761D01*
X145454819Y-84614761D02*
X145454819Y-84852856D01*
X145454819Y-84852856D02*
X145407200Y-84948094D01*
X145407200Y-84948094D02*
X145359580Y-84995713D01*
X154150833Y-74269580D02*
X154103214Y-74317200D01*
X154103214Y-74317200D02*
X153960357Y-74364819D01*
X153960357Y-74364819D02*
X153865119Y-74364819D01*
X153865119Y-74364819D02*
X153722262Y-74317200D01*
X153722262Y-74317200D02*
X153627024Y-74221961D01*
X153627024Y-74221961D02*
X153579405Y-74126723D01*
X153579405Y-74126723D02*
X153531786Y-73936247D01*
X153531786Y-73936247D02*
X153531786Y-73793390D01*
X153531786Y-73793390D02*
X153579405Y-73602914D01*
X153579405Y-73602914D02*
X153627024Y-73507676D01*
X153627024Y-73507676D02*
X153722262Y-73412438D01*
X153722262Y-73412438D02*
X153865119Y-73364819D01*
X153865119Y-73364819D02*
X153960357Y-73364819D01*
X153960357Y-73364819D02*
X154103214Y-73412438D01*
X154103214Y-73412438D02*
X154150833Y-73460057D01*
X155055595Y-73364819D02*
X154579405Y-73364819D01*
X154579405Y-73364819D02*
X154531786Y-73841009D01*
X154531786Y-73841009D02*
X154579405Y-73793390D01*
X154579405Y-73793390D02*
X154674643Y-73745771D01*
X154674643Y-73745771D02*
X154912738Y-73745771D01*
X154912738Y-73745771D02*
X155007976Y-73793390D01*
X155007976Y-73793390D02*
X155055595Y-73841009D01*
X155055595Y-73841009D02*
X155103214Y-73936247D01*
X155103214Y-73936247D02*
X155103214Y-74174342D01*
X155103214Y-74174342D02*
X155055595Y-74269580D01*
X155055595Y-74269580D02*
X155007976Y-74317200D01*
X155007976Y-74317200D02*
X154912738Y-74364819D01*
X154912738Y-74364819D02*
X154674643Y-74364819D01*
X154674643Y-74364819D02*
X154579405Y-74317200D01*
X154579405Y-74317200D02*
X154531786Y-74269580D01*
X150023656Y-76556666D02*
X150071276Y-76604285D01*
X150071276Y-76604285D02*
X150118895Y-76747142D01*
X150118895Y-76747142D02*
X150118895Y-76842380D01*
X150118895Y-76842380D02*
X150071276Y-76985237D01*
X150071276Y-76985237D02*
X149976037Y-77080475D01*
X149976037Y-77080475D02*
X149880799Y-77128094D01*
X149880799Y-77128094D02*
X149690323Y-77175713D01*
X149690323Y-77175713D02*
X149547466Y-77175713D01*
X149547466Y-77175713D02*
X149356990Y-77128094D01*
X149356990Y-77128094D02*
X149261752Y-77080475D01*
X149261752Y-77080475D02*
X149166514Y-76985237D01*
X149166514Y-76985237D02*
X149118895Y-76842380D01*
X149118895Y-76842380D02*
X149118895Y-76747142D01*
X149118895Y-76747142D02*
X149166514Y-76604285D01*
X149166514Y-76604285D02*
X149214133Y-76556666D01*
X149118895Y-76223332D02*
X149118895Y-75604285D01*
X149118895Y-75604285D02*
X149499847Y-75937618D01*
X149499847Y-75937618D02*
X149499847Y-75794761D01*
X149499847Y-75794761D02*
X149547466Y-75699523D01*
X149547466Y-75699523D02*
X149595085Y-75651904D01*
X149595085Y-75651904D02*
X149690323Y-75604285D01*
X149690323Y-75604285D02*
X149928418Y-75604285D01*
X149928418Y-75604285D02*
X150023656Y-75651904D01*
X150023656Y-75651904D02*
X150071276Y-75699523D01*
X150071276Y-75699523D02*
X150118895Y-75794761D01*
X150118895Y-75794761D02*
X150118895Y-76080475D01*
X150118895Y-76080475D02*
X150071276Y-76175713D01*
X150071276Y-76175713D02*
X150023656Y-76223332D01*
X139308095Y-72444819D02*
X139308095Y-73254342D01*
X139308095Y-73254342D02*
X139355714Y-73349580D01*
X139355714Y-73349580D02*
X139403333Y-73397200D01*
X139403333Y-73397200D02*
X139498571Y-73444819D01*
X139498571Y-73444819D02*
X139689047Y-73444819D01*
X139689047Y-73444819D02*
X139784285Y-73397200D01*
X139784285Y-73397200D02*
X139831904Y-73349580D01*
X139831904Y-73349580D02*
X139879523Y-73254342D01*
X139879523Y-73254342D02*
X139879523Y-72444819D01*
X140308095Y-72540057D02*
X140355714Y-72492438D01*
X140355714Y-72492438D02*
X140450952Y-72444819D01*
X140450952Y-72444819D02*
X140689047Y-72444819D01*
X140689047Y-72444819D02*
X140784285Y-72492438D01*
X140784285Y-72492438D02*
X140831904Y-72540057D01*
X140831904Y-72540057D02*
X140879523Y-72635295D01*
X140879523Y-72635295D02*
X140879523Y-72730533D01*
X140879523Y-72730533D02*
X140831904Y-72873390D01*
X140831904Y-72873390D02*
X140260476Y-73444819D01*
X140260476Y-73444819D02*
X140879523Y-73444819D01*
X129907619Y-69189580D02*
X129860000Y-69237200D01*
X129860000Y-69237200D02*
X129717143Y-69284819D01*
X129717143Y-69284819D02*
X129621905Y-69284819D01*
X129621905Y-69284819D02*
X129479048Y-69237200D01*
X129479048Y-69237200D02*
X129383810Y-69141961D01*
X129383810Y-69141961D02*
X129336191Y-69046723D01*
X129336191Y-69046723D02*
X129288572Y-68856247D01*
X129288572Y-68856247D02*
X129288572Y-68713390D01*
X129288572Y-68713390D02*
X129336191Y-68522914D01*
X129336191Y-68522914D02*
X129383810Y-68427676D01*
X129383810Y-68427676D02*
X129479048Y-68332438D01*
X129479048Y-68332438D02*
X129621905Y-68284819D01*
X129621905Y-68284819D02*
X129717143Y-68284819D01*
X129717143Y-68284819D02*
X129860000Y-68332438D01*
X129860000Y-68332438D02*
X129907619Y-68380057D01*
X130288572Y-68380057D02*
X130336191Y-68332438D01*
X130336191Y-68332438D02*
X130431429Y-68284819D01*
X130431429Y-68284819D02*
X130669524Y-68284819D01*
X130669524Y-68284819D02*
X130764762Y-68332438D01*
X130764762Y-68332438D02*
X130812381Y-68380057D01*
X130812381Y-68380057D02*
X130860000Y-68475295D01*
X130860000Y-68475295D02*
X130860000Y-68570533D01*
X130860000Y-68570533D02*
X130812381Y-68713390D01*
X130812381Y-68713390D02*
X130240953Y-69284819D01*
X130240953Y-69284819D02*
X130860000Y-69284819D01*
X137933333Y-69879580D02*
X137885714Y-69927200D01*
X137885714Y-69927200D02*
X137742857Y-69974819D01*
X137742857Y-69974819D02*
X137647619Y-69974819D01*
X137647619Y-69974819D02*
X137504762Y-69927200D01*
X137504762Y-69927200D02*
X137409524Y-69831961D01*
X137409524Y-69831961D02*
X137361905Y-69736723D01*
X137361905Y-69736723D02*
X137314286Y-69546247D01*
X137314286Y-69546247D02*
X137314286Y-69403390D01*
X137314286Y-69403390D02*
X137361905Y-69212914D01*
X137361905Y-69212914D02*
X137409524Y-69117676D01*
X137409524Y-69117676D02*
X137504762Y-69022438D01*
X137504762Y-69022438D02*
X137647619Y-68974819D01*
X137647619Y-68974819D02*
X137742857Y-68974819D01*
X137742857Y-68974819D02*
X137885714Y-69022438D01*
X137885714Y-69022438D02*
X137933333Y-69070057D01*
X138885714Y-69974819D02*
X138314286Y-69974819D01*
X138600000Y-69974819D02*
X138600000Y-68974819D01*
X138600000Y-68974819D02*
X138504762Y-69117676D01*
X138504762Y-69117676D02*
X138409524Y-69212914D01*
X138409524Y-69212914D02*
X138314286Y-69260533D01*
X163166666Y-82690819D02*
X163166666Y-83405104D01*
X163166666Y-83405104D02*
X163119047Y-83547961D01*
X163119047Y-83547961D02*
X163023809Y-83643200D01*
X163023809Y-83643200D02*
X162880952Y-83690819D01*
X162880952Y-83690819D02*
X162785714Y-83690819D01*
X164119047Y-82690819D02*
X163642857Y-82690819D01*
X163642857Y-82690819D02*
X163595238Y-83167009D01*
X163595238Y-83167009D02*
X163642857Y-83119390D01*
X163642857Y-83119390D02*
X163738095Y-83071771D01*
X163738095Y-83071771D02*
X163976190Y-83071771D01*
X163976190Y-83071771D02*
X164071428Y-83119390D01*
X164071428Y-83119390D02*
X164119047Y-83167009D01*
X164119047Y-83167009D02*
X164166666Y-83262247D01*
X164166666Y-83262247D02*
X164166666Y-83500342D01*
X164166666Y-83500342D02*
X164119047Y-83595580D01*
X164119047Y-83595580D02*
X164071428Y-83643200D01*
X164071428Y-83643200D02*
X163976190Y-83690819D01*
X163976190Y-83690819D02*
X163738095Y-83690819D01*
X163738095Y-83690819D02*
X163642857Y-83643200D01*
X163642857Y-83643200D02*
X163595238Y-83595580D01*
X152754819Y-85843333D02*
X153469104Y-85843333D01*
X153469104Y-85843333D02*
X153611961Y-85890952D01*
X153611961Y-85890952D02*
X153707200Y-85986190D01*
X153707200Y-85986190D02*
X153754819Y-86129047D01*
X153754819Y-86129047D02*
X153754819Y-86224285D01*
X152754819Y-84938571D02*
X152754819Y-85129047D01*
X152754819Y-85129047D02*
X152802438Y-85224285D01*
X152802438Y-85224285D02*
X152850057Y-85271904D01*
X152850057Y-85271904D02*
X152992914Y-85367142D01*
X152992914Y-85367142D02*
X153183390Y-85414761D01*
X153183390Y-85414761D02*
X153564342Y-85414761D01*
X153564342Y-85414761D02*
X153659580Y-85367142D01*
X153659580Y-85367142D02*
X153707200Y-85319523D01*
X153707200Y-85319523D02*
X153754819Y-85224285D01*
X153754819Y-85224285D02*
X153754819Y-85033809D01*
X153754819Y-85033809D02*
X153707200Y-84938571D01*
X153707200Y-84938571D02*
X153659580Y-84890952D01*
X153659580Y-84890952D02*
X153564342Y-84843333D01*
X153564342Y-84843333D02*
X153326247Y-84843333D01*
X153326247Y-84843333D02*
X153231009Y-84890952D01*
X153231009Y-84890952D02*
X153183390Y-84938571D01*
X153183390Y-84938571D02*
X153135771Y-85033809D01*
X153135771Y-85033809D02*
X153135771Y-85224285D01*
X153135771Y-85224285D02*
X153183390Y-85319523D01*
X153183390Y-85319523D02*
X153231009Y-85367142D01*
X153231009Y-85367142D02*
X153326247Y-85414761D01*
X162912666Y-87008819D02*
X162912666Y-87723104D01*
X162912666Y-87723104D02*
X162865047Y-87865961D01*
X162865047Y-87865961D02*
X162769809Y-87961200D01*
X162769809Y-87961200D02*
X162626952Y-88008819D01*
X162626952Y-88008819D02*
X162531714Y-88008819D01*
X163293619Y-87008819D02*
X163960285Y-87008819D01*
X163960285Y-87008819D02*
X163531714Y-88008819D01*
X131083656Y-76556666D02*
X131131276Y-76604285D01*
X131131276Y-76604285D02*
X131178895Y-76747142D01*
X131178895Y-76747142D02*
X131178895Y-76842380D01*
X131178895Y-76842380D02*
X131131276Y-76985237D01*
X131131276Y-76985237D02*
X131036037Y-77080475D01*
X131036037Y-77080475D02*
X130940799Y-77128094D01*
X130940799Y-77128094D02*
X130750323Y-77175713D01*
X130750323Y-77175713D02*
X130607466Y-77175713D01*
X130607466Y-77175713D02*
X130416990Y-77128094D01*
X130416990Y-77128094D02*
X130321752Y-77080475D01*
X130321752Y-77080475D02*
X130226514Y-76985237D01*
X130226514Y-76985237D02*
X130178895Y-76842380D01*
X130178895Y-76842380D02*
X130178895Y-76747142D01*
X130178895Y-76747142D02*
X130226514Y-76604285D01*
X130226514Y-76604285D02*
X130274133Y-76556666D01*
X130512228Y-75699523D02*
X131178895Y-75699523D01*
X130131276Y-75937618D02*
X130845561Y-76175713D01*
X130845561Y-76175713D02*
X130845561Y-75556666D01*
X129907619Y-59814819D02*
X129574286Y-59338628D01*
X129336191Y-59814819D02*
X129336191Y-58814819D01*
X129336191Y-58814819D02*
X129717143Y-58814819D01*
X129717143Y-58814819D02*
X129812381Y-58862438D01*
X129812381Y-58862438D02*
X129860000Y-58910057D01*
X129860000Y-58910057D02*
X129907619Y-59005295D01*
X129907619Y-59005295D02*
X129907619Y-59148152D01*
X129907619Y-59148152D02*
X129860000Y-59243390D01*
X129860000Y-59243390D02*
X129812381Y-59291009D01*
X129812381Y-59291009D02*
X129717143Y-59338628D01*
X129717143Y-59338628D02*
X129336191Y-59338628D01*
X130288572Y-58910057D02*
X130336191Y-58862438D01*
X130336191Y-58862438D02*
X130431429Y-58814819D01*
X130431429Y-58814819D02*
X130669524Y-58814819D01*
X130669524Y-58814819D02*
X130764762Y-58862438D01*
X130764762Y-58862438D02*
X130812381Y-58910057D01*
X130812381Y-58910057D02*
X130860000Y-59005295D01*
X130860000Y-59005295D02*
X130860000Y-59100533D01*
X130860000Y-59100533D02*
X130812381Y-59243390D01*
X130812381Y-59243390D02*
X130240953Y-59814819D01*
X130240953Y-59814819D02*
X130860000Y-59814819D01*
X129907619Y-64174819D02*
X129574286Y-63698628D01*
X129336191Y-64174819D02*
X129336191Y-63174819D01*
X129336191Y-63174819D02*
X129717143Y-63174819D01*
X129717143Y-63174819D02*
X129812381Y-63222438D01*
X129812381Y-63222438D02*
X129860000Y-63270057D01*
X129860000Y-63270057D02*
X129907619Y-63365295D01*
X129907619Y-63365295D02*
X129907619Y-63508152D01*
X129907619Y-63508152D02*
X129860000Y-63603390D01*
X129860000Y-63603390D02*
X129812381Y-63651009D01*
X129812381Y-63651009D02*
X129717143Y-63698628D01*
X129717143Y-63698628D02*
X129336191Y-63698628D01*
X130764762Y-63508152D02*
X130764762Y-64174819D01*
X130526667Y-63127200D02*
X130288572Y-63841485D01*
X130288572Y-63841485D02*
X130907619Y-63841485D01*
D13*
%TO.C,J1*%
X129210000Y-98790000D02*
X147050000Y-98790000D01*
X129210000Y-98790000D02*
X129210000Y-96130000D01*
X147050000Y-98790000D02*
X147050000Y-96130000D01*
X126610000Y-97460000D02*
X126610000Y-96130000D01*
X126610000Y-96130000D02*
X127940000Y-96130000D01*
X129210000Y-96130000D02*
X147050000Y-96130000D01*
%TO.C,J3*%
X152070000Y-98790000D02*
X164830000Y-98790000D01*
X152070000Y-98790000D02*
X152070000Y-96130000D01*
X164830000Y-98790000D02*
X164830000Y-96130000D01*
X149470000Y-97460000D02*
X149470000Y-96130000D01*
X149470000Y-96130000D02*
X150800000Y-96130000D01*
X152070000Y-96130000D02*
X164830000Y-96130000D01*
%TO.C,J2*%
X120066000Y-50530000D02*
X142986000Y-50530000D01*
X120066000Y-50530000D02*
X120066000Y-47870000D01*
X142986000Y-50530000D02*
X142986000Y-47870000D01*
X117466000Y-49200000D02*
X117466000Y-47870000D01*
X117466000Y-47870000D02*
X118796000Y-47870000D01*
X120066000Y-47870000D02*
X142986000Y-47870000D01*
%TO.C,J4*%
X146990000Y-50530000D02*
X164830000Y-50530000D01*
X146990000Y-50530000D02*
X146990000Y-47870000D01*
X164830000Y-50530000D02*
X164830000Y-47870000D01*
X144390000Y-49200000D02*
X144390000Y-47870000D01*
X144390000Y-47870000D02*
X145720000Y-47870000D01*
X146990000Y-47870000D02*
X164830000Y-47870000D01*
%TO.C,J8*%
X161652200Y-91350000D02*
G75*
G03*
X159150200Y-91350000I-1251000J0D01*
G01*
X159150200Y-91350000D02*
G75*
G03*
X161652200Y-91350000I1251000J0D01*
G01*
%TO.C,R1*%
X137372936Y-55910000D02*
X138827064Y-55910000D01*
X137372936Y-57730000D02*
X138827064Y-57730000D01*
%TO.C,R3*%
X138827064Y-62810000D02*
X137372936Y-62810000D01*
X138827064Y-60990000D02*
X137372936Y-60990000D01*
D14*
%TO.C,U1*%
X156460000Y-68250000D02*
X148419000Y-68250000D01*
X155531000Y-58090000D02*
X148419000Y-58090000D01*
D13*
%TO.C,R5*%
X144090000Y-84482936D02*
X144090000Y-85937064D01*
X142270000Y-84482936D02*
X142270000Y-85937064D01*
%TO.C,C5*%
X155028752Y-72970000D02*
X153606248Y-72970000D01*
X155028752Y-71150000D02*
X153606248Y-71150000D01*
%TO.C,C3*%
X148724076Y-75678748D02*
X148724076Y-77101252D01*
X146904076Y-75678748D02*
X146904076Y-77101252D01*
%TO.C,U2*%
X140070000Y-73830000D02*
X136620000Y-73830000D01*
X140070000Y-73830000D02*
X142020000Y-73830000D01*
X140070000Y-78950000D02*
X138120000Y-78950000D01*
X140070000Y-78950000D02*
X142020000Y-78950000D01*
%TO.C,C2*%
X130785538Y-67890000D02*
X129363034Y-67890000D01*
X130785538Y-66070000D02*
X129363034Y-66070000D01*
%TO.C,C1*%
X137388748Y-66070000D02*
X138811252Y-66070000D01*
X137388748Y-67890000D02*
X138811252Y-67890000D01*
%TO.C,J5*%
X161652200Y-83250000D02*
G75*
G03*
X159150200Y-83250000I-1251000J0D01*
G01*
X159150200Y-83250000D02*
G75*
G03*
X161652200Y-83250000I1251000J0D01*
G01*
%TO.C,J6*%
X152510000Y-82850000D02*
X151260000Y-82850000D01*
X152210000Y-83150000D02*
X148490000Y-83150000D01*
X151150000Y-83150000D02*
X151150000Y-83350000D01*
X148490000Y-83150000D02*
X148490000Y-87870000D01*
X152010000Y-83350000D02*
X152010000Y-87670000D01*
X151150000Y-83350000D02*
X152010000Y-83350000D01*
X151150000Y-83350000D02*
X150450000Y-83350000D01*
X150450000Y-83350000D02*
X150450000Y-83150000D01*
X150450000Y-83350000D02*
X148690000Y-83350000D01*
X148690000Y-83350000D02*
X148690000Y-87670000D01*
X152510000Y-84100000D02*
X152510000Y-82850000D01*
X152010000Y-87670000D02*
X151150000Y-87670000D01*
X151150000Y-87670000D02*
X150450000Y-87670000D01*
X151150000Y-87670000D02*
X151150000Y-87870000D01*
X150450000Y-87670000D02*
X150450000Y-87870000D01*
X148690000Y-87670000D02*
X150450000Y-87670000D01*
X152210000Y-87870000D02*
X152210000Y-83150000D01*
X148490000Y-87870000D02*
X152210000Y-87870000D01*
%TO.C,J7*%
X161652200Y-87300000D02*
G75*
G03*
X159150200Y-87300000I-1251000J0D01*
G01*
X159150200Y-87300000D02*
G75*
G03*
X161652200Y-87300000I1251000J0D01*
G01*
%TO.C,C4*%
X131664076Y-77101252D02*
X131664076Y-75678748D01*
X133484076Y-77101252D02*
X133484076Y-75678748D01*
%TO.C,R2*%
X129347222Y-55910000D02*
X130801350Y-55910000D01*
X129347222Y-57730000D02*
X130801350Y-57730000D01*
%TO.C,R4*%
X130801350Y-62810000D02*
X129347222Y-62810000D01*
X130801350Y-60990000D02*
X129347222Y-60990000D01*
%TD*%
M02*
