%TF.GenerationSoftware,KiCad,Pcbnew,5.1.10-88a1d61d58~88~ubuntu18.04.1*%
%TF.CreationDate,2021-10-25T10:41:03-04:00*%
%TF.ProjectId,mctens,6d637465-6e73-42e6-9b69-6361645f7063,rev?*%
%TF.SameCoordinates,Original*%
%TF.FileFunction,Legend,Bot*%
%TF.FilePolarity,Positive*%
%FSLAX46Y46*%
G04 Gerber Fmt 4.6, Leading zero omitted, Abs format (unit mm)*
G04 Created by KiCad (PCBNEW 5.1.10-88a1d61d58~88~ubuntu18.04.1) date 2021-10-25 10:41:03*
%MOMM*%
%LPD*%
G01*
G04 APERTURE LIST*
%ADD10C,0.203200*%
%ADD11C,0.150000*%
%ADD12C,0.254000*%
%ADD13C,0.127000*%
%ADD14C,0.120000*%
G04 APERTURE END LIST*
D10*
X104824348Y-58658578D02*
X104552205Y-58749292D01*
X104461491Y-58840007D01*
X104370777Y-59021435D01*
X104370777Y-59293578D01*
X104461491Y-59475007D01*
X104552205Y-59565721D01*
X104733634Y-59656435D01*
X105459348Y-59656435D01*
X105459348Y-57751435D01*
X104824348Y-57751435D01*
X104642920Y-57842150D01*
X104552205Y-57932864D01*
X104461491Y-58114292D01*
X104461491Y-58295721D01*
X104552205Y-58477150D01*
X104642920Y-58567864D01*
X104824348Y-58658578D01*
X105459348Y-58658578D01*
X103282205Y-59656435D02*
X103463634Y-59565721D01*
X103554348Y-59475007D01*
X103645062Y-59293578D01*
X103645062Y-58749292D01*
X103554348Y-58567864D01*
X103463634Y-58477150D01*
X103282205Y-58386435D01*
X103010062Y-58386435D01*
X102828634Y-58477150D01*
X102737920Y-58567864D01*
X102647205Y-58749292D01*
X102647205Y-59293578D01*
X102737920Y-59475007D01*
X102828634Y-59565721D01*
X103010062Y-59656435D01*
X103282205Y-59656435D01*
X101921491Y-59565721D02*
X101740062Y-59656435D01*
X101377205Y-59656435D01*
X101195777Y-59565721D01*
X101105062Y-59384292D01*
X101105062Y-59293578D01*
X101195777Y-59112150D01*
X101377205Y-59021435D01*
X101649348Y-59021435D01*
X101830777Y-58930721D01*
X101921491Y-58749292D01*
X101921491Y-58658578D01*
X101830777Y-58477150D01*
X101649348Y-58386435D01*
X101377205Y-58386435D01*
X101195777Y-58477150D01*
X100560777Y-58386435D02*
X99835062Y-58386435D01*
X100288634Y-57751435D02*
X100288634Y-59384292D01*
X100197920Y-59565721D01*
X100016491Y-59656435D01*
X99835062Y-59656435D01*
X98927920Y-59656435D02*
X99109348Y-59565721D01*
X99200062Y-59475007D01*
X99290777Y-59293578D01*
X99290777Y-58749292D01*
X99200062Y-58567864D01*
X99109348Y-58477150D01*
X98927920Y-58386435D01*
X98655777Y-58386435D01*
X98474348Y-58477150D01*
X98383634Y-58567864D01*
X98292920Y-58749292D01*
X98292920Y-59293578D01*
X98383634Y-59475007D01*
X98474348Y-59565721D01*
X98655777Y-59656435D01*
X98927920Y-59656435D01*
X97476491Y-58386435D02*
X97476491Y-59656435D01*
X97476491Y-58567864D02*
X97385777Y-58477150D01*
X97204348Y-58386435D01*
X96932205Y-58386435D01*
X96750777Y-58477150D01*
X96660062Y-58658578D01*
X96660062Y-59656435D01*
X94301491Y-57751435D02*
X94301491Y-59293578D01*
X94210777Y-59475007D01*
X94120062Y-59565721D01*
X93938634Y-59656435D01*
X93575777Y-59656435D01*
X93394348Y-59565721D01*
X93303634Y-59475007D01*
X93212920Y-59293578D01*
X93212920Y-57751435D01*
X92305777Y-58386435D02*
X92305777Y-59656435D01*
X92305777Y-58567864D02*
X92215062Y-58477150D01*
X92033634Y-58386435D01*
X91761491Y-58386435D01*
X91580062Y-58477150D01*
X91489348Y-58658578D01*
X91489348Y-59656435D01*
X90582205Y-59656435D02*
X90582205Y-58386435D01*
X90582205Y-57751435D02*
X90672920Y-57842150D01*
X90582205Y-57932864D01*
X90491491Y-57842150D01*
X90582205Y-57751435D01*
X90582205Y-57932864D01*
X89856491Y-58386435D02*
X89402920Y-59656435D01*
X88949348Y-58386435D01*
X87497920Y-59565721D02*
X87679348Y-59656435D01*
X88042205Y-59656435D01*
X88223634Y-59565721D01*
X88314348Y-59384292D01*
X88314348Y-58658578D01*
X88223634Y-58477150D01*
X88042205Y-58386435D01*
X87679348Y-58386435D01*
X87497920Y-58477150D01*
X87407205Y-58658578D01*
X87407205Y-58840007D01*
X88314348Y-59021435D01*
X86590777Y-59656435D02*
X86590777Y-58386435D01*
X86590777Y-58749292D02*
X86500062Y-58567864D01*
X86409348Y-58477150D01*
X86227920Y-58386435D01*
X86046491Y-58386435D01*
X85502205Y-59565721D02*
X85320777Y-59656435D01*
X84957920Y-59656435D01*
X84776491Y-59565721D01*
X84685777Y-59384292D01*
X84685777Y-59293578D01*
X84776491Y-59112150D01*
X84957920Y-59021435D01*
X85230062Y-59021435D01*
X85411491Y-58930721D01*
X85502205Y-58749292D01*
X85502205Y-58658578D01*
X85411491Y-58477150D01*
X85230062Y-58386435D01*
X84957920Y-58386435D01*
X84776491Y-58477150D01*
X83869348Y-59656435D02*
X83869348Y-58386435D01*
X83869348Y-57751435D02*
X83960062Y-57842150D01*
X83869348Y-57932864D01*
X83778634Y-57842150D01*
X83869348Y-57751435D01*
X83869348Y-57932864D01*
X83234348Y-58386435D02*
X82508634Y-58386435D01*
X82962205Y-57751435D02*
X82962205Y-59384292D01*
X82871491Y-59565721D01*
X82690062Y-59656435D01*
X82508634Y-59656435D01*
X82055062Y-58386435D02*
X81601491Y-59656435D01*
X81147920Y-58386435D02*
X81601491Y-59656435D01*
X81782920Y-60110007D01*
X81873634Y-60200721D01*
X82055062Y-60291435D01*
X78970777Y-58658578D02*
X78335777Y-58658578D01*
X78063634Y-59656435D02*
X78970777Y-59656435D01*
X78970777Y-57751435D01*
X78063634Y-57751435D01*
X77247205Y-59656435D02*
X77247205Y-57751435D01*
X76793634Y-57751435D01*
X76521491Y-57842150D01*
X76340062Y-58023578D01*
X76249348Y-58205007D01*
X76158634Y-58567864D01*
X76158634Y-58840007D01*
X76249348Y-59202864D01*
X76340062Y-59384292D01*
X76521491Y-59565721D01*
X76793634Y-59656435D01*
X77247205Y-59656435D01*
X74707205Y-58658578D02*
X75342205Y-58658578D01*
X75342205Y-59656435D02*
X75342205Y-57751435D01*
X74435062Y-57751435D01*
X72257920Y-58930721D02*
X70806491Y-58930721D01*
X69899348Y-58930721D02*
X68447920Y-58930721D01*
X65363634Y-59565721D02*
X65545062Y-59656435D01*
X65907920Y-59656435D01*
X66089348Y-59565721D01*
X66180062Y-59384292D01*
X66180062Y-58658578D01*
X66089348Y-58477150D01*
X65907920Y-58386435D01*
X65545062Y-58386435D01*
X65363634Y-58477150D01*
X65272920Y-58658578D01*
X65272920Y-58840007D01*
X66180062Y-59021435D01*
X63640062Y-59656435D02*
X63640062Y-57751435D01*
X63640062Y-59565721D02*
X63821491Y-59656435D01*
X64184348Y-59656435D01*
X64365777Y-59565721D01*
X64456491Y-59475007D01*
X64547205Y-59293578D01*
X64547205Y-58749292D01*
X64456491Y-58567864D01*
X64365777Y-58477150D01*
X64184348Y-58386435D01*
X63821491Y-58386435D01*
X63640062Y-58477150D01*
X63005062Y-58386435D02*
X62279348Y-58386435D01*
X62732920Y-59656435D02*
X62732920Y-58023578D01*
X62642205Y-57842150D01*
X62460777Y-57751435D01*
X62279348Y-57751435D01*
X61644348Y-59475007D02*
X61553634Y-59565721D01*
X61644348Y-59656435D01*
X61735062Y-59565721D01*
X61644348Y-59475007D01*
X61644348Y-59656435D01*
X60737205Y-59656435D02*
X60737205Y-57751435D01*
X60737205Y-58477150D02*
X60555777Y-58386435D01*
X60192920Y-58386435D01*
X60011491Y-58477150D01*
X59920777Y-58567864D01*
X59830062Y-58749292D01*
X59830062Y-59293578D01*
X59920777Y-59475007D01*
X60011491Y-59565721D01*
X60192920Y-59656435D01*
X60555777Y-59656435D01*
X60737205Y-59565721D01*
X58197205Y-58386435D02*
X58197205Y-59656435D01*
X59013634Y-58386435D02*
X59013634Y-59384292D01*
X58922920Y-59565721D01*
X58741491Y-59656435D01*
X58469348Y-59656435D01*
X58287920Y-59565721D01*
X58197205Y-59475007D01*
X57290062Y-59475007D02*
X57199348Y-59565721D01*
X57290062Y-59656435D01*
X57380777Y-59565721D01*
X57290062Y-59475007D01*
X57290062Y-59656435D01*
X55657205Y-59565721D02*
X55838634Y-59656435D01*
X56201491Y-59656435D01*
X56382920Y-59565721D01*
X56473634Y-59384292D01*
X56473634Y-58658578D01*
X56382920Y-58477150D01*
X56201491Y-58386435D01*
X55838634Y-58386435D01*
X55657205Y-58477150D01*
X55566491Y-58658578D01*
X55566491Y-58840007D01*
X56473634Y-59021435D01*
X53933634Y-59656435D02*
X53933634Y-57751435D01*
X53933634Y-59565721D02*
X54115062Y-59656435D01*
X54477920Y-59656435D01*
X54659348Y-59565721D01*
X54750062Y-59475007D01*
X54840777Y-59293578D01*
X54840777Y-58749292D01*
X54750062Y-58567864D01*
X54659348Y-58477150D01*
X54477920Y-58386435D01*
X54115062Y-58386435D01*
X53933634Y-58477150D01*
X52210062Y-58386435D02*
X52210062Y-59656435D01*
X53026491Y-58386435D02*
X53026491Y-59384292D01*
X52935777Y-59565721D01*
X52754348Y-59656435D01*
X52482205Y-59656435D01*
X52300777Y-59565721D01*
X52210062Y-59475007D01*
X105459348Y-62717135D02*
X105459348Y-60812135D01*
X104824348Y-62172850D01*
X104189348Y-60812135D01*
X104189348Y-62717135D01*
X102465777Y-61447135D02*
X102465777Y-62717135D01*
X103282205Y-61447135D02*
X103282205Y-62444992D01*
X103191491Y-62626421D01*
X103010062Y-62717135D01*
X102737920Y-62717135D01*
X102556491Y-62626421D01*
X102465777Y-62535707D01*
X101286491Y-62717135D02*
X101467920Y-62626421D01*
X101558634Y-62444992D01*
X101558634Y-60812135D01*
X100832920Y-61447135D02*
X100107205Y-61447135D01*
X100560777Y-60812135D02*
X100560777Y-62444992D01*
X100470062Y-62626421D01*
X100288634Y-62717135D01*
X100107205Y-62717135D01*
X99472205Y-62717135D02*
X99472205Y-61447135D01*
X99472205Y-60812135D02*
X99562920Y-60902850D01*
X99472205Y-60993564D01*
X99381491Y-60902850D01*
X99472205Y-60812135D01*
X99472205Y-60993564D01*
X98565062Y-61991421D02*
X97113634Y-61991421D01*
X95117920Y-62535707D02*
X95208634Y-62626421D01*
X95480777Y-62717135D01*
X95662205Y-62717135D01*
X95934348Y-62626421D01*
X96115777Y-62444992D01*
X96206491Y-62263564D01*
X96297205Y-61900707D01*
X96297205Y-61628564D01*
X96206491Y-61265707D01*
X96115777Y-61084278D01*
X95934348Y-60902850D01*
X95662205Y-60812135D01*
X95480777Y-60812135D01*
X95208634Y-60902850D01*
X95117920Y-60993564D01*
X94301491Y-62717135D02*
X94301491Y-60812135D01*
X93485062Y-62717135D02*
X93485062Y-61719278D01*
X93575777Y-61537850D01*
X93757205Y-61447135D01*
X94029348Y-61447135D01*
X94210777Y-61537850D01*
X94301491Y-61628564D01*
X91761491Y-62717135D02*
X91761491Y-61719278D01*
X91852205Y-61537850D01*
X92033634Y-61447135D01*
X92396491Y-61447135D01*
X92577920Y-61537850D01*
X91761491Y-62626421D02*
X91942920Y-62717135D01*
X92396491Y-62717135D01*
X92577920Y-62626421D01*
X92668634Y-62444992D01*
X92668634Y-62263564D01*
X92577920Y-62082135D01*
X92396491Y-61991421D01*
X91942920Y-61991421D01*
X91761491Y-61900707D01*
X90854348Y-61447135D02*
X90854348Y-62717135D01*
X90854348Y-61628564D02*
X90763634Y-61537850D01*
X90582205Y-61447135D01*
X90310062Y-61447135D01*
X90128634Y-61537850D01*
X90037920Y-61719278D01*
X90037920Y-62717135D01*
X89130777Y-61447135D02*
X89130777Y-62717135D01*
X89130777Y-61628564D02*
X89040062Y-61537850D01*
X88858634Y-61447135D01*
X88586491Y-61447135D01*
X88405062Y-61537850D01*
X88314348Y-61719278D01*
X88314348Y-62717135D01*
X86681491Y-62626421D02*
X86862920Y-62717135D01*
X87225777Y-62717135D01*
X87407205Y-62626421D01*
X87497920Y-62444992D01*
X87497920Y-61719278D01*
X87407205Y-61537850D01*
X87225777Y-61447135D01*
X86862920Y-61447135D01*
X86681491Y-61537850D01*
X86590777Y-61719278D01*
X86590777Y-61900707D01*
X87497920Y-62082135D01*
X85502205Y-62717135D02*
X85683634Y-62626421D01*
X85774348Y-62444992D01*
X85774348Y-60812135D01*
X83597205Y-60812135D02*
X82508634Y-60812135D01*
X83052920Y-62717135D02*
X83052920Y-60812135D01*
X81873634Y-61719278D02*
X81238634Y-61719278D01*
X80966491Y-62717135D02*
X81873634Y-62717135D01*
X81873634Y-60812135D01*
X80966491Y-60812135D01*
X80150062Y-62717135D02*
X80150062Y-60812135D01*
X79515062Y-62172850D01*
X78880062Y-60812135D01*
X78880062Y-62717135D01*
X78063634Y-62626421D02*
X77791491Y-62717135D01*
X77337920Y-62717135D01*
X77156491Y-62626421D01*
X77065777Y-62535707D01*
X76975062Y-62354278D01*
X76975062Y-62172850D01*
X77065777Y-61991421D01*
X77156491Y-61900707D01*
X77337920Y-61809992D01*
X77700777Y-61719278D01*
X77882205Y-61628564D01*
X77972920Y-61537850D01*
X78063634Y-61356421D01*
X78063634Y-61174992D01*
X77972920Y-60993564D01*
X77882205Y-60902850D01*
X77700777Y-60812135D01*
X77247205Y-60812135D01*
X76975062Y-60902850D01*
X74888634Y-61447135D02*
X74435062Y-62717135D01*
X73981491Y-61447135D01*
X72257920Y-62717135D02*
X73346491Y-62717135D01*
X72802205Y-62717135D02*
X72802205Y-60812135D01*
X72983634Y-61084278D01*
X73165062Y-61265707D01*
X73346491Y-61356421D01*
X71441491Y-62535707D02*
X71350777Y-62626421D01*
X71441491Y-62717135D01*
X71532205Y-62626421D01*
X71441491Y-62535707D01*
X71441491Y-62717135D01*
X70171491Y-60812135D02*
X69990062Y-60812135D01*
X69808634Y-60902850D01*
X69717920Y-60993564D01*
X69627205Y-61174992D01*
X69536491Y-61537850D01*
X69536491Y-61991421D01*
X69627205Y-62354278D01*
X69717920Y-62535707D01*
X69808634Y-62626421D01*
X69990062Y-62717135D01*
X70171491Y-62717135D01*
X70352920Y-62626421D01*
X70443634Y-62535707D01*
X70534348Y-62354278D01*
X70625062Y-61991421D01*
X70625062Y-61537850D01*
X70534348Y-61174992D01*
X70443634Y-60993564D01*
X70352920Y-60902850D01*
X70171491Y-60812135D01*
X64456491Y-60993564D02*
X64365777Y-60902850D01*
X64184348Y-60812135D01*
X63730777Y-60812135D01*
X63549348Y-60902850D01*
X63458634Y-60993564D01*
X63367920Y-61174992D01*
X63367920Y-61356421D01*
X63458634Y-61628564D01*
X64547205Y-62717135D01*
X63367920Y-62717135D01*
X62188634Y-60812135D02*
X62007205Y-60812135D01*
X61825777Y-60902850D01*
X61735062Y-60993564D01*
X61644348Y-61174992D01*
X61553634Y-61537850D01*
X61553634Y-61991421D01*
X61644348Y-62354278D01*
X61735062Y-62535707D01*
X61825777Y-62626421D01*
X62007205Y-62717135D01*
X62188634Y-62717135D01*
X62370062Y-62626421D01*
X62460777Y-62535707D01*
X62551491Y-62354278D01*
X62642205Y-61991421D01*
X62642205Y-61537850D01*
X62551491Y-61174992D01*
X62460777Y-60993564D01*
X62370062Y-60902850D01*
X62188634Y-60812135D01*
X60827920Y-60993564D02*
X60737205Y-60902850D01*
X60555777Y-60812135D01*
X60102205Y-60812135D01*
X59920777Y-60902850D01*
X59830062Y-60993564D01*
X59739348Y-61174992D01*
X59739348Y-61356421D01*
X59830062Y-61628564D01*
X60918634Y-62717135D01*
X59739348Y-62717135D01*
X57925062Y-62717135D02*
X59013634Y-62717135D01*
X58469348Y-62717135D02*
X58469348Y-60812135D01*
X58650777Y-61084278D01*
X58832205Y-61265707D01*
X59013634Y-61356421D01*
X57108634Y-61991421D02*
X55657205Y-61991421D01*
X53752205Y-62717135D02*
X54840777Y-62717135D01*
X54296491Y-62717135D02*
X54296491Y-60812135D01*
X54477920Y-61084278D01*
X54659348Y-61265707D01*
X54840777Y-61356421D01*
X52572920Y-60812135D02*
X52391491Y-60812135D01*
X52210062Y-60902850D01*
X52119348Y-60993564D01*
X52028634Y-61174992D01*
X51937920Y-61537850D01*
X51937920Y-61991421D01*
X52028634Y-62354278D01*
X52119348Y-62535707D01*
X52210062Y-62626421D01*
X52391491Y-62717135D01*
X52572920Y-62717135D01*
X52754348Y-62626421D01*
X52845062Y-62535707D01*
X52935777Y-62354278D01*
X53026491Y-61991421D01*
X53026491Y-61537850D01*
X52935777Y-61174992D01*
X52845062Y-60993564D01*
X52754348Y-60902850D01*
X52572920Y-60812135D01*
D11*
%TO.C,T1*%
X174498000Y-89738200D02*
X174498000Y-73202800D01*
X156159200Y-89738200D02*
X156133800Y-73202800D01*
X171881800Y-73202800D02*
X174498000Y-73202800D01*
X156133800Y-73202800D02*
X158750000Y-73202800D01*
X171881800Y-89738200D02*
X174498000Y-89738200D01*
X156159200Y-89738200D02*
X158750000Y-89738200D01*
X171881800Y-69011800D02*
X167284400Y-69011800D01*
X171881800Y-75920600D02*
X171881800Y-69011800D01*
X158750000Y-69011800D02*
X163499800Y-69011800D01*
X158750000Y-75666600D02*
X158750000Y-69011800D01*
X167259000Y-93929200D02*
X171881800Y-93929200D01*
X171881800Y-86969600D02*
X171881800Y-93929200D01*
X158775400Y-93929200D02*
X163398200Y-93929200D01*
X158750000Y-86944200D02*
X158750000Y-93929200D01*
D12*
X159258000Y-88519000D02*
G75*
G03*
X159258000Y-88519000I-508000J0D01*
G01*
D11*
%TO.C,T2*%
X142113000Y-88468200D02*
X142113000Y-71932800D01*
X123774200Y-88468200D02*
X123748800Y-71932800D01*
X139496800Y-71932800D02*
X142113000Y-71932800D01*
X123748800Y-71932800D02*
X126365000Y-71932800D01*
X139496800Y-88468200D02*
X142113000Y-88468200D01*
X123774200Y-88468200D02*
X126365000Y-88468200D01*
X139496800Y-67741800D02*
X134899400Y-67741800D01*
X139496800Y-74650600D02*
X139496800Y-67741800D01*
X126365000Y-67741800D02*
X131114800Y-67741800D01*
X126365000Y-74396600D02*
X126365000Y-67741800D01*
X134874000Y-92659200D02*
X139496800Y-92659200D01*
X139496800Y-85699600D02*
X139496800Y-92659200D01*
X126390400Y-92659200D02*
X131013200Y-92659200D01*
X126365000Y-85674200D02*
X126365000Y-92659200D01*
D12*
X126873000Y-87249000D02*
G75*
G03*
X126873000Y-87249000I-508000J0D01*
G01*
D11*
%TO.C,T3*%
X174498000Y-61163200D02*
X174498000Y-44627800D01*
X156159200Y-61163200D02*
X156133800Y-44627800D01*
X171881800Y-44627800D02*
X174498000Y-44627800D01*
X156133800Y-44627800D02*
X158750000Y-44627800D01*
X171881800Y-61163200D02*
X174498000Y-61163200D01*
X156159200Y-61163200D02*
X158750000Y-61163200D01*
X171881800Y-40436800D02*
X167284400Y-40436800D01*
X171881800Y-47345600D02*
X171881800Y-40436800D01*
X158750000Y-40436800D02*
X163499800Y-40436800D01*
X158750000Y-47091600D02*
X158750000Y-40436800D01*
X167259000Y-65354200D02*
X171881800Y-65354200D01*
X171881800Y-58394600D02*
X171881800Y-65354200D01*
X158775400Y-65354200D02*
X163398200Y-65354200D01*
X158750000Y-58369200D02*
X158750000Y-65354200D01*
D12*
X159258000Y-59944000D02*
G75*
G03*
X159258000Y-59944000I-508000J0D01*
G01*
D11*
%TO.C,T4*%
X142113000Y-55448200D02*
X142113000Y-38912800D01*
X123774200Y-55448200D02*
X123748800Y-38912800D01*
X139496800Y-38912800D02*
X142113000Y-38912800D01*
X123748800Y-38912800D02*
X126365000Y-38912800D01*
X139496800Y-55448200D02*
X142113000Y-55448200D01*
X123774200Y-55448200D02*
X126365000Y-55448200D01*
X139496800Y-34721800D02*
X134899400Y-34721800D01*
X139496800Y-41630600D02*
X139496800Y-34721800D01*
X126365000Y-34721800D02*
X131114800Y-34721800D01*
X126365000Y-41376600D02*
X126365000Y-34721800D01*
X134874000Y-59639200D02*
X139496800Y-59639200D01*
X139496800Y-52679600D02*
X139496800Y-59639200D01*
X126390400Y-59639200D02*
X131013200Y-59639200D01*
X126365000Y-52654200D02*
X126365000Y-59639200D01*
D12*
X126873000Y-54229000D02*
G75*
G03*
X126873000Y-54229000I-508000J0D01*
G01*
D13*
%TO.C,U5*%
X66675000Y-85090000D02*
X66675000Y-67310000D01*
X99695000Y-85090000D02*
X66675000Y-85090000D01*
X99695000Y-67310000D02*
X99695000Y-85090000D01*
X66675000Y-67310000D02*
X99695000Y-67310000D01*
D14*
%TO.C,R4*%
X154770000Y-79375000D02*
G75*
G03*
X154770000Y-79375000I-2370000J0D01*
G01*
X152400000Y-77005000D02*
X152400000Y-73255000D01*
%TO.C,R5*%
X121750000Y-81915000D02*
G75*
G03*
X121750000Y-81915000I-2370000J0D01*
G01*
X119380000Y-79545000D02*
X119380000Y-75795000D01*
%TO.C,R8*%
X154679000Y-51435000D02*
G75*
G03*
X154679000Y-51435000I-2370000J0D01*
G01*
X152309000Y-49065000D02*
X152309000Y-45315000D01*
%TO.C,R9*%
X121115000Y-46990000D02*
G75*
G03*
X121115000Y-46990000I-2370000J0D01*
G01*
X118745000Y-44620000D02*
X118745000Y-40870000D01*
%TO.C,C1*%
X44105000Y-98955000D02*
X44350000Y-98955000D01*
X42010000Y-98955000D02*
X42255000Y-98955000D01*
X44105000Y-95315000D02*
X44350000Y-95315000D01*
X42010000Y-95315000D02*
X42255000Y-95315000D01*
X44350000Y-95315000D02*
X44350000Y-98955000D01*
X42010000Y-95315000D02*
X42010000Y-98955000D01*
%TO.C,C2*%
X61700000Y-88555000D02*
X61700000Y-88800000D01*
X61700000Y-86460000D02*
X61700000Y-86705000D01*
X65340000Y-88555000D02*
X65340000Y-88800000D01*
X65340000Y-86460000D02*
X65340000Y-86705000D01*
X65340000Y-88800000D02*
X61700000Y-88800000D01*
X65340000Y-86460000D02*
X61700000Y-86460000D01*
%TO.C,C3*%
X98525000Y-43245000D02*
X98525000Y-46885000D01*
X100865000Y-43245000D02*
X100865000Y-46885000D01*
X98525000Y-43245000D02*
X98770000Y-43245000D01*
X100620000Y-43245000D02*
X100865000Y-43245000D01*
X98525000Y-46885000D02*
X98770000Y-46885000D01*
X100620000Y-46885000D02*
X100865000Y-46885000D01*
%TO.C,C4*%
X76545000Y-45825000D02*
X76300000Y-45825000D01*
X78640000Y-45825000D02*
X78395000Y-45825000D01*
X76545000Y-49465000D02*
X76300000Y-49465000D01*
X78640000Y-49465000D02*
X78395000Y-49465000D01*
X76300000Y-49465000D02*
X76300000Y-45825000D01*
X78640000Y-49465000D02*
X78640000Y-45825000D01*
%TO.C,C5*%
X57850000Y-54510000D02*
X61490000Y-54510000D01*
X57850000Y-52170000D02*
X61490000Y-52170000D01*
X57850000Y-54510000D02*
X57850000Y-54265000D01*
X57850000Y-52415000D02*
X57850000Y-52170000D01*
X61490000Y-54510000D02*
X61490000Y-54265000D01*
X61490000Y-52415000D02*
X61490000Y-52170000D01*
%TO.C,C6*%
X67205000Y-52415000D02*
X67205000Y-52170000D01*
X67205000Y-54510000D02*
X67205000Y-54265000D01*
X63565000Y-52415000D02*
X63565000Y-52170000D01*
X63565000Y-54510000D02*
X63565000Y-54265000D01*
X63565000Y-52170000D02*
X67205000Y-52170000D01*
X63565000Y-54510000D02*
X67205000Y-54510000D01*
%TO.C,C7*%
X141540000Y-94080000D02*
X137900000Y-94080000D01*
X141540000Y-96420000D02*
X137900000Y-96420000D01*
X141540000Y-94080000D02*
X141540000Y-94325000D01*
X141540000Y-96175000D02*
X141540000Y-96420000D01*
X137900000Y-94080000D02*
X137900000Y-94325000D01*
X137900000Y-96175000D02*
X137900000Y-96420000D01*
%TO.C,C8*%
X110390000Y-88835000D02*
X110390000Y-85195000D01*
X108050000Y-88835000D02*
X108050000Y-85195000D01*
X110390000Y-88835000D02*
X110145000Y-88835000D01*
X108295000Y-88835000D02*
X108050000Y-88835000D01*
X110390000Y-85195000D02*
X110145000Y-85195000D01*
X108295000Y-85195000D02*
X108050000Y-85195000D01*
%TO.C,C9*%
X149120000Y-35270000D02*
X149120000Y-35025000D01*
X149120000Y-37365000D02*
X149120000Y-37120000D01*
X145480000Y-35270000D02*
X145480000Y-35025000D01*
X145480000Y-37365000D02*
X145480000Y-37120000D01*
X145480000Y-35025000D02*
X149120000Y-35025000D01*
X145480000Y-37365000D02*
X149120000Y-37365000D01*
%TO.C,C10*%
X107660000Y-49000000D02*
X107415000Y-49000000D01*
X109755000Y-49000000D02*
X109510000Y-49000000D01*
X107660000Y-52640000D02*
X107415000Y-52640000D01*
X109755000Y-52640000D02*
X109510000Y-52640000D01*
X107415000Y-52640000D02*
X107415000Y-49000000D01*
X109755000Y-52640000D02*
X109755000Y-49000000D01*
%TO.C,C11*%
X60425000Y-92775000D02*
X60425000Y-96415000D01*
X62765000Y-92775000D02*
X62765000Y-96415000D01*
X60425000Y-92775000D02*
X60670000Y-92775000D01*
X62520000Y-92775000D02*
X62765000Y-92775000D01*
X60425000Y-96415000D02*
X60670000Y-96415000D01*
X62520000Y-96415000D02*
X62765000Y-96415000D01*
%TO.C,D1*%
X144743000Y-73067000D02*
X147683000Y-73067000D01*
X147683000Y-73067000D02*
X147683000Y-78507000D01*
X147683000Y-78507000D02*
X144743000Y-78507000D01*
X144743000Y-78507000D02*
X144743000Y-73067000D01*
X146213000Y-72047000D02*
X146213000Y-73067000D01*
X146213000Y-79527000D02*
X146213000Y-78507000D01*
X144743000Y-73967000D02*
X147683000Y-73967000D01*
X144743000Y-74087000D02*
X147683000Y-74087000D01*
X144743000Y-73847000D02*
X147683000Y-73847000D01*
%TO.C,D2*%
X112104000Y-77530000D02*
X115044000Y-77530000D01*
X112104000Y-77770000D02*
X115044000Y-77770000D01*
X112104000Y-77650000D02*
X115044000Y-77650000D01*
X113574000Y-83210000D02*
X113574000Y-82190000D01*
X113574000Y-75730000D02*
X113574000Y-76750000D01*
X112104000Y-82190000D02*
X112104000Y-76750000D01*
X115044000Y-82190000D02*
X112104000Y-82190000D01*
X115044000Y-76750000D02*
X115044000Y-82190000D01*
X112104000Y-76750000D02*
X115044000Y-76750000D01*
%TO.C,D3*%
X144743000Y-45000000D02*
X147683000Y-45000000D01*
X147683000Y-45000000D02*
X147683000Y-50440000D01*
X147683000Y-50440000D02*
X144743000Y-50440000D01*
X144743000Y-50440000D02*
X144743000Y-45000000D01*
X146213000Y-43980000D02*
X146213000Y-45000000D01*
X146213000Y-51460000D02*
X146213000Y-50440000D01*
X144743000Y-45900000D02*
X147683000Y-45900000D01*
X144743000Y-46020000D02*
X147683000Y-46020000D01*
X144743000Y-45780000D02*
X147683000Y-45780000D01*
%TO.C,D4*%
X111560000Y-39110000D02*
X114500000Y-39110000D01*
X111560000Y-39350000D02*
X114500000Y-39350000D01*
X111560000Y-39230000D02*
X114500000Y-39230000D01*
X113030000Y-44790000D02*
X113030000Y-43770000D01*
X113030000Y-37310000D02*
X113030000Y-38330000D01*
X111560000Y-43770000D02*
X111560000Y-38330000D01*
X114500000Y-43770000D02*
X111560000Y-43770000D01*
X114500000Y-38330000D02*
X114500000Y-43770000D01*
X111560000Y-38330000D02*
X114500000Y-38330000D01*
%TO.C,J1*%
X46930000Y-87120000D02*
X49780000Y-87120000D01*
X46930000Y-89970000D02*
X46930000Y-87120000D01*
X58390000Y-91980000D02*
X58390000Y-90170000D01*
X56990000Y-91980000D02*
X58390000Y-91980000D01*
X56990000Y-92980000D02*
X56990000Y-91980000D01*
X47170000Y-92980000D02*
X56990000Y-92980000D01*
X47170000Y-90170000D02*
X47170000Y-92980000D01*
X58390000Y-88360000D02*
X58390000Y-90170000D01*
X56990000Y-88360000D02*
X58390000Y-88360000D01*
X56990000Y-87360000D02*
X56990000Y-88360000D01*
X47170000Y-87360000D02*
X56990000Y-87360000D01*
X47170000Y-90170000D02*
X47170000Y-87360000D01*
%TO.C,J2*%
X152460000Y-101660000D02*
X152460000Y-100330000D01*
X151130000Y-101660000D02*
X152460000Y-101660000D01*
X149860000Y-101660000D02*
X149860000Y-99000000D01*
X149860000Y-99000000D02*
X147260000Y-99000000D01*
X149860000Y-101660000D02*
X147260000Y-101660000D01*
X147260000Y-101660000D02*
X147260000Y-99000000D01*
%TO.C,J3*%
X129600000Y-101660000D02*
X129600000Y-100330000D01*
X128270000Y-101660000D02*
X129600000Y-101660000D01*
X127000000Y-101660000D02*
X127000000Y-99000000D01*
X127000000Y-99000000D02*
X124400000Y-99000000D01*
X127000000Y-101660000D02*
X124400000Y-101660000D01*
X124400000Y-101660000D02*
X124400000Y-99000000D01*
%TO.C,J4*%
X139640000Y-101660000D02*
X139640000Y-99000000D01*
X142240000Y-101660000D02*
X139640000Y-101660000D01*
X142240000Y-99000000D02*
X139640000Y-99000000D01*
X142240000Y-101660000D02*
X142240000Y-99000000D01*
X143510000Y-101660000D02*
X144840000Y-101660000D01*
X144840000Y-101660000D02*
X144840000Y-100330000D01*
%TO.C,J5*%
X132020000Y-101660000D02*
X132020000Y-99000000D01*
X134620000Y-101660000D02*
X132020000Y-101660000D01*
X134620000Y-99000000D02*
X132020000Y-99000000D01*
X134620000Y-101660000D02*
X134620000Y-99000000D01*
X135890000Y-101660000D02*
X137220000Y-101660000D01*
X137220000Y-101660000D02*
X137220000Y-100330000D01*
%TO.C,Q1*%
X154400000Y-95290000D02*
X154400000Y-85050000D01*
X149759000Y-95290000D02*
X149759000Y-85050000D01*
X154400000Y-95290000D02*
X149759000Y-95290000D01*
X154400000Y-85050000D02*
X149759000Y-85050000D01*
X152890000Y-95290000D02*
X152890000Y-85050000D01*
X154400000Y-92020000D02*
X152890000Y-92020000D01*
X154400000Y-88319000D02*
X152890000Y-88319000D01*
%TO.C,Q2*%
X121380000Y-92129000D02*
X119870000Y-92129000D01*
X121380000Y-95830000D02*
X119870000Y-95830000D01*
X119870000Y-99100000D02*
X119870000Y-88860000D01*
X121380000Y-88860000D02*
X116739000Y-88860000D01*
X121380000Y-99100000D02*
X116739000Y-99100000D01*
X116739000Y-99100000D02*
X116739000Y-88860000D01*
X121380000Y-99100000D02*
X121380000Y-88860000D01*
%TO.C,Q3*%
X154400000Y-66715000D02*
X154400000Y-56475000D01*
X149759000Y-66715000D02*
X149759000Y-56475000D01*
X154400000Y-66715000D02*
X149759000Y-66715000D01*
X154400000Y-56475000D02*
X149759000Y-56475000D01*
X152890000Y-66715000D02*
X152890000Y-56475000D01*
X154400000Y-63445000D02*
X152890000Y-63445000D01*
X154400000Y-59744000D02*
X152890000Y-59744000D01*
%TO.C,Q4*%
X120745000Y-54664000D02*
X119235000Y-54664000D01*
X120745000Y-58365000D02*
X119235000Y-58365000D01*
X119235000Y-61635000D02*
X119235000Y-51395000D01*
X120745000Y-51395000D02*
X116104000Y-51395000D01*
X120745000Y-61635000D02*
X116104000Y-61635000D01*
X116104000Y-61635000D02*
X116104000Y-51395000D01*
X120745000Y-61635000D02*
X120745000Y-51395000D01*
%TO.C,R1*%
X94615000Y-49760000D02*
X94615000Y-48990000D01*
X94615000Y-41680000D02*
X94615000Y-42450000D01*
X93245000Y-48990000D02*
X93245000Y-42450000D01*
X95985000Y-48990000D02*
X93245000Y-48990000D01*
X95985000Y-42450000D02*
X95985000Y-48990000D01*
X93245000Y-42450000D02*
X95985000Y-42450000D01*
%TO.C,R2*%
X146213000Y-93543000D02*
X146213000Y-92773000D01*
X146213000Y-85463000D02*
X146213000Y-86233000D01*
X144843000Y-92773000D02*
X144843000Y-86233000D01*
X147583000Y-92773000D02*
X144843000Y-92773000D01*
X147583000Y-86233000D02*
X147583000Y-92773000D01*
X144843000Y-86233000D02*
X147583000Y-86233000D01*
%TO.C,R3*%
X112204000Y-89916000D02*
X114944000Y-89916000D01*
X114944000Y-89916000D02*
X114944000Y-96456000D01*
X114944000Y-96456000D02*
X112204000Y-96456000D01*
X112204000Y-96456000D02*
X112204000Y-89916000D01*
X113574000Y-89146000D02*
X113574000Y-89916000D01*
X113574000Y-97226000D02*
X113574000Y-96456000D01*
%TO.C,R6*%
X146213000Y-65476000D02*
X146213000Y-64706000D01*
X146213000Y-57396000D02*
X146213000Y-58166000D01*
X144843000Y-64706000D02*
X144843000Y-58166000D01*
X147583000Y-64706000D02*
X144843000Y-64706000D01*
X147583000Y-58166000D02*
X147583000Y-64706000D01*
X144843000Y-58166000D02*
X147583000Y-58166000D01*
%TO.C,R7*%
X113230000Y-59090000D02*
X113230000Y-58320000D01*
X113230000Y-51010000D02*
X113230000Y-51780000D01*
X111860000Y-58320000D02*
X111860000Y-51780000D01*
X114600000Y-58320000D02*
X111860000Y-58320000D01*
X114600000Y-51780000D02*
X114600000Y-58320000D01*
X111860000Y-51780000D02*
X114600000Y-51780000D01*
%TO.C,R10*%
X82010000Y-98325000D02*
X82010000Y-101065000D01*
X82010000Y-101065000D02*
X75470000Y-101065000D01*
X75470000Y-101065000D02*
X75470000Y-98325000D01*
X75470000Y-98325000D02*
X82010000Y-98325000D01*
X82780000Y-99695000D02*
X82010000Y-99695000D01*
X74700000Y-99695000D02*
X75470000Y-99695000D01*
%TO.C,R11*%
X74700000Y-93980000D02*
X75470000Y-93980000D01*
X82780000Y-93980000D02*
X82010000Y-93980000D01*
X75470000Y-92610000D02*
X82010000Y-92610000D01*
X75470000Y-95350000D02*
X75470000Y-92610000D01*
X82010000Y-95350000D02*
X75470000Y-95350000D01*
X82010000Y-92610000D02*
X82010000Y-95350000D01*
%TO.C,R12*%
X102770000Y-43085000D02*
X105510000Y-43085000D01*
X105510000Y-43085000D02*
X105510000Y-49625000D01*
X105510000Y-49625000D02*
X102770000Y-49625000D01*
X102770000Y-49625000D02*
X102770000Y-43085000D01*
X104140000Y-42315000D02*
X104140000Y-43085000D01*
X104140000Y-50395000D02*
X104140000Y-49625000D01*
%TO.C,R13*%
X105510000Y-98520000D02*
X102770000Y-98520000D01*
X102770000Y-98520000D02*
X102770000Y-91980000D01*
X102770000Y-91980000D02*
X105510000Y-91980000D01*
X105510000Y-91980000D02*
X105510000Y-98520000D01*
X104140000Y-99290000D02*
X104140000Y-98520000D01*
X104140000Y-91210000D02*
X104140000Y-91980000D01*
%TO.C,R14*%
X101700000Y-98520000D02*
X98960000Y-98520000D01*
X98960000Y-98520000D02*
X98960000Y-91980000D01*
X98960000Y-91980000D02*
X101700000Y-91980000D01*
X101700000Y-91980000D02*
X101700000Y-98520000D01*
X100330000Y-99290000D02*
X100330000Y-98520000D01*
X100330000Y-91210000D02*
X100330000Y-91980000D01*
%TO.C,R15*%
X88900000Y-91210000D02*
X88900000Y-91980000D01*
X88900000Y-99290000D02*
X88900000Y-98520000D01*
X90270000Y-91980000D02*
X90270000Y-98520000D01*
X87530000Y-91980000D02*
X90270000Y-91980000D01*
X87530000Y-98520000D02*
X87530000Y-91980000D01*
X90270000Y-98520000D02*
X87530000Y-98520000D01*
%TO.C,R16*%
X97890000Y-98520000D02*
X95150000Y-98520000D01*
X95150000Y-98520000D02*
X95150000Y-91980000D01*
X95150000Y-91980000D02*
X97890000Y-91980000D01*
X97890000Y-91980000D02*
X97890000Y-98520000D01*
X96520000Y-99290000D02*
X96520000Y-98520000D01*
X96520000Y-91210000D02*
X96520000Y-91980000D01*
%TO.C,R17*%
X92710000Y-91210000D02*
X92710000Y-91980000D01*
X92710000Y-99290000D02*
X92710000Y-98520000D01*
X94080000Y-91980000D02*
X94080000Y-98520000D01*
X91340000Y-91980000D02*
X94080000Y-91980000D01*
X91340000Y-98520000D02*
X91340000Y-91980000D01*
X94080000Y-98520000D02*
X91340000Y-98520000D01*
%TO.C,RV1*%
X102690000Y-30565000D02*
X102690000Y-31324000D01*
X101680000Y-32084000D02*
X103700000Y-32084000D01*
X101680000Y-30565000D02*
X103700000Y-30565000D01*
X103700000Y-30565000D02*
X103700000Y-32084000D01*
X101680000Y-30565000D02*
X101680000Y-32084000D01*
X101300000Y-39035000D02*
X108250000Y-39035000D01*
X105271000Y-32085000D02*
X108250000Y-32085000D01*
X101300000Y-32085000D02*
X104280000Y-32085000D01*
X108250000Y-36210000D02*
X108250000Y-39035000D01*
X108250000Y-32085000D02*
X108250000Y-34911000D01*
X101300000Y-36210000D02*
X101300000Y-39035000D01*
X101300000Y-32085000D02*
X101300000Y-34911000D01*
%TO.C,U2*%
X54556000Y-99790000D02*
X54556000Y-98280000D01*
X50855000Y-99790000D02*
X50855000Y-98280000D01*
X47585000Y-98280000D02*
X57825000Y-98280000D01*
X57825000Y-99790000D02*
X57825000Y-95149000D01*
X47585000Y-99790000D02*
X47585000Y-95149000D01*
X47585000Y-95149000D02*
X57825000Y-95149000D01*
X47585000Y-99790000D02*
X57825000Y-99790000D01*
%TO.C,U4*%
X49410000Y-49700000D02*
X49410000Y-39200000D01*
X69970000Y-49700000D02*
X49410000Y-49700000D01*
X69970000Y-39200000D02*
X69970000Y-49700000D01*
X49410000Y-39200000D02*
X69970000Y-39200000D01*
X49470000Y-46700000D02*
X49470000Y-45450000D01*
X69910000Y-46700000D02*
X49470000Y-46700000D01*
X69910000Y-42200000D02*
X69910000Y-46700000D01*
X49470000Y-42200000D02*
X69910000Y-42200000D01*
X49470000Y-43450000D02*
X49470000Y-42200000D01*
X49470000Y-45450000D02*
G75*
G03*
X49470000Y-43450000I0J1000000D01*
G01*
%TO.C,U3*%
X80140000Y-49951000D02*
X80140000Y-39451000D01*
X90540000Y-49951000D02*
X80140000Y-49951000D01*
X90540000Y-39451000D02*
X90540000Y-49951000D01*
X80140000Y-39451000D02*
X90540000Y-39451000D01*
X80200000Y-46951000D02*
X80200000Y-45701000D01*
X90480000Y-46951000D02*
X80200000Y-46951000D01*
X90480000Y-42451000D02*
X90480000Y-46951000D01*
X80200000Y-42451000D02*
X90480000Y-42451000D01*
X80200000Y-43701000D02*
X80200000Y-42451000D01*
X80200000Y-45701000D02*
G75*
G03*
X80200000Y-43701000I0J1000000D01*
G01*
D11*
%TO.C,U1*%
X60960000Y-83820000D02*
X33020000Y-83820000D01*
X33020000Y-83820000D02*
X33020000Y-68580000D01*
X33020000Y-68580000D02*
X60960000Y-68580000D01*
X60960000Y-68580000D02*
X60960000Y-83820000D01*
X31750000Y-80010000D02*
X35560000Y-80010000D01*
X35560000Y-80010000D02*
X35560000Y-72390000D01*
X35560000Y-72390000D02*
X31750000Y-72390000D01*
X31750000Y-72390000D02*
X31750000Y-80010000D01*
D14*
%TO.C,J7*%
X104775000Y-70425000D02*
X103445000Y-70425000D01*
X103445000Y-70425000D02*
X103445000Y-71755000D01*
X106045000Y-70425000D02*
X106045000Y-73025000D01*
X106045000Y-73025000D02*
X103445000Y-73025000D01*
X103445000Y-73025000D02*
X103445000Y-78165000D01*
X108645000Y-78165000D02*
X103445000Y-78165000D01*
X108645000Y-70425000D02*
X108645000Y-78165000D01*
X108645000Y-70425000D02*
X106045000Y-70425000D01*
%TO.C,C12*%
X130070000Y-61940000D02*
X130070000Y-61695000D01*
X130070000Y-64035000D02*
X130070000Y-63790000D01*
X126430000Y-61940000D02*
X126430000Y-61695000D01*
X126430000Y-64035000D02*
X126430000Y-63790000D01*
X126430000Y-61695000D02*
X130070000Y-61695000D01*
X126430000Y-64035000D02*
X130070000Y-64035000D01*
%TO.C,C13*%
X125795000Y-96420000D02*
X129435000Y-96420000D01*
X125795000Y-94080000D02*
X129435000Y-94080000D01*
X125795000Y-96420000D02*
X125795000Y-96175000D01*
X125795000Y-94325000D02*
X125795000Y-94080000D01*
X129435000Y-96420000D02*
X129435000Y-96175000D01*
X129435000Y-94325000D02*
X129435000Y-94080000D01*
%TO.C,C14*%
X157545000Y-68480000D02*
X161185000Y-68480000D01*
X157545000Y-66140000D02*
X161185000Y-66140000D01*
X157545000Y-68480000D02*
X157545000Y-68235000D01*
X157545000Y-66385000D02*
X157545000Y-66140000D01*
X161185000Y-68480000D02*
X161185000Y-68235000D01*
X161185000Y-66385000D02*
X161185000Y-66140000D01*
%TO.C,C15*%
X155865000Y-100225000D02*
X156110000Y-100225000D01*
X153770000Y-100225000D02*
X154015000Y-100225000D01*
X155865000Y-96585000D02*
X156110000Y-96585000D01*
X153770000Y-96585000D02*
X154015000Y-96585000D01*
X156110000Y-96585000D02*
X156110000Y-100225000D01*
X153770000Y-96585000D02*
X153770000Y-100225000D01*
%TO.C,T1*%
D10*
X158006142Y-70285428D02*
X157135285Y-70285428D01*
X157570714Y-71809428D02*
X157570714Y-70285428D01*
X155829000Y-71809428D02*
X156699857Y-71809428D01*
X156264428Y-71809428D02*
X156264428Y-70285428D01*
X156409571Y-70503142D01*
X156554714Y-70648285D01*
X156699857Y-70720857D01*
%TO.C,T2*%
X125938642Y-69650428D02*
X125067785Y-69650428D01*
X125503214Y-71174428D02*
X125503214Y-69650428D01*
X124632357Y-69795571D02*
X124559785Y-69723000D01*
X124414642Y-69650428D01*
X124051785Y-69650428D01*
X123906642Y-69723000D01*
X123834071Y-69795571D01*
X123761500Y-69940714D01*
X123761500Y-70085857D01*
X123834071Y-70303571D01*
X124704928Y-71174428D01*
X123761500Y-71174428D01*
%TO.C,T3*%
X158006142Y-41710428D02*
X157135285Y-41710428D01*
X157570714Y-43234428D02*
X157570714Y-41710428D01*
X156772428Y-41710428D02*
X155829000Y-41710428D01*
X156337000Y-42291000D01*
X156119285Y-42291000D01*
X155974142Y-42363571D01*
X155901571Y-42436142D01*
X155829000Y-42581285D01*
X155829000Y-42944142D01*
X155901571Y-43089285D01*
X155974142Y-43161857D01*
X156119285Y-43234428D01*
X156554714Y-43234428D01*
X156699857Y-43161857D01*
X156772428Y-43089285D01*
%TO.C,T4*%
X125621142Y-35995428D02*
X124750285Y-35995428D01*
X125185714Y-37519428D02*
X125185714Y-35995428D01*
X123589142Y-36503428D02*
X123589142Y-37519428D01*
X123952000Y-35922857D02*
X124314857Y-37011428D01*
X123371428Y-37011428D01*
%TO.C,U5*%
X66248642Y-68697928D02*
X66248642Y-69931642D01*
X66176071Y-70076785D01*
X66103500Y-70149357D01*
X65958357Y-70221928D01*
X65668071Y-70221928D01*
X65522928Y-70149357D01*
X65450357Y-70076785D01*
X65377785Y-69931642D01*
X65377785Y-68697928D01*
X63926357Y-68697928D02*
X64652071Y-68697928D01*
X64724642Y-69423642D01*
X64652071Y-69351071D01*
X64506928Y-69278500D01*
X64144071Y-69278500D01*
X63998928Y-69351071D01*
X63926357Y-69423642D01*
X63853785Y-69568785D01*
X63853785Y-69931642D01*
X63926357Y-70076785D01*
X63998928Y-70149357D01*
X64144071Y-70221928D01*
X64506928Y-70221928D01*
X64652071Y-70149357D01*
X64724642Y-70076785D01*
%TO.C,R4*%
X152817000Y-83905928D02*
X153325000Y-83180214D01*
X153687857Y-83905928D02*
X153687857Y-82381928D01*
X153107285Y-82381928D01*
X152962142Y-82454500D01*
X152889571Y-82527071D01*
X152817000Y-82672214D01*
X152817000Y-82889928D01*
X152889571Y-83035071D01*
X152962142Y-83107642D01*
X153107285Y-83180214D01*
X153687857Y-83180214D01*
X151510714Y-82889928D02*
X151510714Y-83905928D01*
X151873571Y-82309357D02*
X152236428Y-83397928D01*
X151293000Y-83397928D01*
%TO.C,R5*%
X119316500Y-72126928D02*
X119824500Y-71401214D01*
X120187357Y-72126928D02*
X120187357Y-70602928D01*
X119606785Y-70602928D01*
X119461642Y-70675500D01*
X119389071Y-70748071D01*
X119316500Y-70893214D01*
X119316500Y-71110928D01*
X119389071Y-71256071D01*
X119461642Y-71328642D01*
X119606785Y-71401214D01*
X120187357Y-71401214D01*
X117937642Y-70602928D02*
X118663357Y-70602928D01*
X118735928Y-71328642D01*
X118663357Y-71256071D01*
X118518214Y-71183500D01*
X118155357Y-71183500D01*
X118010214Y-71256071D01*
X117937642Y-71328642D01*
X117865071Y-71473785D01*
X117865071Y-71836642D01*
X117937642Y-71981785D01*
X118010214Y-72054357D01*
X118155357Y-72126928D01*
X118518214Y-72126928D01*
X118663357Y-72054357D01*
X118735928Y-71981785D01*
%TO.C,R8*%
X152654000Y-41011928D02*
X153162000Y-40286214D01*
X153524857Y-41011928D02*
X153524857Y-39487928D01*
X152944285Y-39487928D01*
X152799142Y-39560500D01*
X152726571Y-39633071D01*
X152654000Y-39778214D01*
X152654000Y-39995928D01*
X152726571Y-40141071D01*
X152799142Y-40213642D01*
X152944285Y-40286214D01*
X153524857Y-40286214D01*
X151783142Y-40141071D02*
X151928285Y-40068500D01*
X152000857Y-39995928D01*
X152073428Y-39850785D01*
X152073428Y-39778214D01*
X152000857Y-39633071D01*
X151928285Y-39560500D01*
X151783142Y-39487928D01*
X151492857Y-39487928D01*
X151347714Y-39560500D01*
X151275142Y-39633071D01*
X151202571Y-39778214D01*
X151202571Y-39850785D01*
X151275142Y-39995928D01*
X151347714Y-40068500D01*
X151492857Y-40141071D01*
X151783142Y-40141071D01*
X151928285Y-40213642D01*
X152000857Y-40286214D01*
X152073428Y-40431357D01*
X152073428Y-40721642D01*
X152000857Y-40866785D01*
X151928285Y-40939357D01*
X151783142Y-41011928D01*
X151492857Y-41011928D01*
X151347714Y-40939357D01*
X151275142Y-40866785D01*
X151202571Y-40721642D01*
X151202571Y-40431357D01*
X151275142Y-40286214D01*
X151347714Y-40213642D01*
X151492857Y-40141071D01*
%TO.C,R9*%
X118681500Y-36566928D02*
X119189500Y-35841214D01*
X119552357Y-36566928D02*
X119552357Y-35042928D01*
X118971785Y-35042928D01*
X118826642Y-35115500D01*
X118754071Y-35188071D01*
X118681500Y-35333214D01*
X118681500Y-35550928D01*
X118754071Y-35696071D01*
X118826642Y-35768642D01*
X118971785Y-35841214D01*
X119552357Y-35841214D01*
X117955785Y-36566928D02*
X117665500Y-36566928D01*
X117520357Y-36494357D01*
X117447785Y-36421785D01*
X117302642Y-36204071D01*
X117230071Y-35913785D01*
X117230071Y-35333214D01*
X117302642Y-35188071D01*
X117375214Y-35115500D01*
X117520357Y-35042928D01*
X117810642Y-35042928D01*
X117955785Y-35115500D01*
X118028357Y-35188071D01*
X118100928Y-35333214D01*
X118100928Y-35696071D01*
X118028357Y-35841214D01*
X117955785Y-35913785D01*
X117810642Y-35986357D01*
X117520357Y-35986357D01*
X117375214Y-35913785D01*
X117302642Y-35841214D01*
X117230071Y-35696071D01*
%TO.C,C1*%
X43434000Y-93889285D02*
X43506571Y-93961857D01*
X43724285Y-94034428D01*
X43869428Y-94034428D01*
X44087142Y-93961857D01*
X44232285Y-93816714D01*
X44304857Y-93671571D01*
X44377428Y-93381285D01*
X44377428Y-93163571D01*
X44304857Y-92873285D01*
X44232285Y-92728142D01*
X44087142Y-92583000D01*
X43869428Y-92510428D01*
X43724285Y-92510428D01*
X43506571Y-92583000D01*
X43434000Y-92655571D01*
X41982571Y-94034428D02*
X42853428Y-94034428D01*
X42418000Y-94034428D02*
X42418000Y-92510428D01*
X42563142Y-92728142D01*
X42708285Y-92873285D01*
X42853428Y-92945857D01*
%TO.C,C2*%
X67881500Y-90079285D02*
X67954071Y-90151857D01*
X68171785Y-90224428D01*
X68316928Y-90224428D01*
X68534642Y-90151857D01*
X68679785Y-90006714D01*
X68752357Y-89861571D01*
X68824928Y-89571285D01*
X68824928Y-89353571D01*
X68752357Y-89063285D01*
X68679785Y-88918142D01*
X68534642Y-88773000D01*
X68316928Y-88700428D01*
X68171785Y-88700428D01*
X67954071Y-88773000D01*
X67881500Y-88845571D01*
X67300928Y-88845571D02*
X67228357Y-88773000D01*
X67083214Y-88700428D01*
X66720357Y-88700428D01*
X66575214Y-88773000D01*
X66502642Y-88845571D01*
X66430071Y-88990714D01*
X66430071Y-89135857D01*
X66502642Y-89353571D01*
X67373500Y-90224428D01*
X66430071Y-90224428D01*
%TO.C,C3*%
X99314000Y-41819285D02*
X99386571Y-41891857D01*
X99604285Y-41964428D01*
X99749428Y-41964428D01*
X99967142Y-41891857D01*
X100112285Y-41746714D01*
X100184857Y-41601571D01*
X100257428Y-41311285D01*
X100257428Y-41093571D01*
X100184857Y-40803285D01*
X100112285Y-40658142D01*
X99967142Y-40513000D01*
X99749428Y-40440428D01*
X99604285Y-40440428D01*
X99386571Y-40513000D01*
X99314000Y-40585571D01*
X98806000Y-40440428D02*
X97862571Y-40440428D01*
X98370571Y-41021000D01*
X98152857Y-41021000D01*
X98007714Y-41093571D01*
X97935142Y-41166142D01*
X97862571Y-41311285D01*
X97862571Y-41674142D01*
X97935142Y-41819285D01*
X98007714Y-41891857D01*
X98152857Y-41964428D01*
X98588285Y-41964428D01*
X98733428Y-41891857D01*
X98806000Y-41819285D01*
%TO.C,C4*%
X77724000Y-43724285D02*
X77796571Y-43796857D01*
X78014285Y-43869428D01*
X78159428Y-43869428D01*
X78377142Y-43796857D01*
X78522285Y-43651714D01*
X78594857Y-43506571D01*
X78667428Y-43216285D01*
X78667428Y-42998571D01*
X78594857Y-42708285D01*
X78522285Y-42563142D01*
X78377142Y-42418000D01*
X78159428Y-42345428D01*
X78014285Y-42345428D01*
X77796571Y-42418000D01*
X77724000Y-42490571D01*
X76417714Y-42853428D02*
X76417714Y-43869428D01*
X76780571Y-42272857D02*
X77143428Y-43361428D01*
X76200000Y-43361428D01*
%TO.C,C5*%
X55816500Y-53884285D02*
X55889071Y-53956857D01*
X56106785Y-54029428D01*
X56251928Y-54029428D01*
X56469642Y-53956857D01*
X56614785Y-53811714D01*
X56687357Y-53666571D01*
X56759928Y-53376285D01*
X56759928Y-53158571D01*
X56687357Y-52868285D01*
X56614785Y-52723142D01*
X56469642Y-52578000D01*
X56251928Y-52505428D01*
X56106785Y-52505428D01*
X55889071Y-52578000D01*
X55816500Y-52650571D01*
X54437642Y-52505428D02*
X55163357Y-52505428D01*
X55235928Y-53231142D01*
X55163357Y-53158571D01*
X55018214Y-53086000D01*
X54655357Y-53086000D01*
X54510214Y-53158571D01*
X54437642Y-53231142D01*
X54365071Y-53376285D01*
X54365071Y-53739142D01*
X54437642Y-53884285D01*
X54510214Y-53956857D01*
X54655357Y-54029428D01*
X55018214Y-54029428D01*
X55163357Y-53956857D01*
X55235928Y-53884285D01*
%TO.C,C6*%
X70104000Y-53566785D02*
X70176571Y-53639357D01*
X70394285Y-53711928D01*
X70539428Y-53711928D01*
X70757142Y-53639357D01*
X70902285Y-53494214D01*
X70974857Y-53349071D01*
X71047428Y-53058785D01*
X71047428Y-52841071D01*
X70974857Y-52550785D01*
X70902285Y-52405642D01*
X70757142Y-52260500D01*
X70539428Y-52187928D01*
X70394285Y-52187928D01*
X70176571Y-52260500D01*
X70104000Y-52333071D01*
X68797714Y-52187928D02*
X69088000Y-52187928D01*
X69233142Y-52260500D01*
X69305714Y-52333071D01*
X69450857Y-52550785D01*
X69523428Y-52841071D01*
X69523428Y-53421642D01*
X69450857Y-53566785D01*
X69378285Y-53639357D01*
X69233142Y-53711928D01*
X68942857Y-53711928D01*
X68797714Y-53639357D01*
X68725142Y-53566785D01*
X68652571Y-53421642D01*
X68652571Y-53058785D01*
X68725142Y-52913642D01*
X68797714Y-52841071D01*
X68942857Y-52768500D01*
X69233142Y-52768500D01*
X69378285Y-52841071D01*
X69450857Y-52913642D01*
X69523428Y-53058785D01*
%TO.C,C7*%
X136144000Y-95476785D02*
X136216571Y-95549357D01*
X136434285Y-95621928D01*
X136579428Y-95621928D01*
X136797142Y-95549357D01*
X136942285Y-95404214D01*
X137014857Y-95259071D01*
X137087428Y-94968785D01*
X137087428Y-94751071D01*
X137014857Y-94460785D01*
X136942285Y-94315642D01*
X136797142Y-94170500D01*
X136579428Y-94097928D01*
X136434285Y-94097928D01*
X136216571Y-94170500D01*
X136144000Y-94243071D01*
X135636000Y-94097928D02*
X134620000Y-94097928D01*
X135273142Y-95621928D01*
%TO.C,C8*%
X108204000Y-84046785D02*
X108276571Y-84119357D01*
X108494285Y-84191928D01*
X108639428Y-84191928D01*
X108857142Y-84119357D01*
X109002285Y-83974214D01*
X109074857Y-83829071D01*
X109147428Y-83538785D01*
X109147428Y-83321071D01*
X109074857Y-83030785D01*
X109002285Y-82885642D01*
X108857142Y-82740500D01*
X108639428Y-82667928D01*
X108494285Y-82667928D01*
X108276571Y-82740500D01*
X108204000Y-82813071D01*
X107333142Y-83321071D02*
X107478285Y-83248500D01*
X107550857Y-83175928D01*
X107623428Y-83030785D01*
X107623428Y-82958214D01*
X107550857Y-82813071D01*
X107478285Y-82740500D01*
X107333142Y-82667928D01*
X107042857Y-82667928D01*
X106897714Y-82740500D01*
X106825142Y-82813071D01*
X106752571Y-82958214D01*
X106752571Y-83030785D01*
X106825142Y-83175928D01*
X106897714Y-83248500D01*
X107042857Y-83321071D01*
X107333142Y-83321071D01*
X107478285Y-83393642D01*
X107550857Y-83466214D01*
X107623428Y-83611357D01*
X107623428Y-83901642D01*
X107550857Y-84046785D01*
X107478285Y-84119357D01*
X107333142Y-84191928D01*
X107042857Y-84191928D01*
X106897714Y-84119357D01*
X106825142Y-84046785D01*
X106752571Y-83901642D01*
X106752571Y-83611357D01*
X106825142Y-83466214D01*
X106897714Y-83393642D01*
X107042857Y-83321071D01*
%TO.C,C9*%
X147554000Y-39039285D02*
X147626571Y-39111857D01*
X147844285Y-39184428D01*
X147989428Y-39184428D01*
X148207142Y-39111857D01*
X148352285Y-38966714D01*
X148424857Y-38821571D01*
X148497428Y-38531285D01*
X148497428Y-38313571D01*
X148424857Y-38023285D01*
X148352285Y-37878142D01*
X148207142Y-37733000D01*
X147989428Y-37660428D01*
X147844285Y-37660428D01*
X147626571Y-37733000D01*
X147554000Y-37805571D01*
X146828285Y-39184428D02*
X146538000Y-39184428D01*
X146392857Y-39111857D01*
X146320285Y-39039285D01*
X146175142Y-38821571D01*
X146102571Y-38531285D01*
X146102571Y-37950714D01*
X146175142Y-37805571D01*
X146247714Y-37733000D01*
X146392857Y-37660428D01*
X146683142Y-37660428D01*
X146828285Y-37733000D01*
X146900857Y-37805571D01*
X146973428Y-37950714D01*
X146973428Y-38313571D01*
X146900857Y-38458714D01*
X146828285Y-38531285D01*
X146683142Y-38603857D01*
X146392857Y-38603857D01*
X146247714Y-38531285D01*
X146175142Y-38458714D01*
X146102571Y-38313571D01*
%TO.C,C10*%
X109247214Y-47534285D02*
X109319785Y-47606857D01*
X109537500Y-47679428D01*
X109682642Y-47679428D01*
X109900357Y-47606857D01*
X110045500Y-47461714D01*
X110118071Y-47316571D01*
X110190642Y-47026285D01*
X110190642Y-46808571D01*
X110118071Y-46518285D01*
X110045500Y-46373142D01*
X109900357Y-46228000D01*
X109682642Y-46155428D01*
X109537500Y-46155428D01*
X109319785Y-46228000D01*
X109247214Y-46300571D01*
X107795785Y-47679428D02*
X108666642Y-47679428D01*
X108231214Y-47679428D02*
X108231214Y-46155428D01*
X108376357Y-46373142D01*
X108521500Y-46518285D01*
X108666642Y-46590857D01*
X106852357Y-46155428D02*
X106707214Y-46155428D01*
X106562071Y-46228000D01*
X106489500Y-46300571D01*
X106416928Y-46445714D01*
X106344357Y-46736000D01*
X106344357Y-47098857D01*
X106416928Y-47389142D01*
X106489500Y-47534285D01*
X106562071Y-47606857D01*
X106707214Y-47679428D01*
X106852357Y-47679428D01*
X106997500Y-47606857D01*
X107070071Y-47534285D01*
X107142642Y-47389142D01*
X107215214Y-47098857D01*
X107215214Y-46736000D01*
X107142642Y-46445714D01*
X107070071Y-46300571D01*
X106997500Y-46228000D01*
X106852357Y-46155428D01*
%TO.C,C11*%
X66384714Y-95159285D02*
X66457285Y-95231857D01*
X66675000Y-95304428D01*
X66820142Y-95304428D01*
X67037857Y-95231857D01*
X67183000Y-95086714D01*
X67255571Y-94941571D01*
X67328142Y-94651285D01*
X67328142Y-94433571D01*
X67255571Y-94143285D01*
X67183000Y-93998142D01*
X67037857Y-93853000D01*
X66820142Y-93780428D01*
X66675000Y-93780428D01*
X66457285Y-93853000D01*
X66384714Y-93925571D01*
X64933285Y-95304428D02*
X65804142Y-95304428D01*
X65368714Y-95304428D02*
X65368714Y-93780428D01*
X65513857Y-93998142D01*
X65659000Y-94143285D01*
X65804142Y-94215857D01*
X63481857Y-95304428D02*
X64352714Y-95304428D01*
X63917285Y-95304428D02*
X63917285Y-93780428D01*
X64062428Y-93998142D01*
X64207571Y-94143285D01*
X64352714Y-94215857D01*
%TO.C,D1*%
X144432428Y-74662142D02*
X142908428Y-74662142D01*
X142908428Y-75025000D01*
X142981000Y-75242714D01*
X143126142Y-75387857D01*
X143271285Y-75460428D01*
X143561571Y-75533000D01*
X143779285Y-75533000D01*
X144069571Y-75460428D01*
X144214714Y-75387857D01*
X144359857Y-75242714D01*
X144432428Y-75025000D01*
X144432428Y-74662142D01*
X144432428Y-76984428D02*
X144432428Y-76113571D01*
X144432428Y-76549000D02*
X142908428Y-76549000D01*
X143126142Y-76403857D01*
X143271285Y-76258714D01*
X143343857Y-76113571D01*
D11*
X144565380Y-70445095D02*
X143565380Y-70445095D01*
X144565380Y-71016523D02*
X143993952Y-70587952D01*
X143565380Y-71016523D02*
X144136809Y-70445095D01*
%TO.C,D2*%
D10*
X114472357Y-72444428D02*
X114472357Y-70920428D01*
X114109500Y-70920428D01*
X113891785Y-70993000D01*
X113746642Y-71138142D01*
X113674071Y-71283285D01*
X113601500Y-71573571D01*
X113601500Y-71791285D01*
X113674071Y-72081571D01*
X113746642Y-72226714D01*
X113891785Y-72371857D01*
X114109500Y-72444428D01*
X114472357Y-72444428D01*
X113020928Y-71065571D02*
X112948357Y-70993000D01*
X112803214Y-70920428D01*
X112440357Y-70920428D01*
X112295214Y-70993000D01*
X112222642Y-71065571D01*
X112150071Y-71210714D01*
X112150071Y-71355857D01*
X112222642Y-71573571D01*
X113093500Y-72444428D01*
X112150071Y-72444428D01*
D11*
X111926380Y-74128095D02*
X110926380Y-74128095D01*
X111926380Y-74699523D02*
X111354952Y-74270952D01*
X110926380Y-74699523D02*
X111497809Y-74128095D01*
%TO.C,D3*%
D10*
X144432428Y-46595142D02*
X142908428Y-46595142D01*
X142908428Y-46958000D01*
X142981000Y-47175714D01*
X143126142Y-47320857D01*
X143271285Y-47393428D01*
X143561571Y-47466000D01*
X143779285Y-47466000D01*
X144069571Y-47393428D01*
X144214714Y-47320857D01*
X144359857Y-47175714D01*
X144432428Y-46958000D01*
X144432428Y-46595142D01*
X142908428Y-47974000D02*
X142908428Y-48917428D01*
X143489000Y-48409428D01*
X143489000Y-48627142D01*
X143561571Y-48772285D01*
X143634142Y-48844857D01*
X143779285Y-48917428D01*
X144142142Y-48917428D01*
X144287285Y-48844857D01*
X144359857Y-48772285D01*
X144432428Y-48627142D01*
X144432428Y-48191714D01*
X144359857Y-48046571D01*
X144287285Y-47974000D01*
D11*
X144565380Y-42378095D02*
X143565380Y-42378095D01*
X144565380Y-42949523D02*
X143993952Y-42520952D01*
X143565380Y-42949523D02*
X144136809Y-42378095D01*
%TO.C,D4*%
D10*
X114154857Y-33391928D02*
X114154857Y-31867928D01*
X113792000Y-31867928D01*
X113574285Y-31940500D01*
X113429142Y-32085642D01*
X113356571Y-32230785D01*
X113284000Y-32521071D01*
X113284000Y-32738785D01*
X113356571Y-33029071D01*
X113429142Y-33174214D01*
X113574285Y-33319357D01*
X113792000Y-33391928D01*
X114154857Y-33391928D01*
X111977714Y-32375928D02*
X111977714Y-33391928D01*
X112340571Y-31795357D02*
X112703428Y-32883928D01*
X111760000Y-32883928D01*
D11*
X111382380Y-35708095D02*
X110382380Y-35708095D01*
X111382380Y-36279523D02*
X110810952Y-35850952D01*
X110382380Y-36279523D02*
X110953809Y-35708095D01*
%TO.C,J1*%
D10*
X44958000Y-88700428D02*
X44958000Y-89789000D01*
X45030571Y-90006714D01*
X45175714Y-90151857D01*
X45393428Y-90224428D01*
X45538571Y-90224428D01*
X43434000Y-90224428D02*
X44304857Y-90224428D01*
X43869428Y-90224428D02*
X43869428Y-88700428D01*
X44014571Y-88918142D01*
X44159714Y-89063285D01*
X44304857Y-89135857D01*
%TO.C,J2*%
X150685500Y-96637928D02*
X150685500Y-97726500D01*
X150758071Y-97944214D01*
X150903214Y-98089357D01*
X151120928Y-98161928D01*
X151266071Y-98161928D01*
X150032357Y-96783071D02*
X149959785Y-96710500D01*
X149814642Y-96637928D01*
X149451785Y-96637928D01*
X149306642Y-96710500D01*
X149234071Y-96783071D01*
X149161500Y-96928214D01*
X149161500Y-97073357D01*
X149234071Y-97291071D01*
X150104928Y-98161928D01*
X149161500Y-98161928D01*
%TO.C,J3*%
X128143000Y-96955428D02*
X128143000Y-98044000D01*
X128215571Y-98261714D01*
X128360714Y-98406857D01*
X128578428Y-98479428D01*
X128723571Y-98479428D01*
X127562428Y-96955428D02*
X126619000Y-96955428D01*
X127127000Y-97536000D01*
X126909285Y-97536000D01*
X126764142Y-97608571D01*
X126691571Y-97681142D01*
X126619000Y-97826285D01*
X126619000Y-98189142D01*
X126691571Y-98334285D01*
X126764142Y-98406857D01*
X126909285Y-98479428D01*
X127344714Y-98479428D01*
X127489857Y-98406857D01*
X127562428Y-98334285D01*
%TO.C,J4*%
X143700500Y-96637928D02*
X143700500Y-97726500D01*
X143773071Y-97944214D01*
X143918214Y-98089357D01*
X144135928Y-98161928D01*
X144281071Y-98161928D01*
X142321642Y-97145928D02*
X142321642Y-98161928D01*
X142684500Y-96565357D02*
X143047357Y-97653928D01*
X142103928Y-97653928D01*
%TO.C,J5*%
X136398000Y-96637928D02*
X136398000Y-97726500D01*
X136470571Y-97944214D01*
X136615714Y-98089357D01*
X136833428Y-98161928D01*
X136978571Y-98161928D01*
X134946571Y-96637928D02*
X135672285Y-96637928D01*
X135744857Y-97363642D01*
X135672285Y-97291071D01*
X135527142Y-97218500D01*
X135164285Y-97218500D01*
X135019142Y-97291071D01*
X134946571Y-97363642D01*
X134874000Y-97508785D01*
X134874000Y-97871642D01*
X134946571Y-98016785D01*
X135019142Y-98089357D01*
X135164285Y-98161928D01*
X135527142Y-98161928D01*
X135672285Y-98089357D01*
X135744857Y-98016785D01*
%TO.C,Q1*%
X156355142Y-94179571D02*
X156500285Y-94107000D01*
X156645428Y-93961857D01*
X156863142Y-93744142D01*
X157008285Y-93671571D01*
X157153428Y-93671571D01*
X157080857Y-94034428D02*
X157226000Y-93961857D01*
X157371142Y-93816714D01*
X157443714Y-93526428D01*
X157443714Y-93018428D01*
X157371142Y-92728142D01*
X157226000Y-92583000D01*
X157080857Y-92510428D01*
X156790571Y-92510428D01*
X156645428Y-92583000D01*
X156500285Y-92728142D01*
X156427714Y-93018428D01*
X156427714Y-93526428D01*
X156500285Y-93816714D01*
X156645428Y-93961857D01*
X156790571Y-94034428D01*
X157080857Y-94034428D01*
X154976285Y-94034428D02*
X155847142Y-94034428D01*
X155411714Y-94034428D02*
X155411714Y-92510428D01*
X155556857Y-92728142D01*
X155702000Y-92873285D01*
X155847142Y-92945857D01*
%TO.C,Q2*%
X119207642Y-88147071D02*
X119352785Y-88074500D01*
X119497928Y-87929357D01*
X119715642Y-87711642D01*
X119860785Y-87639071D01*
X120005928Y-87639071D01*
X119933357Y-88001928D02*
X120078500Y-87929357D01*
X120223642Y-87784214D01*
X120296214Y-87493928D01*
X120296214Y-86985928D01*
X120223642Y-86695642D01*
X120078500Y-86550500D01*
X119933357Y-86477928D01*
X119643071Y-86477928D01*
X119497928Y-86550500D01*
X119352785Y-86695642D01*
X119280214Y-86985928D01*
X119280214Y-87493928D01*
X119352785Y-87784214D01*
X119497928Y-87929357D01*
X119643071Y-88001928D01*
X119933357Y-88001928D01*
X118699642Y-86623071D02*
X118627071Y-86550500D01*
X118481928Y-86477928D01*
X118119071Y-86477928D01*
X117973928Y-86550500D01*
X117901357Y-86623071D01*
X117828785Y-86768214D01*
X117828785Y-86913357D01*
X117901357Y-87131071D01*
X118772214Y-88001928D01*
X117828785Y-88001928D01*
%TO.C,Q3*%
X156355142Y-64969571D02*
X156500285Y-64897000D01*
X156645428Y-64751857D01*
X156863142Y-64534142D01*
X157008285Y-64461571D01*
X157153428Y-64461571D01*
X157080857Y-64824428D02*
X157226000Y-64751857D01*
X157371142Y-64606714D01*
X157443714Y-64316428D01*
X157443714Y-63808428D01*
X157371142Y-63518142D01*
X157226000Y-63373000D01*
X157080857Y-63300428D01*
X156790571Y-63300428D01*
X156645428Y-63373000D01*
X156500285Y-63518142D01*
X156427714Y-63808428D01*
X156427714Y-64316428D01*
X156500285Y-64606714D01*
X156645428Y-64751857D01*
X156790571Y-64824428D01*
X157080857Y-64824428D01*
X155919714Y-63300428D02*
X154976285Y-63300428D01*
X155484285Y-63881000D01*
X155266571Y-63881000D01*
X155121428Y-63953571D01*
X155048857Y-64026142D01*
X154976285Y-64171285D01*
X154976285Y-64534142D01*
X155048857Y-64679285D01*
X155121428Y-64751857D01*
X155266571Y-64824428D01*
X155702000Y-64824428D01*
X155847142Y-64751857D01*
X155919714Y-64679285D01*
%TO.C,Q4*%
X122700142Y-60524571D02*
X122845285Y-60452000D01*
X122990428Y-60306857D01*
X123208142Y-60089142D01*
X123353285Y-60016571D01*
X123498428Y-60016571D01*
X123425857Y-60379428D02*
X123571000Y-60306857D01*
X123716142Y-60161714D01*
X123788714Y-59871428D01*
X123788714Y-59363428D01*
X123716142Y-59073142D01*
X123571000Y-58928000D01*
X123425857Y-58855428D01*
X123135571Y-58855428D01*
X122990428Y-58928000D01*
X122845285Y-59073142D01*
X122772714Y-59363428D01*
X122772714Y-59871428D01*
X122845285Y-60161714D01*
X122990428Y-60306857D01*
X123135571Y-60379428D01*
X123425857Y-60379428D01*
X121466428Y-59363428D02*
X121466428Y-60379428D01*
X121829285Y-58782857D02*
X122192142Y-59871428D01*
X121248714Y-59871428D01*
%TO.C,R1*%
X94551500Y-38154428D02*
X95059500Y-37428714D01*
X95422357Y-38154428D02*
X95422357Y-36630428D01*
X94841785Y-36630428D01*
X94696642Y-36703000D01*
X94624071Y-36775571D01*
X94551500Y-36920714D01*
X94551500Y-37138428D01*
X94624071Y-37283571D01*
X94696642Y-37356142D01*
X94841785Y-37428714D01*
X95422357Y-37428714D01*
X93100071Y-38154428D02*
X93970928Y-38154428D01*
X93535500Y-38154428D02*
X93535500Y-36630428D01*
X93680642Y-36848142D01*
X93825785Y-36993285D01*
X93970928Y-37065857D01*
%TO.C,R2*%
X144532428Y-89249000D02*
X143806714Y-88741000D01*
X144532428Y-88378142D02*
X143008428Y-88378142D01*
X143008428Y-88958714D01*
X143081000Y-89103857D01*
X143153571Y-89176428D01*
X143298714Y-89249000D01*
X143516428Y-89249000D01*
X143661571Y-89176428D01*
X143734142Y-89103857D01*
X143806714Y-88958714D01*
X143806714Y-88378142D01*
X143153571Y-89829571D02*
X143081000Y-89902142D01*
X143008428Y-90047285D01*
X143008428Y-90410142D01*
X143081000Y-90555285D01*
X143153571Y-90627857D01*
X143298714Y-90700428D01*
X143443857Y-90700428D01*
X143661571Y-90627857D01*
X144532428Y-89757000D01*
X144532428Y-90700428D01*
%TO.C,R3*%
X113601500Y-101336928D02*
X114109500Y-100611214D01*
X114472357Y-101336928D02*
X114472357Y-99812928D01*
X113891785Y-99812928D01*
X113746642Y-99885500D01*
X113674071Y-99958071D01*
X113601500Y-100103214D01*
X113601500Y-100320928D01*
X113674071Y-100466071D01*
X113746642Y-100538642D01*
X113891785Y-100611214D01*
X114472357Y-100611214D01*
X113093500Y-99812928D02*
X112150071Y-99812928D01*
X112658071Y-100393500D01*
X112440357Y-100393500D01*
X112295214Y-100466071D01*
X112222642Y-100538642D01*
X112150071Y-100683785D01*
X112150071Y-101046642D01*
X112222642Y-101191785D01*
X112295214Y-101264357D01*
X112440357Y-101336928D01*
X112875785Y-101336928D01*
X113020928Y-101264357D01*
X113093500Y-101191785D01*
%TO.C,R6*%
X143129000Y-61966928D02*
X143637000Y-61241214D01*
X143999857Y-61966928D02*
X143999857Y-60442928D01*
X143419285Y-60442928D01*
X143274142Y-60515500D01*
X143201571Y-60588071D01*
X143129000Y-60733214D01*
X143129000Y-60950928D01*
X143201571Y-61096071D01*
X143274142Y-61168642D01*
X143419285Y-61241214D01*
X143999857Y-61241214D01*
X141822714Y-60442928D02*
X142113000Y-60442928D01*
X142258142Y-60515500D01*
X142330714Y-60588071D01*
X142475857Y-60805785D01*
X142548428Y-61096071D01*
X142548428Y-61676642D01*
X142475857Y-61821785D01*
X142403285Y-61894357D01*
X142258142Y-61966928D01*
X141967857Y-61966928D01*
X141822714Y-61894357D01*
X141750142Y-61821785D01*
X141677571Y-61676642D01*
X141677571Y-61313785D01*
X141750142Y-61168642D01*
X141822714Y-61096071D01*
X141967857Y-61023500D01*
X142258142Y-61023500D01*
X142403285Y-61096071D01*
X142475857Y-61168642D01*
X142548428Y-61313785D01*
%TO.C,R7*%
X110109000Y-56569428D02*
X110617000Y-55843714D01*
X110979857Y-56569428D02*
X110979857Y-55045428D01*
X110399285Y-55045428D01*
X110254142Y-55118000D01*
X110181571Y-55190571D01*
X110109000Y-55335714D01*
X110109000Y-55553428D01*
X110181571Y-55698571D01*
X110254142Y-55771142D01*
X110399285Y-55843714D01*
X110979857Y-55843714D01*
X109601000Y-55045428D02*
X108585000Y-55045428D01*
X109238142Y-56569428D01*
%TO.C,R10*%
X79719714Y-98014428D02*
X80227714Y-97288714D01*
X80590571Y-98014428D02*
X80590571Y-96490428D01*
X80010000Y-96490428D01*
X79864857Y-96563000D01*
X79792285Y-96635571D01*
X79719714Y-96780714D01*
X79719714Y-96998428D01*
X79792285Y-97143571D01*
X79864857Y-97216142D01*
X80010000Y-97288714D01*
X80590571Y-97288714D01*
X78268285Y-98014428D02*
X79139142Y-98014428D01*
X78703714Y-98014428D02*
X78703714Y-96490428D01*
X78848857Y-96708142D01*
X78994000Y-96853285D01*
X79139142Y-96925857D01*
X77324857Y-96490428D02*
X77179714Y-96490428D01*
X77034571Y-96563000D01*
X76962000Y-96635571D01*
X76889428Y-96780714D01*
X76816857Y-97071000D01*
X76816857Y-97433857D01*
X76889428Y-97724142D01*
X76962000Y-97869285D01*
X77034571Y-97941857D01*
X77179714Y-98014428D01*
X77324857Y-98014428D01*
X77470000Y-97941857D01*
X77542571Y-97869285D01*
X77615142Y-97724142D01*
X77687714Y-97433857D01*
X77687714Y-97071000D01*
X77615142Y-96780714D01*
X77542571Y-96635571D01*
X77470000Y-96563000D01*
X77324857Y-96490428D01*
%TO.C,R11*%
X79719714Y-92299428D02*
X80227714Y-91573714D01*
X80590571Y-92299428D02*
X80590571Y-90775428D01*
X80010000Y-90775428D01*
X79864857Y-90848000D01*
X79792285Y-90920571D01*
X79719714Y-91065714D01*
X79719714Y-91283428D01*
X79792285Y-91428571D01*
X79864857Y-91501142D01*
X80010000Y-91573714D01*
X80590571Y-91573714D01*
X78268285Y-92299428D02*
X79139142Y-92299428D01*
X78703714Y-92299428D02*
X78703714Y-90775428D01*
X78848857Y-90993142D01*
X78994000Y-91138285D01*
X79139142Y-91210857D01*
X76816857Y-92299428D02*
X77687714Y-92299428D01*
X77252285Y-92299428D02*
X77252285Y-90775428D01*
X77397428Y-90993142D01*
X77542571Y-91138285D01*
X77687714Y-91210857D01*
%TO.C,R12*%
X101309714Y-49901928D02*
X101817714Y-49176214D01*
X102180571Y-49901928D02*
X102180571Y-48377928D01*
X101600000Y-48377928D01*
X101454857Y-48450500D01*
X101382285Y-48523071D01*
X101309714Y-48668214D01*
X101309714Y-48885928D01*
X101382285Y-49031071D01*
X101454857Y-49103642D01*
X101600000Y-49176214D01*
X102180571Y-49176214D01*
X99858285Y-49901928D02*
X100729142Y-49901928D01*
X100293714Y-49901928D02*
X100293714Y-48377928D01*
X100438857Y-48595642D01*
X100584000Y-48740785D01*
X100729142Y-48813357D01*
X99277714Y-48523071D02*
X99205142Y-48450500D01*
X99060000Y-48377928D01*
X98697142Y-48377928D01*
X98552000Y-48450500D01*
X98479428Y-48523071D01*
X98406857Y-48668214D01*
X98406857Y-48813357D01*
X98479428Y-49031071D01*
X99350285Y-49901928D01*
X98406857Y-49901928D01*
%TO.C,R13*%
X106072214Y-88636928D02*
X106580214Y-87911214D01*
X106943071Y-88636928D02*
X106943071Y-87112928D01*
X106362500Y-87112928D01*
X106217357Y-87185500D01*
X106144785Y-87258071D01*
X106072214Y-87403214D01*
X106072214Y-87620928D01*
X106144785Y-87766071D01*
X106217357Y-87838642D01*
X106362500Y-87911214D01*
X106943071Y-87911214D01*
X104620785Y-88636928D02*
X105491642Y-88636928D01*
X105056214Y-88636928D02*
X105056214Y-87112928D01*
X105201357Y-87330642D01*
X105346500Y-87475785D01*
X105491642Y-87548357D01*
X104112785Y-87112928D02*
X103169357Y-87112928D01*
X103677357Y-87693500D01*
X103459642Y-87693500D01*
X103314500Y-87766071D01*
X103241928Y-87838642D01*
X103169357Y-87983785D01*
X103169357Y-88346642D01*
X103241928Y-88491785D01*
X103314500Y-88564357D01*
X103459642Y-88636928D01*
X103895071Y-88636928D01*
X104040214Y-88564357D01*
X104112785Y-88491785D01*
%TO.C,R14*%
X101309714Y-88636928D02*
X101817714Y-87911214D01*
X102180571Y-88636928D02*
X102180571Y-87112928D01*
X101600000Y-87112928D01*
X101454857Y-87185500D01*
X101382285Y-87258071D01*
X101309714Y-87403214D01*
X101309714Y-87620928D01*
X101382285Y-87766071D01*
X101454857Y-87838642D01*
X101600000Y-87911214D01*
X102180571Y-87911214D01*
X99858285Y-88636928D02*
X100729142Y-88636928D01*
X100293714Y-88636928D02*
X100293714Y-87112928D01*
X100438857Y-87330642D01*
X100584000Y-87475785D01*
X100729142Y-87548357D01*
X98552000Y-87620928D02*
X98552000Y-88636928D01*
X98914857Y-87040357D02*
X99277714Y-88128928D01*
X98334285Y-88128928D01*
%TO.C,R15*%
X87657214Y-88636928D02*
X88165214Y-87911214D01*
X88528071Y-88636928D02*
X88528071Y-87112928D01*
X87947500Y-87112928D01*
X87802357Y-87185500D01*
X87729785Y-87258071D01*
X87657214Y-87403214D01*
X87657214Y-87620928D01*
X87729785Y-87766071D01*
X87802357Y-87838642D01*
X87947500Y-87911214D01*
X88528071Y-87911214D01*
X86205785Y-88636928D02*
X87076642Y-88636928D01*
X86641214Y-88636928D02*
X86641214Y-87112928D01*
X86786357Y-87330642D01*
X86931500Y-87475785D01*
X87076642Y-87548357D01*
X84826928Y-87112928D02*
X85552642Y-87112928D01*
X85625214Y-87838642D01*
X85552642Y-87766071D01*
X85407500Y-87693500D01*
X85044642Y-87693500D01*
X84899500Y-87766071D01*
X84826928Y-87838642D01*
X84754357Y-87983785D01*
X84754357Y-88346642D01*
X84826928Y-88491785D01*
X84899500Y-88564357D01*
X85044642Y-88636928D01*
X85407500Y-88636928D01*
X85552642Y-88564357D01*
X85625214Y-88491785D01*
%TO.C,R16*%
X97182214Y-88636928D02*
X97690214Y-87911214D01*
X98053071Y-88636928D02*
X98053071Y-87112928D01*
X97472500Y-87112928D01*
X97327357Y-87185500D01*
X97254785Y-87258071D01*
X97182214Y-87403214D01*
X97182214Y-87620928D01*
X97254785Y-87766071D01*
X97327357Y-87838642D01*
X97472500Y-87911214D01*
X98053071Y-87911214D01*
X95730785Y-88636928D02*
X96601642Y-88636928D01*
X96166214Y-88636928D02*
X96166214Y-87112928D01*
X96311357Y-87330642D01*
X96456500Y-87475785D01*
X96601642Y-87548357D01*
X94424500Y-87112928D02*
X94714785Y-87112928D01*
X94859928Y-87185500D01*
X94932500Y-87258071D01*
X95077642Y-87475785D01*
X95150214Y-87766071D01*
X95150214Y-88346642D01*
X95077642Y-88491785D01*
X95005071Y-88564357D01*
X94859928Y-88636928D01*
X94569642Y-88636928D01*
X94424500Y-88564357D01*
X94351928Y-88491785D01*
X94279357Y-88346642D01*
X94279357Y-87983785D01*
X94351928Y-87838642D01*
X94424500Y-87766071D01*
X94569642Y-87693500D01*
X94859928Y-87693500D01*
X95005071Y-87766071D01*
X95077642Y-87838642D01*
X95150214Y-87983785D01*
%TO.C,R17*%
X92419714Y-88636928D02*
X92927714Y-87911214D01*
X93290571Y-88636928D02*
X93290571Y-87112928D01*
X92710000Y-87112928D01*
X92564857Y-87185500D01*
X92492285Y-87258071D01*
X92419714Y-87403214D01*
X92419714Y-87620928D01*
X92492285Y-87766071D01*
X92564857Y-87838642D01*
X92710000Y-87911214D01*
X93290571Y-87911214D01*
X90968285Y-88636928D02*
X91839142Y-88636928D01*
X91403714Y-88636928D02*
X91403714Y-87112928D01*
X91548857Y-87330642D01*
X91694000Y-87475785D01*
X91839142Y-87548357D01*
X90460285Y-87112928D02*
X89444285Y-87112928D01*
X90097428Y-88636928D01*
%TO.C,RV1*%
X99649642Y-34979428D02*
X100157642Y-34253714D01*
X100520500Y-34979428D02*
X100520500Y-33455428D01*
X99939928Y-33455428D01*
X99794785Y-33528000D01*
X99722214Y-33600571D01*
X99649642Y-33745714D01*
X99649642Y-33963428D01*
X99722214Y-34108571D01*
X99794785Y-34181142D01*
X99939928Y-34253714D01*
X100520500Y-34253714D01*
X99214214Y-33455428D02*
X98706214Y-34979428D01*
X98198214Y-33455428D01*
X96891928Y-34979428D02*
X97762785Y-34979428D01*
X97327357Y-34979428D02*
X97327357Y-33455428D01*
X97472500Y-33673142D01*
X97617642Y-33818285D01*
X97762785Y-33890857D01*
%TO.C,U2*%
X53548642Y-100447928D02*
X53548642Y-101681642D01*
X53476071Y-101826785D01*
X53403500Y-101899357D01*
X53258357Y-101971928D01*
X52968071Y-101971928D01*
X52822928Y-101899357D01*
X52750357Y-101826785D01*
X52677785Y-101681642D01*
X52677785Y-100447928D01*
X52024642Y-100593071D02*
X51952071Y-100520500D01*
X51806928Y-100447928D01*
X51444071Y-100447928D01*
X51298928Y-100520500D01*
X51226357Y-100593071D01*
X51153785Y-100738214D01*
X51153785Y-100883357D01*
X51226357Y-101101071D01*
X52097214Y-101971928D01*
X51153785Y-101971928D01*
%TO.C,U4*%
X51961142Y-36630428D02*
X51961142Y-37864142D01*
X51888571Y-38009285D01*
X51816000Y-38081857D01*
X51670857Y-38154428D01*
X51380571Y-38154428D01*
X51235428Y-38081857D01*
X51162857Y-38009285D01*
X51090285Y-37864142D01*
X51090285Y-36630428D01*
X49711428Y-37138428D02*
X49711428Y-38154428D01*
X50074285Y-36557857D02*
X50437142Y-37646428D01*
X49493714Y-37646428D01*
%TO.C,U3*%
X82441142Y-36630428D02*
X82441142Y-37864142D01*
X82368571Y-38009285D01*
X82296000Y-38081857D01*
X82150857Y-38154428D01*
X81860571Y-38154428D01*
X81715428Y-38081857D01*
X81642857Y-38009285D01*
X81570285Y-37864142D01*
X81570285Y-36630428D01*
X80989714Y-36630428D02*
X80046285Y-36630428D01*
X80554285Y-37211000D01*
X80336571Y-37211000D01*
X80191428Y-37283571D01*
X80118857Y-37356142D01*
X80046285Y-37501285D01*
X80046285Y-37864142D01*
X80118857Y-38009285D01*
X80191428Y-38081857D01*
X80336571Y-38154428D01*
X80772000Y-38154428D01*
X80917142Y-38081857D01*
X80989714Y-38009285D01*
%TO.C,U1*%
X39578642Y-65840428D02*
X39578642Y-67074142D01*
X39506071Y-67219285D01*
X39433500Y-67291857D01*
X39288357Y-67364428D01*
X38998071Y-67364428D01*
X38852928Y-67291857D01*
X38780357Y-67219285D01*
X38707785Y-67074142D01*
X38707785Y-65840428D01*
X37183785Y-67364428D02*
X38054642Y-67364428D01*
X37619214Y-67364428D02*
X37619214Y-65840428D01*
X37764357Y-66058142D01*
X37909500Y-66203285D01*
X38054642Y-66275857D01*
%TO.C,J7*%
X106553000Y-67110428D02*
X106553000Y-68199000D01*
X106625571Y-68416714D01*
X106770714Y-68561857D01*
X106988428Y-68634428D01*
X107133571Y-68634428D01*
X105972428Y-67110428D02*
X104956428Y-67110428D01*
X105609571Y-68634428D01*
%TO.C,C12*%
X129229714Y-65709285D02*
X129302285Y-65781857D01*
X129520000Y-65854428D01*
X129665142Y-65854428D01*
X129882857Y-65781857D01*
X130028000Y-65636714D01*
X130100571Y-65491571D01*
X130173142Y-65201285D01*
X130173142Y-64983571D01*
X130100571Y-64693285D01*
X130028000Y-64548142D01*
X129882857Y-64403000D01*
X129665142Y-64330428D01*
X129520000Y-64330428D01*
X129302285Y-64403000D01*
X129229714Y-64475571D01*
X127778285Y-65854428D02*
X128649142Y-65854428D01*
X128213714Y-65854428D02*
X128213714Y-64330428D01*
X128358857Y-64548142D01*
X128504000Y-64693285D01*
X128649142Y-64765857D01*
X127197714Y-64475571D02*
X127125142Y-64403000D01*
X126980000Y-64330428D01*
X126617142Y-64330428D01*
X126472000Y-64403000D01*
X126399428Y-64475571D01*
X126326857Y-64620714D01*
X126326857Y-64765857D01*
X126399428Y-64983571D01*
X127270285Y-65854428D01*
X126326857Y-65854428D01*
%TO.C,C13*%
X124804714Y-93254285D02*
X124877285Y-93326857D01*
X125095000Y-93399428D01*
X125240142Y-93399428D01*
X125457857Y-93326857D01*
X125603000Y-93181714D01*
X125675571Y-93036571D01*
X125748142Y-92746285D01*
X125748142Y-92528571D01*
X125675571Y-92238285D01*
X125603000Y-92093142D01*
X125457857Y-91948000D01*
X125240142Y-91875428D01*
X125095000Y-91875428D01*
X124877285Y-91948000D01*
X124804714Y-92020571D01*
X123353285Y-93399428D02*
X124224142Y-93399428D01*
X123788714Y-93399428D02*
X123788714Y-91875428D01*
X123933857Y-92093142D01*
X124079000Y-92238285D01*
X124224142Y-92310857D01*
X122845285Y-91875428D02*
X121901857Y-91875428D01*
X122409857Y-92456000D01*
X122192142Y-92456000D01*
X122047000Y-92528571D01*
X121974428Y-92601142D01*
X121901857Y-92746285D01*
X121901857Y-93109142D01*
X121974428Y-93254285D01*
X122047000Y-93326857D01*
X122192142Y-93399428D01*
X122627571Y-93399428D01*
X122772714Y-93326857D01*
X122845285Y-93254285D01*
%TO.C,C14*%
X154967214Y-68806785D02*
X155039785Y-68879357D01*
X155257500Y-68951928D01*
X155402642Y-68951928D01*
X155620357Y-68879357D01*
X155765500Y-68734214D01*
X155838071Y-68589071D01*
X155910642Y-68298785D01*
X155910642Y-68081071D01*
X155838071Y-67790785D01*
X155765500Y-67645642D01*
X155620357Y-67500500D01*
X155402642Y-67427928D01*
X155257500Y-67427928D01*
X155039785Y-67500500D01*
X154967214Y-67573071D01*
X153515785Y-68951928D02*
X154386642Y-68951928D01*
X153951214Y-68951928D02*
X153951214Y-67427928D01*
X154096357Y-67645642D01*
X154241500Y-67790785D01*
X154386642Y-67863357D01*
X152209500Y-67935928D02*
X152209500Y-68951928D01*
X152572357Y-67355357D02*
X152935214Y-68443928D01*
X151991785Y-68443928D01*
%TO.C,C15*%
X160682214Y-98949285D02*
X160754785Y-99021857D01*
X160972500Y-99094428D01*
X161117642Y-99094428D01*
X161335357Y-99021857D01*
X161480500Y-98876714D01*
X161553071Y-98731571D01*
X161625642Y-98441285D01*
X161625642Y-98223571D01*
X161553071Y-97933285D01*
X161480500Y-97788142D01*
X161335357Y-97643000D01*
X161117642Y-97570428D01*
X160972500Y-97570428D01*
X160754785Y-97643000D01*
X160682214Y-97715571D01*
X159230785Y-99094428D02*
X160101642Y-99094428D01*
X159666214Y-99094428D02*
X159666214Y-97570428D01*
X159811357Y-97788142D01*
X159956500Y-97933285D01*
X160101642Y-98005857D01*
X157851928Y-97570428D02*
X158577642Y-97570428D01*
X158650214Y-98296142D01*
X158577642Y-98223571D01*
X158432500Y-98151000D01*
X158069642Y-98151000D01*
X157924500Y-98223571D01*
X157851928Y-98296142D01*
X157779357Y-98441285D01*
X157779357Y-98804142D01*
X157851928Y-98949285D01*
X157924500Y-99021857D01*
X158069642Y-99094428D01*
X158432500Y-99094428D01*
X158577642Y-99021857D01*
X158650214Y-98949285D01*
%TD*%
M02*
