M48
; DRILL file {KiCad 5.1.10-88a1d61d58~88~ubuntu18.04.1} date Mon Oct 25 10:41:19 2021
; FORMAT={-:-/ absolute / inch / decimal}
; #@! TF.CreationDate,2021-10-25T10:41:19-04:00
; #@! TF.GenerationSoftware,Kicad,Pcbnew,5.1.10-88a1d61d58~88~ubuntu18.04.1
; #@! TF.FileFunction,Plated,1,4,PTH
FMAT,2
INCH
T1C0.0200
T2C0.0300
T3C0.0315
T4C0.0350
T5C0.0354
T6C0.0394
T7C0.0400
T8C0.0420
T9C0.0433
T10C0.0472
T11C0.0551
T12C0.0866
T13C0.0984
T14C0.1000
%
G90
G05
T1
X1.9125Y-2.025
X2.0Y-2.425
X2.2Y-2.475
X2.25Y-2.5375
X2.35Y-2.1875
X2.4565Y-2.3565
X2.6375Y-3.4375
X2.7Y-2.575
X2.75Y-1.75
X2.8875Y-1.425
X2.925Y-2.6125
X3.124Y-2.8115
X3.124Y-3.974
X3.175Y-2.925
X3.325Y-2.925
X3.374Y-2.8115
X3.4125Y-2.1
X3.45Y-1.4375
X3.5Y-2.1125
X3.525Y-2.95
X3.575Y-2.425
X3.6375Y-2.9625
X3.675Y-2.6125
X3.875Y-3.45
X3.975Y-3.025
X4.0Y-1.675
X4.35Y-2.425
X5.6125Y-2.75
T2
X4.975Y-1.69
X4.975Y-1.8575
X4.975Y-2.025
X4.975Y-2.99
X4.975Y-3.1575
X4.975Y-3.325
X5.492Y-1.69
X5.492Y-1.8575
X5.492Y-2.025
X5.492Y-2.99
X5.492Y-3.1575
X5.492Y-3.325
X6.25Y-1.915
X6.25Y-2.0825
X6.25Y-2.25
X6.25Y-3.04
X6.25Y-3.2075
X6.25Y-3.375
X6.767Y-1.915
X6.767Y-2.0825
X6.767Y-2.25
X6.767Y-3.04
X6.767Y-3.2075
X6.767Y-3.375
T3
X1.7Y-3.775
X1.7Y-3.8734
X2.0Y-1.6
X2.0Y-1.9
X2.1Y-1.6
X2.1Y-1.9
X2.2Y-1.6
X2.2Y-1.9
X2.3Y-1.6
X2.3Y-1.9
X2.3Y-2.1
X2.3984Y-2.1
X2.4Y-1.6
X2.4Y-1.9
X2.425Y-3.675
X2.425Y-3.7734
X2.4516Y-3.45
X2.5Y-1.6
X2.5Y-1.9
X2.525Y-2.1
X2.55Y-3.45
X2.6Y-1.6
X2.6Y-1.9
X2.6234Y-2.1
X2.7Y-1.6
X2.7Y-1.9
X2.9Y-3.7
X2.9Y-3.925
X3.05Y-1.8266
X3.05Y-1.925
X3.2098Y-1.6099
X3.2098Y-1.9099
X3.3Y-3.7
X3.3Y-3.925
X3.3098Y-1.6099
X3.3098Y-1.9099
X3.4098Y-1.6099
X3.4098Y-1.9099
X3.5Y-3.55
X3.5Y-3.95
X3.5098Y-1.6099
X3.5098Y-1.9099
X3.65Y-3.55
X3.65Y-3.95
X3.725Y-1.6
X3.725Y-2.0
X3.8Y-3.55
X3.8Y-3.95
X3.925Y-1.725
X3.925Y-1.8234
X3.95Y-3.55
X3.95Y-3.95
X4.025Y-1.4
X4.1Y-1.625
X4.1Y-2.025
X4.1Y-3.55
X4.1Y-3.95
X4.125Y-1.3
X4.225Y-1.4
X4.275Y-1.9516
X4.275Y-2.05
X4.3Y-3.3766
X4.3Y-3.475
X4.4579Y-1.9673
X4.4579Y-2.3673
X4.4714Y-3.4687
X4.4714Y-3.8687
X4.975Y-3.75
X5.0Y-2.475
X5.0734Y-3.75
X5.0984Y-2.475
X5.4516Y-3.75
X5.55Y-3.75
X5.75Y-1.425
X5.7564Y-2.2187
X5.7564Y-2.6187
X5.7564Y-3.3237
X5.7564Y-3.7237
X5.8484Y-1.425
X6.1Y-3.825
X6.1Y-3.9234
X6.225Y-2.65
X6.3234Y-2.65
T4
X1.425Y-2.15
X1.425Y-2.55
X1.525Y-2.15
X1.525Y-2.25
X1.525Y-2.45
X1.525Y-2.55
T5
X2.6Y-3.7
X2.6Y-3.925
X2.7Y-3.7
X2.7Y-3.925
T6
X2.0669Y-1.3384
X2.1669Y-1.3384
X2.225Y-2.9
X2.225Y-2.9787
X2.225Y-3.0575
X2.225Y-3.1362
X2.2669Y-1.3384
X2.3669Y-1.3384
X2.4669Y-1.3384
X2.5669Y-1.3384
X2.6669Y-1.3384
X2.7669Y-1.3384
X2.8669Y-1.3384
X2.9669Y-1.3384
X3.0669Y-1.3384
X3.1669Y-1.3384
X3.2669Y-1.3384
X3.3669Y-1.3384
X3.4669Y-1.3384
X3.5669Y-1.3384
X4.125Y-2.825
X4.125Y-2.925
X4.125Y-3.025
X4.225Y-2.825
X4.225Y-2.925
X4.225Y-3.025
X4.95Y-3.95
X5.05Y-3.95
X5.25Y-3.95
X5.35Y-3.95
X5.55Y-3.95
X5.65Y-3.95
X5.85Y-3.95
X5.95Y-3.95
T7
X2.675Y-2.75
X2.675Y-2.85
X2.675Y-2.95
X2.675Y-3.05
X2.675Y-3.15
X2.675Y-3.25
X2.775Y-2.7
X2.775Y-3.3
X2.875Y-2.7
X2.875Y-3.3
X2.975Y-2.7
X2.975Y-3.3
X3.075Y-2.7
X3.075Y-3.3
X3.12Y-3.185
X3.175Y-2.7
X3.175Y-3.3
X3.22Y-3.185
X3.275Y-2.7
X3.275Y-3.3
X3.375Y-2.7
X3.375Y-3.3
X3.475Y-2.7
X3.475Y-3.3
X3.53Y-3.185
X3.575Y-2.7
X3.575Y-3.3
X3.63Y-3.185
X3.675Y-2.7
X3.675Y-3.3
X3.775Y-2.7
X3.775Y-3.3
X3.875Y-2.7
X3.875Y-3.3
T8
X1.5Y-2.75
X1.5Y-3.25
X1.6Y-2.75
X1.6Y-3.25
X1.7Y-2.75
X1.7Y-3.25
X1.8Y-2.75
X1.8Y-3.25
X1.9Y-2.75
X1.9Y-3.25
X2.0Y-2.75
X2.0Y-3.25
X2.1Y-2.75
X2.1Y-3.25
X2.35Y-2.75
X2.35Y-2.85
X2.35Y-2.95
X2.35Y-3.05
X2.35Y-3.15
X2.35Y-3.25
T9
X1.975Y-3.8
X2.075Y-3.8
X2.175Y-3.8
X2.7959Y-2.9197
X2.7959Y-3.0181
X2.7959Y-3.1165
X4.45Y-1.4161
X4.45Y-1.8161
X4.4714Y-2.9287
X4.4714Y-3.3287
X4.625Y-2.125
X4.625Y-2.225
X4.625Y-2.325
X4.65Y-3.6
X4.65Y-3.7
X4.65Y-3.8
X5.7564Y-1.6787
X5.7564Y-2.0787
X5.7564Y-2.7837
X5.7564Y-3.1837
X5.95Y-2.325
X5.95Y-2.425
X5.95Y-2.525
X5.95Y-3.45
X5.95Y-3.55
X5.95Y-3.65
T10
X4.675Y-1.55
X4.675Y-1.85
X4.7Y-2.925
X4.7Y-3.225
X5.9964Y-1.725
X5.9964Y-2.025
X6.0Y-2.825
X6.0Y-3.125
T11
X1.95Y-3.55
X2.1665Y-3.55
T12
X2.5006Y-2.8016
X2.5006Y-3.2346
T13
X1.8504Y-1.3384
X1.8504Y-2.5589
X4.8031Y-1.3384
X4.8031Y-2.5589
T14
X5.234Y-1.367
X5.234Y-2.348
X5.234Y-2.667
X5.234Y-3.648
X6.509Y-1.592
X6.509Y-2.573
X6.509Y-2.717
X6.509Y-3.698
T0
M30
