%TF.GenerationSoftware,KiCad,Pcbnew,5.1.10-88a1d61d58~88~ubuntu18.04.1*%
%TF.CreationDate,2021-10-25T10:41:03-04:00*%
%TF.ProjectId,mctens,6d637465-6e73-42e6-9b69-6361645f7063,rev?*%
%TF.SameCoordinates,Original*%
%TF.FileFunction,Copper,L1,Top*%
%TF.FilePolarity,Positive*%
%FSLAX46Y46*%
G04 Gerber Fmt 4.6, Leading zero omitted, Abs format (unit mm)*
G04 Created by KiCad (PCBNEW 5.1.10-88a1d61d58~88~ubuntu18.04.1) date 2021-10-25 10:41:03*
%MOMM*%
%LPD*%
G01*
G04 APERTURE LIST*
%TA.AperFunction,ComponentPad*%
%ADD10C,1.524000*%
%TD*%
%TA.AperFunction,ComponentPad*%
%ADD11C,3.048000*%
%TD*%
%TA.AperFunction,ComponentPad*%
%ADD12C,3.000000*%
%TD*%
%TA.AperFunction,ComponentPad*%
%ADD13R,1.700000X1.700000*%
%TD*%
%TA.AperFunction,ComponentPad*%
%ADD14O,1.700000X1.700000*%
%TD*%
%TA.AperFunction,ComponentPad*%
%ADD15C,1.651000*%
%TD*%
%TA.AperFunction,ComponentPad*%
%ADD16R,2.500000X2.500000*%
%TD*%
%TA.AperFunction,ComponentPad*%
%ADD17C,1.650000*%
%TD*%
%TA.AperFunction,ComponentPad*%
%ADD18C,1.600000*%
%TD*%
%TA.AperFunction,ComponentPad*%
%ADD19C,1.879600*%
%TD*%
%TA.AperFunction,ComponentPad*%
%ADD20O,2.400000X2.400000*%
%TD*%
%TA.AperFunction,ComponentPad*%
%ADD21C,2.400000*%
%TD*%
%TA.AperFunction,ComponentPad*%
%ADD22O,2.200000X2.200000*%
%TD*%
%TA.AperFunction,ComponentPad*%
%ADD23R,2.200000X2.200000*%
%TD*%
%TA.AperFunction,ComponentPad*%
%ADD24R,1.800000X1.800000*%
%TD*%
%TA.AperFunction,ComponentPad*%
%ADD25C,1.800000*%
%TD*%
%TA.AperFunction,ComponentPad*%
%ADD26O,3.300000X2.700000*%
%TD*%
%TA.AperFunction,ComponentPad*%
%ADD27O,2.000000X1.905000*%
%TD*%
%TA.AperFunction,ComponentPad*%
%ADD28R,2.000000X1.905000*%
%TD*%
%TA.AperFunction,ComponentPad*%
%ADD29O,1.600000X1.600000*%
%TD*%
%TA.AperFunction,ComponentPad*%
%ADD30C,1.440000*%
%TD*%
%TA.AperFunction,ComponentPad*%
%ADD31R,1.905000X2.000000*%
%TD*%
%TA.AperFunction,ComponentPad*%
%ADD32O,1.905000X2.000000*%
%TD*%
%TA.AperFunction,ComponentPad*%
%ADD33R,1.600000X2.400000*%
%TD*%
%TA.AperFunction,ComponentPad*%
%ADD34O,1.600000X2.400000*%
%TD*%
%TA.AperFunction,ViaPad*%
%ADD35C,1.016000*%
%TD*%
%TA.AperFunction,Conductor*%
%ADD36C,0.635000*%
%TD*%
%TA.AperFunction,Conductor*%
%ADD37C,0.381000*%
%TD*%
%TA.AperFunction,Conductor*%
%ADD38C,1.016000*%
%TD*%
%TA.AperFunction,Conductor*%
%ADD39C,0.254000*%
%TD*%
G04 APERTURE END LIST*
D10*
%TO.P,T1,1*%
%TO.N,+12V*%
X158750000Y-85725000D03*
%TO.P,T1,2*%
%TO.N,N/C*%
X158750000Y-81470500D03*
%TO.P,T1,3*%
%TO.N,Net-(D1-Pad2)*%
X158750000Y-77216000D03*
%TO.P,T1,4*%
%TO.N,GND*%
X171881800Y-77216000D03*
%TO.P,T1,5*%
%TO.N,N/C*%
X171881800Y-81470500D03*
%TO.P,T1,6*%
%TO.N,Net-(J2-Pad1)*%
X171881800Y-85725000D03*
D11*
%TO.P,T1,7*%
%TO.N,GND*%
X165328600Y-93929200D03*
%TO.P,T1,8*%
X165328600Y-69011800D03*
%TD*%
D10*
%TO.P,T2,1*%
%TO.N,+12V*%
X126365000Y-84455000D03*
%TO.P,T2,2*%
%TO.N,N/C*%
X126365000Y-80200500D03*
%TO.P,T2,3*%
%TO.N,Net-(D2-Pad2)*%
X126365000Y-75946000D03*
%TO.P,T2,4*%
%TO.N,GND*%
X139496800Y-75946000D03*
%TO.P,T2,5*%
%TO.N,N/C*%
X139496800Y-80200500D03*
%TO.P,T2,6*%
%TO.N,Net-(J3-Pad1)*%
X139496800Y-84455000D03*
D11*
%TO.P,T2,7*%
%TO.N,GND*%
X132943600Y-92659200D03*
%TO.P,T2,8*%
X132943600Y-67741800D03*
%TD*%
D10*
%TO.P,T3,1*%
%TO.N,+12V*%
X158750000Y-57150000D03*
%TO.P,T3,2*%
%TO.N,N/C*%
X158750000Y-52895500D03*
%TO.P,T3,3*%
%TO.N,Net-(D3-Pad2)*%
X158750000Y-48641000D03*
%TO.P,T3,4*%
%TO.N,GND*%
X171881800Y-48641000D03*
%TO.P,T3,5*%
%TO.N,N/C*%
X171881800Y-52895500D03*
%TO.P,T3,6*%
%TO.N,Net-(J4-Pad1)*%
X171881800Y-57150000D03*
D11*
%TO.P,T3,7*%
%TO.N,GND*%
X165328600Y-65354200D03*
%TO.P,T3,8*%
X165328600Y-40436800D03*
%TD*%
D10*
%TO.P,T4,1*%
%TO.N,+12V*%
X126365000Y-51435000D03*
%TO.P,T4,2*%
%TO.N,N/C*%
X126365000Y-47180500D03*
%TO.P,T4,3*%
%TO.N,Net-(D4-Pad2)*%
X126365000Y-42926000D03*
%TO.P,T4,4*%
%TO.N,GND*%
X139496800Y-42926000D03*
%TO.P,T4,5*%
%TO.N,N/C*%
X139496800Y-47180500D03*
%TO.P,T4,6*%
%TO.N,Net-(J5-Pad1)*%
X139496800Y-51435000D03*
D11*
%TO.P,T4,7*%
%TO.N,GND*%
X132943600Y-59639200D03*
%TO.P,T4,8*%
X132943600Y-34721800D03*
%TD*%
D12*
%TO.P,J6,20*%
%TO.N,N/C*%
X122000000Y-33995000D03*
%TO.P,J6,19*%
X122000000Y-64995000D03*
%TO.P,J6,18*%
X47000000Y-64995000D03*
%TO.P,J6,17*%
X47000000Y-33995000D03*
D13*
%TO.P,J6,1*%
%TO.N,GND*%
X52500000Y-33995000D03*
D14*
%TO.P,J6,2*%
%TO.N,+3V3*%
X55040000Y-33995000D03*
%TO.P,J6,3*%
%TO.N,Net-(J6-Pad3)*%
X57580000Y-33995000D03*
%TO.P,J6,4*%
%TO.N,/LCD_RS*%
X60120000Y-33995000D03*
%TO.P,J6,5*%
%TO.N,GND*%
X62660000Y-33995000D03*
%TO.P,J6,6*%
%TO.N,/LCD_E*%
X65200000Y-33995000D03*
%TO.P,J6,7*%
%TO.N,Net-(J6-Pad7)*%
X67740000Y-33995000D03*
%TO.P,J6,8*%
%TO.N,Net-(J6-Pad8)*%
X70280000Y-33995000D03*
%TO.P,J6,9*%
%TO.N,Net-(J6-Pad9)*%
X72820000Y-33995000D03*
%TO.P,J6,10*%
%TO.N,Net-(J6-Pad10)*%
X75360000Y-33995000D03*
%TO.P,J6,11*%
%TO.N,/LCD_D4*%
X77900000Y-33995000D03*
%TO.P,J6,12*%
%TO.N,/LCD_D5*%
X80440000Y-33995000D03*
%TO.P,J6,13*%
%TO.N,/LCD_D6*%
X82980000Y-33995000D03*
%TO.P,J6,14*%
%TO.N,/LCD_D7*%
X85520000Y-33995000D03*
%TO.P,J6,15*%
%TO.N,Net-(J6-Pad15)*%
X88060000Y-33995000D03*
%TO.P,J6,16*%
%TO.N,GND*%
X90600000Y-33995000D03*
%TD*%
D15*
%TO.P,SW1,6*%
%TO.N,N/C*%
X36195000Y-54610000D03*
%TO.P,SW1,5*%
X38735000Y-54610000D03*
%TO.P,SW1,4*%
X36195000Y-64770000D03*
%TO.P,SW1,3*%
X38735000Y-64770000D03*
%TO.P,SW1,2*%
%TO.N,+12V*%
X38735000Y-57150000D03*
%TO.P,SW1,1*%
%TO.N,Net-(J1-Pad1)*%
X38735000Y-62230000D03*
%TD*%
D16*
%TO.P,SW2,Y*%
%TO.N,N/C*%
X63515000Y-71160000D03*
%TO.P,SW2,X*%
X63515000Y-82160000D03*
D17*
%TO.P,SW2,B*%
%TO.N,/KNOB_B*%
X71015000Y-74160000D03*
%TO.P,SW2,A*%
%TO.N,/KNOB_A*%
X71015000Y-79160000D03*
%TO.P,SW2,C*%
%TO.N,GND*%
X71015000Y-76660000D03*
D18*
%TO.P,SW2,4*%
%TO.N,Net-(R15-Pad2)*%
X56515000Y-79660000D03*
%TO.P,SW2,3*%
%TO.N,Net-(R17-Pad2)*%
X56515000Y-77660000D03*
%TO.P,SW2,2*%
%TO.N,Net-(R16-Pad2)*%
X56515000Y-75660000D03*
%TO.P,SW2,1*%
%TO.N,GND*%
X56515000Y-73660000D03*
%TD*%
D19*
%TO.P,U5,JP1_1*%
%TO.N,/DTR*%
X67945000Y-82550000D03*
%TO.P,U5,JP1_2*%
%TO.N,/TXO*%
X67945000Y-80010000D03*
%TO.P,U5,JP1_3*%
%TO.N,/RXI*%
X67945000Y-77470000D03*
%TO.P,U5,JP1_4*%
%TO.N,+3V3*%
X67945000Y-74930000D03*
%TO.P,U5,JP1_5*%
%TO.N,GND*%
X67945000Y-72390000D03*
%TO.P,U5,JP1_6*%
X67945000Y-69850000D03*
%TO.P,U5,JP2_1*%
%TO.N,/KNOB_SW*%
X81788000Y-80899000D03*
%TO.P,U5,JP2_2*%
%TO.N,/KNOB_R*%
X79248000Y-80899000D03*
%TO.P,U5,JP3_2*%
%TO.N,/KNOB_B*%
X89662000Y-80899000D03*
%TO.P,U5,JP3_1*%
%TO.N,/KNOB_A*%
X92202000Y-80899000D03*
%TO.P,U5,JP6_1*%
%TO.N,Net-(U5-PadJP6_1)*%
X70485000Y-83820000D03*
%TO.P,U5,JP6_2*%
%TO.N,GND*%
X73025000Y-83820000D03*
%TO.P,U5,JP6_3*%
%TO.N,Net-(J7-Pad5)*%
X75565000Y-83820000D03*
%TO.P,U5,JP6_4*%
%TO.N,Net-(U5-PadJP6_4)*%
X78105000Y-83820000D03*
%TO.P,U5,JP6_5*%
%TO.N,/LCD_D7*%
X80645000Y-83820000D03*
%TO.P,U5,JP6_6*%
%TO.N,/LCD_D6*%
X83185000Y-83820000D03*
%TO.P,U5,JP6_7*%
%TO.N,/LCD_D4*%
X85725000Y-83820000D03*
%TO.P,U5,JP6_8*%
%TO.N,/LCD_D5*%
X88265000Y-83820000D03*
%TO.P,U5,JP6_9*%
%TO.N,Net-(J7-Pad3)*%
X90805000Y-83820000D03*
%TO.P,U5,JP6_10*%
%TO.N,Net-(J7-Pad1)*%
X93345000Y-83820000D03*
%TO.P,U5,JP6_11*%
%TO.N,Net-(J7-Pad4)*%
X95885000Y-83820000D03*
%TO.P,U5,JP6_12*%
%TO.N,/DRV4*%
X98425000Y-83820000D03*
%TO.P,U5,JP7_1*%
%TO.N,Net-(U4-Pad9)*%
X98425000Y-68580000D03*
%TO.P,U5,JP7_2*%
%TO.N,/LCD_LIGHT*%
X95885000Y-68580000D03*
%TO.P,U5,JP7_3*%
%TO.N,/KNOB_G*%
X93345000Y-68580000D03*
%TO.P,U5,JP7_4*%
%TO.N,Net-(U4-Pad16)*%
X90805000Y-68580000D03*
%TO.P,U5,JP7_5*%
%TO.N,Net-(U4-Pad1)*%
X88265000Y-68580000D03*
%TO.P,U5,JP7_6*%
%TO.N,/LCD_RS*%
X85725000Y-68580000D03*
%TO.P,U5,JP7_7*%
%TO.N,Net-(R1-Pad2)*%
X83185000Y-68580000D03*
%TO.P,U5,JP7_8*%
%TO.N,/LCD_E*%
X80645000Y-68580000D03*
%TO.P,U5,JP7_9*%
%TO.N,GND*%
X78105000Y-68580000D03*
%TO.P,U5,JP7_10*%
%TO.N,Net-(U5-PadJP7_10)*%
X75565000Y-68580000D03*
%TO.P,U5,JP7_11*%
%TO.N,Net-(U5-PadJP7_11)*%
X73025000Y-68580000D03*
%TO.P,U5,JP7_12*%
%TO.N,Net-(U5-PadJP7_12)*%
X70485000Y-68580000D03*
%TD*%
D20*
%TO.P,R4,2*%
%TO.N,GND*%
X152400000Y-71755000D03*
D21*
%TO.P,R4,1*%
%TO.N,Net-(Q1-Pad3)*%
X152400000Y-79375000D03*
%TD*%
D20*
%TO.P,R5,2*%
%TO.N,GND*%
X119380000Y-74295000D03*
D21*
%TO.P,R5,1*%
%TO.N,Net-(Q2-Pad3)*%
X119380000Y-81915000D03*
%TD*%
D20*
%TO.P,R8,2*%
%TO.N,GND*%
X152309000Y-43815000D03*
D21*
%TO.P,R8,1*%
%TO.N,Net-(Q3-Pad3)*%
X152309000Y-51435000D03*
%TD*%
D20*
%TO.P,R9,2*%
%TO.N,GND*%
X118745000Y-39370000D03*
D21*
%TO.P,R9,1*%
%TO.N,Net-(Q4-Pad3)*%
X118745000Y-46990000D03*
%TD*%
D18*
%TO.P,C1,1*%
%TO.N,+12V*%
X43180000Y-95885000D03*
%TO.P,C1,2*%
%TO.N,GND*%
X43180000Y-98385000D03*
%TD*%
%TO.P,C2,1*%
%TO.N,+3V3*%
X64770000Y-87630000D03*
%TO.P,C2,2*%
%TO.N,GND*%
X62270000Y-87630000D03*
%TD*%
%TO.P,C3,2*%
%TO.N,GND*%
X99695000Y-46315000D03*
%TO.P,C3,1*%
%TO.N,Net-(C3-Pad1)*%
X99695000Y-43815000D03*
%TD*%
%TO.P,C4,1*%
%TO.N,+12V*%
X77470000Y-48895000D03*
%TO.P,C4,2*%
%TO.N,GND*%
X77470000Y-46395000D03*
%TD*%
%TO.P,C5,2*%
%TO.N,GND*%
X60920000Y-53340000D03*
%TO.P,C5,1*%
%TO.N,+12V*%
X58420000Y-53340000D03*
%TD*%
%TO.P,C6,1*%
%TO.N,+3V3*%
X64135000Y-53340000D03*
%TO.P,C6,2*%
%TO.N,GND*%
X66635000Y-53340000D03*
%TD*%
%TO.P,C7,2*%
%TO.N,GND*%
X138470000Y-95250000D03*
%TO.P,C7,1*%
%TO.N,Net-(C7-Pad1)*%
X140970000Y-95250000D03*
%TD*%
%TO.P,C8,2*%
%TO.N,GND*%
X109220000Y-85765000D03*
%TO.P,C8,1*%
%TO.N,Net-(C8-Pad1)*%
X109220000Y-88265000D03*
%TD*%
%TO.P,C9,1*%
%TO.N,Net-(C9-Pad1)*%
X146050000Y-36195000D03*
%TO.P,C9,2*%
%TO.N,GND*%
X148550000Y-36195000D03*
%TD*%
%TO.P,C10,1*%
%TO.N,Net-(C10-Pad1)*%
X108585000Y-52070000D03*
%TO.P,C10,2*%
%TO.N,GND*%
X108585000Y-49570000D03*
%TD*%
%TO.P,C11,2*%
%TO.N,GND*%
X61595000Y-95845000D03*
%TO.P,C11,1*%
%TO.N,+3V3*%
X61595000Y-93345000D03*
%TD*%
D22*
%TO.P,D1,2*%
%TO.N,Net-(D1-Pad2)*%
X146213000Y-80867000D03*
D23*
%TO.P,D1,1*%
%TO.N,+12V*%
X146213000Y-70707000D03*
%TD*%
%TO.P,D2,1*%
%TO.N,+12V*%
X113574000Y-74390000D03*
D22*
%TO.P,D2,2*%
%TO.N,Net-(D2-Pad2)*%
X113574000Y-84550000D03*
%TD*%
%TO.P,D3,2*%
%TO.N,Net-(D3-Pad2)*%
X146213000Y-52800000D03*
D23*
%TO.P,D3,1*%
%TO.N,+12V*%
X146213000Y-42640000D03*
%TD*%
%TO.P,D4,1*%
%TO.N,+12V*%
X113030000Y-35970000D03*
D22*
%TO.P,D4,2*%
%TO.N,Net-(D4-Pad2)*%
X113030000Y-46130000D03*
%TD*%
D24*
%TO.P,D5,1*%
%TO.N,Net-(D5-Pad1)*%
X68580000Y-99695000D03*
D25*
%TO.P,D5,2*%
%TO.N,+12V*%
X66040000Y-99695000D03*
%TD*%
%TO.P,D6,2*%
%TO.N,+3V3*%
X66040000Y-93980000D03*
D24*
%TO.P,D6,1*%
%TO.N,Net-(D6-Pad1)*%
X68580000Y-93980000D03*
%TD*%
%TO.P,J1,1*%
%TO.N,Net-(J1-Pad1)*%
%TA.AperFunction,ComponentPad*%
G36*
G01*
X48130001Y-88820000D02*
X50929999Y-88820000D01*
G75*
G02*
X51180000Y-89070001I0J-250001D01*
G01*
X51180000Y-91269999D01*
G75*
G02*
X50929999Y-91520000I-250001J0D01*
G01*
X48130001Y-91520000D01*
G75*
G02*
X47880000Y-91269999I0J250001D01*
G01*
X47880000Y-89070001D01*
G75*
G02*
X48130001Y-88820000I250001J0D01*
G01*
G37*
%TD.AperFunction*%
D26*
%TO.P,J1,2*%
%TO.N,GND*%
X55030000Y-90170000D03*
%TD*%
D13*
%TO.P,J2,1*%
%TO.N,Net-(J2-Pad1)*%
X151130000Y-100330000D03*
D14*
%TO.P,J2,2*%
%TO.N,GND*%
X148590000Y-100330000D03*
%TD*%
D13*
%TO.P,J3,1*%
%TO.N,Net-(J3-Pad1)*%
X128270000Y-100330000D03*
D14*
%TO.P,J3,2*%
%TO.N,GND*%
X125730000Y-100330000D03*
%TD*%
%TO.P,J4,2*%
%TO.N,GND*%
X140970000Y-100330000D03*
D13*
%TO.P,J4,1*%
%TO.N,Net-(J4-Pad1)*%
X143510000Y-100330000D03*
%TD*%
D14*
%TO.P,J5,2*%
%TO.N,GND*%
X133350000Y-100330000D03*
D13*
%TO.P,J5,1*%
%TO.N,Net-(J5-Pad1)*%
X135890000Y-100330000D03*
%TD*%
D27*
%TO.P,Q1,3*%
%TO.N,Net-(Q1-Pad3)*%
X151130000Y-87630000D03*
%TO.P,Q1,2*%
%TO.N,Net-(D1-Pad2)*%
X151130000Y-90170000D03*
D28*
%TO.P,Q1,1*%
%TO.N,Net-(C7-Pad1)*%
X151130000Y-92710000D03*
%TD*%
%TO.P,Q2,1*%
%TO.N,Net-(C8-Pad1)*%
X118110000Y-96520000D03*
D27*
%TO.P,Q2,2*%
%TO.N,Net-(D2-Pad2)*%
X118110000Y-93980000D03*
%TO.P,Q2,3*%
%TO.N,Net-(Q2-Pad3)*%
X118110000Y-91440000D03*
%TD*%
%TO.P,Q3,3*%
%TO.N,Net-(Q3-Pad3)*%
X151130000Y-59055000D03*
%TO.P,Q3,2*%
%TO.N,Net-(D3-Pad2)*%
X151130000Y-61595000D03*
D28*
%TO.P,Q3,1*%
%TO.N,Net-(C9-Pad1)*%
X151130000Y-64135000D03*
%TD*%
%TO.P,Q4,1*%
%TO.N,Net-(C10-Pad1)*%
X117475000Y-59055000D03*
D27*
%TO.P,Q4,2*%
%TO.N,Net-(D4-Pad2)*%
X117475000Y-56515000D03*
%TO.P,Q4,3*%
%TO.N,Net-(Q4-Pad3)*%
X117475000Y-53975000D03*
%TD*%
D18*
%TO.P,R1,1*%
%TO.N,Net-(C3-Pad1)*%
X94615000Y-40640000D03*
D29*
%TO.P,R1,2*%
%TO.N,Net-(R1-Pad2)*%
X94615000Y-50800000D03*
%TD*%
D18*
%TO.P,R2,1*%
%TO.N,Net-(C7-Pad1)*%
X146213000Y-84423000D03*
D29*
%TO.P,R2,2*%
%TO.N,Net-(R2-Pad2)*%
X146213000Y-94583000D03*
%TD*%
%TO.P,R3,2*%
%TO.N,Net-(R3-Pad2)*%
X113574000Y-98266000D03*
D18*
%TO.P,R3,1*%
%TO.N,Net-(C8-Pad1)*%
X113574000Y-88106000D03*
%TD*%
%TO.P,R6,1*%
%TO.N,Net-(C9-Pad1)*%
X146213000Y-56356000D03*
D29*
%TO.P,R6,2*%
%TO.N,Net-(R6-Pad2)*%
X146213000Y-66516000D03*
%TD*%
D18*
%TO.P,R7,1*%
%TO.N,Net-(C10-Pad1)*%
X113230000Y-49970000D03*
D29*
%TO.P,R7,2*%
%TO.N,Net-(R7-Pad2)*%
X113230000Y-60130000D03*
%TD*%
%TO.P,R10,2*%
%TO.N,Net-(D5-Pad1)*%
X73660000Y-99695000D03*
D18*
%TO.P,R10,1*%
%TO.N,GND*%
X83820000Y-99695000D03*
%TD*%
%TO.P,R11,1*%
%TO.N,GND*%
X83820000Y-93980000D03*
D29*
%TO.P,R11,2*%
%TO.N,Net-(D6-Pad1)*%
X73660000Y-93980000D03*
%TD*%
%TO.P,R12,2*%
%TO.N,/LCD_LIGHT*%
X104140000Y-51435000D03*
D18*
%TO.P,R12,1*%
%TO.N,Net-(J6-Pad15)*%
X104140000Y-41275000D03*
%TD*%
D29*
%TO.P,R13,2*%
%TO.N,/KNOB_A*%
X104140000Y-90170000D03*
D18*
%TO.P,R13,1*%
%TO.N,+3V3*%
X104140000Y-100330000D03*
%TD*%
D29*
%TO.P,R14,2*%
%TO.N,/KNOB_B*%
X100330000Y-90170000D03*
D18*
%TO.P,R14,1*%
%TO.N,+3V3*%
X100330000Y-100330000D03*
%TD*%
%TO.P,R15,1*%
%TO.N,+3V3*%
X88900000Y-100330000D03*
D29*
%TO.P,R15,2*%
%TO.N,Net-(R15-Pad2)*%
X88900000Y-90170000D03*
%TD*%
%TO.P,R16,2*%
%TO.N,Net-(R16-Pad2)*%
X96520000Y-90170000D03*
D18*
%TO.P,R16,1*%
%TO.N,/KNOB_R*%
X96520000Y-100330000D03*
%TD*%
%TO.P,R17,1*%
%TO.N,/KNOB_G*%
X92710000Y-100330000D03*
D29*
%TO.P,R17,2*%
%TO.N,Net-(R17-Pad2)*%
X92710000Y-90170000D03*
%TD*%
D30*
%TO.P,RV1,1*%
%TO.N,+3V3*%
X102235000Y-35560000D03*
%TO.P,RV1,2*%
%TO.N,Net-(J6-Pad3)*%
X104775000Y-33020000D03*
%TO.P,RV1,3*%
%TO.N,GND*%
X107315000Y-35560000D03*
%TD*%
D31*
%TO.P,U2,1*%
%TO.N,+12V*%
X50165000Y-96520000D03*
D32*
%TO.P,U2,2*%
%TO.N,GND*%
X52705000Y-96520000D03*
%TO.P,U2,3*%
%TO.N,+3V3*%
X55245000Y-96520000D03*
%TD*%
D33*
%TO.P,U4,1*%
%TO.N,Net-(U4-Pad1)*%
X50800000Y-40640000D03*
D34*
%TO.P,U4,9*%
%TO.N,Net-(U4-Pad9)*%
X68580000Y-48260000D03*
%TO.P,U4,2*%
%TO.N,Net-(U3-Pad1)*%
X53340000Y-40640000D03*
%TO.P,U4,10*%
X66040000Y-48260000D03*
%TO.P,U4,3*%
%TO.N,Net-(R2-Pad2)*%
X55880000Y-40640000D03*
%TO.P,U4,11*%
%TO.N,Net-(R7-Pad2)*%
X63500000Y-48260000D03*
%TO.P,U4,4*%
%TO.N,GND*%
X58420000Y-40640000D03*
%TO.P,U4,12*%
%TO.N,+3V3*%
X60960000Y-48260000D03*
%TO.P,U4,5*%
%TO.N,GND*%
X60960000Y-40640000D03*
%TO.P,U4,13*%
%TO.N,+12V*%
X58420000Y-48260000D03*
%TO.P,U4,6*%
%TO.N,Net-(R3-Pad2)*%
X63500000Y-40640000D03*
%TO.P,U4,14*%
%TO.N,Net-(R6-Pad2)*%
X55880000Y-48260000D03*
%TO.P,U4,7*%
%TO.N,Net-(U3-Pad1)*%
X66040000Y-40640000D03*
%TO.P,U4,15*%
X53340000Y-48260000D03*
%TO.P,U4,8*%
%TO.N,/DRV4*%
X68580000Y-40640000D03*
%TO.P,U4,16*%
%TO.N,Net-(U4-Pad16)*%
X50800000Y-48260000D03*
%TD*%
D33*
%TO.P,U3,1*%
%TO.N,Net-(U3-Pad1)*%
X81530000Y-40891000D03*
D34*
%TO.P,U3,5*%
%TO.N,GND*%
X89150000Y-48511000D03*
%TO.P,U3,2*%
%TO.N,Net-(U3-Pad1)*%
X84070000Y-40891000D03*
%TO.P,U3,6*%
%TO.N,Net-(U3-Pad6)*%
X86610000Y-48511000D03*
%TO.P,U3,3*%
%TO.N,Net-(C3-Pad1)*%
X86610000Y-40891000D03*
%TO.P,U3,7*%
%TO.N,Net-(U3-Pad6)*%
X84070000Y-48511000D03*
%TO.P,U3,4*%
%TO.N,GND*%
X89150000Y-40891000D03*
%TO.P,U3,8*%
%TO.N,+12V*%
X81530000Y-48511000D03*
%TD*%
D10*
%TO.P,U1,C1*%
%TO.N,GND*%
X59690000Y-69850000D03*
%TO.P,U1,C2*%
X59690000Y-72390000D03*
%TO.P,U1,C3*%
%TO.N,Net-(U1-PadC3)*%
X59690000Y-74930000D03*
%TO.P,U1,C4*%
%TO.N,/RXI*%
X59690000Y-77470000D03*
%TO.P,U1,C5*%
%TO.N,/TXO*%
X59690000Y-80010000D03*
%TO.P,U1,C6*%
%TO.N,/DTR*%
X59690000Y-82550000D03*
%TO.P,U1,A1*%
%TO.N,Net-(U1-PadA1)*%
X53340000Y-82550000D03*
%TO.P,U1,A2*%
%TO.N,Net-(U1-PadA2)*%
X50800000Y-82550000D03*
%TO.P,U1,A3*%
%TO.N,Net-(U1-PadA3)*%
X48260000Y-82550000D03*
%TO.P,U1,A4*%
%TO.N,Net-(U1-PadA4)*%
X45720000Y-82550000D03*
%TO.P,U1,A5*%
%TO.N,Net-(U1-PadA5)*%
X43180000Y-82550000D03*
%TO.P,U1,A6*%
%TO.N,Net-(U1-PadA6)*%
X40640000Y-82550000D03*
%TO.P,U1,A7*%
%TO.N,GND*%
X38100000Y-82550000D03*
%TO.P,U1,B1*%
%TO.N,Net-(U1-PadB1)*%
X53340000Y-69850000D03*
%TO.P,U1,B2*%
%TO.N,Net-(U1-PadB2)*%
X50800000Y-69850000D03*
%TO.P,U1,B3*%
%TO.N,Net-(U1-PadB3)*%
X48260000Y-69850000D03*
%TO.P,U1,B4*%
%TO.N,Net-(U1-PadB4)*%
X45720000Y-69850000D03*
%TO.P,U1,B5*%
%TO.N,Net-(U1-PadB5)*%
X43180000Y-69850000D03*
%TO.P,U1,B6*%
%TO.N,Net-(U1-PadB6)*%
X40640000Y-69850000D03*
%TO.P,U1,B7*%
%TO.N,Net-(U1-PadB7)*%
X38100000Y-69850000D03*
%TD*%
D13*
%TO.P,J7,1*%
%TO.N,Net-(J7-Pad1)*%
X104775000Y-71755000D03*
D14*
%TO.P,J7,2*%
%TO.N,+3V3*%
X107315000Y-71755000D03*
%TO.P,J7,3*%
%TO.N,Net-(J7-Pad3)*%
X104775000Y-74295000D03*
%TO.P,J7,4*%
%TO.N,Net-(J7-Pad4)*%
X107315000Y-74295000D03*
%TO.P,J7,5*%
%TO.N,Net-(J7-Pad5)*%
X104775000Y-76835000D03*
%TO.P,J7,6*%
%TO.N,GND*%
X107315000Y-76835000D03*
%TD*%
D18*
%TO.P,C12,2*%
%TO.N,GND*%
X129500000Y-62865000D03*
%TO.P,C12,1*%
%TO.N,+12V*%
X127000000Y-62865000D03*
%TD*%
%TO.P,C13,1*%
%TO.N,+12V*%
X126365000Y-95250000D03*
%TO.P,C13,2*%
%TO.N,GND*%
X128865000Y-95250000D03*
%TD*%
%TO.P,C14,1*%
%TO.N,+12V*%
X158115000Y-67310000D03*
%TO.P,C14,2*%
%TO.N,GND*%
X160615000Y-67310000D03*
%TD*%
%TO.P,C15,2*%
%TO.N,GND*%
X154940000Y-99655000D03*
%TO.P,C15,1*%
%TO.N,+12V*%
X154940000Y-97155000D03*
%TD*%
D35*
%TO.N,+3V3*%
X101600000Y-42545000D03*
X69850000Y-44450000D03*
%TO.N,/LCD_RS*%
X86677500Y-53340000D03*
X59690000Y-55562500D03*
%TO.N,/LCD_E*%
X73342500Y-36195000D03*
X74295000Y-66357500D03*
%TO.N,/LCD_D4*%
X79349601Y-71412101D03*
X85699601Y-71412101D03*
%TO.N,/LCD_D5*%
X87630000Y-36512500D03*
%TO.N,/LCD_D7*%
X84455000Y-74295000D03*
X80645000Y-74295000D03*
%TO.N,Net-(R1-Pad2)*%
X93345000Y-66357500D03*
%TO.N,Net-(R2-Pad2)*%
X57150000Y-64452500D03*
X142557500Y-69850000D03*
%TO.N,Net-(R3-Pad2)*%
X62395190Y-59855190D03*
X110490000Y-61595000D03*
%TO.N,Net-(R6-Pad2)*%
X55880000Y-62865000D03*
%TO.N,/KNOB_A*%
X92392500Y-75247500D03*
%TO.N,/KNOB_B*%
X89535000Y-74930000D03*
%TO.N,/KNOB_R*%
X79349601Y-100939601D03*
%TO.N,Net-(U4-Pad1)*%
X48577500Y-51435000D03*
X88900000Y-53657500D03*
%TO.N,Net-(U4-Pad9)*%
X68580000Y-65405000D03*
%TO.N,/DRV4*%
X98425000Y-87630000D03*
X66992500Y-87312500D03*
%TO.N,Net-(U4-Pad16)*%
X50800000Y-61595000D03*
X90805000Y-61595000D03*
%TO.N,Net-(J7-Pad5)*%
X100965000Y-76835000D03*
%TD*%
D36*
%TO.N,+3V3*%
X102235000Y-35560000D02*
X102235000Y-41910000D01*
X102235000Y-41910000D02*
X101600000Y-42545000D01*
D37*
%TO.N,Net-(C7-Pad1)*%
X146213000Y-84423000D02*
X146213000Y-90015500D01*
X148907500Y-92710000D02*
X151130000Y-92710000D01*
X146213000Y-90015500D02*
X148907500Y-92710000D01*
X146204500Y-90015500D02*
X146213000Y-90015500D01*
%TO.N,Net-(C8-Pad1)*%
X113574000Y-88106000D02*
X113574000Y-94841500D01*
X115252500Y-96520000D02*
X118110000Y-96520000D01*
X113574000Y-94841500D02*
X115252500Y-96520000D01*
%TO.N,Net-(C9-Pad1)*%
X146213000Y-56356000D02*
X143192500Y-53335500D01*
X143192500Y-53335500D02*
X143192500Y-39052500D01*
X143192500Y-39052500D02*
X145732500Y-36512500D01*
X145732500Y-36512500D02*
X146050000Y-36195000D01*
X146213000Y-56356000D02*
X146213000Y-61758000D01*
X148590000Y-64135000D02*
X151130000Y-64135000D01*
X146213000Y-61758000D02*
X148590000Y-64135000D01*
%TO.N,Net-(C10-Pad1)*%
X113230000Y-49970000D02*
X113230000Y-56397500D01*
X115887500Y-59055000D02*
X117475000Y-59055000D01*
X113230000Y-56397500D02*
X115887500Y-59055000D01*
%TO.N,Net-(D1-Pad2)*%
X146213000Y-80867000D02*
X148590000Y-83244000D01*
X148590000Y-83244000D02*
X148590000Y-88265000D01*
X150495000Y-90170000D02*
X151130000Y-90170000D01*
X148590000Y-88265000D02*
X150495000Y-90170000D01*
%TO.N,Net-(D2-Pad2)*%
X115887500Y-86863500D02*
X113574000Y-84550000D01*
X115887500Y-93662500D02*
X115887500Y-86863500D01*
X116205000Y-93980000D02*
X115887500Y-93662500D01*
X118110000Y-93980000D02*
X116205000Y-93980000D01*
X113574000Y-84550000D02*
X113574000Y-82006000D01*
X113574000Y-82006000D02*
X118110000Y-77470000D01*
X124841000Y-77470000D02*
X126365000Y-75946000D01*
X118110000Y-77470000D02*
X124841000Y-77470000D01*
%TO.N,Net-(D3-Pad2)*%
X149542500Y-61595000D02*
X151130000Y-61595000D01*
X148907500Y-60960000D02*
X149542500Y-61595000D01*
X148907500Y-55494500D02*
X148907500Y-60960000D01*
X146213000Y-52800000D02*
X148907500Y-55494500D01*
%TO.N,Net-(D4-Pad2)*%
X113030000Y-46130000D02*
X115477500Y-48577500D01*
X115477500Y-54517500D02*
X117475000Y-56515000D01*
X115477500Y-48577500D02*
X115477500Y-54517500D01*
D38*
%TO.N,Net-(J1-Pad1)*%
X38735000Y-62230000D02*
X34290000Y-62230000D01*
X34290000Y-62230000D02*
X33655000Y-62865000D01*
X33655000Y-62865000D02*
X33655000Y-82867500D01*
X33655000Y-82867500D02*
X36195000Y-85407500D01*
X44767500Y-85407500D02*
X49530000Y-90170000D01*
X36195000Y-85407500D02*
X44767500Y-85407500D01*
D37*
%TO.N,Net-(J4-Pad1)*%
X171881800Y-57150000D02*
X171881800Y-71323200D01*
X171881800Y-71323200D02*
X164147500Y-79057500D01*
X164147500Y-79057500D02*
X164147500Y-85407500D01*
X164147500Y-85407500D02*
X154305000Y-95250000D01*
X154305000Y-95250000D02*
X148272500Y-95250000D01*
X143510000Y-100012500D02*
X143510000Y-100330000D01*
X148272500Y-95250000D02*
X143510000Y-100012500D01*
%TO.N,Net-(J5-Pad1)*%
X135890000Y-55041800D02*
X139496800Y-51435000D01*
X135890000Y-100330000D02*
X135890000Y-55041800D01*
D39*
%TO.N,/LCD_RS*%
X85937000Y-68368000D02*
X85937000Y-54080500D01*
X85725000Y-68580000D02*
X85937000Y-68368000D01*
X85937000Y-54080500D02*
X86677500Y-53340000D01*
X59690000Y-34425000D02*
X60120000Y-33995000D01*
X59690000Y-55562500D02*
X59690000Y-34425000D01*
%TO.N,/LCD_E*%
X73342500Y-36195000D02*
X73342500Y-65405000D01*
X73342500Y-65405000D02*
X74295000Y-66357500D01*
%TO.N,/LCD_D4*%
X79349601Y-35444601D02*
X79349601Y-71412101D01*
X77900000Y-33995000D02*
X79349601Y-35444601D01*
X85699601Y-83794601D02*
X85725000Y-83820000D01*
X85699601Y-71412101D02*
X85699601Y-83794601D01*
%TO.N,/LCD_D5*%
X87020399Y-82575399D02*
X87020399Y-55270399D01*
X88265000Y-83820000D02*
X87020399Y-82575399D01*
X87714810Y-54575988D02*
X87714810Y-36745190D01*
X87020399Y-55270399D02*
X87714810Y-54575988D01*
X87630000Y-36660380D02*
X87630000Y-36512500D01*
X87714810Y-36745190D02*
X87630000Y-36660380D01*
%TO.N,/LCD_D6*%
X83185000Y-80453990D02*
X83185000Y-83820000D01*
X81889601Y-79158591D02*
X83185000Y-80453990D01*
X81889601Y-68033389D02*
X81889601Y-79158591D01*
X82634801Y-67288189D02*
X81889601Y-68033389D01*
X82634801Y-34340199D02*
X82634801Y-67288189D01*
X82980000Y-33995000D02*
X82634801Y-34340199D01*
%TO.N,/LCD_D7*%
X85505190Y-66957800D02*
X84455000Y-68007990D01*
X85505190Y-34009810D02*
X85505190Y-66957800D01*
X85520000Y-33995000D02*
X85505190Y-34009810D01*
X84455000Y-68007990D02*
X84455000Y-74295000D01*
X80543399Y-83718399D02*
X80645000Y-83820000D01*
X80543399Y-74396601D02*
X80543399Y-83718399D01*
X80645000Y-74295000D02*
X80543399Y-74396601D01*
D37*
%TO.N,Net-(Q1-Pad3)*%
X152400000Y-86360000D02*
X151130000Y-87630000D01*
X152400000Y-79375000D02*
X152400000Y-86360000D01*
%TO.N,Net-(Q2-Pad3)*%
X119380000Y-90170000D02*
X118110000Y-91440000D01*
X119380000Y-81915000D02*
X119380000Y-90170000D01*
%TO.N,Net-(Q3-Pad3)*%
X152309000Y-57876000D02*
X151130000Y-59055000D01*
X152309000Y-51435000D02*
X152309000Y-57876000D01*
%TO.N,Net-(Q4-Pad3)*%
X118745000Y-52705000D02*
X117475000Y-53975000D01*
X118745000Y-46990000D02*
X118745000Y-52705000D01*
D39*
%TO.N,Net-(R1-Pad2)*%
X93345000Y-52070000D02*
X94615000Y-50800000D01*
X93345000Y-66357500D02*
X93345000Y-52070000D01*
%TO.N,Net-(R2-Pad2)*%
X56984810Y-41744810D02*
X56984810Y-64287310D01*
X55880000Y-40640000D02*
X56984810Y-41744810D01*
X56984810Y-64287310D02*
X57150000Y-64452500D01*
X144748000Y-94583000D02*
X146213000Y-94583000D01*
X142557500Y-92392500D02*
X144748000Y-94583000D01*
X142557500Y-69850000D02*
X142557500Y-92392500D01*
%TO.N,Net-(R3-Pad2)*%
X62395190Y-41744810D02*
X62395190Y-59855190D01*
X63500000Y-40640000D02*
X62395190Y-41744810D01*
X110490000Y-95182000D02*
X113574000Y-98266000D01*
X110490000Y-61595000D02*
X110490000Y-95182000D01*
%TO.N,Net-(R6-Pad2)*%
X55880000Y-48260000D02*
X55880000Y-62865000D01*
%TO.N,/LCD_LIGHT*%
X95885000Y-59690000D02*
X95885000Y-68580000D01*
X104140000Y-51435000D02*
X95885000Y-59690000D01*
D37*
%TO.N,/KNOB_A*%
X92202000Y-80899000D02*
X103441500Y-80899000D01*
X104140000Y-81597500D02*
X104140000Y-90170000D01*
X103441500Y-80899000D02*
X104140000Y-81597500D01*
D39*
X92392500Y-80708500D02*
X92202000Y-80899000D01*
X92392500Y-75247500D02*
X92392500Y-80708500D01*
D37*
%TO.N,/KNOB_B*%
X90970101Y-82207101D02*
X99669601Y-82207101D01*
X89662000Y-80899000D02*
X90970101Y-82207101D01*
X100330000Y-82867500D02*
X100330000Y-90170000D01*
X99669601Y-82207101D02*
X100330000Y-82867500D01*
D39*
X89535000Y-80772000D02*
X89662000Y-80899000D01*
X89535000Y-74930000D02*
X89535000Y-80772000D01*
%TO.N,/KNOB_R*%
X79349601Y-81000601D02*
X79349601Y-100939601D01*
X79248000Y-80899000D02*
X79349601Y-81000601D01*
X79349601Y-100939601D02*
X80645000Y-102235000D01*
X94615000Y-102235000D02*
X96520000Y-100330000D01*
X80645000Y-102235000D02*
X94615000Y-102235000D01*
%TO.N,/KNOB_G*%
X88417399Y-73507601D02*
X93345000Y-68580000D01*
X88417399Y-81496409D02*
X88417399Y-73507601D01*
X89509601Y-82588611D02*
X88417399Y-81496409D01*
X89509601Y-84417409D02*
X89509601Y-82588611D01*
X93814801Y-88722609D02*
X89509601Y-84417409D01*
X93814801Y-99225199D02*
X93814801Y-88722609D01*
X92710000Y-100330000D02*
X93814801Y-99225199D01*
%TO.N,Net-(U3-Pad1)*%
X66040000Y-48260000D02*
X66040000Y-40640000D01*
X53340000Y-40640000D02*
X53340000Y-48260000D01*
%TO.N,Net-(U4-Pad1)*%
X50800000Y-40640000D02*
X48577500Y-42862500D01*
X48577500Y-42862500D02*
X48577500Y-51435000D01*
X88900000Y-67945000D02*
X88265000Y-68580000D01*
X88900000Y-53657500D02*
X88900000Y-67945000D01*
%TO.N,Net-(U4-Pad9)*%
X68580000Y-48260000D02*
X68580000Y-65405000D01*
%TO.N,/DRV4*%
X98425000Y-83820000D02*
X98425000Y-87630000D01*
X67475190Y-49932708D02*
X67475190Y-41744810D01*
X65530199Y-51877699D02*
X67475190Y-49932708D01*
X65530199Y-85850199D02*
X65530199Y-51877699D01*
X67475190Y-41744810D02*
X68580000Y-40640000D01*
X66992500Y-87312500D02*
X65530199Y-85850199D01*
%TO.N,Net-(U4-Pad16)*%
X50800000Y-48260000D02*
X50800000Y-61595000D01*
X90805000Y-61595000D02*
X90805000Y-68580000D01*
D37*
%TO.N,Net-(J7-Pad5)*%
X100965000Y-76835000D02*
X104775000Y-76835000D01*
%TD*%
M02*
