%TF.GenerationSoftware,KiCad,Pcbnew,5.1.10-88a1d61d58~88~ubuntu18.04.1*%
%TF.CreationDate,2021-10-25T10:41:03-04:00*%
%TF.ProjectId,mctens,6d637465-6e73-42e6-9b69-6361645f7063,rev?*%
%TF.SameCoordinates,Original*%
%TF.FileFunction,Soldermask,Top*%
%TF.FilePolarity,Negative*%
%FSLAX46Y46*%
G04 Gerber Fmt 4.6, Leading zero omitted, Abs format (unit mm)*
G04 Created by KiCad (PCBNEW 5.1.10-88a1d61d58~88~ubuntu18.04.1) date 2021-10-25 10:41:03*
%MOMM*%
%LPD*%
G01*
G04 APERTURE LIST*
%ADD10C,1.524000*%
%ADD11C,3.048000*%
%ADD12C,3.000000*%
%ADD13R,1.700000X1.700000*%
%ADD14O,1.700000X1.700000*%
%ADD15C,1.651000*%
%ADD16R,2.500000X2.500000*%
%ADD17C,1.650000*%
%ADD18C,1.600000*%
%ADD19C,1.879600*%
%ADD20O,2.400000X2.400000*%
%ADD21C,2.400000*%
%ADD22O,2.200000X2.200000*%
%ADD23R,2.200000X2.200000*%
%ADD24R,1.800000X1.800000*%
%ADD25C,1.800000*%
%ADD26O,3.300000X2.700000*%
%ADD27O,2.000000X1.905000*%
%ADD28R,2.000000X1.905000*%
%ADD29O,1.600000X1.600000*%
%ADD30C,1.440000*%
%ADD31R,1.905000X2.000000*%
%ADD32O,1.905000X2.000000*%
%ADD33R,1.600000X2.400000*%
%ADD34O,1.600000X2.400000*%
%ADD35C,4.300000*%
G04 APERTURE END LIST*
D10*
%TO.C,T1*%
X158750000Y-85725000D03*
X158750000Y-81470500D03*
X158750000Y-77216000D03*
X171881800Y-77216000D03*
X171881800Y-81470500D03*
X171881800Y-85725000D03*
D11*
X165328600Y-93929200D03*
X165328600Y-69011800D03*
%TD*%
D10*
%TO.C,T2*%
X126365000Y-84455000D03*
X126365000Y-80200500D03*
X126365000Y-75946000D03*
X139496800Y-75946000D03*
X139496800Y-80200500D03*
X139496800Y-84455000D03*
D11*
X132943600Y-92659200D03*
X132943600Y-67741800D03*
%TD*%
D10*
%TO.C,T3*%
X158750000Y-57150000D03*
X158750000Y-52895500D03*
X158750000Y-48641000D03*
X171881800Y-48641000D03*
X171881800Y-52895500D03*
X171881800Y-57150000D03*
D11*
X165328600Y-65354200D03*
X165328600Y-40436800D03*
%TD*%
D10*
%TO.C,T4*%
X126365000Y-51435000D03*
X126365000Y-47180500D03*
X126365000Y-42926000D03*
X139496800Y-42926000D03*
X139496800Y-47180500D03*
X139496800Y-51435000D03*
D11*
X132943600Y-59639200D03*
X132943600Y-34721800D03*
%TD*%
D12*
%TO.C,J6*%
X122000000Y-33995000D03*
X122000000Y-64995000D03*
X47000000Y-64995000D03*
X47000000Y-33995000D03*
D13*
X52500000Y-33995000D03*
D14*
X55040000Y-33995000D03*
X57580000Y-33995000D03*
X60120000Y-33995000D03*
X62660000Y-33995000D03*
X65200000Y-33995000D03*
X67740000Y-33995000D03*
X70280000Y-33995000D03*
X72820000Y-33995000D03*
X75360000Y-33995000D03*
X77900000Y-33995000D03*
X80440000Y-33995000D03*
X82980000Y-33995000D03*
X85520000Y-33995000D03*
X88060000Y-33995000D03*
X90600000Y-33995000D03*
%TD*%
D15*
%TO.C,SW1*%
X36195000Y-54610000D03*
X38735000Y-54610000D03*
X36195000Y-64770000D03*
X38735000Y-64770000D03*
X38735000Y-57150000D03*
X38735000Y-62230000D03*
%TD*%
D16*
%TO.C,SW2*%
X63515000Y-71160000D03*
X63515000Y-82160000D03*
D17*
X71015000Y-74160000D03*
X71015000Y-79160000D03*
X71015000Y-76660000D03*
D18*
X56515000Y-79660000D03*
X56515000Y-77660000D03*
X56515000Y-75660000D03*
X56515000Y-73660000D03*
%TD*%
D19*
%TO.C,U5*%
X67945000Y-82550000D03*
X67945000Y-80010000D03*
X67945000Y-77470000D03*
X67945000Y-74930000D03*
X67945000Y-72390000D03*
X67945000Y-69850000D03*
X81788000Y-80899000D03*
X79248000Y-80899000D03*
X89662000Y-80899000D03*
X92202000Y-80899000D03*
X70485000Y-83820000D03*
X73025000Y-83820000D03*
X75565000Y-83820000D03*
X78105000Y-83820000D03*
X80645000Y-83820000D03*
X83185000Y-83820000D03*
X85725000Y-83820000D03*
X88265000Y-83820000D03*
X90805000Y-83820000D03*
X93345000Y-83820000D03*
X95885000Y-83820000D03*
X98425000Y-83820000D03*
X98425000Y-68580000D03*
X95885000Y-68580000D03*
X93345000Y-68580000D03*
X90805000Y-68580000D03*
X88265000Y-68580000D03*
X85725000Y-68580000D03*
X83185000Y-68580000D03*
X80645000Y-68580000D03*
X78105000Y-68580000D03*
X75565000Y-68580000D03*
X73025000Y-68580000D03*
X70485000Y-68580000D03*
%TD*%
D20*
%TO.C,R4*%
X152400000Y-71755000D03*
D21*
X152400000Y-79375000D03*
%TD*%
D20*
%TO.C,R5*%
X119380000Y-74295000D03*
D21*
X119380000Y-81915000D03*
%TD*%
D20*
%TO.C,R8*%
X152309000Y-43815000D03*
D21*
X152309000Y-51435000D03*
%TD*%
D20*
%TO.C,R9*%
X118745000Y-39370000D03*
D21*
X118745000Y-46990000D03*
%TD*%
D18*
%TO.C,C1*%
X43180000Y-95885000D03*
X43180000Y-98385000D03*
%TD*%
%TO.C,C2*%
X64770000Y-87630000D03*
X62270000Y-87630000D03*
%TD*%
%TO.C,C3*%
X99695000Y-46315000D03*
X99695000Y-43815000D03*
%TD*%
%TO.C,C4*%
X77470000Y-48895000D03*
X77470000Y-46395000D03*
%TD*%
%TO.C,C5*%
X60920000Y-53340000D03*
X58420000Y-53340000D03*
%TD*%
%TO.C,C6*%
X64135000Y-53340000D03*
X66635000Y-53340000D03*
%TD*%
%TO.C,C7*%
X138470000Y-95250000D03*
X140970000Y-95250000D03*
%TD*%
%TO.C,C8*%
X109220000Y-85765000D03*
X109220000Y-88265000D03*
%TD*%
%TO.C,C9*%
X146050000Y-36195000D03*
X148550000Y-36195000D03*
%TD*%
%TO.C,C10*%
X108585000Y-52070000D03*
X108585000Y-49570000D03*
%TD*%
%TO.C,C11*%
X61595000Y-95845000D03*
X61595000Y-93345000D03*
%TD*%
D22*
%TO.C,D1*%
X146213000Y-80867000D03*
D23*
X146213000Y-70707000D03*
%TD*%
%TO.C,D2*%
X113574000Y-74390000D03*
D22*
X113574000Y-84550000D03*
%TD*%
%TO.C,D3*%
X146213000Y-52800000D03*
D23*
X146213000Y-42640000D03*
%TD*%
%TO.C,D4*%
X113030000Y-35970000D03*
D22*
X113030000Y-46130000D03*
%TD*%
D24*
%TO.C,D5*%
X68580000Y-99695000D03*
D25*
X66040000Y-99695000D03*
%TD*%
%TO.C,D6*%
X66040000Y-93980000D03*
D24*
X68580000Y-93980000D03*
%TD*%
%TO.C,J1*%
G36*
G01*
X48130001Y-88820000D02*
X50929999Y-88820000D01*
G75*
G02*
X51180000Y-89070001I0J-250001D01*
G01*
X51180000Y-91269999D01*
G75*
G02*
X50929999Y-91520000I-250001J0D01*
G01*
X48130001Y-91520000D01*
G75*
G02*
X47880000Y-91269999I0J250001D01*
G01*
X47880000Y-89070001D01*
G75*
G02*
X48130001Y-88820000I250001J0D01*
G01*
G37*
D26*
X55030000Y-90170000D03*
%TD*%
D13*
%TO.C,J2*%
X151130000Y-100330000D03*
D14*
X148590000Y-100330000D03*
%TD*%
D13*
%TO.C,J3*%
X128270000Y-100330000D03*
D14*
X125730000Y-100330000D03*
%TD*%
%TO.C,J4*%
X140970000Y-100330000D03*
D13*
X143510000Y-100330000D03*
%TD*%
D14*
%TO.C,J5*%
X133350000Y-100330000D03*
D13*
X135890000Y-100330000D03*
%TD*%
D27*
%TO.C,Q1*%
X151130000Y-87630000D03*
X151130000Y-90170000D03*
D28*
X151130000Y-92710000D03*
%TD*%
%TO.C,Q2*%
X118110000Y-96520000D03*
D27*
X118110000Y-93980000D03*
X118110000Y-91440000D03*
%TD*%
%TO.C,Q3*%
X151130000Y-59055000D03*
X151130000Y-61595000D03*
D28*
X151130000Y-64135000D03*
%TD*%
%TO.C,Q4*%
X117475000Y-59055000D03*
D27*
X117475000Y-56515000D03*
X117475000Y-53975000D03*
%TD*%
D18*
%TO.C,R1*%
X94615000Y-40640000D03*
D29*
X94615000Y-50800000D03*
%TD*%
D18*
%TO.C,R2*%
X146213000Y-84423000D03*
D29*
X146213000Y-94583000D03*
%TD*%
%TO.C,R3*%
X113574000Y-98266000D03*
D18*
X113574000Y-88106000D03*
%TD*%
%TO.C,R6*%
X146213000Y-56356000D03*
D29*
X146213000Y-66516000D03*
%TD*%
D18*
%TO.C,R7*%
X113230000Y-49970000D03*
D29*
X113230000Y-60130000D03*
%TD*%
%TO.C,R10*%
X73660000Y-99695000D03*
D18*
X83820000Y-99695000D03*
%TD*%
%TO.C,R11*%
X83820000Y-93980000D03*
D29*
X73660000Y-93980000D03*
%TD*%
%TO.C,R12*%
X104140000Y-51435000D03*
D18*
X104140000Y-41275000D03*
%TD*%
D29*
%TO.C,R13*%
X104140000Y-90170000D03*
D18*
X104140000Y-100330000D03*
%TD*%
D29*
%TO.C,R14*%
X100330000Y-90170000D03*
D18*
X100330000Y-100330000D03*
%TD*%
%TO.C,R15*%
X88900000Y-100330000D03*
D29*
X88900000Y-90170000D03*
%TD*%
%TO.C,R16*%
X96520000Y-90170000D03*
D18*
X96520000Y-100330000D03*
%TD*%
%TO.C,R17*%
X92710000Y-100330000D03*
D29*
X92710000Y-90170000D03*
%TD*%
D30*
%TO.C,RV1*%
X102235000Y-35560000D03*
X104775000Y-33020000D03*
X107315000Y-35560000D03*
%TD*%
D31*
%TO.C,U2*%
X50165000Y-96520000D03*
D32*
X52705000Y-96520000D03*
X55245000Y-96520000D03*
%TD*%
D33*
%TO.C,U4*%
X50800000Y-40640000D03*
D34*
X68580000Y-48260000D03*
X53340000Y-40640000D03*
X66040000Y-48260000D03*
X55880000Y-40640000D03*
X63500000Y-48260000D03*
X58420000Y-40640000D03*
X60960000Y-48260000D03*
X60960000Y-40640000D03*
X58420000Y-48260000D03*
X63500000Y-40640000D03*
X55880000Y-48260000D03*
X66040000Y-40640000D03*
X53340000Y-48260000D03*
X68580000Y-40640000D03*
X50800000Y-48260000D03*
%TD*%
D33*
%TO.C,U3*%
X81530000Y-40891000D03*
D34*
X89150000Y-48511000D03*
X84070000Y-40891000D03*
X86610000Y-48511000D03*
X86610000Y-40891000D03*
X84070000Y-48511000D03*
X89150000Y-40891000D03*
X81530000Y-48511000D03*
%TD*%
D35*
%TO.C,H1*%
X161290000Y-34925000D03*
%TD*%
%TO.C,H2*%
X161290000Y-98425000D03*
%TD*%
%TO.C,H3*%
X37465000Y-43180000D03*
%TD*%
%TO.C,H4*%
X37465000Y-90170000D03*
%TD*%
D10*
%TO.C,U1*%
X59690000Y-69850000D03*
X59690000Y-72390000D03*
X59690000Y-74930000D03*
X59690000Y-77470000D03*
X59690000Y-80010000D03*
X59690000Y-82550000D03*
X53340000Y-82550000D03*
X50800000Y-82550000D03*
X48260000Y-82550000D03*
X45720000Y-82550000D03*
X43180000Y-82550000D03*
X40640000Y-82550000D03*
X38100000Y-82550000D03*
X53340000Y-69850000D03*
X50800000Y-69850000D03*
X48260000Y-69850000D03*
X45720000Y-69850000D03*
X43180000Y-69850000D03*
X40640000Y-69850000D03*
X38100000Y-69850000D03*
%TD*%
D13*
%TO.C,J7*%
X104775000Y-71755000D03*
D14*
X107315000Y-71755000D03*
X104775000Y-74295000D03*
X107315000Y-74295000D03*
X104775000Y-76835000D03*
X107315000Y-76835000D03*
%TD*%
D18*
%TO.C,C12*%
X129500000Y-62865000D03*
X127000000Y-62865000D03*
%TD*%
%TO.C,C13*%
X126365000Y-95250000D03*
X128865000Y-95250000D03*
%TD*%
%TO.C,C14*%
X158115000Y-67310000D03*
X160615000Y-67310000D03*
%TD*%
%TO.C,C15*%
X154940000Y-99655000D03*
X154940000Y-97155000D03*
%TD*%
M02*
