%TF.GenerationSoftware,KiCad,Pcbnew,8.0.1*%
%TF.CreationDate,2024-04-01T13:33:58-04:00*%
%TF.ProjectId,BatteryPCB,42617474-6572-4795-9043-422e6b696361,rev?*%
%TF.SameCoordinates,Original*%
%TF.FileFunction,Copper,L1,Top*%
%TF.FilePolarity,Positive*%
%FSLAX46Y46*%
G04 Gerber Fmt 4.6, Leading zero omitted, Abs format (unit mm)*
G04 Created by KiCad (PCBNEW 8.0.1) date 2024-04-01 13:33:58*
%MOMM*%
%LPD*%
G01*
G04 APERTURE LIST*
G04 Aperture macros list*
%AMRoundRect*
0 Rectangle with rounded corners*
0 $1 Rounding radius*
0 $2 $3 $4 $5 $6 $7 $8 $9 X,Y pos of 4 corners*
0 Add a 4 corners polygon primitive as box body*
4,1,4,$2,$3,$4,$5,$6,$7,$8,$9,$2,$3,0*
0 Add four circle primitives for the rounded corners*
1,1,$1+$1,$2,$3*
1,1,$1+$1,$4,$5*
1,1,$1+$1,$6,$7*
1,1,$1+$1,$8,$9*
0 Add four rect primitives between the rounded corners*
20,1,$1+$1,$2,$3,$4,$5,0*
20,1,$1+$1,$4,$5,$6,$7,0*
20,1,$1+$1,$6,$7,$8,$9,0*
20,1,$1+$1,$8,$9,$2,$3,0*%
G04 Aperture macros list end*
%TA.AperFunction,ComponentPad*%
%ADD10C,2.032000*%
%TD*%
%TA.AperFunction,ComponentPad*%
%ADD11R,1.700000X1.700000*%
%TD*%
%TA.AperFunction,ComponentPad*%
%ADD12O,1.700000X1.700000*%
%TD*%
%TA.AperFunction,ComponentPad*%
%ADD13C,1.219200*%
%TD*%
%TA.AperFunction,ComponentPad*%
%ADD14R,1.651000X1.651000*%
%TD*%
%TA.AperFunction,ComponentPad*%
%ADD15C,1.651000*%
%TD*%
%TA.AperFunction,ComponentPad*%
%ADD16C,2.000000*%
%TD*%
%TA.AperFunction,ComponentPad*%
%ADD17C,1.400000*%
%TD*%
%TA.AperFunction,ComponentPad*%
%ADD18R,1.600000X1.600000*%
%TD*%
%TA.AperFunction,ComponentPad*%
%ADD19O,1.600000X1.600000*%
%TD*%
%TA.AperFunction,SMDPad,CuDef*%
%ADD20RoundRect,0.250000X-0.650000X0.412500X-0.650000X-0.412500X0.650000X-0.412500X0.650000X0.412500X0*%
%TD*%
%TA.AperFunction,ComponentPad*%
%ADD21R,1.900000X1.900000*%
%TD*%
%TA.AperFunction,ComponentPad*%
%ADD22C,1.900000*%
%TD*%
%TA.AperFunction,SMDPad,CuDef*%
%ADD23RoundRect,0.250000X-0.412500X-0.650000X0.412500X-0.650000X0.412500X0.650000X-0.412500X0.650000X0*%
%TD*%
%TA.AperFunction,Conductor*%
%ADD24C,0.250000*%
%TD*%
G04 APERTURE END LIST*
D10*
%TO.P,SW1,1*%
%TO.N,Net-(BT1-+)*%
X120320000Y-51740000D03*
%TO.P,SW1,2*%
%TO.N,Net-(U1-IN)*%
X125020001Y-51740000D03*
%TO.P,SW1,3*%
%TO.N,N/C*%
X129720001Y-51740000D03*
%TD*%
D11*
%TO.P,J4,1,Pin_1*%
%TO.N,unconnected-(J4-Pin_1-Pad1)*%
X160960000Y-59360000D03*
D12*
%TO.P,J4,2,Pin_2*%
%TO.N,unconnected-(J4-Pin_2-Pad2)*%
X160960000Y-61900000D03*
%TD*%
D13*
%TO.P,RV2,1,1*%
%TO.N,Net-(RV2-Pad1)*%
X102540000Y-84760000D03*
%TO.P,RV2,2,2*%
%TO.N,Net-(RV2-Pad2)*%
X105080000Y-82220000D03*
%TO.P,RV2,3,3*%
%TO.N,GND*%
X107620000Y-84760000D03*
%TD*%
%TO.P,RV1,1,1*%
%TO.N,Net-(RV1-Pad1)*%
X153340000Y-84760000D03*
%TO.P,RV1,2,2*%
%TO.N,Net-(RV1-Pad2)*%
X155880000Y-82220000D03*
%TO.P,RV1,3,3*%
%TO.N,-VSW*%
X158420000Y-84760000D03*
%TD*%
D14*
%TO.P,U1,1,IN*%
%TO.N,Net-(U1-IN)*%
X138100000Y-51740000D03*
D15*
%TO.P,U1,2,GND*%
%TO.N,GND*%
X140640000Y-51740000D03*
%TO.P,U1,3,OUT*%
%TO.N,+5V*%
X143180000Y-51740000D03*
%TD*%
D16*
%TO.P,J1,1,Pin_1*%
%TO.N,HT*%
X136590000Y-94920000D03*
%TD*%
D17*
%TO.P,C2,1*%
%TO.N,+5V*%
X143220000Y-56820000D03*
%TO.P,C2,2*%
%TO.N,GND*%
X145720000Y-56820000D03*
%TD*%
D18*
%TO.P,U2,1*%
%TO.N,N/C*%
X112695000Y-63165000D03*
D19*
%TO.P,U2,2,-VIN*%
%TO.N,GND*%
X112695000Y-65705000D03*
%TO.P,U2,3,-VIN*%
X112695000Y-68245000D03*
%TO.P,U2,4*%
%TO.N,N/C*%
X112695000Y-70785000D03*
%TO.P,U2,5*%
X112695000Y-73325000D03*
%TO.P,U2,6*%
X112695000Y-75865000D03*
%TO.P,U2,7*%
X112695000Y-78405000D03*
%TO.P,U2,8,VADJ*%
%TO.N,Net-(RV2-Pad2)*%
X112695000Y-80945000D03*
%TO.P,U2,9,VREF*%
%TO.N,Net-(RV2-Pad1)*%
X112695000Y-83485000D03*
%TO.P,U2,10,-VOUT*%
%TO.N,GND*%
X112695000Y-86025000D03*
%TO.P,U2,11*%
%TO.N,N/C*%
X112695000Y-88565000D03*
%TO.P,U2,12,+VOUT*%
%TO.N,HT*%
X112695000Y-91105000D03*
%TO.P,U2,13,+VOUT*%
X127935000Y-91105000D03*
%TO.P,U2,14*%
%TO.N,N/C*%
X127935000Y-88565000D03*
%TO.P,U2,15,-VOUT*%
%TO.N,GND*%
X127935000Y-86025000D03*
%TO.P,U2,16,VREF*%
%TO.N,Net-(RV2-Pad1)*%
X127935000Y-83485000D03*
%TO.P,U2,17,VADJ*%
%TO.N,Net-(RV2-Pad2)*%
X127935000Y-80945000D03*
%TO.P,U2,18*%
%TO.N,N/C*%
X127935000Y-78405000D03*
%TO.P,U2,19*%
X127935000Y-75865000D03*
%TO.P,U2,20*%
X127935000Y-73325000D03*
%TO.P,U2,21*%
X127935000Y-70785000D03*
%TO.P,U2,22,+VIN*%
%TO.N,Net-(C3-Pad2)*%
X127935000Y-68245000D03*
%TO.P,U2,23,+VIN*%
X127935000Y-65705000D03*
%TO.P,U2,24*%
%TO.N,N/C*%
X127935000Y-63165000D03*
%TD*%
D16*
%TO.P,J3,1,Pin_1*%
%TO.N,GND*%
X144690000Y-94920000D03*
%TD*%
D20*
%TO.P,C6,1*%
%TO.N,-VSW*%
X153340000Y-90817500D03*
%TO.P,C6,2*%
%TO.N,GND*%
X153340000Y-93942500D03*
%TD*%
D17*
%TO.P,C1,1*%
%TO.N,Net-(U1-IN)*%
X135600000Y-56820000D03*
%TO.P,C1,2*%
%TO.N,GND*%
X138100000Y-56820000D03*
%TD*%
D21*
%TO.P,BT1,1,+*%
%TO.N,Net-(BT1-+)*%
X105080000Y-51740000D03*
D22*
%TO.P,BT1,2,-*%
%TO.N,GND*%
X105080000Y-57239999D03*
%TD*%
D18*
%TO.P,U3,1*%
%TO.N,N/C*%
X133015000Y-63165000D03*
D19*
%TO.P,U3,2,-VIN*%
%TO.N,GND*%
X133015000Y-65705000D03*
%TO.P,U3,3,-VIN*%
X133015000Y-68245000D03*
%TO.P,U3,4*%
%TO.N,N/C*%
X133015000Y-70785000D03*
%TO.P,U3,5*%
X133015000Y-73325000D03*
%TO.P,U3,6*%
X133015000Y-75865000D03*
%TO.P,U3,7*%
X133015000Y-78405000D03*
%TO.P,U3,8,VADJ*%
%TO.N,Net-(RV1-Pad2)*%
X133015000Y-80945000D03*
%TO.P,U3,9,VREF*%
%TO.N,Net-(RV1-Pad1)*%
X133015000Y-83485000D03*
%TO.P,U3,10,-VOUT*%
%TO.N,-VSW*%
X133015000Y-86025000D03*
%TO.P,U3,11*%
%TO.N,N/C*%
X133015000Y-88565000D03*
%TO.P,U3,12,+VOUT*%
%TO.N,GND*%
X133015000Y-91105000D03*
%TO.P,U3,13,+VOUT*%
X148255000Y-91105000D03*
%TO.P,U3,14*%
%TO.N,N/C*%
X148255000Y-88565000D03*
%TO.P,U3,15,-VOUT*%
%TO.N,-VSW*%
X148255000Y-86025000D03*
%TO.P,U3,16,VREF*%
%TO.N,Net-(RV1-Pad1)*%
X148255000Y-83485000D03*
%TO.P,U3,17,VADJ*%
%TO.N,Net-(RV1-Pad2)*%
X148255000Y-80945000D03*
%TO.P,U3,18*%
%TO.N,N/C*%
X148255000Y-78405000D03*
%TO.P,U3,19*%
X148255000Y-75865000D03*
%TO.P,U3,20*%
X148255000Y-73325000D03*
%TO.P,U3,21*%
X148255000Y-70785000D03*
%TO.P,U3,22,+VIN*%
%TO.N,Net-(C3-Pad2)*%
X148255000Y-68245000D03*
%TO.P,U3,23,+VIN*%
X148255000Y-65705000D03*
%TO.P,U3,24*%
%TO.N,N/C*%
X148255000Y-63165000D03*
%TD*%
D20*
%TO.P,C5,1*%
%TO.N,GND*%
X153340000Y-60337500D03*
%TO.P,C5,2*%
%TO.N,Net-(C3-Pad2)*%
X153340000Y-63462500D03*
%TD*%
D23*
%TO.P,C3,1*%
%TO.N,GND*%
X122860000Y-59360000D03*
%TO.P,C3,2*%
%TO.N,Net-(C3-Pad2)*%
X125985000Y-59360000D03*
%TD*%
D16*
%TO.P,J2,1,Pin_1*%
%TO.N,-VSW*%
X140640000Y-94920000D03*
%TD*%
D23*
%TO.P,C4,1*%
%TO.N,GND*%
X123842500Y-94920000D03*
%TO.P,C4,2*%
%TO.N,HT*%
X126967500Y-94920000D03*
%TD*%
D10*
%TO.P,SW2,1*%
%TO.N,+5V*%
X150800000Y-52273400D03*
%TO.P,SW2,2*%
%TO.N,Net-(C3-Pad2)*%
X155500001Y-52273400D03*
%TO.P,SW2,3*%
%TO.N,N/C*%
X160200001Y-52273400D03*
%TD*%
D24*
%TO.N,Net-(U1-IN)*%
X138100000Y-54320000D02*
X135600000Y-56820000D01*
X138100000Y-51740000D02*
X138100000Y-54320000D01*
X130100001Y-56820000D02*
X135600000Y-56820000D01*
X125020001Y-51740000D02*
X130100001Y-56820000D01*
%TO.N,GND*%
X127935000Y-86025000D02*
X116505000Y-86025000D01*
X112695000Y-86025000D02*
X111570000Y-87150000D01*
X151092500Y-93942500D02*
X148255000Y-91105000D01*
X112695000Y-86025000D02*
X116505000Y-86025000D01*
X153340000Y-60337500D02*
X149237500Y-60337500D01*
X124085000Y-58135000D02*
X136785000Y-58135000D01*
X153340000Y-93942500D02*
X151092500Y-93942500D01*
X111570000Y-91570991D02*
X112229009Y-92230000D01*
X111570000Y-87150000D02*
X111570000Y-91570991D01*
X122860000Y-59360000D02*
X124085000Y-58135000D01*
X112229009Y-92230000D02*
X121152500Y-92230000D01*
X121152500Y-92230000D02*
X123842500Y-94920000D01*
X136785000Y-58135000D02*
X138100000Y-56820000D01*
X149237500Y-60337500D02*
X145720000Y-56820000D01*
%TO.N,+5V*%
X143713400Y-52273400D02*
X143180000Y-51740000D01*
X143180000Y-51740000D02*
X143180000Y-56780000D01*
X150800000Y-52273400D02*
X143713400Y-52273400D01*
X143180000Y-56780000D02*
X143220000Y-56820000D01*
%TO.N,Net-(C3-Pad2)*%
X129060000Y-62435000D02*
X129060000Y-64580000D01*
X151097500Y-65705000D02*
X153340000Y-63462500D01*
X147130000Y-66830000D02*
X129060000Y-66830000D01*
X155500001Y-61302499D02*
X153340000Y-63462500D01*
X129060000Y-64580000D02*
X127935000Y-65705000D01*
X148255000Y-65705000D02*
X151097500Y-65705000D01*
X129060000Y-66830000D02*
X127935000Y-65705000D01*
X125985000Y-59360000D02*
X129060000Y-62435000D01*
X148255000Y-65705000D02*
X147130000Y-66830000D01*
X148255000Y-65705000D02*
X148255000Y-68245000D01*
X148552500Y-66002500D02*
X148255000Y-65705000D01*
X127935000Y-68245000D02*
X127935000Y-65705000D01*
X155500001Y-52273400D02*
X155500001Y-61302499D01*
%TO.N,HT*%
X127935000Y-93952500D02*
X126967500Y-94920000D01*
X127935000Y-91105000D02*
X127935000Y-93952500D01*
X136590000Y-94920000D02*
X131750000Y-94920000D01*
X131750000Y-94920000D02*
X127935000Y-91105000D01*
X112695000Y-91105000D02*
X127935000Y-91105000D01*
%TO.N,-VSW*%
X140640000Y-92380000D02*
X146995000Y-86025000D01*
X140640000Y-94920000D02*
X140640000Y-92380000D01*
X158420000Y-84760000D02*
X153340000Y-89840000D01*
X153047500Y-90817500D02*
X148255000Y-86025000D01*
X133015000Y-86025000D02*
X148255000Y-86025000D01*
X153340000Y-89840000D02*
X153340000Y-90817500D01*
X146995000Y-86025000D02*
X148255000Y-86025000D01*
X153340000Y-90817500D02*
X153047500Y-90817500D01*
%TO.N,Net-(RV2-Pad1)*%
X112695000Y-83485000D02*
X127935000Y-83485000D01*
X102540000Y-84760000D02*
X103815000Y-83485000D01*
X103815000Y-83485000D02*
X112695000Y-83485000D01*
%TO.N,Net-(RV2-Pad2)*%
X105080000Y-82220000D02*
X107620000Y-82220000D01*
X107620000Y-82220000D02*
X108895000Y-80945000D01*
X108895000Y-80945000D02*
X112695000Y-80945000D01*
X112695000Y-80945000D02*
X127935000Y-80945000D01*
%TO.N,Net-(RV1-Pad2)*%
X148255000Y-80945000D02*
X154605000Y-80945000D01*
X154605000Y-80945000D02*
X155880000Y-82220000D01*
X148255000Y-80945000D02*
X133015000Y-80945000D01*
%TO.N,Net-(RV1-Pad1)*%
X148255000Y-83485000D02*
X152065000Y-83485000D01*
X152065000Y-83485000D02*
X153340000Y-84760000D01*
X133015000Y-83485000D02*
X148255000Y-83485000D01*
%TO.N,Net-(BT1-+)*%
X120320000Y-51740000D02*
X105080000Y-51740000D01*
%TD*%
M02*
