M48
; DRILL file {KiCad 8.0.1} date 2024-04-01T13:34:06-0400
; FORMAT={-:-/ absolute / inch / decimal}
; #@! TF.CreationDate,2024-04-01T13:34:06-04:00
; #@! TF.GenerationSoftware,Kicad,Pcbnew,8.0.1
; #@! TF.FileFunction,MixedPlating,1,2
FMAT,2
INCH
; #@! TA.AperFunction,Plated,PTH,ComponentDrill
T1C0.0276
; #@! TA.AperFunction,Plated,PTH,ComponentDrill
T2C0.0280
; #@! TA.AperFunction,Plated,PTH,ComponentDrill
T3C0.0315
; #@! TA.AperFunction,Plated,PTH,ComponentDrill
T4C0.0394
; #@! TA.AperFunction,Plated,PTH,ComponentDrill
T5C0.0450
; #@! TA.AperFunction,Plated,PTH,ComponentDrill
T6C0.0551
; #@! TA.AperFunction,Plated,PTH,ComponentDrill
T7C0.0600
; #@! TA.AperFunction,NonPlated,NPTH,ComponentDrill
T8C0.1260
%
G90
G05
T1
X5.3386Y-2.237
X5.437Y-2.237
X5.6386Y-2.237
X5.737Y-2.237
T2
X4.037Y-3.337
X4.137Y-3.237
X4.237Y-3.337
X6.037Y-3.337
X6.137Y-3.237
X6.237Y-3.337
T3
X4.4368Y-2.4868
X4.4368Y-2.5868
X4.4368Y-2.6868
X4.4368Y-2.7868
X4.4368Y-2.8868
X4.4368Y-2.9868
X4.4368Y-3.0868
X4.4368Y-3.1868
X4.4368Y-3.2868
X4.4368Y-3.3868
X4.4368Y-3.4868
X4.4368Y-3.5868
X5.0368Y-2.4868
X5.0368Y-2.5868
X5.0368Y-2.6868
X5.0368Y-2.7868
X5.0368Y-2.8868
X5.0368Y-2.9868
X5.0368Y-3.0868
X5.0368Y-3.1868
X5.0368Y-3.2868
X5.0368Y-3.3868
X5.0368Y-3.4868
X5.0368Y-3.5868
X5.2368Y-2.4868
X5.2368Y-2.5868
X5.2368Y-2.6868
X5.2368Y-2.7868
X5.2368Y-2.8868
X5.2368Y-2.9868
X5.2368Y-3.0868
X5.2368Y-3.1868
X5.2368Y-3.2868
X5.2368Y-3.3868
X5.2368Y-3.4868
X5.2368Y-3.5868
X5.8368Y-2.4868
X5.8368Y-2.5868
X5.8368Y-2.6868
X5.8368Y-2.7868
X5.8368Y-2.8868
X5.8368Y-2.9868
X5.8368Y-3.0868
X5.8368Y-3.1868
X5.8368Y-3.2868
X5.8368Y-3.3868
X5.8368Y-3.4868
X5.8368Y-3.5868
T4
X5.3776Y-3.737
X5.537Y-3.737
X5.6965Y-3.737
X6.337Y-2.337
X6.337Y-2.437
T5
X5.437Y-2.037
X5.537Y-2.037
X5.637Y-2.037
T6
X4.137Y-2.037
X4.137Y-2.2535
T7
X4.737Y-2.037
X4.922Y-2.037
X5.1071Y-2.037
X5.937Y-2.058
X6.122Y-2.058
X6.3071Y-2.058
T8
X4.487Y-3.787
X4.537Y-1.887
X6.537Y-2.487
X6.537Y-3.587
M30
