%TF.GenerationSoftware,KiCad,Pcbnew,8.0.1*%
%TF.CreationDate,2024-04-01T13:33:59-04:00*%
%TF.ProjectId,BatteryPCB,42617474-6572-4795-9043-422e6b696361,rev?*%
%TF.SameCoordinates,Original*%
%TF.FileFunction,Soldermask,Top*%
%TF.FilePolarity,Negative*%
%FSLAX46Y46*%
G04 Gerber Fmt 4.6, Leading zero omitted, Abs format (unit mm)*
G04 Created by KiCad (PCBNEW 8.0.1) date 2024-04-01 13:33:59*
%MOMM*%
%LPD*%
G01*
G04 APERTURE LIST*
G04 Aperture macros list*
%AMRoundRect*
0 Rectangle with rounded corners*
0 $1 Rounding radius*
0 $2 $3 $4 $5 $6 $7 $8 $9 X,Y pos of 4 corners*
0 Add a 4 corners polygon primitive as box body*
4,1,4,$2,$3,$4,$5,$6,$7,$8,$9,$2,$3,0*
0 Add four circle primitives for the rounded corners*
1,1,$1+$1,$2,$3*
1,1,$1+$1,$4,$5*
1,1,$1+$1,$6,$7*
1,1,$1+$1,$8,$9*
0 Add four rect primitives between the rounded corners*
20,1,$1+$1,$2,$3,$4,$5,0*
20,1,$1+$1,$4,$5,$6,$7,0*
20,1,$1+$1,$6,$7,$8,$9,0*
20,1,$1+$1,$8,$9,$2,$3,0*%
G04 Aperture macros list end*
%ADD10C,3.200000*%
%ADD11C,2.032000*%
%ADD12R,1.700000X1.700000*%
%ADD13O,1.700000X1.700000*%
%ADD14C,1.219200*%
%ADD15R,1.651000X1.651000*%
%ADD16C,1.651000*%
%ADD17C,2.000000*%
%ADD18C,1.400000*%
%ADD19R,1.600000X1.600000*%
%ADD20O,1.600000X1.600000*%
%ADD21RoundRect,0.250000X-0.650000X0.412500X-0.650000X-0.412500X0.650000X-0.412500X0.650000X0.412500X0*%
%ADD22R,1.900000X1.900000*%
%ADD23C,1.900000*%
%ADD24RoundRect,0.250000X-0.412500X-0.650000X0.412500X-0.650000X0.412500X0.650000X-0.412500X0.650000X0*%
G04 APERTURE END LIST*
D10*
%TO.C,MH4*%
X166040000Y-91110000D03*
%TD*%
D11*
%TO.C,SW1*%
X120320000Y-51740000D03*
X125020001Y-51740000D03*
X129720001Y-51740000D03*
%TD*%
D12*
%TO.C,J4*%
X160960000Y-59360000D03*
D13*
X160960000Y-61900000D03*
%TD*%
D14*
%TO.C,RV2*%
X102540000Y-84760000D03*
X105080000Y-82220000D03*
X107620000Y-84760000D03*
%TD*%
D10*
%TO.C,MH2*%
X113970000Y-96190000D03*
%TD*%
D14*
%TO.C,RV1*%
X153340000Y-84760000D03*
X155880000Y-82220000D03*
X158420000Y-84760000D03*
%TD*%
D15*
%TO.C,U1*%
X138100000Y-51740000D03*
D16*
X140640000Y-51740000D03*
X143180000Y-51740000D03*
%TD*%
D17*
%TO.C,J1*%
X136590000Y-94920000D03*
%TD*%
D18*
%TO.C,C2*%
X143220000Y-56820000D03*
X145720000Y-56820000D03*
%TD*%
D19*
%TO.C,U2*%
X112695000Y-63165000D03*
D20*
X112695000Y-65705000D03*
X112695000Y-68245000D03*
X112695000Y-70785000D03*
X112695000Y-73325000D03*
X112695000Y-75865000D03*
X112695000Y-78405000D03*
X112695000Y-80945000D03*
X112695000Y-83485000D03*
X112695000Y-86025000D03*
X112695000Y-88565000D03*
X112695000Y-91105000D03*
X127935000Y-91105000D03*
X127935000Y-88565000D03*
X127935000Y-86025000D03*
X127935000Y-83485000D03*
X127935000Y-80945000D03*
X127935000Y-78405000D03*
X127935000Y-75865000D03*
X127935000Y-73325000D03*
X127935000Y-70785000D03*
X127935000Y-68245000D03*
X127935000Y-65705000D03*
X127935000Y-63165000D03*
%TD*%
D17*
%TO.C,J3*%
X144690000Y-94920000D03*
%TD*%
D21*
%TO.C,C6*%
X153340000Y-90817500D03*
X153340000Y-93942500D03*
%TD*%
D18*
%TO.C,C1*%
X135600000Y-56820000D03*
X138100000Y-56820000D03*
%TD*%
D22*
%TO.C,BT1*%
X105080000Y-51740000D03*
D23*
X105080000Y-57239999D03*
%TD*%
D19*
%TO.C,U3*%
X133015000Y-63165000D03*
D20*
X133015000Y-65705000D03*
X133015000Y-68245000D03*
X133015000Y-70785000D03*
X133015000Y-73325000D03*
X133015000Y-75865000D03*
X133015000Y-78405000D03*
X133015000Y-80945000D03*
X133015000Y-83485000D03*
X133015000Y-86025000D03*
X133015000Y-88565000D03*
X133015000Y-91105000D03*
X148255000Y-91105000D03*
X148255000Y-88565000D03*
X148255000Y-86025000D03*
X148255000Y-83485000D03*
X148255000Y-80945000D03*
X148255000Y-78405000D03*
X148255000Y-75865000D03*
X148255000Y-73325000D03*
X148255000Y-70785000D03*
X148255000Y-68245000D03*
X148255000Y-65705000D03*
X148255000Y-63165000D03*
%TD*%
D21*
%TO.C,C5*%
X153340000Y-60337500D03*
X153340000Y-63462500D03*
%TD*%
D24*
%TO.C,C3*%
X122860000Y-59360000D03*
X125985000Y-59360000D03*
%TD*%
D17*
%TO.C,J2*%
X140640000Y-94920000D03*
%TD*%
D10*
%TO.C,MH1*%
X115240000Y-47930000D03*
%TD*%
D24*
%TO.C,C4*%
X123842500Y-94920000D03*
X126967500Y-94920000D03*
%TD*%
D11*
%TO.C,SW2*%
X150800000Y-52273400D03*
X155500001Y-52273400D03*
X160200001Y-52273400D03*
%TD*%
D10*
%TO.C,MH3*%
X166040000Y-63170000D03*
%TD*%
M02*
