%TF.GenerationSoftware,KiCad,Pcbnew,8.0.1*%
%TF.CreationDate,2024-04-01T13:33:58-04:00*%
%TF.ProjectId,BatteryPCB,42617474-6572-4795-9043-422e6b696361,rev?*%
%TF.SameCoordinates,Original*%
%TF.FileFunction,Copper,L2,Bot*%
%TF.FilePolarity,Positive*%
%FSLAX46Y46*%
G04 Gerber Fmt 4.6, Leading zero omitted, Abs format (unit mm)*
G04 Created by KiCad (PCBNEW 8.0.1) date 2024-04-01 13:33:58*
%MOMM*%
%LPD*%
G01*
G04 APERTURE LIST*
%TA.AperFunction,ComponentPad*%
%ADD10C,2.032000*%
%TD*%
%TA.AperFunction,ComponentPad*%
%ADD11R,1.700000X1.700000*%
%TD*%
%TA.AperFunction,ComponentPad*%
%ADD12O,1.700000X1.700000*%
%TD*%
%TA.AperFunction,ComponentPad*%
%ADD13C,1.219200*%
%TD*%
%TA.AperFunction,ComponentPad*%
%ADD14R,1.651000X1.651000*%
%TD*%
%TA.AperFunction,ComponentPad*%
%ADD15C,1.651000*%
%TD*%
%TA.AperFunction,ComponentPad*%
%ADD16C,2.000000*%
%TD*%
%TA.AperFunction,ComponentPad*%
%ADD17C,1.400000*%
%TD*%
%TA.AperFunction,ComponentPad*%
%ADD18R,1.600000X1.600000*%
%TD*%
%TA.AperFunction,ComponentPad*%
%ADD19O,1.600000X1.600000*%
%TD*%
%TA.AperFunction,ComponentPad*%
%ADD20R,1.900000X1.900000*%
%TD*%
%TA.AperFunction,ComponentPad*%
%ADD21C,1.900000*%
%TD*%
G04 APERTURE END LIST*
D10*
%TO.P,SW1,1*%
%TO.N,Net-(BT1-+)*%
X120320000Y-51740000D03*
%TO.P,SW1,2*%
%TO.N,Net-(U1-IN)*%
X125020001Y-51740000D03*
%TO.P,SW1,3*%
%TO.N,N/C*%
X129720001Y-51740000D03*
%TD*%
D11*
%TO.P,J4,1,Pin_1*%
%TO.N,unconnected-(J4-Pin_1-Pad1)*%
X160960000Y-59360000D03*
D12*
%TO.P,J4,2,Pin_2*%
%TO.N,unconnected-(J4-Pin_2-Pad2)*%
X160960000Y-61900000D03*
%TD*%
D13*
%TO.P,RV2,1,1*%
%TO.N,Net-(RV2-Pad1)*%
X102540000Y-84760000D03*
%TO.P,RV2,2,2*%
%TO.N,Net-(RV2-Pad2)*%
X105080000Y-82220000D03*
%TO.P,RV2,3,3*%
%TO.N,GND*%
X107620000Y-84760000D03*
%TD*%
%TO.P,RV1,1,1*%
%TO.N,Net-(RV1-Pad1)*%
X153340000Y-84760000D03*
%TO.P,RV1,2,2*%
%TO.N,Net-(RV1-Pad2)*%
X155880000Y-82220000D03*
%TO.P,RV1,3,3*%
%TO.N,-VSW*%
X158420000Y-84760000D03*
%TD*%
D14*
%TO.P,U1,1,IN*%
%TO.N,Net-(U1-IN)*%
X138100000Y-51740000D03*
D15*
%TO.P,U1,2,GND*%
%TO.N,GND*%
X140640000Y-51740000D03*
%TO.P,U1,3,OUT*%
%TO.N,+5V*%
X143180000Y-51740000D03*
%TD*%
D16*
%TO.P,J1,1,Pin_1*%
%TO.N,HT*%
X136590000Y-94920000D03*
%TD*%
D17*
%TO.P,C2,1*%
%TO.N,+5V*%
X143220000Y-56820000D03*
%TO.P,C2,2*%
%TO.N,GND*%
X145720000Y-56820000D03*
%TD*%
D18*
%TO.P,U2,1*%
%TO.N,N/C*%
X112695000Y-63165000D03*
D19*
%TO.P,U2,2,-VIN*%
%TO.N,GND*%
X112695000Y-65705000D03*
%TO.P,U2,3,-VIN*%
X112695000Y-68245000D03*
%TO.P,U2,4*%
%TO.N,N/C*%
X112695000Y-70785000D03*
%TO.P,U2,5*%
X112695000Y-73325000D03*
%TO.P,U2,6*%
X112695000Y-75865000D03*
%TO.P,U2,7*%
X112695000Y-78405000D03*
%TO.P,U2,8,VADJ*%
%TO.N,Net-(RV2-Pad2)*%
X112695000Y-80945000D03*
%TO.P,U2,9,VREF*%
%TO.N,Net-(RV2-Pad1)*%
X112695000Y-83485000D03*
%TO.P,U2,10,-VOUT*%
%TO.N,GND*%
X112695000Y-86025000D03*
%TO.P,U2,11*%
%TO.N,N/C*%
X112695000Y-88565000D03*
%TO.P,U2,12,+VOUT*%
%TO.N,HT*%
X112695000Y-91105000D03*
%TO.P,U2,13,+VOUT*%
X127935000Y-91105000D03*
%TO.P,U2,14*%
%TO.N,N/C*%
X127935000Y-88565000D03*
%TO.P,U2,15,-VOUT*%
%TO.N,GND*%
X127935000Y-86025000D03*
%TO.P,U2,16,VREF*%
%TO.N,Net-(RV2-Pad1)*%
X127935000Y-83485000D03*
%TO.P,U2,17,VADJ*%
%TO.N,Net-(RV2-Pad2)*%
X127935000Y-80945000D03*
%TO.P,U2,18*%
%TO.N,N/C*%
X127935000Y-78405000D03*
%TO.P,U2,19*%
X127935000Y-75865000D03*
%TO.P,U2,20*%
X127935000Y-73325000D03*
%TO.P,U2,21*%
X127935000Y-70785000D03*
%TO.P,U2,22,+VIN*%
%TO.N,Net-(C3-Pad2)*%
X127935000Y-68245000D03*
%TO.P,U2,23,+VIN*%
X127935000Y-65705000D03*
%TO.P,U2,24*%
%TO.N,N/C*%
X127935000Y-63165000D03*
%TD*%
D16*
%TO.P,J3,1,Pin_1*%
%TO.N,GND*%
X144690000Y-94920000D03*
%TD*%
D17*
%TO.P,C1,1*%
%TO.N,Net-(U1-IN)*%
X135600000Y-56820000D03*
%TO.P,C1,2*%
%TO.N,GND*%
X138100000Y-56820000D03*
%TD*%
D20*
%TO.P,BT1,1,+*%
%TO.N,Net-(BT1-+)*%
X105080000Y-51740000D03*
D21*
%TO.P,BT1,2,-*%
%TO.N,GND*%
X105080000Y-57239999D03*
%TD*%
D18*
%TO.P,U3,1*%
%TO.N,N/C*%
X133015000Y-63165000D03*
D19*
%TO.P,U3,2,-VIN*%
%TO.N,GND*%
X133015000Y-65705000D03*
%TO.P,U3,3,-VIN*%
X133015000Y-68245000D03*
%TO.P,U3,4*%
%TO.N,N/C*%
X133015000Y-70785000D03*
%TO.P,U3,5*%
X133015000Y-73325000D03*
%TO.P,U3,6*%
X133015000Y-75865000D03*
%TO.P,U3,7*%
X133015000Y-78405000D03*
%TO.P,U3,8,VADJ*%
%TO.N,Net-(RV1-Pad2)*%
X133015000Y-80945000D03*
%TO.P,U3,9,VREF*%
%TO.N,Net-(RV1-Pad1)*%
X133015000Y-83485000D03*
%TO.P,U3,10,-VOUT*%
%TO.N,-VSW*%
X133015000Y-86025000D03*
%TO.P,U3,11*%
%TO.N,N/C*%
X133015000Y-88565000D03*
%TO.P,U3,12,+VOUT*%
%TO.N,GND*%
X133015000Y-91105000D03*
%TO.P,U3,13,+VOUT*%
X148255000Y-91105000D03*
%TO.P,U3,14*%
%TO.N,N/C*%
X148255000Y-88565000D03*
%TO.P,U3,15,-VOUT*%
%TO.N,-VSW*%
X148255000Y-86025000D03*
%TO.P,U3,16,VREF*%
%TO.N,Net-(RV1-Pad1)*%
X148255000Y-83485000D03*
%TO.P,U3,17,VADJ*%
%TO.N,Net-(RV1-Pad2)*%
X148255000Y-80945000D03*
%TO.P,U3,18*%
%TO.N,N/C*%
X148255000Y-78405000D03*
%TO.P,U3,19*%
X148255000Y-75865000D03*
%TO.P,U3,20*%
X148255000Y-73325000D03*
%TO.P,U3,21*%
X148255000Y-70785000D03*
%TO.P,U3,22,+VIN*%
%TO.N,Net-(C3-Pad2)*%
X148255000Y-68245000D03*
%TO.P,U3,23,+VIN*%
X148255000Y-65705000D03*
%TO.P,U3,24*%
%TO.N,N/C*%
X148255000Y-63165000D03*
%TD*%
D16*
%TO.P,J2,1,Pin_1*%
%TO.N,-VSW*%
X140640000Y-94920000D03*
%TD*%
D10*
%TO.P,SW2,1*%
%TO.N,+5V*%
X150800000Y-52273400D03*
%TO.P,SW2,2*%
%TO.N,Net-(C3-Pad2)*%
X155500001Y-52273400D03*
%TO.P,SW2,3*%
%TO.N,N/C*%
X160200001Y-52273400D03*
%TD*%
%TA.AperFunction,Conductor*%
%TO.N,GND*%
G36*
X112945000Y-67929314D02*
G01*
X112940606Y-67924920D01*
X112849394Y-67872259D01*
X112747661Y-67845000D01*
X112642339Y-67845000D01*
X112540606Y-67872259D01*
X112449394Y-67924920D01*
X112445000Y-67929314D01*
X112445000Y-66020686D01*
X112449394Y-66025080D01*
X112540606Y-66077741D01*
X112642339Y-66105000D01*
X112747661Y-66105000D01*
X112849394Y-66077741D01*
X112940606Y-66025080D01*
X112945000Y-66020686D01*
X112945000Y-67929314D01*
G37*
%TD.AperFunction*%
%TA.AperFunction,Conductor*%
G36*
X133265000Y-67929314D02*
G01*
X133260606Y-67924920D01*
X133169394Y-67872259D01*
X133067661Y-67845000D01*
X132962339Y-67845000D01*
X132860606Y-67872259D01*
X132769394Y-67924920D01*
X132765000Y-67929314D01*
X132765000Y-66020686D01*
X132769394Y-66025080D01*
X132860606Y-66077741D01*
X132962339Y-66105000D01*
X133067661Y-66105000D01*
X133169394Y-66077741D01*
X133260606Y-66025080D01*
X133265000Y-66020686D01*
X133265000Y-67929314D01*
G37*
%TD.AperFunction*%
%TA.AperFunction,Conductor*%
G36*
X163484404Y-45485185D02*
G01*
X163505046Y-45501819D01*
X165928181Y-47924954D01*
X165961666Y-47986277D01*
X165964500Y-48012635D01*
X165964500Y-58074982D01*
X165964500Y-58105018D01*
X165975994Y-58132767D01*
X165975995Y-58132768D01*
X168468181Y-60624954D01*
X168501666Y-60686277D01*
X168504500Y-60712635D01*
X168504500Y-94845579D01*
X168484815Y-94912618D01*
X168474205Y-94926790D01*
X166302698Y-97432375D01*
X166243917Y-97470144D01*
X166174047Y-97470138D01*
X166115273Y-97432358D01*
X166105890Y-97420053D01*
X166104005Y-97417232D01*
X166082768Y-97395995D01*
X166082767Y-97395994D01*
X166055018Y-97384500D01*
X166024982Y-97384500D01*
X165997231Y-97395995D01*
X165975995Y-97417231D01*
X165975994Y-97417232D01*
X165975994Y-97417233D01*
X165964500Y-97444982D01*
X165964500Y-97475018D01*
X165975994Y-97502767D01*
X165997233Y-97524006D01*
X166002160Y-97526046D01*
X166004690Y-97527095D01*
X166059093Y-97570937D01*
X166081156Y-97637232D01*
X166063875Y-97704931D01*
X166050941Y-97722864D01*
X165280607Y-98611712D01*
X165221828Y-98649480D01*
X165186904Y-98654500D01*
X100768093Y-98654500D01*
X100755939Y-98653903D01*
X100747995Y-98653120D01*
X100640221Y-98642505D01*
X100616381Y-98637763D01*
X100599445Y-98632625D01*
X100510968Y-98605786D01*
X100488517Y-98596486D01*
X100391372Y-98544561D01*
X100371160Y-98531056D01*
X100286011Y-98461176D01*
X100268823Y-98443988D01*
X100198943Y-98358839D01*
X100185438Y-98338627D01*
X100133510Y-98241476D01*
X100124215Y-98219037D01*
X100092234Y-98113612D01*
X100087494Y-98089777D01*
X100076097Y-97974061D01*
X100075500Y-97961907D01*
X100075500Y-94920000D01*
X135076835Y-94920000D01*
X135095465Y-95156714D01*
X135150895Y-95387595D01*
X135150895Y-95387597D01*
X135241757Y-95606959D01*
X135241759Y-95606962D01*
X135365820Y-95809410D01*
X135365821Y-95809413D01*
X135365824Y-95809416D01*
X135520031Y-95989969D01*
X135659797Y-96109340D01*
X135700586Y-96144178D01*
X135700589Y-96144179D01*
X135903037Y-96268240D01*
X135903040Y-96268242D01*
X136122403Y-96359104D01*
X136122404Y-96359104D01*
X136122406Y-96359105D01*
X136353289Y-96414535D01*
X136590000Y-96433165D01*
X136826711Y-96414535D01*
X137057594Y-96359105D01*
X137057596Y-96359104D01*
X137057597Y-96359104D01*
X137276959Y-96268242D01*
X137276960Y-96268241D01*
X137276963Y-96268240D01*
X137479416Y-96144176D01*
X137659969Y-95989969D01*
X137814176Y-95809416D01*
X137938240Y-95606963D01*
X138029105Y-95387594D01*
X138084535Y-95156711D01*
X138103165Y-94920000D01*
X139126835Y-94920000D01*
X139145465Y-95156714D01*
X139200895Y-95387595D01*
X139200895Y-95387597D01*
X139291757Y-95606959D01*
X139291759Y-95606962D01*
X139415820Y-95809410D01*
X139415821Y-95809413D01*
X139415824Y-95809416D01*
X139570031Y-95989969D01*
X139709797Y-96109340D01*
X139750586Y-96144178D01*
X139750589Y-96144179D01*
X139953037Y-96268240D01*
X139953040Y-96268242D01*
X140172403Y-96359104D01*
X140172404Y-96359104D01*
X140172406Y-96359105D01*
X140403289Y-96414535D01*
X140640000Y-96433165D01*
X140876711Y-96414535D01*
X141107594Y-96359105D01*
X141107596Y-96359104D01*
X141107597Y-96359104D01*
X141326959Y-96268242D01*
X141326960Y-96268241D01*
X141326963Y-96268240D01*
X141529416Y-96144176D01*
X141709969Y-95989969D01*
X141864176Y-95809416D01*
X141988240Y-95606963D01*
X142079105Y-95387594D01*
X142134535Y-95156711D01*
X142153165Y-94920005D01*
X143184859Y-94920005D01*
X143205385Y-95167729D01*
X143205387Y-95167738D01*
X143266412Y-95408717D01*
X143366266Y-95636364D01*
X143466564Y-95789882D01*
X144207037Y-95049409D01*
X144224075Y-95112993D01*
X144289901Y-95227007D01*
X144382993Y-95320099D01*
X144497007Y-95385925D01*
X144560590Y-95402962D01*
X143819942Y-96143609D01*
X143866768Y-96180055D01*
X143866770Y-96180056D01*
X144085385Y-96298364D01*
X144085396Y-96298369D01*
X144320506Y-96379083D01*
X144565707Y-96420000D01*
X144814293Y-96420000D01*
X145059493Y-96379083D01*
X145294603Y-96298369D01*
X145294614Y-96298364D01*
X145513228Y-96180057D01*
X145513231Y-96180055D01*
X145560056Y-96143609D01*
X144819409Y-95402962D01*
X144882993Y-95385925D01*
X144997007Y-95320099D01*
X145090099Y-95227007D01*
X145155925Y-95112993D01*
X145172962Y-95049410D01*
X145913434Y-95789882D01*
X146013731Y-95636369D01*
X146113587Y-95408717D01*
X146174612Y-95167738D01*
X146174614Y-95167729D01*
X146195141Y-94920005D01*
X146195141Y-94919994D01*
X146174614Y-94672270D01*
X146174612Y-94672261D01*
X146113587Y-94431282D01*
X146013731Y-94203630D01*
X145913434Y-94050116D01*
X145172962Y-94790589D01*
X145155925Y-94727007D01*
X145090099Y-94612993D01*
X144997007Y-94519901D01*
X144882993Y-94454075D01*
X144819410Y-94437037D01*
X145560057Y-93696390D01*
X145560056Y-93696389D01*
X145513229Y-93659943D01*
X145294614Y-93541635D01*
X145294603Y-93541630D01*
X145059493Y-93460916D01*
X144814293Y-93420000D01*
X144565707Y-93420000D01*
X144320506Y-93460916D01*
X144085396Y-93541630D01*
X144085390Y-93541632D01*
X143866761Y-93659949D01*
X143819942Y-93696388D01*
X143819942Y-93696390D01*
X144560590Y-94437037D01*
X144497007Y-94454075D01*
X144382993Y-94519901D01*
X144289901Y-94612993D01*
X144224075Y-94727007D01*
X144207037Y-94790589D01*
X143466564Y-94050116D01*
X143366267Y-94203632D01*
X143266412Y-94431282D01*
X143205387Y-94672261D01*
X143205385Y-94672270D01*
X143184859Y-94919994D01*
X143184859Y-94920005D01*
X142153165Y-94920005D01*
X142153165Y-94920000D01*
X142134535Y-94683289D01*
X142079105Y-94452406D01*
X142079104Y-94452403D01*
X142079104Y-94452402D01*
X141988242Y-94233040D01*
X141988240Y-94233037D01*
X141864179Y-94030589D01*
X141864178Y-94030586D01*
X141829340Y-93989797D01*
X141709969Y-93850031D01*
X141530078Y-93696389D01*
X141529413Y-93695821D01*
X141529410Y-93695820D01*
X141326962Y-93571759D01*
X141326959Y-93571757D01*
X141107596Y-93480895D01*
X140876714Y-93425465D01*
X140640000Y-93406835D01*
X140403285Y-93425465D01*
X140172404Y-93480895D01*
X140172402Y-93480895D01*
X139953040Y-93571757D01*
X139953037Y-93571759D01*
X139750589Y-93695820D01*
X139750586Y-93695821D01*
X139570031Y-93850031D01*
X139415821Y-94030586D01*
X139415820Y-94030589D01*
X139291759Y-94233037D01*
X139291757Y-94233040D01*
X139200895Y-94452402D01*
X139200895Y-94452404D01*
X139145465Y-94683285D01*
X139126835Y-94920000D01*
X138103165Y-94920000D01*
X138084535Y-94683289D01*
X138029105Y-94452406D01*
X138029104Y-94452403D01*
X138029104Y-94452402D01*
X137938242Y-94233040D01*
X137938240Y-94233037D01*
X137814179Y-94030589D01*
X137814178Y-94030586D01*
X137779340Y-93989797D01*
X137659969Y-93850031D01*
X137480078Y-93696389D01*
X137479413Y-93695821D01*
X137479410Y-93695820D01*
X137276962Y-93571759D01*
X137276959Y-93571757D01*
X137057596Y-93480895D01*
X136826714Y-93425465D01*
X136590000Y-93406835D01*
X136353285Y-93425465D01*
X136122404Y-93480895D01*
X136122402Y-93480895D01*
X135903040Y-93571757D01*
X135903037Y-93571759D01*
X135700589Y-93695820D01*
X135700586Y-93695821D01*
X135520031Y-93850031D01*
X135365821Y-94030586D01*
X135365820Y-94030589D01*
X135241759Y-94233037D01*
X135241757Y-94233040D01*
X135150895Y-94452402D01*
X135150895Y-94452404D01*
X135095465Y-94683285D01*
X135076835Y-94920000D01*
X100075500Y-94920000D01*
X100075500Y-91105001D01*
X111381502Y-91105001D01*
X111401456Y-91333081D01*
X111401457Y-91333089D01*
X111460714Y-91554238D01*
X111460718Y-91554249D01*
X111555487Y-91757482D01*
X111557477Y-91761749D01*
X111688802Y-91949300D01*
X111850700Y-92111198D01*
X112038251Y-92242523D01*
X112163091Y-92300736D01*
X112245750Y-92339281D01*
X112245752Y-92339281D01*
X112245757Y-92339284D01*
X112466913Y-92398543D01*
X112629832Y-92412796D01*
X112694998Y-92418498D01*
X112695000Y-92418498D01*
X112695002Y-92418498D01*
X112752021Y-92413509D01*
X112923087Y-92398543D01*
X113144243Y-92339284D01*
X113351749Y-92242523D01*
X113539300Y-92111198D01*
X113701198Y-91949300D01*
X113832523Y-91761749D01*
X113929284Y-91554243D01*
X113988543Y-91333087D01*
X114008498Y-91105001D01*
X126621502Y-91105001D01*
X126641456Y-91333081D01*
X126641457Y-91333089D01*
X126700714Y-91554238D01*
X126700718Y-91554249D01*
X126795487Y-91757482D01*
X126797477Y-91761749D01*
X126928802Y-91949300D01*
X127090700Y-92111198D01*
X127278251Y-92242523D01*
X127403091Y-92300736D01*
X127485750Y-92339281D01*
X127485752Y-92339281D01*
X127485757Y-92339284D01*
X127706913Y-92398543D01*
X127869832Y-92412796D01*
X127934998Y-92418498D01*
X127935000Y-92418498D01*
X127935002Y-92418498D01*
X127992021Y-92413509D01*
X128163087Y-92398543D01*
X128384243Y-92339284D01*
X128591749Y-92242523D01*
X128779300Y-92111198D01*
X128941198Y-91949300D01*
X129072523Y-91761749D01*
X129169284Y-91554243D01*
X129228543Y-91333087D01*
X129248498Y-91105000D01*
X129228543Y-90876913D01*
X129169284Y-90655757D01*
X129072523Y-90448251D01*
X128941198Y-90260700D01*
X128779300Y-90098802D01*
X128591749Y-89967477D01*
X128548655Y-89947382D01*
X128496215Y-89901210D01*
X128477063Y-89834017D01*
X128497278Y-89767136D01*
X128548655Y-89722618D01*
X128551882Y-89721112D01*
X128591749Y-89702523D01*
X128779300Y-89571198D01*
X128941198Y-89409300D01*
X129072523Y-89221749D01*
X129169284Y-89014243D01*
X129228543Y-88793087D01*
X129248498Y-88565001D01*
X131701502Y-88565001D01*
X131721456Y-88793081D01*
X131721457Y-88793089D01*
X131780714Y-89014238D01*
X131780718Y-89014249D01*
X131877475Y-89221745D01*
X131877477Y-89221749D01*
X132008802Y-89409300D01*
X132170700Y-89571198D01*
X132358251Y-89702523D01*
X132411401Y-89727307D01*
X132463840Y-89773479D01*
X132482992Y-89840673D01*
X132462776Y-89907554D01*
X132411401Y-89952071D01*
X132362517Y-89974865D01*
X132176179Y-90105342D01*
X132015342Y-90266179D01*
X131884865Y-90452517D01*
X131788734Y-90658673D01*
X131788730Y-90658682D01*
X131736127Y-90854999D01*
X131736128Y-90855000D01*
X132699314Y-90855000D01*
X132694920Y-90859394D01*
X132642259Y-90950606D01*
X132615000Y-91052339D01*
X132615000Y-91157661D01*
X132642259Y-91259394D01*
X132694920Y-91350606D01*
X132699314Y-91355000D01*
X131736128Y-91355000D01*
X131788730Y-91551317D01*
X131788734Y-91551326D01*
X131884865Y-91757482D01*
X132015342Y-91943820D01*
X132176179Y-92104657D01*
X132362517Y-92235134D01*
X132568673Y-92331265D01*
X132568682Y-92331269D01*
X132764999Y-92383872D01*
X132765000Y-92383871D01*
X132765000Y-91420686D01*
X132769394Y-91425080D01*
X132860606Y-91477741D01*
X132962339Y-91505000D01*
X133067661Y-91505000D01*
X133169394Y-91477741D01*
X133260606Y-91425080D01*
X133265000Y-91420686D01*
X133265000Y-92383872D01*
X133461317Y-92331269D01*
X133461326Y-92331265D01*
X133667482Y-92235134D01*
X133853820Y-92104657D01*
X134014657Y-91943820D01*
X134145134Y-91757482D01*
X134241265Y-91551326D01*
X134241269Y-91551317D01*
X134293872Y-91355000D01*
X133330686Y-91355000D01*
X133335080Y-91350606D01*
X133387741Y-91259394D01*
X133415000Y-91157661D01*
X133415000Y-91052339D01*
X133387741Y-90950606D01*
X133335080Y-90859394D01*
X133330686Y-90855000D01*
X134293872Y-90855000D01*
X134293872Y-90854999D01*
X134241269Y-90658682D01*
X134241265Y-90658673D01*
X134145134Y-90452517D01*
X134014657Y-90266179D01*
X133853820Y-90105342D01*
X133667481Y-89974865D01*
X133667479Y-89974864D01*
X133618599Y-89952071D01*
X133566159Y-89905899D01*
X133547007Y-89838706D01*
X133567223Y-89771824D01*
X133618599Y-89727307D01*
X133671749Y-89702523D01*
X133859300Y-89571198D01*
X134021198Y-89409300D01*
X134152523Y-89221749D01*
X134249284Y-89014243D01*
X134308543Y-88793087D01*
X134328498Y-88565001D01*
X146941502Y-88565001D01*
X146961456Y-88793081D01*
X146961457Y-88793089D01*
X147020714Y-89014238D01*
X147020718Y-89014249D01*
X147117475Y-89221745D01*
X147117477Y-89221749D01*
X147248802Y-89409300D01*
X147410700Y-89571198D01*
X147598251Y-89702523D01*
X147651401Y-89727307D01*
X147703840Y-89773479D01*
X147722992Y-89840673D01*
X147702776Y-89907554D01*
X147651401Y-89952071D01*
X147602517Y-89974865D01*
X147416179Y-90105342D01*
X147255342Y-90266179D01*
X147124865Y-90452517D01*
X147028734Y-90658673D01*
X147028730Y-90658682D01*
X146976127Y-90854999D01*
X146976128Y-90855000D01*
X147939314Y-90855000D01*
X147934920Y-90859394D01*
X147882259Y-90950606D01*
X147855000Y-91052339D01*
X147855000Y-91157661D01*
X147882259Y-91259394D01*
X147934920Y-91350606D01*
X147939314Y-91355000D01*
X146976128Y-91355000D01*
X147028730Y-91551317D01*
X147028734Y-91551326D01*
X147124865Y-91757482D01*
X147255342Y-91943820D01*
X147416179Y-92104657D01*
X147602517Y-92235134D01*
X147808673Y-92331265D01*
X147808682Y-92331269D01*
X148004999Y-92383872D01*
X148005000Y-92383871D01*
X148005000Y-91420686D01*
X148009394Y-91425080D01*
X148100606Y-91477741D01*
X148202339Y-91505000D01*
X148307661Y-91505000D01*
X148409394Y-91477741D01*
X148500606Y-91425080D01*
X148505000Y-91420686D01*
X148505000Y-92383872D01*
X148701317Y-92331269D01*
X148701326Y-92331265D01*
X148907482Y-92235134D01*
X149093820Y-92104657D01*
X149254657Y-91943820D01*
X149385134Y-91757482D01*
X149481265Y-91551326D01*
X149481269Y-91551317D01*
X149533872Y-91355000D01*
X148570686Y-91355000D01*
X148575080Y-91350606D01*
X148627741Y-91259394D01*
X148655000Y-91157661D01*
X148655000Y-91052339D01*
X148627741Y-90950606D01*
X148575080Y-90859394D01*
X148570686Y-90855000D01*
X149533872Y-90855000D01*
X149533872Y-90854999D01*
X149481269Y-90658682D01*
X149481265Y-90658673D01*
X149385134Y-90452517D01*
X149254657Y-90266179D01*
X149093820Y-90105342D01*
X148907481Y-89974865D01*
X148907479Y-89974864D01*
X148858599Y-89952071D01*
X148806159Y-89905899D01*
X148787007Y-89838706D01*
X148807223Y-89771824D01*
X148858599Y-89727307D01*
X148911749Y-89702523D01*
X149099300Y-89571198D01*
X149261198Y-89409300D01*
X149392523Y-89221749D01*
X149489284Y-89014243D01*
X149548543Y-88793087D01*
X149568498Y-88565000D01*
X149548543Y-88336913D01*
X149489284Y-88115757D01*
X149392523Y-87908251D01*
X149261198Y-87720700D01*
X149099300Y-87558802D01*
X148911749Y-87427477D01*
X148868655Y-87407382D01*
X148816215Y-87361210D01*
X148797063Y-87294017D01*
X148817278Y-87227136D01*
X148868655Y-87182618D01*
X148871882Y-87181112D01*
X148911749Y-87162523D01*
X149099300Y-87031198D01*
X149261198Y-86869300D01*
X149392523Y-86681749D01*
X149489284Y-86474243D01*
X149548543Y-86253087D01*
X149568498Y-86025000D01*
X149548543Y-85796913D01*
X149489284Y-85575757D01*
X149392523Y-85368251D01*
X149261198Y-85180700D01*
X149099300Y-85018802D01*
X148911749Y-84887477D01*
X148868655Y-84867382D01*
X148816215Y-84821210D01*
X148798768Y-84760000D01*
X152217110Y-84760000D01*
X152236228Y-84966329D01*
X152236229Y-84966331D01*
X152292934Y-85165630D01*
X152292935Y-85165632D01*
X152292936Y-85165635D01*
X152300435Y-85180695D01*
X152385296Y-85351119D01*
X152385305Y-85351133D01*
X152510171Y-85516483D01*
X152510173Y-85516486D01*
X152663307Y-85656085D01*
X152663309Y-85656087D01*
X152736191Y-85701213D01*
X152839485Y-85765170D01*
X153032707Y-85840024D01*
X153236393Y-85878100D01*
X153236395Y-85878100D01*
X153443605Y-85878100D01*
X153443607Y-85878100D01*
X153647293Y-85840024D01*
X153840515Y-85765170D01*
X154016692Y-85656086D01*
X154169826Y-85516486D01*
X154294700Y-85351125D01*
X154387064Y-85165635D01*
X154443771Y-84966330D01*
X154462890Y-84760000D01*
X157297110Y-84760000D01*
X157316228Y-84966329D01*
X157316229Y-84966331D01*
X157372934Y-85165630D01*
X157372935Y-85165632D01*
X157372936Y-85165635D01*
X157380435Y-85180695D01*
X157465296Y-85351119D01*
X157465305Y-85351133D01*
X157590171Y-85516483D01*
X157590173Y-85516486D01*
X157743307Y-85656085D01*
X157743309Y-85656087D01*
X157816191Y-85701213D01*
X157919485Y-85765170D01*
X158112707Y-85840024D01*
X158316393Y-85878100D01*
X158316395Y-85878100D01*
X158523605Y-85878100D01*
X158523607Y-85878100D01*
X158727293Y-85840024D01*
X158920515Y-85765170D01*
X159096692Y-85656086D01*
X159249826Y-85516486D01*
X159374700Y-85351125D01*
X159467064Y-85165635D01*
X159523771Y-84966330D01*
X159542890Y-84760000D01*
X159523771Y-84553670D01*
X159467064Y-84354365D01*
X159405823Y-84231378D01*
X159374703Y-84168880D01*
X159374694Y-84168866D01*
X159249828Y-84003516D01*
X159249826Y-84003513D01*
X159096692Y-83863914D01*
X159096690Y-83863912D01*
X158920520Y-83754833D01*
X158920513Y-83754829D01*
X158812763Y-83713087D01*
X158727293Y-83679976D01*
X158523607Y-83641900D01*
X158316393Y-83641900D01*
X158112707Y-83679976D01*
X158112704Y-83679976D01*
X158112704Y-83679977D01*
X157919486Y-83754829D01*
X157919479Y-83754833D01*
X157743309Y-83863912D01*
X157743307Y-83863914D01*
X157590173Y-84003513D01*
X157590171Y-84003516D01*
X157465305Y-84168866D01*
X157465296Y-84168880D01*
X157372937Y-84354363D01*
X157372934Y-84354369D01*
X157316229Y-84553668D01*
X157316228Y-84553670D01*
X157297110Y-84759999D01*
X157297110Y-84760000D01*
X154462890Y-84760000D01*
X154443771Y-84553670D01*
X154387064Y-84354365D01*
X154325823Y-84231378D01*
X154294703Y-84168880D01*
X154294694Y-84168866D01*
X154169828Y-84003516D01*
X154169826Y-84003513D01*
X154016692Y-83863914D01*
X154016690Y-83863912D01*
X153840520Y-83754833D01*
X153840513Y-83754829D01*
X153732763Y-83713087D01*
X153647293Y-83679976D01*
X153443607Y-83641900D01*
X153236393Y-83641900D01*
X153032707Y-83679976D01*
X153032704Y-83679976D01*
X153032704Y-83679977D01*
X152839486Y-83754829D01*
X152839479Y-83754833D01*
X152663309Y-83863912D01*
X152663307Y-83863914D01*
X152510173Y-84003513D01*
X152510171Y-84003516D01*
X152385305Y-84168866D01*
X152385296Y-84168880D01*
X152292937Y-84354363D01*
X152292934Y-84354369D01*
X152236229Y-84553668D01*
X152236228Y-84553670D01*
X152217110Y-84759999D01*
X152217110Y-84760000D01*
X148798768Y-84760000D01*
X148797063Y-84754017D01*
X148817278Y-84687136D01*
X148868655Y-84642618D01*
X148871882Y-84641112D01*
X148911749Y-84622523D01*
X149099300Y-84491198D01*
X149261198Y-84329300D01*
X149392523Y-84141749D01*
X149489284Y-83934243D01*
X149548543Y-83713087D01*
X149568498Y-83485000D01*
X149548543Y-83256913D01*
X149489284Y-83035757D01*
X149392523Y-82828251D01*
X149261198Y-82640700D01*
X149099300Y-82478802D01*
X148911749Y-82347477D01*
X148868655Y-82327382D01*
X148816215Y-82281210D01*
X148798768Y-82220000D01*
X154757110Y-82220000D01*
X154776228Y-82426329D01*
X154776229Y-82426331D01*
X154832934Y-82625630D01*
X154832935Y-82625632D01*
X154832936Y-82625635D01*
X154840435Y-82640695D01*
X154925296Y-82811119D01*
X154925305Y-82811133D01*
X155050171Y-82976483D01*
X155050173Y-82976486D01*
X155203307Y-83116085D01*
X155203309Y-83116087D01*
X155304076Y-83178479D01*
X155379485Y-83225170D01*
X155572707Y-83300024D01*
X155776393Y-83338100D01*
X155776395Y-83338100D01*
X155983605Y-83338100D01*
X155983607Y-83338100D01*
X156187293Y-83300024D01*
X156380515Y-83225170D01*
X156556692Y-83116086D01*
X156709826Y-82976486D01*
X156834700Y-82811125D01*
X156927064Y-82625635D01*
X156983771Y-82426330D01*
X157002890Y-82220000D01*
X156983771Y-82013670D01*
X156927064Y-81814365D01*
X156865823Y-81691378D01*
X156834703Y-81628880D01*
X156834694Y-81628866D01*
X156709828Y-81463516D01*
X156709826Y-81463513D01*
X156556692Y-81323914D01*
X156556690Y-81323912D01*
X156380520Y-81214833D01*
X156380513Y-81214829D01*
X156272763Y-81173087D01*
X156187293Y-81139976D01*
X155983607Y-81101900D01*
X155776393Y-81101900D01*
X155572707Y-81139976D01*
X155572704Y-81139976D01*
X155572704Y-81139977D01*
X155379486Y-81214829D01*
X155379479Y-81214833D01*
X155203309Y-81323912D01*
X155203307Y-81323914D01*
X155050173Y-81463513D01*
X155050171Y-81463516D01*
X154925305Y-81628866D01*
X154925296Y-81628880D01*
X154832937Y-81814363D01*
X154832934Y-81814369D01*
X154776229Y-82013668D01*
X154776228Y-82013670D01*
X154757110Y-82219999D01*
X154757110Y-82220000D01*
X148798768Y-82220000D01*
X148797063Y-82214017D01*
X148817278Y-82147136D01*
X148868655Y-82102618D01*
X148871882Y-82101112D01*
X148911749Y-82082523D01*
X149099300Y-81951198D01*
X149261198Y-81789300D01*
X149392523Y-81601749D01*
X149489284Y-81394243D01*
X149548543Y-81173087D01*
X149568498Y-80945000D01*
X149548543Y-80716913D01*
X149489284Y-80495757D01*
X149392523Y-80288251D01*
X149261198Y-80100700D01*
X149099300Y-79938802D01*
X148911749Y-79807477D01*
X148868655Y-79787382D01*
X148816215Y-79741210D01*
X148797063Y-79674017D01*
X148817278Y-79607136D01*
X148868655Y-79562618D01*
X148871882Y-79561112D01*
X148911749Y-79542523D01*
X149099300Y-79411198D01*
X149261198Y-79249300D01*
X149392523Y-79061749D01*
X149489284Y-78854243D01*
X149548543Y-78633087D01*
X149568498Y-78405000D01*
X149548543Y-78176913D01*
X149489284Y-77955757D01*
X149392523Y-77748251D01*
X149261198Y-77560700D01*
X149099300Y-77398802D01*
X148911749Y-77267477D01*
X148868655Y-77247382D01*
X148816215Y-77201210D01*
X148797063Y-77134017D01*
X148817278Y-77067136D01*
X148868655Y-77022618D01*
X148871882Y-77021112D01*
X148911749Y-77002523D01*
X149099300Y-76871198D01*
X149261198Y-76709300D01*
X149392523Y-76521749D01*
X149489284Y-76314243D01*
X149548543Y-76093087D01*
X149568498Y-75865000D01*
X149548543Y-75636913D01*
X149489284Y-75415757D01*
X149392523Y-75208251D01*
X149261198Y-75020700D01*
X149099300Y-74858802D01*
X148911749Y-74727477D01*
X148868655Y-74707382D01*
X148816215Y-74661210D01*
X148797063Y-74594017D01*
X148817278Y-74527136D01*
X148868655Y-74482618D01*
X148871882Y-74481112D01*
X148911749Y-74462523D01*
X149099300Y-74331198D01*
X149261198Y-74169300D01*
X149392523Y-73981749D01*
X149489284Y-73774243D01*
X149548543Y-73553087D01*
X149568498Y-73325000D01*
X149548543Y-73096913D01*
X149489284Y-72875757D01*
X149392523Y-72668251D01*
X149261198Y-72480700D01*
X149099300Y-72318802D01*
X148911749Y-72187477D01*
X148868655Y-72167382D01*
X148816215Y-72121210D01*
X148797063Y-72054017D01*
X148817278Y-71987136D01*
X148868655Y-71942618D01*
X148871882Y-71941112D01*
X148911749Y-71922523D01*
X149099300Y-71791198D01*
X149261198Y-71629300D01*
X149392523Y-71441749D01*
X149489284Y-71234243D01*
X149548543Y-71013087D01*
X149568498Y-70785000D01*
X149548543Y-70556913D01*
X149489284Y-70335757D01*
X149392523Y-70128251D01*
X149261198Y-69940700D01*
X149099300Y-69778802D01*
X148911749Y-69647477D01*
X148868655Y-69627382D01*
X148816215Y-69581210D01*
X148797063Y-69514017D01*
X148817278Y-69447136D01*
X148868655Y-69402618D01*
X148871882Y-69401112D01*
X148911749Y-69382523D01*
X149099300Y-69251198D01*
X149261198Y-69089300D01*
X149392523Y-68901749D01*
X149489284Y-68694243D01*
X149548543Y-68473087D01*
X149568498Y-68245000D01*
X149548543Y-68016913D01*
X149489284Y-67795757D01*
X149392523Y-67588251D01*
X149261198Y-67400700D01*
X149099300Y-67238802D01*
X148911749Y-67107477D01*
X148868655Y-67087382D01*
X148816215Y-67041210D01*
X148797063Y-66974017D01*
X148817278Y-66907136D01*
X148868655Y-66862618D01*
X148871882Y-66861112D01*
X148911749Y-66842523D01*
X149099300Y-66711198D01*
X149261198Y-66549300D01*
X149392523Y-66361749D01*
X149489284Y-66154243D01*
X149548543Y-65933087D01*
X149568498Y-65705000D01*
X149548543Y-65476913D01*
X149489284Y-65255757D01*
X149392523Y-65048251D01*
X149261198Y-64860700D01*
X149099300Y-64698802D01*
X148911749Y-64567477D01*
X148868655Y-64547382D01*
X148816215Y-64501210D01*
X148797063Y-64434017D01*
X148817278Y-64367136D01*
X148868655Y-64322618D01*
X148871882Y-64321112D01*
X148911749Y-64302523D01*
X149099300Y-64171198D01*
X149261198Y-64009300D01*
X149392523Y-63821749D01*
X149489284Y-63614243D01*
X149548543Y-63393087D01*
X149568498Y-63165000D01*
X149548543Y-62936913D01*
X149489284Y-62715757D01*
X149392523Y-62508251D01*
X149261198Y-62320700D01*
X149099300Y-62158802D01*
X148911749Y-62027477D01*
X148911745Y-62027475D01*
X148704249Y-61930718D01*
X148704238Y-61930714D01*
X148589631Y-61900005D01*
X159596844Y-61900005D01*
X159615434Y-62124359D01*
X159615436Y-62124371D01*
X159670703Y-62342614D01*
X159761140Y-62548792D01*
X159884276Y-62737265D01*
X159884284Y-62737276D01*
X160036756Y-62902902D01*
X160036760Y-62902906D01*
X160214424Y-63041189D01*
X160214425Y-63041189D01*
X160214427Y-63041191D01*
X160341135Y-63109761D01*
X160412426Y-63148342D01*
X160625365Y-63221444D01*
X160847431Y-63258500D01*
X161072569Y-63258500D01*
X161294635Y-63221444D01*
X161507574Y-63148342D01*
X161705576Y-63041189D01*
X161883240Y-62902906D01*
X162035722Y-62737268D01*
X162158860Y-62548791D01*
X162249296Y-62342616D01*
X162304564Y-62124368D01*
X162323156Y-61900000D01*
X162319551Y-61856500D01*
X162304565Y-61675640D01*
X162304563Y-61675628D01*
X162249296Y-61457385D01*
X162158859Y-61251207D01*
X162035723Y-61062734D01*
X162035715Y-61062723D01*
X161890510Y-60904991D01*
X161859587Y-60842337D01*
X161867447Y-60772911D01*
X161911594Y-60718755D01*
X161938405Y-60704827D01*
X162018584Y-60674920D01*
X162056204Y-60660889D01*
X162173261Y-60573261D01*
X162260889Y-60456204D01*
X162311989Y-60319201D01*
X162315591Y-60285692D01*
X162318499Y-60258654D01*
X162318500Y-60258637D01*
X162318500Y-58461362D01*
X162318499Y-58461345D01*
X162314911Y-58427978D01*
X162311989Y-58400799D01*
X162260889Y-58263796D01*
X162173261Y-58146739D01*
X162056204Y-58059111D01*
X162055172Y-58058726D01*
X161919203Y-58008011D01*
X161858654Y-58001500D01*
X161858638Y-58001500D01*
X160061362Y-58001500D01*
X160061345Y-58001500D01*
X160000797Y-58008011D01*
X160000795Y-58008011D01*
X159863795Y-58059111D01*
X159746739Y-58146739D01*
X159659111Y-58263795D01*
X159608011Y-58400795D01*
X159608011Y-58400797D01*
X159601500Y-58461345D01*
X159601500Y-60258654D01*
X159608011Y-60319202D01*
X159608011Y-60319204D01*
X159659111Y-60456204D01*
X159746739Y-60573261D01*
X159863796Y-60660889D01*
X159915737Y-60680262D01*
X159981595Y-60704827D01*
X160037528Y-60746699D01*
X160061944Y-60812163D01*
X160047092Y-60880436D01*
X160029490Y-60904991D01*
X159884279Y-61062730D01*
X159884276Y-61062734D01*
X159761140Y-61251207D01*
X159670703Y-61457385D01*
X159615436Y-61675628D01*
X159615434Y-61675640D01*
X159596844Y-61899994D01*
X159596844Y-61900005D01*
X148589631Y-61900005D01*
X148483089Y-61871457D01*
X148483081Y-61871456D01*
X148255002Y-61851502D01*
X148254998Y-61851502D01*
X148026918Y-61871456D01*
X148026910Y-61871457D01*
X147805761Y-61930714D01*
X147805750Y-61930718D01*
X147598254Y-62027475D01*
X147598252Y-62027476D01*
X147598251Y-62027477D01*
X147410700Y-62158802D01*
X147410698Y-62158803D01*
X147410695Y-62158806D01*
X147248806Y-62320695D01*
X147248803Y-62320698D01*
X147248802Y-62320700D01*
X147166767Y-62437856D01*
X147117476Y-62508252D01*
X147117475Y-62508254D01*
X147020718Y-62715750D01*
X147020714Y-62715761D01*
X146961457Y-62936910D01*
X146961456Y-62936918D01*
X146941502Y-63164998D01*
X146941502Y-63165001D01*
X146961456Y-63393081D01*
X146961457Y-63393089D01*
X147020714Y-63614238D01*
X147020718Y-63614249D01*
X147117475Y-63821745D01*
X147117477Y-63821749D01*
X147248802Y-64009300D01*
X147410700Y-64171198D01*
X147598251Y-64302523D01*
X147641345Y-64322618D01*
X147693784Y-64368791D01*
X147712936Y-64435984D01*
X147692720Y-64502865D01*
X147641345Y-64547382D01*
X147598251Y-64567476D01*
X147494342Y-64640235D01*
X147410700Y-64698802D01*
X147410698Y-64698803D01*
X147410695Y-64698806D01*
X147248806Y-64860695D01*
X147117476Y-65048252D01*
X147117475Y-65048254D01*
X147020718Y-65255750D01*
X147020714Y-65255761D01*
X146961457Y-65476910D01*
X146961456Y-65476918D01*
X146941502Y-65704998D01*
X146941502Y-65705001D01*
X146961456Y-65933081D01*
X146961457Y-65933089D01*
X147020714Y-66154238D01*
X147020718Y-66154249D01*
X147115487Y-66357482D01*
X147117477Y-66361749D01*
X147248802Y-66549300D01*
X147410700Y-66711198D01*
X147587700Y-66835135D01*
X147598251Y-66842523D01*
X147641345Y-66862618D01*
X147693784Y-66908791D01*
X147712936Y-66975984D01*
X147692720Y-67042865D01*
X147641345Y-67087382D01*
X147598251Y-67107476D01*
X147473126Y-67195090D01*
X147410700Y-67238802D01*
X147410698Y-67238803D01*
X147410695Y-67238806D01*
X147248806Y-67400695D01*
X147117476Y-67588252D01*
X147117475Y-67588254D01*
X147020718Y-67795750D01*
X147020714Y-67795761D01*
X146961457Y-68016910D01*
X146961456Y-68016918D01*
X146941502Y-68244998D01*
X146941502Y-68245001D01*
X146961456Y-68473081D01*
X146961457Y-68473089D01*
X147020714Y-68694238D01*
X147020718Y-68694249D01*
X147115487Y-68897482D01*
X147117477Y-68901749D01*
X147248802Y-69089300D01*
X147410700Y-69251198D01*
X147587697Y-69375133D01*
X147598251Y-69382523D01*
X147641345Y-69402618D01*
X147693784Y-69448791D01*
X147712936Y-69515984D01*
X147692720Y-69582865D01*
X147641345Y-69627382D01*
X147598251Y-69647476D01*
X147473126Y-69735090D01*
X147410700Y-69778802D01*
X147410698Y-69778803D01*
X147410695Y-69778806D01*
X147248806Y-69940695D01*
X147117476Y-70128252D01*
X147117475Y-70128254D01*
X147020718Y-70335750D01*
X147020714Y-70335761D01*
X146961457Y-70556910D01*
X146961456Y-70556918D01*
X146941502Y-70784998D01*
X146941502Y-70785001D01*
X146961456Y-71013081D01*
X146961457Y-71013089D01*
X147020714Y-71234238D01*
X147020718Y-71234249D01*
X147117475Y-71441745D01*
X147117477Y-71441749D01*
X147248802Y-71629300D01*
X147410700Y-71791198D01*
X147598251Y-71922523D01*
X147641345Y-71942618D01*
X147693784Y-71988791D01*
X147712936Y-72055984D01*
X147692720Y-72122865D01*
X147641345Y-72167382D01*
X147598251Y-72187476D01*
X147473126Y-72275090D01*
X147410700Y-72318802D01*
X147410698Y-72318803D01*
X147410695Y-72318806D01*
X147248806Y-72480695D01*
X147117476Y-72668252D01*
X147117475Y-72668254D01*
X147020718Y-72875750D01*
X147020714Y-72875761D01*
X146961457Y-73096910D01*
X146961456Y-73096918D01*
X146941502Y-73324998D01*
X146941502Y-73325001D01*
X146961456Y-73553081D01*
X146961457Y-73553089D01*
X147020714Y-73774238D01*
X147020718Y-73774249D01*
X147117475Y-73981745D01*
X147117477Y-73981749D01*
X147248802Y-74169300D01*
X147410700Y-74331198D01*
X147598251Y-74462523D01*
X147641345Y-74482618D01*
X147693784Y-74528791D01*
X147712936Y-74595984D01*
X147692720Y-74662865D01*
X147641345Y-74707382D01*
X147598251Y-74727476D01*
X147473126Y-74815090D01*
X147410700Y-74858802D01*
X147410698Y-74858803D01*
X147410695Y-74858806D01*
X147248806Y-75020695D01*
X147117476Y-75208252D01*
X147117475Y-75208254D01*
X147020718Y-75415750D01*
X147020714Y-75415761D01*
X146961457Y-75636910D01*
X146961456Y-75636918D01*
X146941502Y-75864998D01*
X146941502Y-75865001D01*
X146961456Y-76093081D01*
X146961457Y-76093089D01*
X147020714Y-76314238D01*
X147020718Y-76314249D01*
X147117475Y-76521745D01*
X147117477Y-76521749D01*
X147248802Y-76709300D01*
X147410700Y-76871198D01*
X147598251Y-77002523D01*
X147641345Y-77022618D01*
X147693784Y-77068791D01*
X147712936Y-77135984D01*
X147692720Y-77202865D01*
X147641345Y-77247382D01*
X147598251Y-77267476D01*
X147473126Y-77355090D01*
X147410700Y-77398802D01*
X147410698Y-77398803D01*
X147410695Y-77398806D01*
X147248806Y-77560695D01*
X147117476Y-77748252D01*
X147117475Y-77748254D01*
X147020718Y-77955750D01*
X147020714Y-77955761D01*
X146961457Y-78176910D01*
X146961456Y-78176918D01*
X146941502Y-78404998D01*
X146941502Y-78405001D01*
X146961456Y-78633081D01*
X146961457Y-78633089D01*
X147020714Y-78854238D01*
X147020718Y-78854249D01*
X147117475Y-79061745D01*
X147117477Y-79061749D01*
X147248802Y-79249300D01*
X147410700Y-79411198D01*
X147598251Y-79542523D01*
X147641345Y-79562618D01*
X147693784Y-79608791D01*
X147712936Y-79675984D01*
X147692720Y-79742865D01*
X147641345Y-79787382D01*
X147598251Y-79807476D01*
X147473126Y-79895090D01*
X147410700Y-79938802D01*
X147410698Y-79938803D01*
X147410695Y-79938806D01*
X147248806Y-80100695D01*
X147117476Y-80288252D01*
X147117475Y-80288254D01*
X147020718Y-80495750D01*
X147020714Y-80495761D01*
X146961457Y-80716910D01*
X146961456Y-80716918D01*
X146941502Y-80944998D01*
X146941502Y-80945001D01*
X146961456Y-81173081D01*
X146961457Y-81173089D01*
X147020714Y-81394238D01*
X147020718Y-81394249D01*
X147053017Y-81463514D01*
X147117477Y-81601749D01*
X147248802Y-81789300D01*
X147410700Y-81951198D01*
X147598251Y-82082523D01*
X147641345Y-82102618D01*
X147693784Y-82148791D01*
X147712936Y-82215984D01*
X147692720Y-82282865D01*
X147641345Y-82327382D01*
X147598251Y-82347476D01*
X147485636Y-82426331D01*
X147410700Y-82478802D01*
X147410698Y-82478803D01*
X147410695Y-82478806D01*
X147248806Y-82640695D01*
X147117476Y-82828252D01*
X147117475Y-82828254D01*
X147020718Y-83035750D01*
X147020714Y-83035761D01*
X146961457Y-83256910D01*
X146961456Y-83256918D01*
X146941502Y-83484998D01*
X146941502Y-83485001D01*
X146961456Y-83713081D01*
X146961457Y-83713089D01*
X147020714Y-83934238D01*
X147020718Y-83934249D01*
X147053017Y-84003514D01*
X147117477Y-84141749D01*
X147248802Y-84329300D01*
X147410700Y-84491198D01*
X147598251Y-84622523D01*
X147641345Y-84642618D01*
X147693784Y-84688791D01*
X147712936Y-84755984D01*
X147692720Y-84822865D01*
X147641345Y-84867382D01*
X147598251Y-84887476D01*
X147485636Y-84966331D01*
X147410700Y-85018802D01*
X147410698Y-85018803D01*
X147410695Y-85018806D01*
X147248806Y-85180695D01*
X147117476Y-85368252D01*
X147117475Y-85368254D01*
X147020718Y-85575750D01*
X147020714Y-85575761D01*
X146961457Y-85796910D01*
X146961456Y-85796918D01*
X146941502Y-86024998D01*
X146941502Y-86025001D01*
X146961456Y-86253081D01*
X146961457Y-86253089D01*
X147020714Y-86474238D01*
X147020718Y-86474249D01*
X147115487Y-86677482D01*
X147117477Y-86681749D01*
X147248802Y-86869300D01*
X147410700Y-87031198D01*
X147587697Y-87155133D01*
X147598251Y-87162523D01*
X147641345Y-87182618D01*
X147693784Y-87228791D01*
X147712936Y-87295984D01*
X147692720Y-87362865D01*
X147641345Y-87407382D01*
X147598251Y-87427476D01*
X147473126Y-87515090D01*
X147410700Y-87558802D01*
X147410698Y-87558803D01*
X147410695Y-87558806D01*
X147248806Y-87720695D01*
X147117476Y-87908252D01*
X147117475Y-87908254D01*
X147020718Y-88115750D01*
X147020714Y-88115761D01*
X146961457Y-88336910D01*
X146961456Y-88336918D01*
X146941502Y-88564998D01*
X146941502Y-88565001D01*
X134328498Y-88565001D01*
X134328498Y-88565000D01*
X134308543Y-88336913D01*
X134249284Y-88115757D01*
X134152523Y-87908251D01*
X134021198Y-87720700D01*
X133859300Y-87558802D01*
X133671749Y-87427477D01*
X133628655Y-87407382D01*
X133576215Y-87361210D01*
X133557063Y-87294017D01*
X133577278Y-87227136D01*
X133628655Y-87182618D01*
X133631882Y-87181112D01*
X133671749Y-87162523D01*
X133859300Y-87031198D01*
X134021198Y-86869300D01*
X134152523Y-86681749D01*
X134249284Y-86474243D01*
X134308543Y-86253087D01*
X134328498Y-86025000D01*
X134308543Y-85796913D01*
X134249284Y-85575757D01*
X134152523Y-85368251D01*
X134021198Y-85180700D01*
X133859300Y-85018802D01*
X133671749Y-84887477D01*
X133628655Y-84867382D01*
X133576215Y-84821210D01*
X133557063Y-84754017D01*
X133577278Y-84687136D01*
X133628655Y-84642618D01*
X133631882Y-84641112D01*
X133671749Y-84622523D01*
X133859300Y-84491198D01*
X134021198Y-84329300D01*
X134152523Y-84141749D01*
X134249284Y-83934243D01*
X134308543Y-83713087D01*
X134328498Y-83485000D01*
X134308543Y-83256913D01*
X134249284Y-83035757D01*
X134152523Y-82828251D01*
X134021198Y-82640700D01*
X133859300Y-82478802D01*
X133671749Y-82347477D01*
X133628655Y-82327382D01*
X133576215Y-82281210D01*
X133557063Y-82214017D01*
X133577278Y-82147136D01*
X133628655Y-82102618D01*
X133631882Y-82101112D01*
X133671749Y-82082523D01*
X133859300Y-81951198D01*
X134021198Y-81789300D01*
X134152523Y-81601749D01*
X134249284Y-81394243D01*
X134308543Y-81173087D01*
X134328498Y-80945000D01*
X134308543Y-80716913D01*
X134249284Y-80495757D01*
X134152523Y-80288251D01*
X134021198Y-80100700D01*
X133859300Y-79938802D01*
X133671749Y-79807477D01*
X133628655Y-79787382D01*
X133576215Y-79741210D01*
X133557063Y-79674017D01*
X133577278Y-79607136D01*
X133628655Y-79562618D01*
X133631882Y-79561112D01*
X133671749Y-79542523D01*
X133859300Y-79411198D01*
X134021198Y-79249300D01*
X134152523Y-79061749D01*
X134249284Y-78854243D01*
X134308543Y-78633087D01*
X134328498Y-78405000D01*
X134308543Y-78176913D01*
X134249284Y-77955757D01*
X134152523Y-77748251D01*
X134021198Y-77560700D01*
X133859300Y-77398802D01*
X133671749Y-77267477D01*
X133628655Y-77247382D01*
X133576215Y-77201210D01*
X133557063Y-77134017D01*
X133577278Y-77067136D01*
X133628655Y-77022618D01*
X133631882Y-77021112D01*
X133671749Y-77002523D01*
X133859300Y-76871198D01*
X134021198Y-76709300D01*
X134152523Y-76521749D01*
X134249284Y-76314243D01*
X134308543Y-76093087D01*
X134328498Y-75865000D01*
X134308543Y-75636913D01*
X134249284Y-75415757D01*
X134152523Y-75208251D01*
X134021198Y-75020700D01*
X133859300Y-74858802D01*
X133671749Y-74727477D01*
X133628655Y-74707382D01*
X133576215Y-74661210D01*
X133557063Y-74594017D01*
X133577278Y-74527136D01*
X133628655Y-74482618D01*
X133631882Y-74481112D01*
X133671749Y-74462523D01*
X133859300Y-74331198D01*
X134021198Y-74169300D01*
X134152523Y-73981749D01*
X134249284Y-73774243D01*
X134308543Y-73553087D01*
X134328498Y-73325000D01*
X134308543Y-73096913D01*
X134249284Y-72875757D01*
X134152523Y-72668251D01*
X134021198Y-72480700D01*
X133859300Y-72318802D01*
X133671749Y-72187477D01*
X133628655Y-72167382D01*
X133576215Y-72121210D01*
X133557063Y-72054017D01*
X133577278Y-71987136D01*
X133628655Y-71942618D01*
X133631882Y-71941112D01*
X133671749Y-71922523D01*
X133859300Y-71791198D01*
X134021198Y-71629300D01*
X134152523Y-71441749D01*
X134249284Y-71234243D01*
X134308543Y-71013087D01*
X134328498Y-70785000D01*
X134308543Y-70556913D01*
X134249284Y-70335757D01*
X134152523Y-70128251D01*
X134021198Y-69940700D01*
X133859300Y-69778802D01*
X133671749Y-69647477D01*
X133618596Y-69622691D01*
X133566158Y-69576519D01*
X133547007Y-69509325D01*
X133567223Y-69442444D01*
X133618600Y-69397927D01*
X133667483Y-69375133D01*
X133853820Y-69244657D01*
X134014657Y-69083820D01*
X134145134Y-68897482D01*
X134241265Y-68691326D01*
X134241269Y-68691317D01*
X134293872Y-68495000D01*
X133330686Y-68495000D01*
X133335080Y-68490606D01*
X133387741Y-68399394D01*
X133415000Y-68297661D01*
X133415000Y-68192339D01*
X133387741Y-68090606D01*
X133335080Y-67999394D01*
X133330686Y-67995000D01*
X134293872Y-67995000D01*
X134293872Y-67994999D01*
X134241269Y-67798682D01*
X134241265Y-67798673D01*
X134145134Y-67592517D01*
X134014657Y-67406179D01*
X133853820Y-67245342D01*
X133667481Y-67114865D01*
X133667479Y-67114864D01*
X133608543Y-67087382D01*
X133556103Y-67041210D01*
X133536951Y-66974017D01*
X133557166Y-66907136D01*
X133608543Y-66862618D01*
X133667479Y-66835135D01*
X133667481Y-66835134D01*
X133853820Y-66704657D01*
X134014657Y-66543820D01*
X134145134Y-66357482D01*
X134241265Y-66151326D01*
X134241269Y-66151317D01*
X134293872Y-65955000D01*
X133330686Y-65955000D01*
X133335080Y-65950606D01*
X133387741Y-65859394D01*
X133415000Y-65757661D01*
X133415000Y-65652339D01*
X133387741Y-65550606D01*
X133335080Y-65459394D01*
X133330686Y-65455000D01*
X134293872Y-65455000D01*
X134293872Y-65454999D01*
X134241269Y-65258682D01*
X134241265Y-65258673D01*
X134145134Y-65052517D01*
X134014657Y-64866179D01*
X133853818Y-64705340D01*
X133838784Y-64694813D01*
X133795160Y-64640235D01*
X133787968Y-64570737D01*
X133819491Y-64508382D01*
X133879722Y-64472970D01*
X133896640Y-64469952D01*
X133924201Y-64466989D01*
X134061204Y-64415889D01*
X134178261Y-64328261D01*
X134265889Y-64211204D01*
X134316989Y-64074201D01*
X134320591Y-64040692D01*
X134323499Y-64013654D01*
X134323500Y-64013637D01*
X134323500Y-62316362D01*
X134323499Y-62316345D01*
X134320157Y-62285270D01*
X134316989Y-62255799D01*
X134265889Y-62118796D01*
X134178261Y-62001739D01*
X134061204Y-61914111D01*
X134023385Y-61900005D01*
X133924203Y-61863011D01*
X133863654Y-61856500D01*
X133863638Y-61856500D01*
X132166362Y-61856500D01*
X132166345Y-61856500D01*
X132105797Y-61863011D01*
X132105795Y-61863011D01*
X131968795Y-61914111D01*
X131851739Y-62001739D01*
X131764111Y-62118795D01*
X131713011Y-62255795D01*
X131713011Y-62255797D01*
X131706500Y-62316345D01*
X131706500Y-64013654D01*
X131713011Y-64074202D01*
X131713011Y-64074204D01*
X131749189Y-64171198D01*
X131764111Y-64211204D01*
X131851739Y-64328261D01*
X131968796Y-64415889D01*
X132068110Y-64452931D01*
X132105793Y-64466987D01*
X132105799Y-64466989D01*
X132133346Y-64469950D01*
X132197894Y-64496686D01*
X132237744Y-64554078D01*
X132240239Y-64623903D01*
X132204587Y-64683992D01*
X132191218Y-64694811D01*
X132176181Y-64705340D01*
X132015342Y-64866179D01*
X131884865Y-65052517D01*
X131788734Y-65258673D01*
X131788730Y-65258682D01*
X131736127Y-65454999D01*
X131736128Y-65455000D01*
X132699314Y-65455000D01*
X132694920Y-65459394D01*
X132642259Y-65550606D01*
X132615000Y-65652339D01*
X132615000Y-65757661D01*
X132642259Y-65859394D01*
X132694920Y-65950606D01*
X132699314Y-65955000D01*
X131736128Y-65955000D01*
X131788730Y-66151317D01*
X131788734Y-66151326D01*
X131884865Y-66357482D01*
X132015342Y-66543820D01*
X132176179Y-66704657D01*
X132362517Y-66835134D01*
X132421457Y-66862618D01*
X132473896Y-66908790D01*
X132493048Y-66975984D01*
X132472832Y-67042865D01*
X132421457Y-67087382D01*
X132362517Y-67114865D01*
X132176179Y-67245342D01*
X132015342Y-67406179D01*
X131884865Y-67592517D01*
X131788734Y-67798673D01*
X131788730Y-67798682D01*
X131736127Y-67994999D01*
X131736128Y-67995000D01*
X132699314Y-67995000D01*
X132694920Y-67999394D01*
X132642259Y-68090606D01*
X132615000Y-68192339D01*
X132615000Y-68297661D01*
X132642259Y-68399394D01*
X132694920Y-68490606D01*
X132699314Y-68495000D01*
X131736128Y-68495000D01*
X131788730Y-68691317D01*
X131788734Y-68691326D01*
X131884865Y-68897482D01*
X132015342Y-69083820D01*
X132176179Y-69244657D01*
X132362517Y-69375133D01*
X132411399Y-69397927D01*
X132463839Y-69444099D01*
X132482992Y-69511292D01*
X132462777Y-69578174D01*
X132411402Y-69622691D01*
X132358256Y-69647474D01*
X132358252Y-69647476D01*
X132287856Y-69696767D01*
X132170700Y-69778802D01*
X132170698Y-69778803D01*
X132170695Y-69778806D01*
X132008806Y-69940695D01*
X131877476Y-70128252D01*
X131877475Y-70128254D01*
X131780718Y-70335750D01*
X131780714Y-70335761D01*
X131721457Y-70556910D01*
X131721456Y-70556918D01*
X131701502Y-70784998D01*
X131701502Y-70785001D01*
X131721456Y-71013081D01*
X131721457Y-71013089D01*
X131780714Y-71234238D01*
X131780718Y-71234249D01*
X131877475Y-71441745D01*
X131877477Y-71441749D01*
X132008802Y-71629300D01*
X132170700Y-71791198D01*
X132358251Y-71922523D01*
X132401345Y-71942618D01*
X132453784Y-71988791D01*
X132472936Y-72055984D01*
X132452720Y-72122865D01*
X132401345Y-72167382D01*
X132358251Y-72187476D01*
X132233126Y-72275090D01*
X132170700Y-72318802D01*
X132170698Y-72318803D01*
X132170695Y-72318806D01*
X132008806Y-72480695D01*
X131877476Y-72668252D01*
X131877475Y-72668254D01*
X131780718Y-72875750D01*
X131780714Y-72875761D01*
X131721457Y-73096910D01*
X131721456Y-73096918D01*
X131701502Y-73324998D01*
X131701502Y-73325001D01*
X131721456Y-73553081D01*
X131721457Y-73553089D01*
X131780714Y-73774238D01*
X131780718Y-73774249D01*
X131877475Y-73981745D01*
X131877477Y-73981749D01*
X132008802Y-74169300D01*
X132170700Y-74331198D01*
X132358251Y-74462523D01*
X132401345Y-74482618D01*
X132453784Y-74528791D01*
X132472936Y-74595984D01*
X132452720Y-74662865D01*
X132401345Y-74707382D01*
X132358251Y-74727476D01*
X132233126Y-74815090D01*
X132170700Y-74858802D01*
X132170698Y-74858803D01*
X132170695Y-74858806D01*
X132008806Y-75020695D01*
X131877476Y-75208252D01*
X131877475Y-75208254D01*
X131780718Y-75415750D01*
X131780714Y-75415761D01*
X131721457Y-75636910D01*
X131721456Y-75636918D01*
X131701502Y-75864998D01*
X131701502Y-75865001D01*
X131721456Y-76093081D01*
X131721457Y-76093089D01*
X131780714Y-76314238D01*
X131780718Y-76314249D01*
X131877475Y-76521745D01*
X131877477Y-76521749D01*
X132008802Y-76709300D01*
X132170700Y-76871198D01*
X132358251Y-77002523D01*
X132401345Y-77022618D01*
X132453784Y-77068791D01*
X132472936Y-77135984D01*
X132452720Y-77202865D01*
X132401345Y-77247382D01*
X132358251Y-77267476D01*
X132233126Y-77355090D01*
X132170700Y-77398802D01*
X132170698Y-77398803D01*
X132170695Y-77398806D01*
X132008806Y-77560695D01*
X131877476Y-77748252D01*
X131877475Y-77748254D01*
X131780718Y-77955750D01*
X131780714Y-77955761D01*
X131721457Y-78176910D01*
X131721456Y-78176918D01*
X131701502Y-78404998D01*
X131701502Y-78405001D01*
X131721456Y-78633081D01*
X131721457Y-78633089D01*
X131780714Y-78854238D01*
X131780718Y-78854249D01*
X131877475Y-79061745D01*
X131877477Y-79061749D01*
X132008802Y-79249300D01*
X132170700Y-79411198D01*
X132358251Y-79542523D01*
X132401345Y-79562618D01*
X132453784Y-79608791D01*
X132472936Y-79675984D01*
X132452720Y-79742865D01*
X132401345Y-79787382D01*
X132358251Y-79807476D01*
X132233126Y-79895090D01*
X132170700Y-79938802D01*
X132170698Y-79938803D01*
X132170695Y-79938806D01*
X132008806Y-80100695D01*
X131877476Y-80288252D01*
X131877475Y-80288254D01*
X131780718Y-80495750D01*
X131780714Y-80495761D01*
X131721457Y-80716910D01*
X131721456Y-80716918D01*
X131701502Y-80944998D01*
X131701502Y-80945001D01*
X131721456Y-81173081D01*
X131721457Y-81173089D01*
X131780714Y-81394238D01*
X131780718Y-81394249D01*
X131813017Y-81463514D01*
X131877477Y-81601749D01*
X132008802Y-81789300D01*
X132170700Y-81951198D01*
X132358251Y-82082523D01*
X132401345Y-82102618D01*
X132453784Y-82148791D01*
X132472936Y-82215984D01*
X132452720Y-82282865D01*
X132401345Y-82327382D01*
X132358251Y-82347476D01*
X132245636Y-82426331D01*
X132170700Y-82478802D01*
X132170698Y-82478803D01*
X132170695Y-82478806D01*
X132008806Y-82640695D01*
X131877476Y-82828252D01*
X131877475Y-82828254D01*
X131780718Y-83035750D01*
X131780714Y-83035761D01*
X131721457Y-83256910D01*
X131721456Y-83256918D01*
X131701502Y-83484998D01*
X131701502Y-83485001D01*
X131721456Y-83713081D01*
X131721457Y-83713089D01*
X131780714Y-83934238D01*
X131780718Y-83934249D01*
X131813017Y-84003514D01*
X131877477Y-84141749D01*
X132008802Y-84329300D01*
X132170700Y-84491198D01*
X132358251Y-84622523D01*
X132401345Y-84642618D01*
X132453784Y-84688791D01*
X132472936Y-84755984D01*
X132452720Y-84822865D01*
X132401345Y-84867382D01*
X132358251Y-84887476D01*
X132245636Y-84966331D01*
X132170700Y-85018802D01*
X132170698Y-85018803D01*
X132170695Y-85018806D01*
X132008806Y-85180695D01*
X131877476Y-85368252D01*
X131877475Y-85368254D01*
X131780718Y-85575750D01*
X131780714Y-85575761D01*
X131721457Y-85796910D01*
X131721456Y-85796918D01*
X131701502Y-86024998D01*
X131701502Y-86025001D01*
X131721456Y-86253081D01*
X131721457Y-86253089D01*
X131780714Y-86474238D01*
X131780718Y-86474249D01*
X131875487Y-86677482D01*
X131877477Y-86681749D01*
X132008802Y-86869300D01*
X132170700Y-87031198D01*
X132347697Y-87155133D01*
X132358251Y-87162523D01*
X132401345Y-87182618D01*
X132453784Y-87228791D01*
X132472936Y-87295984D01*
X132452720Y-87362865D01*
X132401345Y-87407382D01*
X132358251Y-87427476D01*
X132233126Y-87515090D01*
X132170700Y-87558802D01*
X132170698Y-87558803D01*
X132170695Y-87558806D01*
X132008806Y-87720695D01*
X131877476Y-87908252D01*
X131877475Y-87908254D01*
X131780718Y-88115750D01*
X131780714Y-88115761D01*
X131721457Y-88336910D01*
X131721456Y-88336918D01*
X131701502Y-88564998D01*
X131701502Y-88565001D01*
X129248498Y-88565001D01*
X129248498Y-88565000D01*
X129228543Y-88336913D01*
X129169284Y-88115757D01*
X129072523Y-87908251D01*
X128941198Y-87720700D01*
X128779300Y-87558802D01*
X128591749Y-87427477D01*
X128538596Y-87402691D01*
X128486158Y-87356519D01*
X128467007Y-87289325D01*
X128487223Y-87222444D01*
X128538600Y-87177927D01*
X128587483Y-87155133D01*
X128773820Y-87024657D01*
X128934657Y-86863820D01*
X129065134Y-86677482D01*
X129161265Y-86471326D01*
X129161269Y-86471317D01*
X129213872Y-86275000D01*
X128250686Y-86275000D01*
X128255080Y-86270606D01*
X128307741Y-86179394D01*
X128335000Y-86077661D01*
X128335000Y-85972339D01*
X128307741Y-85870606D01*
X128255080Y-85779394D01*
X128250686Y-85775000D01*
X129213872Y-85775000D01*
X129213872Y-85774999D01*
X129161269Y-85578682D01*
X129161265Y-85578673D01*
X129065134Y-85372517D01*
X128934657Y-85186179D01*
X128773820Y-85025342D01*
X128587481Y-84894865D01*
X128587479Y-84894864D01*
X128538599Y-84872071D01*
X128486159Y-84825899D01*
X128467007Y-84758706D01*
X128487223Y-84691824D01*
X128538599Y-84647307D01*
X128591749Y-84622523D01*
X128779300Y-84491198D01*
X128941198Y-84329300D01*
X129072523Y-84141749D01*
X129169284Y-83934243D01*
X129228543Y-83713087D01*
X129248498Y-83485000D01*
X129228543Y-83256913D01*
X129169284Y-83035757D01*
X129072523Y-82828251D01*
X128941198Y-82640700D01*
X128779300Y-82478802D01*
X128591749Y-82347477D01*
X128548655Y-82327382D01*
X128496215Y-82281210D01*
X128477063Y-82214017D01*
X128497278Y-82147136D01*
X128548655Y-82102618D01*
X128551882Y-82101112D01*
X128591749Y-82082523D01*
X128779300Y-81951198D01*
X128941198Y-81789300D01*
X129072523Y-81601749D01*
X129169284Y-81394243D01*
X129228543Y-81173087D01*
X129248498Y-80945000D01*
X129228543Y-80716913D01*
X129169284Y-80495757D01*
X129072523Y-80288251D01*
X128941198Y-80100700D01*
X128779300Y-79938802D01*
X128591749Y-79807477D01*
X128548655Y-79787382D01*
X128496215Y-79741210D01*
X128477063Y-79674017D01*
X128497278Y-79607136D01*
X128548655Y-79562618D01*
X128551882Y-79561112D01*
X128591749Y-79542523D01*
X128779300Y-79411198D01*
X128941198Y-79249300D01*
X129072523Y-79061749D01*
X129169284Y-78854243D01*
X129228543Y-78633087D01*
X129248498Y-78405000D01*
X129228543Y-78176913D01*
X129169284Y-77955757D01*
X129072523Y-77748251D01*
X128941198Y-77560700D01*
X128779300Y-77398802D01*
X128591749Y-77267477D01*
X128548655Y-77247382D01*
X128496215Y-77201210D01*
X128477063Y-77134017D01*
X128497278Y-77067136D01*
X128548655Y-77022618D01*
X128551882Y-77021112D01*
X128591749Y-77002523D01*
X128779300Y-76871198D01*
X128941198Y-76709300D01*
X129072523Y-76521749D01*
X129169284Y-76314243D01*
X129228543Y-76093087D01*
X129248498Y-75865000D01*
X129228543Y-75636913D01*
X129169284Y-75415757D01*
X129072523Y-75208251D01*
X128941198Y-75020700D01*
X128779300Y-74858802D01*
X128591749Y-74727477D01*
X128548655Y-74707382D01*
X128496215Y-74661210D01*
X128477063Y-74594017D01*
X128497278Y-74527136D01*
X128548655Y-74482618D01*
X128551882Y-74481112D01*
X128591749Y-74462523D01*
X128779300Y-74331198D01*
X128941198Y-74169300D01*
X129072523Y-73981749D01*
X129169284Y-73774243D01*
X129228543Y-73553087D01*
X129248498Y-73325000D01*
X129228543Y-73096913D01*
X129169284Y-72875757D01*
X129072523Y-72668251D01*
X128941198Y-72480700D01*
X128779300Y-72318802D01*
X128591749Y-72187477D01*
X128548655Y-72167382D01*
X128496215Y-72121210D01*
X128477063Y-72054017D01*
X128497278Y-71987136D01*
X128548655Y-71942618D01*
X128551882Y-71941112D01*
X128591749Y-71922523D01*
X128779300Y-71791198D01*
X128941198Y-71629300D01*
X129072523Y-71441749D01*
X129169284Y-71234243D01*
X129228543Y-71013087D01*
X129248498Y-70785000D01*
X129228543Y-70556913D01*
X129169284Y-70335757D01*
X129072523Y-70128251D01*
X128941198Y-69940700D01*
X128779300Y-69778802D01*
X128591749Y-69647477D01*
X128548655Y-69627382D01*
X128496215Y-69581210D01*
X128477063Y-69514017D01*
X128497278Y-69447136D01*
X128548655Y-69402618D01*
X128551882Y-69401112D01*
X128591749Y-69382523D01*
X128779300Y-69251198D01*
X128941198Y-69089300D01*
X129072523Y-68901749D01*
X129169284Y-68694243D01*
X129228543Y-68473087D01*
X129248498Y-68245000D01*
X129228543Y-68016913D01*
X129169284Y-67795757D01*
X129072523Y-67588251D01*
X128941198Y-67400700D01*
X128779300Y-67238802D01*
X128591749Y-67107477D01*
X128548655Y-67087382D01*
X128496215Y-67041210D01*
X128477063Y-66974017D01*
X128497278Y-66907136D01*
X128548655Y-66862618D01*
X128551882Y-66861112D01*
X128591749Y-66842523D01*
X128779300Y-66711198D01*
X128941198Y-66549300D01*
X129072523Y-66361749D01*
X129169284Y-66154243D01*
X129228543Y-65933087D01*
X129248498Y-65705000D01*
X129228543Y-65476913D01*
X129169284Y-65255757D01*
X129072523Y-65048251D01*
X128941198Y-64860700D01*
X128779300Y-64698802D01*
X128591749Y-64567477D01*
X128548655Y-64547382D01*
X128496215Y-64501210D01*
X128477063Y-64434017D01*
X128497278Y-64367136D01*
X128548655Y-64322618D01*
X128551882Y-64321112D01*
X128591749Y-64302523D01*
X128779300Y-64171198D01*
X128941198Y-64009300D01*
X129072523Y-63821749D01*
X129169284Y-63614243D01*
X129228543Y-63393087D01*
X129248498Y-63165000D01*
X129228543Y-62936913D01*
X129169284Y-62715757D01*
X129072523Y-62508251D01*
X128941198Y-62320700D01*
X128779300Y-62158802D01*
X128591749Y-62027477D01*
X128591745Y-62027475D01*
X128384249Y-61930718D01*
X128384238Y-61930714D01*
X128163089Y-61871457D01*
X128163081Y-61871456D01*
X127935002Y-61851502D01*
X127934998Y-61851502D01*
X127706918Y-61871456D01*
X127706910Y-61871457D01*
X127485761Y-61930714D01*
X127485750Y-61930718D01*
X127278254Y-62027475D01*
X127278252Y-62027476D01*
X127278251Y-62027477D01*
X127090700Y-62158802D01*
X127090698Y-62158803D01*
X127090695Y-62158806D01*
X126928806Y-62320695D01*
X126928803Y-62320698D01*
X126928802Y-62320700D01*
X126846767Y-62437856D01*
X126797476Y-62508252D01*
X126797475Y-62508254D01*
X126700718Y-62715750D01*
X126700714Y-62715761D01*
X126641457Y-62936910D01*
X126641456Y-62936918D01*
X126621502Y-63164998D01*
X126621502Y-63165001D01*
X126641456Y-63393081D01*
X126641457Y-63393089D01*
X126700714Y-63614238D01*
X126700718Y-63614249D01*
X126797475Y-63821745D01*
X126797477Y-63821749D01*
X126928802Y-64009300D01*
X127090700Y-64171198D01*
X127278251Y-64302523D01*
X127321345Y-64322618D01*
X127373784Y-64368791D01*
X127392936Y-64435984D01*
X127372720Y-64502865D01*
X127321345Y-64547382D01*
X127278251Y-64567476D01*
X127174342Y-64640235D01*
X127090700Y-64698802D01*
X127090698Y-64698803D01*
X127090695Y-64698806D01*
X126928806Y-64860695D01*
X126797476Y-65048252D01*
X126797475Y-65048254D01*
X126700718Y-65255750D01*
X126700714Y-65255761D01*
X126641457Y-65476910D01*
X126641456Y-65476918D01*
X126621502Y-65704998D01*
X126621502Y-65705001D01*
X126641456Y-65933081D01*
X126641457Y-65933089D01*
X126700714Y-66154238D01*
X126700718Y-66154249D01*
X126795487Y-66357482D01*
X126797477Y-66361749D01*
X126928802Y-66549300D01*
X127090700Y-66711198D01*
X127267700Y-66835135D01*
X127278251Y-66842523D01*
X127321345Y-66862618D01*
X127373784Y-66908791D01*
X127392936Y-66975984D01*
X127372720Y-67042865D01*
X127321345Y-67087382D01*
X127278251Y-67107476D01*
X127153126Y-67195090D01*
X127090700Y-67238802D01*
X127090698Y-67238803D01*
X127090695Y-67238806D01*
X126928806Y-67400695D01*
X126797476Y-67588252D01*
X126797475Y-67588254D01*
X126700718Y-67795750D01*
X126700714Y-67795761D01*
X126641457Y-68016910D01*
X126641456Y-68016918D01*
X126621502Y-68244998D01*
X126621502Y-68245001D01*
X126641456Y-68473081D01*
X126641457Y-68473089D01*
X126700714Y-68694238D01*
X126700718Y-68694249D01*
X126795487Y-68897482D01*
X126797477Y-68901749D01*
X126928802Y-69089300D01*
X127090700Y-69251198D01*
X127267697Y-69375133D01*
X127278251Y-69382523D01*
X127321345Y-69402618D01*
X127373784Y-69448791D01*
X127392936Y-69515984D01*
X127372720Y-69582865D01*
X127321345Y-69627382D01*
X127278251Y-69647476D01*
X127153126Y-69735090D01*
X127090700Y-69778802D01*
X127090698Y-69778803D01*
X127090695Y-69778806D01*
X126928806Y-69940695D01*
X126797476Y-70128252D01*
X126797475Y-70128254D01*
X126700718Y-70335750D01*
X126700714Y-70335761D01*
X126641457Y-70556910D01*
X126641456Y-70556918D01*
X126621502Y-70784998D01*
X126621502Y-70785001D01*
X126641456Y-71013081D01*
X126641457Y-71013089D01*
X126700714Y-71234238D01*
X126700718Y-71234249D01*
X126797475Y-71441745D01*
X126797477Y-71441749D01*
X126928802Y-71629300D01*
X127090700Y-71791198D01*
X127278251Y-71922523D01*
X127321345Y-71942618D01*
X127373784Y-71988791D01*
X127392936Y-72055984D01*
X127372720Y-72122865D01*
X127321345Y-72167382D01*
X127278251Y-72187476D01*
X127153126Y-72275090D01*
X127090700Y-72318802D01*
X127090698Y-72318803D01*
X127090695Y-72318806D01*
X126928806Y-72480695D01*
X126797476Y-72668252D01*
X126797475Y-72668254D01*
X126700718Y-72875750D01*
X126700714Y-72875761D01*
X126641457Y-73096910D01*
X126641456Y-73096918D01*
X126621502Y-73324998D01*
X126621502Y-73325001D01*
X126641456Y-73553081D01*
X126641457Y-73553089D01*
X126700714Y-73774238D01*
X126700718Y-73774249D01*
X126797475Y-73981745D01*
X126797477Y-73981749D01*
X126928802Y-74169300D01*
X127090700Y-74331198D01*
X127278251Y-74462523D01*
X127321345Y-74482618D01*
X127373784Y-74528791D01*
X127392936Y-74595984D01*
X127372720Y-74662865D01*
X127321345Y-74707382D01*
X127278251Y-74727476D01*
X127153126Y-74815090D01*
X127090700Y-74858802D01*
X127090698Y-74858803D01*
X127090695Y-74858806D01*
X126928806Y-75020695D01*
X126797476Y-75208252D01*
X126797475Y-75208254D01*
X126700718Y-75415750D01*
X126700714Y-75415761D01*
X126641457Y-75636910D01*
X126641456Y-75636918D01*
X126621502Y-75864998D01*
X126621502Y-75865001D01*
X126641456Y-76093081D01*
X126641457Y-76093089D01*
X126700714Y-76314238D01*
X126700718Y-76314249D01*
X126797475Y-76521745D01*
X126797477Y-76521749D01*
X126928802Y-76709300D01*
X127090700Y-76871198D01*
X127278251Y-77002523D01*
X127321345Y-77022618D01*
X127373784Y-77068791D01*
X127392936Y-77135984D01*
X127372720Y-77202865D01*
X127321345Y-77247382D01*
X127278251Y-77267476D01*
X127153126Y-77355090D01*
X127090700Y-77398802D01*
X127090698Y-77398803D01*
X127090695Y-77398806D01*
X126928806Y-77560695D01*
X126797476Y-77748252D01*
X126797475Y-77748254D01*
X126700718Y-77955750D01*
X126700714Y-77955761D01*
X126641457Y-78176910D01*
X126641456Y-78176918D01*
X126621502Y-78404998D01*
X126621502Y-78405001D01*
X126641456Y-78633081D01*
X126641457Y-78633089D01*
X126700714Y-78854238D01*
X126700718Y-78854249D01*
X126797475Y-79061745D01*
X126797477Y-79061749D01*
X126928802Y-79249300D01*
X127090700Y-79411198D01*
X127278251Y-79542523D01*
X127321345Y-79562618D01*
X127373784Y-79608791D01*
X127392936Y-79675984D01*
X127372720Y-79742865D01*
X127321345Y-79787382D01*
X127278251Y-79807476D01*
X127153126Y-79895090D01*
X127090700Y-79938802D01*
X127090698Y-79938803D01*
X127090695Y-79938806D01*
X126928806Y-80100695D01*
X126797476Y-80288252D01*
X126797475Y-80288254D01*
X126700718Y-80495750D01*
X126700714Y-80495761D01*
X126641457Y-80716910D01*
X126641456Y-80716918D01*
X126621502Y-80944998D01*
X126621502Y-80945001D01*
X126641456Y-81173081D01*
X126641457Y-81173089D01*
X126700714Y-81394238D01*
X126700718Y-81394249D01*
X126733017Y-81463514D01*
X126797477Y-81601749D01*
X126928802Y-81789300D01*
X127090700Y-81951198D01*
X127278251Y-82082523D01*
X127321345Y-82102618D01*
X127373784Y-82148791D01*
X127392936Y-82215984D01*
X127372720Y-82282865D01*
X127321345Y-82327382D01*
X127278251Y-82347476D01*
X127165636Y-82426331D01*
X127090700Y-82478802D01*
X127090698Y-82478803D01*
X127090695Y-82478806D01*
X126928806Y-82640695D01*
X126797476Y-82828252D01*
X126797475Y-82828254D01*
X126700718Y-83035750D01*
X126700714Y-83035761D01*
X126641457Y-83256910D01*
X126641456Y-83256918D01*
X126621502Y-83484998D01*
X126621502Y-83485001D01*
X126641456Y-83713081D01*
X126641457Y-83713089D01*
X126700714Y-83934238D01*
X126700718Y-83934249D01*
X126733017Y-84003514D01*
X126797477Y-84141749D01*
X126928802Y-84329300D01*
X127090700Y-84491198D01*
X127278251Y-84622523D01*
X127331401Y-84647307D01*
X127383840Y-84693479D01*
X127402992Y-84760673D01*
X127382776Y-84827554D01*
X127331401Y-84872071D01*
X127282517Y-84894865D01*
X127096179Y-85025342D01*
X126935342Y-85186179D01*
X126804865Y-85372517D01*
X126708734Y-85578673D01*
X126708730Y-85578682D01*
X126656127Y-85774999D01*
X126656128Y-85775000D01*
X127619314Y-85775000D01*
X127614920Y-85779394D01*
X127562259Y-85870606D01*
X127535000Y-85972339D01*
X127535000Y-86077661D01*
X127562259Y-86179394D01*
X127614920Y-86270606D01*
X127619314Y-86275000D01*
X126656128Y-86275000D01*
X126708730Y-86471317D01*
X126708734Y-86471326D01*
X126804865Y-86677482D01*
X126935342Y-86863820D01*
X127096179Y-87024657D01*
X127282517Y-87155133D01*
X127331399Y-87177927D01*
X127383839Y-87224099D01*
X127402992Y-87291292D01*
X127382777Y-87358174D01*
X127331402Y-87402691D01*
X127278256Y-87427474D01*
X127278252Y-87427476D01*
X127207856Y-87476767D01*
X127090700Y-87558802D01*
X127090698Y-87558803D01*
X127090695Y-87558806D01*
X126928806Y-87720695D01*
X126797476Y-87908252D01*
X126797475Y-87908254D01*
X126700718Y-88115750D01*
X126700714Y-88115761D01*
X126641457Y-88336910D01*
X126641456Y-88336918D01*
X126621502Y-88564998D01*
X126621502Y-88565001D01*
X126641456Y-88793081D01*
X126641457Y-88793089D01*
X126700714Y-89014238D01*
X126700718Y-89014249D01*
X126797475Y-89221745D01*
X126797477Y-89221749D01*
X126928802Y-89409300D01*
X127090700Y-89571198D01*
X127278251Y-89702523D01*
X127321345Y-89722618D01*
X127373784Y-89768791D01*
X127392936Y-89835984D01*
X127372720Y-89902865D01*
X127321345Y-89947382D01*
X127278251Y-89967476D01*
X127153126Y-90055090D01*
X127090700Y-90098802D01*
X127090698Y-90098803D01*
X127090695Y-90098806D01*
X126928806Y-90260695D01*
X126797476Y-90448252D01*
X126797475Y-90448254D01*
X126700718Y-90655750D01*
X126700714Y-90655761D01*
X126641457Y-90876910D01*
X126641456Y-90876918D01*
X126621502Y-91104998D01*
X126621502Y-91105001D01*
X114008498Y-91105001D01*
X114008498Y-91105000D01*
X113988543Y-90876913D01*
X113929284Y-90655757D01*
X113832523Y-90448251D01*
X113701198Y-90260700D01*
X113539300Y-90098802D01*
X113351749Y-89967477D01*
X113308655Y-89947382D01*
X113256215Y-89901210D01*
X113237063Y-89834017D01*
X113257278Y-89767136D01*
X113308655Y-89722618D01*
X113311882Y-89721112D01*
X113351749Y-89702523D01*
X113539300Y-89571198D01*
X113701198Y-89409300D01*
X113832523Y-89221749D01*
X113929284Y-89014243D01*
X113988543Y-88793087D01*
X114008498Y-88565000D01*
X113988543Y-88336913D01*
X113929284Y-88115757D01*
X113832523Y-87908251D01*
X113701198Y-87720700D01*
X113539300Y-87558802D01*
X113351749Y-87427477D01*
X113298596Y-87402691D01*
X113246158Y-87356519D01*
X113227007Y-87289325D01*
X113247223Y-87222444D01*
X113298600Y-87177927D01*
X113347483Y-87155133D01*
X113533820Y-87024657D01*
X113694657Y-86863820D01*
X113825134Y-86677482D01*
X113921265Y-86471326D01*
X113921269Y-86471317D01*
X113973872Y-86275000D01*
X113010686Y-86275000D01*
X113015080Y-86270606D01*
X113067741Y-86179394D01*
X113095000Y-86077661D01*
X113095000Y-85972339D01*
X113067741Y-85870606D01*
X113015080Y-85779394D01*
X113010686Y-85775000D01*
X113973872Y-85775000D01*
X113973872Y-85774999D01*
X113921269Y-85578682D01*
X113921265Y-85578673D01*
X113825134Y-85372517D01*
X113694657Y-85186179D01*
X113533820Y-85025342D01*
X113347481Y-84894865D01*
X113347479Y-84894864D01*
X113298599Y-84872071D01*
X113246159Y-84825899D01*
X113227007Y-84758706D01*
X113247223Y-84691824D01*
X113298599Y-84647307D01*
X113351749Y-84622523D01*
X113539300Y-84491198D01*
X113701198Y-84329300D01*
X113832523Y-84141749D01*
X113929284Y-83934243D01*
X113988543Y-83713087D01*
X114008498Y-83485000D01*
X113988543Y-83256913D01*
X113929284Y-83035757D01*
X113832523Y-82828251D01*
X113701198Y-82640700D01*
X113539300Y-82478802D01*
X113351749Y-82347477D01*
X113308655Y-82327382D01*
X113256215Y-82281210D01*
X113237063Y-82214017D01*
X113257278Y-82147136D01*
X113308655Y-82102618D01*
X113311882Y-82101112D01*
X113351749Y-82082523D01*
X113539300Y-81951198D01*
X113701198Y-81789300D01*
X113832523Y-81601749D01*
X113929284Y-81394243D01*
X113988543Y-81173087D01*
X114008498Y-80945000D01*
X113988543Y-80716913D01*
X113929284Y-80495757D01*
X113832523Y-80288251D01*
X113701198Y-80100700D01*
X113539300Y-79938802D01*
X113351749Y-79807477D01*
X113308655Y-79787382D01*
X113256215Y-79741210D01*
X113237063Y-79674017D01*
X113257278Y-79607136D01*
X113308655Y-79562618D01*
X113311882Y-79561112D01*
X113351749Y-79542523D01*
X113539300Y-79411198D01*
X113701198Y-79249300D01*
X113832523Y-79061749D01*
X113929284Y-78854243D01*
X113988543Y-78633087D01*
X114008498Y-78405000D01*
X113988543Y-78176913D01*
X113929284Y-77955757D01*
X113832523Y-77748251D01*
X113701198Y-77560700D01*
X113539300Y-77398802D01*
X113351749Y-77267477D01*
X113308655Y-77247382D01*
X113256215Y-77201210D01*
X113237063Y-77134017D01*
X113257278Y-77067136D01*
X113308655Y-77022618D01*
X113311882Y-77021112D01*
X113351749Y-77002523D01*
X113539300Y-76871198D01*
X113701198Y-76709300D01*
X113832523Y-76521749D01*
X113929284Y-76314243D01*
X113988543Y-76093087D01*
X114008498Y-75865000D01*
X113988543Y-75636913D01*
X113929284Y-75415757D01*
X113832523Y-75208251D01*
X113701198Y-75020700D01*
X113539300Y-74858802D01*
X113351749Y-74727477D01*
X113308655Y-74707382D01*
X113256215Y-74661210D01*
X113237063Y-74594017D01*
X113257278Y-74527136D01*
X113308655Y-74482618D01*
X113311882Y-74481112D01*
X113351749Y-74462523D01*
X113539300Y-74331198D01*
X113701198Y-74169300D01*
X113832523Y-73981749D01*
X113929284Y-73774243D01*
X113988543Y-73553087D01*
X114008498Y-73325000D01*
X113988543Y-73096913D01*
X113929284Y-72875757D01*
X113832523Y-72668251D01*
X113701198Y-72480700D01*
X113539300Y-72318802D01*
X113351749Y-72187477D01*
X113308655Y-72167382D01*
X113256215Y-72121210D01*
X113237063Y-72054017D01*
X113257278Y-71987136D01*
X113308655Y-71942618D01*
X113311882Y-71941112D01*
X113351749Y-71922523D01*
X113539300Y-71791198D01*
X113701198Y-71629300D01*
X113832523Y-71441749D01*
X113929284Y-71234243D01*
X113988543Y-71013087D01*
X114008498Y-70785000D01*
X113988543Y-70556913D01*
X113929284Y-70335757D01*
X113832523Y-70128251D01*
X113701198Y-69940700D01*
X113539300Y-69778802D01*
X113351749Y-69647477D01*
X113298596Y-69622691D01*
X113246158Y-69576519D01*
X113227007Y-69509325D01*
X113247223Y-69442444D01*
X113298600Y-69397927D01*
X113347483Y-69375133D01*
X113533820Y-69244657D01*
X113694657Y-69083820D01*
X113825134Y-68897482D01*
X113921265Y-68691326D01*
X113921269Y-68691317D01*
X113973872Y-68495000D01*
X113010686Y-68495000D01*
X113015080Y-68490606D01*
X113067741Y-68399394D01*
X113095000Y-68297661D01*
X113095000Y-68192339D01*
X113067741Y-68090606D01*
X113015080Y-67999394D01*
X113010686Y-67995000D01*
X113973872Y-67995000D01*
X113973872Y-67994999D01*
X113921269Y-67798682D01*
X113921265Y-67798673D01*
X113825134Y-67592517D01*
X113694657Y-67406179D01*
X113533820Y-67245342D01*
X113347481Y-67114865D01*
X113347479Y-67114864D01*
X113288543Y-67087382D01*
X113236103Y-67041210D01*
X113216951Y-66974017D01*
X113237166Y-66907136D01*
X113288543Y-66862618D01*
X113347479Y-66835135D01*
X113347481Y-66835134D01*
X113533820Y-66704657D01*
X113694657Y-66543820D01*
X113825134Y-66357482D01*
X113921265Y-66151326D01*
X113921269Y-66151317D01*
X113973872Y-65955000D01*
X113010686Y-65955000D01*
X113015080Y-65950606D01*
X113067741Y-65859394D01*
X113095000Y-65757661D01*
X113095000Y-65652339D01*
X113067741Y-65550606D01*
X113015080Y-65459394D01*
X113010686Y-65455000D01*
X113973872Y-65455000D01*
X113973872Y-65454999D01*
X113921269Y-65258682D01*
X113921265Y-65258673D01*
X113825134Y-65052517D01*
X113694657Y-64866179D01*
X113533818Y-64705340D01*
X113518784Y-64694813D01*
X113475160Y-64640235D01*
X113467968Y-64570737D01*
X113499491Y-64508382D01*
X113559722Y-64472970D01*
X113576640Y-64469952D01*
X113604201Y-64466989D01*
X113741204Y-64415889D01*
X113858261Y-64328261D01*
X113945889Y-64211204D01*
X113996989Y-64074201D01*
X114000591Y-64040692D01*
X114003499Y-64013654D01*
X114003500Y-64013637D01*
X114003500Y-62316362D01*
X114003499Y-62316345D01*
X114000157Y-62285270D01*
X113996989Y-62255799D01*
X113945889Y-62118796D01*
X113858261Y-62001739D01*
X113741204Y-61914111D01*
X113703385Y-61900005D01*
X113604203Y-61863011D01*
X113543654Y-61856500D01*
X113543638Y-61856500D01*
X111846362Y-61856500D01*
X111846345Y-61856500D01*
X111785797Y-61863011D01*
X111785795Y-61863011D01*
X111648795Y-61914111D01*
X111531739Y-62001739D01*
X111444111Y-62118795D01*
X111393011Y-62255795D01*
X111393011Y-62255797D01*
X111386500Y-62316345D01*
X111386500Y-64013654D01*
X111393011Y-64074202D01*
X111393011Y-64074204D01*
X111429189Y-64171198D01*
X111444111Y-64211204D01*
X111531739Y-64328261D01*
X111648796Y-64415889D01*
X111748110Y-64452931D01*
X111785793Y-64466987D01*
X111785799Y-64466989D01*
X111813346Y-64469950D01*
X111877894Y-64496686D01*
X111917744Y-64554078D01*
X111920239Y-64623903D01*
X111884587Y-64683992D01*
X111871218Y-64694811D01*
X111856181Y-64705340D01*
X111695342Y-64866179D01*
X111564865Y-65052517D01*
X111468734Y-65258673D01*
X111468730Y-65258682D01*
X111416127Y-65454999D01*
X111416128Y-65455000D01*
X112379314Y-65455000D01*
X112374920Y-65459394D01*
X112322259Y-65550606D01*
X112295000Y-65652339D01*
X112295000Y-65757661D01*
X112322259Y-65859394D01*
X112374920Y-65950606D01*
X112379314Y-65955000D01*
X111416128Y-65955000D01*
X111468730Y-66151317D01*
X111468734Y-66151326D01*
X111564865Y-66357482D01*
X111695342Y-66543820D01*
X111856179Y-66704657D01*
X112042517Y-66835134D01*
X112101457Y-66862618D01*
X112153896Y-66908790D01*
X112173048Y-66975984D01*
X112152832Y-67042865D01*
X112101457Y-67087382D01*
X112042517Y-67114865D01*
X111856179Y-67245342D01*
X111695342Y-67406179D01*
X111564865Y-67592517D01*
X111468734Y-67798673D01*
X111468730Y-67798682D01*
X111416127Y-67994999D01*
X111416128Y-67995000D01*
X112379314Y-67995000D01*
X112374920Y-67999394D01*
X112322259Y-68090606D01*
X112295000Y-68192339D01*
X112295000Y-68297661D01*
X112322259Y-68399394D01*
X112374920Y-68490606D01*
X112379314Y-68495000D01*
X111416128Y-68495000D01*
X111468730Y-68691317D01*
X111468734Y-68691326D01*
X111564865Y-68897482D01*
X111695342Y-69083820D01*
X111856179Y-69244657D01*
X112042517Y-69375133D01*
X112091399Y-69397927D01*
X112143839Y-69444099D01*
X112162992Y-69511292D01*
X112142777Y-69578174D01*
X112091402Y-69622691D01*
X112038256Y-69647474D01*
X112038252Y-69647476D01*
X111967856Y-69696767D01*
X111850700Y-69778802D01*
X111850698Y-69778803D01*
X111850695Y-69778806D01*
X111688806Y-69940695D01*
X111557476Y-70128252D01*
X111557475Y-70128254D01*
X111460718Y-70335750D01*
X111460714Y-70335761D01*
X111401457Y-70556910D01*
X111401456Y-70556918D01*
X111381502Y-70784998D01*
X111381502Y-70785001D01*
X111401456Y-71013081D01*
X111401457Y-71013089D01*
X111460714Y-71234238D01*
X111460718Y-71234249D01*
X111557475Y-71441745D01*
X111557477Y-71441749D01*
X111688802Y-71629300D01*
X111850700Y-71791198D01*
X112038251Y-71922523D01*
X112081345Y-71942618D01*
X112133784Y-71988791D01*
X112152936Y-72055984D01*
X112132720Y-72122865D01*
X112081345Y-72167382D01*
X112038251Y-72187476D01*
X111913126Y-72275090D01*
X111850700Y-72318802D01*
X111850698Y-72318803D01*
X111850695Y-72318806D01*
X111688806Y-72480695D01*
X111557476Y-72668252D01*
X111557475Y-72668254D01*
X111460718Y-72875750D01*
X111460714Y-72875761D01*
X111401457Y-73096910D01*
X111401456Y-73096918D01*
X111381502Y-73324998D01*
X111381502Y-73325001D01*
X111401456Y-73553081D01*
X111401457Y-73553089D01*
X111460714Y-73774238D01*
X111460718Y-73774249D01*
X111557475Y-73981745D01*
X111557477Y-73981749D01*
X111688802Y-74169300D01*
X111850700Y-74331198D01*
X112038251Y-74462523D01*
X112081345Y-74482618D01*
X112133784Y-74528791D01*
X112152936Y-74595984D01*
X112132720Y-74662865D01*
X112081345Y-74707382D01*
X112038251Y-74727476D01*
X111913126Y-74815090D01*
X111850700Y-74858802D01*
X111850698Y-74858803D01*
X111850695Y-74858806D01*
X111688806Y-75020695D01*
X111557476Y-75208252D01*
X111557475Y-75208254D01*
X111460718Y-75415750D01*
X111460714Y-75415761D01*
X111401457Y-75636910D01*
X111401456Y-75636918D01*
X111381502Y-75864998D01*
X111381502Y-75865001D01*
X111401456Y-76093081D01*
X111401457Y-76093089D01*
X111460714Y-76314238D01*
X111460718Y-76314249D01*
X111557475Y-76521745D01*
X111557477Y-76521749D01*
X111688802Y-76709300D01*
X111850700Y-76871198D01*
X112038251Y-77002523D01*
X112081345Y-77022618D01*
X112133784Y-77068791D01*
X112152936Y-77135984D01*
X112132720Y-77202865D01*
X112081345Y-77247382D01*
X112038251Y-77267476D01*
X111913126Y-77355090D01*
X111850700Y-77398802D01*
X111850698Y-77398803D01*
X111850695Y-77398806D01*
X111688806Y-77560695D01*
X111557476Y-77748252D01*
X111557475Y-77748254D01*
X111460718Y-77955750D01*
X111460714Y-77955761D01*
X111401457Y-78176910D01*
X111401456Y-78176918D01*
X111381502Y-78404998D01*
X111381502Y-78405001D01*
X111401456Y-78633081D01*
X111401457Y-78633089D01*
X111460714Y-78854238D01*
X111460718Y-78854249D01*
X111557475Y-79061745D01*
X111557477Y-79061749D01*
X111688802Y-79249300D01*
X111850700Y-79411198D01*
X112038251Y-79542523D01*
X112081345Y-79562618D01*
X112133784Y-79608791D01*
X112152936Y-79675984D01*
X112132720Y-79742865D01*
X112081345Y-79787382D01*
X112038251Y-79807476D01*
X111913126Y-79895090D01*
X111850700Y-79938802D01*
X111850698Y-79938803D01*
X111850695Y-79938806D01*
X111688806Y-80100695D01*
X111557476Y-80288252D01*
X111557475Y-80288254D01*
X111460718Y-80495750D01*
X111460714Y-80495761D01*
X111401457Y-80716910D01*
X111401456Y-80716918D01*
X111381502Y-80944998D01*
X111381502Y-80945001D01*
X111401456Y-81173081D01*
X111401457Y-81173089D01*
X111460714Y-81394238D01*
X111460718Y-81394249D01*
X111493017Y-81463514D01*
X111557477Y-81601749D01*
X111688802Y-81789300D01*
X111850700Y-81951198D01*
X112038251Y-82082523D01*
X112081345Y-82102618D01*
X112133784Y-82148791D01*
X112152936Y-82215984D01*
X112132720Y-82282865D01*
X112081345Y-82327382D01*
X112038251Y-82347476D01*
X111925636Y-82426331D01*
X111850700Y-82478802D01*
X111850698Y-82478803D01*
X111850695Y-82478806D01*
X111688806Y-82640695D01*
X111557476Y-82828252D01*
X111557475Y-82828254D01*
X111460718Y-83035750D01*
X111460714Y-83035761D01*
X111401457Y-83256910D01*
X111401456Y-83256918D01*
X111381502Y-83484998D01*
X111381502Y-83485001D01*
X111401456Y-83713081D01*
X111401457Y-83713089D01*
X111460714Y-83934238D01*
X111460718Y-83934249D01*
X111493017Y-84003514D01*
X111557477Y-84141749D01*
X111688802Y-84329300D01*
X111850700Y-84491198D01*
X112038251Y-84622523D01*
X112091401Y-84647307D01*
X112143840Y-84693479D01*
X112162992Y-84760673D01*
X112142776Y-84827554D01*
X112091401Y-84872071D01*
X112042517Y-84894865D01*
X111856179Y-85025342D01*
X111695342Y-85186179D01*
X111564865Y-85372517D01*
X111468734Y-85578673D01*
X111468730Y-85578682D01*
X111416127Y-85774999D01*
X111416128Y-85775000D01*
X112379314Y-85775000D01*
X112374920Y-85779394D01*
X112322259Y-85870606D01*
X112295000Y-85972339D01*
X112295000Y-86077661D01*
X112322259Y-86179394D01*
X112374920Y-86270606D01*
X112379314Y-86275000D01*
X111416128Y-86275000D01*
X111468730Y-86471317D01*
X111468734Y-86471326D01*
X111564865Y-86677482D01*
X111695342Y-86863820D01*
X111856179Y-87024657D01*
X112042517Y-87155133D01*
X112091399Y-87177927D01*
X112143839Y-87224099D01*
X112162992Y-87291292D01*
X112142777Y-87358174D01*
X112091402Y-87402691D01*
X112038256Y-87427474D01*
X112038252Y-87427476D01*
X111967856Y-87476767D01*
X111850700Y-87558802D01*
X111850698Y-87558803D01*
X111850695Y-87558806D01*
X111688806Y-87720695D01*
X111557476Y-87908252D01*
X111557475Y-87908254D01*
X111460718Y-88115750D01*
X111460714Y-88115761D01*
X111401457Y-88336910D01*
X111401456Y-88336918D01*
X111381502Y-88564998D01*
X111381502Y-88565001D01*
X111401456Y-88793081D01*
X111401457Y-88793089D01*
X111460714Y-89014238D01*
X111460718Y-89014249D01*
X111557475Y-89221745D01*
X111557477Y-89221749D01*
X111688802Y-89409300D01*
X111850700Y-89571198D01*
X112038251Y-89702523D01*
X112081345Y-89722618D01*
X112133784Y-89768791D01*
X112152936Y-89835984D01*
X112132720Y-89902865D01*
X112081345Y-89947382D01*
X112038251Y-89967476D01*
X111913126Y-90055090D01*
X111850700Y-90098802D01*
X111850698Y-90098803D01*
X111850695Y-90098806D01*
X111688806Y-90260695D01*
X111557476Y-90448252D01*
X111557475Y-90448254D01*
X111460718Y-90655750D01*
X111460714Y-90655761D01*
X111401457Y-90876910D01*
X111401456Y-90876918D01*
X111381502Y-91104998D01*
X111381502Y-91105001D01*
X100075500Y-91105001D01*
X100075500Y-84760000D01*
X101417110Y-84760000D01*
X101436228Y-84966329D01*
X101436229Y-84966331D01*
X101492934Y-85165630D01*
X101492935Y-85165632D01*
X101492936Y-85165635D01*
X101500435Y-85180695D01*
X101585296Y-85351119D01*
X101585305Y-85351133D01*
X101710171Y-85516483D01*
X101710173Y-85516486D01*
X101863307Y-85656085D01*
X101863309Y-85656087D01*
X101936191Y-85701213D01*
X102039485Y-85765170D01*
X102232707Y-85840024D01*
X102436393Y-85878100D01*
X102436395Y-85878100D01*
X102643605Y-85878100D01*
X102643607Y-85878100D01*
X102847293Y-85840024D01*
X103040515Y-85765170D01*
X103216692Y-85656086D01*
X103369826Y-85516486D01*
X103494700Y-85351125D01*
X103587064Y-85165635D01*
X103643771Y-84966330D01*
X103662890Y-84760000D01*
X106505646Y-84760000D01*
X106524619Y-84964761D01*
X106524620Y-84964763D01*
X106580894Y-85162546D01*
X106580900Y-85162561D01*
X106672556Y-85346629D01*
X106672556Y-85346630D01*
X106675679Y-85350766D01*
X107264400Y-84762046D01*
X107264400Y-84806816D01*
X107288634Y-84897256D01*
X107335450Y-84978343D01*
X107401657Y-85044550D01*
X107482744Y-85091366D01*
X107573184Y-85115600D01*
X107617953Y-85115600D01*
X107032337Y-85701213D01*
X107123289Y-85757528D01*
X107123291Y-85757529D01*
X107315040Y-85831812D01*
X107517182Y-85869600D01*
X107722818Y-85869600D01*
X107924959Y-85831812D01*
X108116709Y-85757529D01*
X108116710Y-85757528D01*
X108207661Y-85701213D01*
X107622048Y-85115600D01*
X107666816Y-85115600D01*
X107757256Y-85091366D01*
X107838343Y-85044550D01*
X107904550Y-84978343D01*
X107951366Y-84897256D01*
X107975600Y-84806816D01*
X107975600Y-84762047D01*
X108564319Y-85350766D01*
X108564320Y-85350766D01*
X108567440Y-85346635D01*
X108567443Y-85346629D01*
X108659099Y-85162561D01*
X108659105Y-85162546D01*
X108715379Y-84964763D01*
X108715380Y-84964761D01*
X108734354Y-84760000D01*
X108734354Y-84759999D01*
X108715380Y-84555238D01*
X108715379Y-84555236D01*
X108659105Y-84357453D01*
X108659097Y-84357433D01*
X108567447Y-84173374D01*
X108564319Y-84169232D01*
X107975600Y-84757951D01*
X107975600Y-84713184D01*
X107951366Y-84622744D01*
X107904550Y-84541657D01*
X107838343Y-84475450D01*
X107757256Y-84428634D01*
X107666816Y-84404400D01*
X107622048Y-84404400D01*
X108207661Y-83818785D01*
X108207660Y-83818784D01*
X108116715Y-83762474D01*
X108116708Y-83762470D01*
X107924959Y-83688187D01*
X107722818Y-83650400D01*
X107517182Y-83650400D01*
X107315040Y-83688187D01*
X107123291Y-83762470D01*
X107123287Y-83762472D01*
X107032337Y-83818784D01*
X107032337Y-83818785D01*
X107617953Y-84404400D01*
X107573184Y-84404400D01*
X107482744Y-84428634D01*
X107401657Y-84475450D01*
X107335450Y-84541657D01*
X107288634Y-84622744D01*
X107264400Y-84713184D01*
X107264400Y-84757953D01*
X106675679Y-84169232D01*
X106675678Y-84169232D01*
X106672559Y-84173364D01*
X106672557Y-84173367D01*
X106580900Y-84357438D01*
X106580894Y-84357453D01*
X106524620Y-84555236D01*
X106524619Y-84555238D01*
X106505646Y-84759999D01*
X106505646Y-84760000D01*
X103662890Y-84760000D01*
X103643771Y-84553670D01*
X103587064Y-84354365D01*
X103525823Y-84231378D01*
X103494703Y-84168880D01*
X103494694Y-84168866D01*
X103369828Y-84003516D01*
X103369826Y-84003513D01*
X103216692Y-83863914D01*
X103216690Y-83863912D01*
X103040520Y-83754833D01*
X103040513Y-83754829D01*
X102932763Y-83713087D01*
X102847293Y-83679976D01*
X102643607Y-83641900D01*
X102436393Y-83641900D01*
X102232707Y-83679976D01*
X102232704Y-83679976D01*
X102232704Y-83679977D01*
X102039486Y-83754829D01*
X102039479Y-83754833D01*
X101863309Y-83863912D01*
X101863307Y-83863914D01*
X101710173Y-84003513D01*
X101710171Y-84003516D01*
X101585305Y-84168866D01*
X101585296Y-84168880D01*
X101492937Y-84354363D01*
X101492934Y-84354369D01*
X101436229Y-84553668D01*
X101436228Y-84553670D01*
X101417110Y-84759999D01*
X101417110Y-84760000D01*
X100075500Y-84760000D01*
X100075500Y-82220000D01*
X103957110Y-82220000D01*
X103976228Y-82426329D01*
X103976229Y-82426331D01*
X104032934Y-82625630D01*
X104032935Y-82625632D01*
X104032936Y-82625635D01*
X104040435Y-82640695D01*
X104125296Y-82811119D01*
X104125305Y-82811133D01*
X104250171Y-82976483D01*
X104250173Y-82976486D01*
X104403307Y-83116085D01*
X104403309Y-83116087D01*
X104504076Y-83178479D01*
X104579485Y-83225170D01*
X104772707Y-83300024D01*
X104976393Y-83338100D01*
X104976395Y-83338100D01*
X105183605Y-83338100D01*
X105183607Y-83338100D01*
X105387293Y-83300024D01*
X105580515Y-83225170D01*
X105756692Y-83116086D01*
X105909826Y-82976486D01*
X106034700Y-82811125D01*
X106127064Y-82625635D01*
X106183771Y-82426330D01*
X106202890Y-82220000D01*
X106183771Y-82013670D01*
X106127064Y-81814365D01*
X106065823Y-81691378D01*
X106034703Y-81628880D01*
X106034694Y-81628866D01*
X105909828Y-81463516D01*
X105909826Y-81463513D01*
X105756692Y-81323914D01*
X105756690Y-81323912D01*
X105580520Y-81214833D01*
X105580513Y-81214829D01*
X105472763Y-81173087D01*
X105387293Y-81139976D01*
X105183607Y-81101900D01*
X104976393Y-81101900D01*
X104772707Y-81139976D01*
X104772704Y-81139976D01*
X104772704Y-81139977D01*
X104579486Y-81214829D01*
X104579479Y-81214833D01*
X104403309Y-81323912D01*
X104403307Y-81323914D01*
X104250173Y-81463513D01*
X104250171Y-81463516D01*
X104125305Y-81628866D01*
X104125296Y-81628880D01*
X104032937Y-81814363D01*
X104032934Y-81814369D01*
X103976229Y-82013668D01*
X103976228Y-82013670D01*
X103957110Y-82219999D01*
X103957110Y-82220000D01*
X100075500Y-82220000D01*
X100075500Y-57240004D01*
X103625031Y-57240004D01*
X103644874Y-57479475D01*
X103703865Y-57712427D01*
X103800392Y-57932487D01*
X103892687Y-58073756D01*
X104440689Y-57525755D01*
X104459668Y-57571573D01*
X104536274Y-57686223D01*
X104633776Y-57783725D01*
X104748426Y-57860331D01*
X104794242Y-57879308D01*
X104245572Y-58427978D01*
X104284208Y-58458050D01*
X104495544Y-58572420D01*
X104495550Y-58572422D01*
X104722823Y-58650445D01*
X104959851Y-58689999D01*
X105200149Y-58689999D01*
X105437176Y-58650445D01*
X105664449Y-58572422D01*
X105664455Y-58572420D01*
X105875794Y-58458048D01*
X105875795Y-58458047D01*
X105914426Y-58427979D01*
X105914427Y-58427978D01*
X105365757Y-57879308D01*
X105411574Y-57860331D01*
X105526224Y-57783725D01*
X105623726Y-57686223D01*
X105700332Y-57571573D01*
X105719309Y-57525756D01*
X106267310Y-58073757D01*
X106359608Y-57932484D01*
X106456134Y-57712427D01*
X106515125Y-57479475D01*
X106534969Y-57240004D01*
X106534969Y-57239991D01*
X106515125Y-57000522D01*
X106469411Y-56820001D01*
X134386884Y-56820001D01*
X134405313Y-57030649D01*
X134405315Y-57030660D01*
X134460041Y-57234902D01*
X134460043Y-57234906D01*
X134460044Y-57234910D01*
X134494566Y-57308943D01*
X134549410Y-57426556D01*
X134549411Y-57426558D01*
X134670700Y-57599778D01*
X134820221Y-57749299D01*
X134820224Y-57749301D01*
X134993442Y-57870589D01*
X135185090Y-57959956D01*
X135389345Y-58014686D01*
X135539812Y-58027850D01*
X135599998Y-58033116D01*
X135600000Y-58033116D01*
X135600002Y-58033116D01*
X135652663Y-58028508D01*
X135810655Y-58014686D01*
X136014910Y-57959956D01*
X136206558Y-57870589D01*
X136268981Y-57826880D01*
X137446672Y-57826880D01*
X137562821Y-57898797D01*
X137562822Y-57898798D01*
X137770195Y-57979134D01*
X137988807Y-58020000D01*
X138211193Y-58020000D01*
X138429809Y-57979133D01*
X138637168Y-57898801D01*
X138637181Y-57898795D01*
X138753326Y-57826879D01*
X138100001Y-57173553D01*
X138100000Y-57173553D01*
X137446672Y-57826879D01*
X137446672Y-57826880D01*
X136268981Y-57826880D01*
X136379776Y-57749301D01*
X136529301Y-57599776D01*
X136650589Y-57426558D01*
X136739956Y-57234910D01*
X136739956Y-57234909D01*
X136742244Y-57230003D01*
X136744488Y-57231049D01*
X136779681Y-57183183D01*
X136844932Y-57158202D01*
X136913331Y-57172464D01*
X136963160Y-57221441D01*
X136974111Y-57247871D01*
X136976236Y-57255342D01*
X136976239Y-57255348D01*
X137075369Y-57454428D01*
X137091137Y-57475308D01*
X137091138Y-57475308D01*
X137700369Y-56866078D01*
X137750000Y-56866078D01*
X137773852Y-56955095D01*
X137819930Y-57034905D01*
X137885095Y-57100070D01*
X137964905Y-57146148D01*
X138053922Y-57170000D01*
X138146078Y-57170000D01*
X138235095Y-57146148D01*
X138314905Y-57100070D01*
X138380070Y-57034905D01*
X138426148Y-56955095D01*
X138450000Y-56866078D01*
X138450000Y-56820000D01*
X138453553Y-56820000D01*
X139108861Y-57475308D01*
X139124631Y-57454425D01*
X139124633Y-57454422D01*
X139223759Y-57255350D01*
X139284621Y-57041439D01*
X139305141Y-56820001D01*
X142006884Y-56820001D01*
X142025313Y-57030649D01*
X142025315Y-57030660D01*
X142080041Y-57234902D01*
X142080043Y-57234906D01*
X142080044Y-57234910D01*
X142114566Y-57308943D01*
X142169410Y-57426556D01*
X142169411Y-57426558D01*
X142290700Y-57599778D01*
X142440221Y-57749299D01*
X142440224Y-57749301D01*
X142613442Y-57870589D01*
X142805090Y-57959956D01*
X143009345Y-58014686D01*
X143159812Y-58027850D01*
X143219998Y-58033116D01*
X143220000Y-58033116D01*
X143220002Y-58033116D01*
X143272663Y-58028508D01*
X143430655Y-58014686D01*
X143634910Y-57959956D01*
X143826558Y-57870589D01*
X143888981Y-57826880D01*
X145066672Y-57826880D01*
X145182821Y-57898797D01*
X145182822Y-57898798D01*
X145390195Y-57979134D01*
X145608807Y-58020000D01*
X145831193Y-58020000D01*
X146049809Y-57979133D01*
X146257168Y-57898801D01*
X146257181Y-57898795D01*
X146373326Y-57826879D01*
X145720001Y-57173553D01*
X145720000Y-57173553D01*
X145066672Y-57826879D01*
X145066672Y-57826880D01*
X143888981Y-57826880D01*
X143999776Y-57749301D01*
X144149301Y-57599776D01*
X144270589Y-57426558D01*
X144359956Y-57234910D01*
X144359956Y-57234909D01*
X144362244Y-57230003D01*
X144364488Y-57231049D01*
X144399681Y-57183183D01*
X144464932Y-57158202D01*
X144533331Y-57172464D01*
X144583160Y-57221441D01*
X144594111Y-57247871D01*
X144596236Y-57255342D01*
X144596239Y-57255348D01*
X144695369Y-57454428D01*
X144711137Y-57475308D01*
X144711138Y-57475308D01*
X145320369Y-56866078D01*
X145370000Y-56866078D01*
X145393852Y-56955095D01*
X145439930Y-57034905D01*
X145505095Y-57100070D01*
X145584905Y-57146148D01*
X145673922Y-57170000D01*
X145766078Y-57170000D01*
X145855095Y-57146148D01*
X145934905Y-57100070D01*
X146000070Y-57034905D01*
X146046148Y-56955095D01*
X146070000Y-56866078D01*
X146070000Y-56820000D01*
X146073553Y-56820000D01*
X146728861Y-57475308D01*
X146744631Y-57454425D01*
X146744633Y-57454422D01*
X146843759Y-57255350D01*
X146904621Y-57041439D01*
X146925141Y-56820000D01*
X146925141Y-56819999D01*
X146904621Y-56598560D01*
X146843759Y-56384649D01*
X146744635Y-56185580D01*
X146744630Y-56185572D01*
X146728860Y-56164690D01*
X146073553Y-56819999D01*
X146073553Y-56820000D01*
X146070000Y-56820000D01*
X146070000Y-56773922D01*
X146046148Y-56684905D01*
X146000070Y-56605095D01*
X145934905Y-56539930D01*
X145855095Y-56493852D01*
X145766078Y-56470000D01*
X145673922Y-56470000D01*
X145584905Y-56493852D01*
X145505095Y-56539930D01*
X145439930Y-56605095D01*
X145393852Y-56684905D01*
X145370000Y-56773922D01*
X145370000Y-56866078D01*
X145320369Y-56866078D01*
X145366447Y-56820000D01*
X144711138Y-56164691D01*
X144711137Y-56164691D01*
X144695368Y-56185574D01*
X144596239Y-56384651D01*
X144594111Y-56392131D01*
X144556830Y-56451223D01*
X144493520Y-56480780D01*
X144424280Y-56471416D01*
X144371095Y-56426105D01*
X144362880Y-56409700D01*
X144362244Y-56409997D01*
X144270589Y-56213443D01*
X144270588Y-56213441D01*
X144251075Y-56185574D01*
X144149301Y-56040224D01*
X144149299Y-56040221D01*
X143999778Y-55890700D01*
X143888980Y-55813119D01*
X145066671Y-55813119D01*
X145720000Y-56466447D01*
X145720001Y-56466447D01*
X146373327Y-55813119D01*
X146257178Y-55741202D01*
X146257177Y-55741201D01*
X146049804Y-55660865D01*
X145831193Y-55620000D01*
X145608807Y-55620000D01*
X145390195Y-55660865D01*
X145182824Y-55741200D01*
X145182823Y-55741201D01*
X145066671Y-55813119D01*
X143888980Y-55813119D01*
X143826558Y-55769411D01*
X143826556Y-55769410D01*
X143805071Y-55759391D01*
X143634910Y-55680044D01*
X143634906Y-55680043D01*
X143634902Y-55680041D01*
X143430660Y-55625315D01*
X143430656Y-55625314D01*
X143430655Y-55625314D01*
X143430654Y-55625313D01*
X143430649Y-55625313D01*
X143220002Y-55606884D01*
X143219998Y-55606884D01*
X143009350Y-55625313D01*
X143009339Y-55625315D01*
X142805097Y-55680041D01*
X142805088Y-55680045D01*
X142613443Y-55769410D01*
X142613441Y-55769411D01*
X142440221Y-55890700D01*
X142290700Y-56040221D01*
X142169411Y-56213441D01*
X142169410Y-56213443D01*
X142080045Y-56405088D01*
X142080041Y-56405097D01*
X142025315Y-56609339D01*
X142025313Y-56609350D01*
X142006884Y-56819998D01*
X142006884Y-56820001D01*
X139305141Y-56820001D01*
X139305141Y-56820000D01*
X139305141Y-56819999D01*
X139284621Y-56598560D01*
X139223759Y-56384649D01*
X139124635Y-56185580D01*
X139124630Y-56185572D01*
X139108860Y-56164690D01*
X138453553Y-56819999D01*
X138453553Y-56820000D01*
X138450000Y-56820000D01*
X138450000Y-56773922D01*
X138426148Y-56684905D01*
X138380070Y-56605095D01*
X138314905Y-56539930D01*
X138235095Y-56493852D01*
X138146078Y-56470000D01*
X138053922Y-56470000D01*
X137964905Y-56493852D01*
X137885095Y-56539930D01*
X137819930Y-56605095D01*
X137773852Y-56684905D01*
X137750000Y-56773922D01*
X137750000Y-56866078D01*
X137700369Y-56866078D01*
X137746447Y-56820000D01*
X137091138Y-56164691D01*
X137091137Y-56164691D01*
X137075368Y-56185574D01*
X136976239Y-56384651D01*
X136974111Y-56392131D01*
X136936830Y-56451223D01*
X136873520Y-56480780D01*
X136804280Y-56471416D01*
X136751095Y-56426105D01*
X136742880Y-56409700D01*
X136742244Y-56409997D01*
X136650589Y-56213443D01*
X136650588Y-56213441D01*
X136631075Y-56185574D01*
X136529301Y-56040224D01*
X136529299Y-56040221D01*
X136379778Y-55890700D01*
X136268980Y-55813119D01*
X137446671Y-55813119D01*
X138100000Y-56466447D01*
X138100001Y-56466447D01*
X138753327Y-55813119D01*
X138637178Y-55741202D01*
X138637177Y-55741201D01*
X138429804Y-55660865D01*
X138211193Y-55620000D01*
X137988807Y-55620000D01*
X137770195Y-55660865D01*
X137562824Y-55741200D01*
X137562823Y-55741201D01*
X137446671Y-55813119D01*
X136268980Y-55813119D01*
X136206558Y-55769411D01*
X136206556Y-55769410D01*
X136185071Y-55759391D01*
X136014910Y-55680044D01*
X136014906Y-55680043D01*
X136014902Y-55680041D01*
X135810660Y-55625315D01*
X135810656Y-55625314D01*
X135810655Y-55625314D01*
X135810654Y-55625313D01*
X135810649Y-55625313D01*
X135600002Y-55606884D01*
X135599998Y-55606884D01*
X135389350Y-55625313D01*
X135389339Y-55625315D01*
X135185097Y-55680041D01*
X135185088Y-55680045D01*
X134993443Y-55769410D01*
X134993441Y-55769411D01*
X134820221Y-55890700D01*
X134670700Y-56040221D01*
X134549411Y-56213441D01*
X134549410Y-56213443D01*
X134460045Y-56405088D01*
X134460041Y-56405097D01*
X134405315Y-56609339D01*
X134405313Y-56609350D01*
X134386884Y-56819998D01*
X134386884Y-56820001D01*
X106469411Y-56820001D01*
X106456134Y-56767570D01*
X106359607Y-56547510D01*
X106267310Y-56406239D01*
X105719309Y-56954240D01*
X105700332Y-56908425D01*
X105623726Y-56793775D01*
X105526224Y-56696273D01*
X105411574Y-56619667D01*
X105365756Y-56600689D01*
X105914426Y-56052018D01*
X105914426Y-56052016D01*
X105875801Y-56021953D01*
X105875795Y-56021949D01*
X105664455Y-55907577D01*
X105664449Y-55907575D01*
X105437176Y-55829552D01*
X105200149Y-55789999D01*
X104959851Y-55789999D01*
X104722823Y-55829552D01*
X104495550Y-55907575D01*
X104495544Y-55907577D01*
X104284209Y-56021947D01*
X104245571Y-56052018D01*
X104794242Y-56600689D01*
X104748426Y-56619667D01*
X104633776Y-56696273D01*
X104536274Y-56793775D01*
X104459668Y-56908425D01*
X104440690Y-56954242D01*
X103892688Y-56406240D01*
X103800392Y-56547510D01*
X103703865Y-56767570D01*
X103644874Y-57000522D01*
X103625031Y-57239991D01*
X103625031Y-57240004D01*
X100075500Y-57240004D01*
X100075500Y-52738654D01*
X103621500Y-52738654D01*
X103628011Y-52799202D01*
X103628011Y-52799204D01*
X103676335Y-52928761D01*
X103679111Y-52936204D01*
X103766739Y-53053261D01*
X103883796Y-53140889D01*
X104020799Y-53191989D01*
X104048050Y-53194918D01*
X104081345Y-53198499D01*
X104081362Y-53198500D01*
X106078638Y-53198500D01*
X106078654Y-53198499D01*
X106105692Y-53195591D01*
X106139201Y-53191989D01*
X106276204Y-53140889D01*
X106393261Y-53053261D01*
X106480889Y-52936204D01*
X106531989Y-52799201D01*
X106535591Y-52765692D01*
X106538499Y-52738654D01*
X106538500Y-52738637D01*
X106538500Y-51740000D01*
X118790786Y-51740000D01*
X118809612Y-51979219D01*
X118865630Y-52212553D01*
X118865630Y-52212554D01*
X118957457Y-52434245D01*
X118957459Y-52434248D01*
X119082837Y-52638846D01*
X119082841Y-52638851D01*
X119153482Y-52721561D01*
X119238682Y-52821318D01*
X119330445Y-52899690D01*
X119421148Y-52977158D01*
X119421153Y-52977162D01*
X119625751Y-53102540D01*
X119625754Y-53102542D01*
X119847446Y-53194369D01*
X119905779Y-53208373D01*
X120080778Y-53250387D01*
X120320000Y-53269214D01*
X120559222Y-53250387D01*
X120792553Y-53194369D01*
X120792554Y-53194369D01*
X121014245Y-53102542D01*
X121014246Y-53102541D01*
X121014249Y-53102540D01*
X121218849Y-52977160D01*
X121401318Y-52821318D01*
X121557160Y-52638849D01*
X121682540Y-52434249D01*
X121692771Y-52409549D01*
X121774369Y-52212554D01*
X121774369Y-52212553D01*
X121803573Y-52090909D01*
X121830387Y-51979222D01*
X121849214Y-51740000D01*
X123490787Y-51740000D01*
X123509613Y-51979219D01*
X123565631Y-52212553D01*
X123565631Y-52212554D01*
X123657458Y-52434245D01*
X123657460Y-52434248D01*
X123782838Y-52638846D01*
X123782842Y-52638851D01*
X123853483Y-52721561D01*
X123938683Y-52821318D01*
X124030446Y-52899690D01*
X124121149Y-52977158D01*
X124121154Y-52977162D01*
X124325752Y-53102540D01*
X124325755Y-53102542D01*
X124547447Y-53194369D01*
X124605780Y-53208373D01*
X124780779Y-53250387D01*
X125020001Y-53269214D01*
X125259223Y-53250387D01*
X125492554Y-53194369D01*
X125492555Y-53194369D01*
X125714246Y-53102542D01*
X125714247Y-53102541D01*
X125714250Y-53102540D01*
X125918850Y-52977160D01*
X126101319Y-52821318D01*
X126257161Y-52638849D01*
X126382541Y-52434249D01*
X126392772Y-52409549D01*
X126474370Y-52212554D01*
X126474370Y-52212553D01*
X126503574Y-52090909D01*
X126530388Y-51979222D01*
X126549215Y-51740000D01*
X128190787Y-51740000D01*
X128209613Y-51979219D01*
X128265631Y-52212553D01*
X128265631Y-52212554D01*
X128357458Y-52434245D01*
X128357460Y-52434248D01*
X128482838Y-52638846D01*
X128482842Y-52638851D01*
X128553483Y-52721561D01*
X128638683Y-52821318D01*
X128730446Y-52899690D01*
X128821149Y-52977158D01*
X128821154Y-52977162D01*
X129025752Y-53102540D01*
X129025755Y-53102542D01*
X129247447Y-53194369D01*
X129305780Y-53208373D01*
X129480779Y-53250387D01*
X129720001Y-53269214D01*
X129959223Y-53250387D01*
X130192554Y-53194369D01*
X130192555Y-53194369D01*
X130414246Y-53102542D01*
X130414247Y-53102541D01*
X130414250Y-53102540D01*
X130618850Y-52977160D01*
X130801319Y-52821318D01*
X130957161Y-52638849D01*
X130972294Y-52614154D01*
X136766000Y-52614154D01*
X136772511Y-52674702D01*
X136772511Y-52674704D01*
X136818948Y-52799202D01*
X136823611Y-52811704D01*
X136911239Y-52928761D01*
X137028296Y-53016389D01*
X137165299Y-53067489D01*
X137192550Y-53070418D01*
X137225845Y-53073999D01*
X137225862Y-53074000D01*
X138974138Y-53074000D01*
X138974154Y-53073999D01*
X139001192Y-53071091D01*
X139034701Y-53067489D01*
X139171704Y-53016389D01*
X139288761Y-52928761D01*
X139376389Y-52811704D01*
X139427489Y-52674701D01*
X139431344Y-52638846D01*
X139433999Y-52614154D01*
X139434000Y-52614137D01*
X139434000Y-52609596D01*
X139453685Y-52542557D01*
X139506489Y-52496802D01*
X139534463Y-52491983D01*
X140098657Y-51927789D01*
X140107447Y-51960591D01*
X140182687Y-52090909D01*
X140289091Y-52197313D01*
X140419409Y-52272553D01*
X140452210Y-52281342D01*
X139896218Y-52837333D01*
X139974718Y-52892301D01*
X140184919Y-52990318D01*
X140184925Y-52990321D01*
X140408948Y-53050348D01*
X140408955Y-53050349D01*
X140639998Y-53070563D01*
X140640002Y-53070563D01*
X140871044Y-53050349D01*
X140871051Y-53050348D01*
X141095074Y-52990321D01*
X141095085Y-52990317D01*
X141305279Y-52892302D01*
X141305283Y-52892300D01*
X141383780Y-52837333D01*
X140827789Y-52281342D01*
X140860591Y-52272553D01*
X140990909Y-52197313D01*
X141097313Y-52090909D01*
X141172553Y-51960591D01*
X141181342Y-51927789D01*
X141737333Y-52483780D01*
X141792297Y-52405287D01*
X141792922Y-52403948D01*
X141793356Y-52403454D01*
X141795006Y-52400597D01*
X141795580Y-52400928D01*
X141839089Y-52351504D01*
X141906280Y-52332345D01*
X141973164Y-52352553D01*
X142017691Y-52403935D01*
X142020309Y-52409548D01*
X142154193Y-52600754D01*
X142319246Y-52765807D01*
X142398524Y-52821318D01*
X142510450Y-52899690D01*
X142510452Y-52899691D01*
X142722002Y-52998339D01*
X142947468Y-53058752D01*
X143113562Y-53073283D01*
X143179998Y-53079096D01*
X143180000Y-53079096D01*
X143180002Y-53079096D01*
X143238259Y-53073999D01*
X143412532Y-53058752D01*
X143637998Y-52998339D01*
X143849548Y-52899691D01*
X144040754Y-52765807D01*
X144205807Y-52600754D01*
X144339691Y-52409548D01*
X144403178Y-52273400D01*
X149270786Y-52273400D01*
X149289612Y-52512619D01*
X149345630Y-52745953D01*
X149345630Y-52745954D01*
X149437457Y-52967645D01*
X149437459Y-52967648D01*
X149562837Y-53172246D01*
X149562841Y-53172251D01*
X149579699Y-53191989D01*
X149718682Y-53354718D01*
X149835481Y-53454473D01*
X149901148Y-53510558D01*
X149901153Y-53510562D01*
X150105751Y-53635940D01*
X150105754Y-53635942D01*
X150327446Y-53727769D01*
X150385779Y-53741773D01*
X150560778Y-53783787D01*
X150800000Y-53802614D01*
X151039222Y-53783787D01*
X151272553Y-53727769D01*
X151272554Y-53727769D01*
X151494245Y-53635942D01*
X151494246Y-53635941D01*
X151494249Y-53635940D01*
X151698849Y-53510560D01*
X151881318Y-53354718D01*
X152037160Y-53172249D01*
X152162540Y-52967649D01*
X152178648Y-52928761D01*
X152254369Y-52745954D01*
X152254369Y-52745953D01*
X152286015Y-52614137D01*
X152310387Y-52512622D01*
X152329214Y-52273400D01*
X153970787Y-52273400D01*
X153989613Y-52512619D01*
X154045631Y-52745953D01*
X154045631Y-52745954D01*
X154137458Y-52967645D01*
X154137460Y-52967648D01*
X154262838Y-53172246D01*
X154262842Y-53172251D01*
X154279700Y-53191989D01*
X154418683Y-53354718D01*
X154535482Y-53454473D01*
X154601149Y-53510558D01*
X154601154Y-53510562D01*
X154805752Y-53635940D01*
X154805755Y-53635942D01*
X155027447Y-53727769D01*
X155085780Y-53741773D01*
X155260779Y-53783787D01*
X155500001Y-53802614D01*
X155739223Y-53783787D01*
X155972554Y-53727769D01*
X155972555Y-53727769D01*
X156194246Y-53635942D01*
X156194247Y-53635941D01*
X156194250Y-53635940D01*
X156398850Y-53510560D01*
X156581319Y-53354718D01*
X156737161Y-53172249D01*
X156862541Y-52967649D01*
X156878649Y-52928761D01*
X156954370Y-52745954D01*
X156954370Y-52745953D01*
X156986016Y-52614137D01*
X157010388Y-52512622D01*
X157029215Y-52273400D01*
X158670787Y-52273400D01*
X158689613Y-52512619D01*
X158745631Y-52745953D01*
X158745631Y-52745954D01*
X158837458Y-52967645D01*
X158837460Y-52967648D01*
X158962838Y-53172246D01*
X158962842Y-53172251D01*
X158979700Y-53191989D01*
X159118683Y-53354718D01*
X159235482Y-53454473D01*
X159301149Y-53510558D01*
X159301154Y-53510562D01*
X159505752Y-53635940D01*
X159505755Y-53635942D01*
X159727447Y-53727769D01*
X159785780Y-53741773D01*
X159960779Y-53783787D01*
X160200001Y-53802614D01*
X160439223Y-53783787D01*
X160672554Y-53727769D01*
X160672555Y-53727769D01*
X160894246Y-53635942D01*
X160894247Y-53635941D01*
X160894250Y-53635940D01*
X161098850Y-53510560D01*
X161281319Y-53354718D01*
X161437161Y-53172249D01*
X161562541Y-52967649D01*
X161578649Y-52928761D01*
X161654370Y-52745954D01*
X161654370Y-52745953D01*
X161686016Y-52614137D01*
X161710388Y-52512622D01*
X161729215Y-52273400D01*
X161710388Y-52034178D01*
X161654370Y-51800847D01*
X161654370Y-51800846D01*
X161654370Y-51800845D01*
X161562543Y-51579154D01*
X161562541Y-51579151D01*
X161437163Y-51374553D01*
X161437159Y-51374548D01*
X161358117Y-51282002D01*
X161281319Y-51192082D01*
X161146071Y-51076570D01*
X161098852Y-51036241D01*
X161098847Y-51036237D01*
X160894249Y-50910859D01*
X160894246Y-50910857D01*
X160672554Y-50819030D01*
X160439219Y-50763012D01*
X160439220Y-50763012D01*
X160200001Y-50744186D01*
X159960781Y-50763012D01*
X159727447Y-50819030D01*
X159727446Y-50819030D01*
X159505755Y-50910857D01*
X159505752Y-50910859D01*
X159301154Y-51036237D01*
X159301149Y-51036241D01*
X159118683Y-51192082D01*
X158962842Y-51374548D01*
X158962838Y-51374553D01*
X158837460Y-51579151D01*
X158837458Y-51579154D01*
X158745631Y-51800845D01*
X158745631Y-51800846D01*
X158689613Y-52034180D01*
X158670787Y-52273400D01*
X157029215Y-52273400D01*
X157010388Y-52034178D01*
X156954370Y-51800847D01*
X156954370Y-51800846D01*
X156954370Y-51800845D01*
X156862543Y-51579154D01*
X156862541Y-51579151D01*
X156737163Y-51374553D01*
X156737159Y-51374548D01*
X156658117Y-51282002D01*
X156581319Y-51192082D01*
X156446071Y-51076570D01*
X156398852Y-51036241D01*
X156398847Y-51036237D01*
X156194249Y-50910859D01*
X156194246Y-50910857D01*
X155972554Y-50819030D01*
X155739219Y-50763012D01*
X155739220Y-50763012D01*
X155500001Y-50744186D01*
X155260781Y-50763012D01*
X155027447Y-50819030D01*
X155027446Y-50819030D01*
X154805755Y-50910857D01*
X154805752Y-50910859D01*
X154601154Y-51036237D01*
X154601149Y-51036241D01*
X154418683Y-51192082D01*
X154262842Y-51374548D01*
X154262838Y-51374553D01*
X154137460Y-51579151D01*
X154137458Y-51579154D01*
X154045631Y-51800845D01*
X154045631Y-51800846D01*
X153989613Y-52034180D01*
X153970787Y-52273400D01*
X152329214Y-52273400D01*
X152310387Y-52034178D01*
X152254369Y-51800847D01*
X152254369Y-51800846D01*
X152254369Y-51800845D01*
X152162542Y-51579154D01*
X152162540Y-51579151D01*
X152037162Y-51374553D01*
X152037158Y-51374548D01*
X151958116Y-51282002D01*
X151881318Y-51192082D01*
X151746070Y-51076570D01*
X151698851Y-51036241D01*
X151698846Y-51036237D01*
X151494248Y-50910859D01*
X151494245Y-50910857D01*
X151272553Y-50819030D01*
X151039218Y-50763012D01*
X151039219Y-50763012D01*
X150800000Y-50744186D01*
X150560780Y-50763012D01*
X150327446Y-50819030D01*
X150327445Y-50819030D01*
X150105754Y-50910857D01*
X150105751Y-50910859D01*
X149901153Y-51036237D01*
X149901148Y-51036241D01*
X149718682Y-51192082D01*
X149562841Y-51374548D01*
X149562837Y-51374553D01*
X149437459Y-51579151D01*
X149437457Y-51579154D01*
X149345630Y-51800845D01*
X149345630Y-51800846D01*
X149289612Y-52034180D01*
X149270786Y-52273400D01*
X144403178Y-52273400D01*
X144438339Y-52197998D01*
X144498752Y-51972532D01*
X144519096Y-51740000D01*
X144498752Y-51507468D01*
X144438339Y-51282002D01*
X144339691Y-51070452D01*
X144322397Y-51045754D01*
X144276470Y-50980163D01*
X144205807Y-50879246D01*
X144040754Y-50714193D01*
X143998063Y-50684300D01*
X143849549Y-50580309D01*
X143849547Y-50580308D01*
X143683416Y-50502840D01*
X143637998Y-50481661D01*
X143637994Y-50481660D01*
X143637990Y-50481658D01*
X143412537Y-50421249D01*
X143412533Y-50421248D01*
X143412532Y-50421248D01*
X143412531Y-50421247D01*
X143412526Y-50421247D01*
X143180002Y-50400904D01*
X143179998Y-50400904D01*
X142947473Y-50421247D01*
X142947462Y-50421249D01*
X142722009Y-50481658D01*
X142722000Y-50481662D01*
X142510452Y-50580308D01*
X142510450Y-50580309D01*
X142319251Y-50714189D01*
X142319244Y-50714194D01*
X142154194Y-50879244D01*
X142154189Y-50879251D01*
X142020309Y-51070450D01*
X142020308Y-51070452D01*
X142017686Y-51076075D01*
X141971508Y-51128509D01*
X141904312Y-51147654D01*
X141837433Y-51127431D01*
X141795552Y-51079089D01*
X141795006Y-51079405D01*
X141793369Y-51076570D01*
X141792924Y-51076056D01*
X141792300Y-51074719D01*
X141737333Y-50996217D01*
X141181341Y-51552209D01*
X141172553Y-51519409D01*
X141097313Y-51389091D01*
X140990909Y-51282687D01*
X140860591Y-51207447D01*
X140827789Y-51198657D01*
X141383781Y-50642665D01*
X141305281Y-50587699D01*
X141095080Y-50489681D01*
X141095074Y-50489678D01*
X140871051Y-50429651D01*
X140871044Y-50429650D01*
X140640002Y-50409437D01*
X140639998Y-50409437D01*
X140408955Y-50429650D01*
X140408948Y-50429651D01*
X140184917Y-50489681D01*
X139974715Y-50587701D01*
X139896218Y-50642664D01*
X139896217Y-50642665D01*
X140452210Y-51198657D01*
X140419409Y-51207447D01*
X140289091Y-51282687D01*
X140182687Y-51389091D01*
X140107447Y-51519409D01*
X140098657Y-51552209D01*
X139533227Y-50986779D01*
X139500306Y-50980163D01*
X139450124Y-50931547D01*
X139434000Y-50870402D01*
X139434000Y-50865862D01*
X139433999Y-50865845D01*
X139428965Y-50819030D01*
X139427489Y-50805299D01*
X139376389Y-50668296D01*
X139288761Y-50551239D01*
X139171704Y-50463611D01*
X139034703Y-50412511D01*
X138974154Y-50406000D01*
X138974138Y-50406000D01*
X137225862Y-50406000D01*
X137225845Y-50406000D01*
X137165297Y-50412511D01*
X137165295Y-50412511D01*
X137028295Y-50463611D01*
X136911239Y-50551239D01*
X136823611Y-50668295D01*
X136772511Y-50805295D01*
X136772511Y-50805297D01*
X136766000Y-50865845D01*
X136766000Y-52614154D01*
X130972294Y-52614154D01*
X131082541Y-52434249D01*
X131092772Y-52409549D01*
X131174370Y-52212554D01*
X131174370Y-52212553D01*
X131203574Y-52090909D01*
X131230388Y-51979222D01*
X131249215Y-51740000D01*
X131230388Y-51500778D01*
X131177866Y-51282009D01*
X131174370Y-51267446D01*
X131174370Y-51267445D01*
X131082543Y-51045754D01*
X131082541Y-51045751D01*
X130957163Y-50841153D01*
X130957159Y-50841148D01*
X130890425Y-50763013D01*
X130801319Y-50658682D01*
X130701562Y-50573482D01*
X130618852Y-50502841D01*
X130618847Y-50502837D01*
X130414249Y-50377459D01*
X130414246Y-50377457D01*
X130192554Y-50285630D01*
X129959219Y-50229612D01*
X129959220Y-50229612D01*
X129720001Y-50210786D01*
X129480781Y-50229612D01*
X129247447Y-50285630D01*
X129247446Y-50285630D01*
X129025755Y-50377457D01*
X129025752Y-50377459D01*
X128821154Y-50502837D01*
X128821149Y-50502841D01*
X128638683Y-50658682D01*
X128482842Y-50841148D01*
X128482838Y-50841153D01*
X128357460Y-51045751D01*
X128357458Y-51045754D01*
X128265631Y-51267445D01*
X128265631Y-51267446D01*
X128209613Y-51500780D01*
X128190787Y-51740000D01*
X126549215Y-51740000D01*
X126530388Y-51500778D01*
X126477866Y-51282009D01*
X126474370Y-51267446D01*
X126474370Y-51267445D01*
X126382543Y-51045754D01*
X126382541Y-51045751D01*
X126257163Y-50841153D01*
X126257159Y-50841148D01*
X126190425Y-50763013D01*
X126101319Y-50658682D01*
X126001562Y-50573482D01*
X125918852Y-50502841D01*
X125918847Y-50502837D01*
X125714249Y-50377459D01*
X125714246Y-50377457D01*
X125492554Y-50285630D01*
X125259219Y-50229612D01*
X125259220Y-50229612D01*
X125020001Y-50210786D01*
X124780781Y-50229612D01*
X124547447Y-50285630D01*
X124547446Y-50285630D01*
X124325755Y-50377457D01*
X124325752Y-50377459D01*
X124121154Y-50502837D01*
X124121149Y-50502841D01*
X123938683Y-50658682D01*
X123782842Y-50841148D01*
X123782838Y-50841153D01*
X123657460Y-51045751D01*
X123657458Y-51045754D01*
X123565631Y-51267445D01*
X123565631Y-51267446D01*
X123509613Y-51500780D01*
X123490787Y-51740000D01*
X121849214Y-51740000D01*
X121830387Y-51500778D01*
X121777865Y-51282009D01*
X121774369Y-51267446D01*
X121774369Y-51267445D01*
X121682542Y-51045754D01*
X121682540Y-51045751D01*
X121557162Y-50841153D01*
X121557158Y-50841148D01*
X121490424Y-50763013D01*
X121401318Y-50658682D01*
X121301561Y-50573482D01*
X121218851Y-50502841D01*
X121218846Y-50502837D01*
X121014248Y-50377459D01*
X121014245Y-50377457D01*
X120792553Y-50285630D01*
X120559218Y-50229612D01*
X120559219Y-50229612D01*
X120320000Y-50210786D01*
X120080780Y-50229612D01*
X119847446Y-50285630D01*
X119847445Y-50285630D01*
X119625754Y-50377457D01*
X119625751Y-50377459D01*
X119421153Y-50502837D01*
X119421148Y-50502841D01*
X119238682Y-50658682D01*
X119082841Y-50841148D01*
X119082837Y-50841153D01*
X118957459Y-51045751D01*
X118957457Y-51045754D01*
X118865630Y-51267445D01*
X118865630Y-51267446D01*
X118809612Y-51500780D01*
X118790786Y-51740000D01*
X106538500Y-51740000D01*
X106538500Y-50741362D01*
X106538499Y-50741345D01*
X106535157Y-50710270D01*
X106531989Y-50680799D01*
X106527325Y-50668295D01*
X106497264Y-50587699D01*
X106480889Y-50543796D01*
X106393261Y-50426739D01*
X106276204Y-50339111D01*
X106139203Y-50288011D01*
X106078654Y-50281500D01*
X106078638Y-50281500D01*
X104081362Y-50281500D01*
X104081345Y-50281500D01*
X104020797Y-50288011D01*
X104020795Y-50288011D01*
X103883795Y-50339111D01*
X103766739Y-50426739D01*
X103679111Y-50543795D01*
X103628011Y-50680795D01*
X103628011Y-50680797D01*
X103621500Y-50741345D01*
X103621500Y-52738654D01*
X100075500Y-52738654D01*
X100075500Y-46158092D01*
X100076097Y-46145938D01*
X100087494Y-46030222D01*
X100092234Y-46006389D01*
X100124216Y-45900959D01*
X100133508Y-45878526D01*
X100185442Y-45781365D01*
X100198938Y-45761166D01*
X100268827Y-45676006D01*
X100286006Y-45658827D01*
X100371166Y-45588938D01*
X100391365Y-45575442D01*
X100488526Y-45523508D01*
X100510959Y-45514216D01*
X100616389Y-45482234D01*
X100640220Y-45477494D01*
X100755939Y-45466097D01*
X100768093Y-45465500D01*
X100786531Y-45465500D01*
X163417365Y-45465500D01*
X163484404Y-45485185D01*
G37*
%TD.AperFunction*%
%TD*%
M02*
