M48
; DRILL file {KiCad 7.0.11-7.0.11~ubuntu22.04.1} date Tue 05 Mar 2024 04:26:21 PM EST
; FORMAT={-:-/ absolute / inch / decimal}
; #@! TF.CreationDate,2024-03-05T16:26:21-05:00
; #@! TF.GenerationSoftware,Kicad,Pcbnew,7.0.11-7.0.11~ubuntu22.04.1
; #@! TF.FileFunction,Plated,1,2,PTH
FMAT,2
INCH
; #@! TA.AperFunction,Plated,PTH,ViaDrill
T1C0.0157
; #@! TA.AperFunction,Plated,PTH,ComponentDrill
T2C0.0299
; #@! TA.AperFunction,Plated,PTH,ComponentDrill
T3C0.0343
; #@! TA.AperFunction,Plated,PTH,ComponentDrill
T4C0.0394
%
G90
G05
T1
X4.7092Y-2.6742
X4.872Y-2.677
X4.872Y-2.982
X4.872Y-2.982
X5.2055Y-3.0735
X5.207Y-3.172
X5.347Y-2.982
X5.347Y-3.132
X5.417Y-2.902
X5.7185Y-3.1085
X5.732Y-2.132
T2
X4.4518Y-2.827
X4.4518Y-2.927
X4.4518Y-3.027
X4.4518Y-3.127
X4.7592Y-2.827
X4.7592Y-2.927
X4.7592Y-3.027
X4.7592Y-3.127
T3
X6.452Y-2.928
X6.452Y-2.987
T4
X4.677Y-1.937
X4.777Y-1.937
X4.877Y-1.937
X4.977Y-1.937
X5.037Y-3.837
X5.077Y-1.937
X5.137Y-3.837
X5.177Y-1.937
X5.237Y-3.837
X5.277Y-1.937
X5.337Y-3.837
X5.377Y-1.937
X5.437Y-3.837
X5.477Y-1.937
X5.537Y-3.837
X5.577Y-1.937
X5.637Y-3.837
X5.737Y-1.937
X5.737Y-3.837
X5.837Y-1.937
X5.937Y-1.937
X5.937Y-3.837
X6.037Y-1.937
X6.037Y-3.837
X6.137Y-1.937
X6.137Y-3.837
X6.237Y-1.937
X6.237Y-3.837
X6.315Y-3.2776
X6.315Y-3.437
X6.315Y-3.5965
X6.337Y-1.937
X6.337Y-3.837
X6.437Y-1.937
X6.437Y-3.837
M30
