%TF.GenerationSoftware,KiCad,Pcbnew,7.0.11-7.0.11~ubuntu22.04.1*%
%TF.CreationDate,2024-03-05T16:26:23-05:00*%
%TF.ProjectId,PCB,5043422e-6b69-4636-9164-5f7063625858,rev?*%
%TF.SameCoordinates,Original*%
%TF.FileFunction,Copper,L1,Top*%
%TF.FilePolarity,Positive*%
%FSLAX46Y46*%
G04 Gerber Fmt 4.6, Leading zero omitted, Abs format (unit mm)*
G04 Created by KiCad (PCBNEW 7.0.11-7.0.11~ubuntu22.04.1) date 2024-03-05 16:26:23*
%MOMM*%
%LPD*%
G01*
G04 APERTURE LIST*
G04 Aperture macros list*
%AMRoundRect*
0 Rectangle with rounded corners*
0 $1 Rounding radius*
0 $2 $3 $4 $5 $6 $7 $8 $9 X,Y pos of 4 corners*
0 Add a 4 corners polygon primitive as box body*
4,1,4,$2,$3,$4,$5,$6,$7,$8,$9,$2,$3,0*
0 Add four circle primitives for the rounded corners*
1,1,$1+$1,$2,$3*
1,1,$1+$1,$4,$5*
1,1,$1+$1,$6,$7*
1,1,$1+$1,$8,$9*
0 Add four rect primitives between the rounded corners*
20,1,$1+$1,$2,$3,$4,$5,0*
20,1,$1+$1,$4,$5,$6,$7,0*
20,1,$1+$1,$6,$7,$8,$9,0*
20,1,$1+$1,$8,$9,$2,$3,0*%
G04 Aperture macros list end*
%TA.AperFunction,ComponentPad*%
%ADD10R,1.700000X1.700000*%
%TD*%
%TA.AperFunction,ComponentPad*%
%ADD11O,1.700000X1.700000*%
%TD*%
%TA.AperFunction,ComponentPad*%
%ADD12C,2.000000*%
%TD*%
%TA.AperFunction,SMDPad,CuDef*%
%ADD13RoundRect,0.250000X0.400000X0.625000X-0.400000X0.625000X-0.400000X-0.625000X0.400000X-0.625000X0*%
%TD*%
%TA.AperFunction,SMDPad,CuDef*%
%ADD14RoundRect,0.250000X-0.400000X-0.625000X0.400000X-0.625000X0.400000X0.625000X-0.400000X0.625000X0*%
%TD*%
%TA.AperFunction,ComponentPad*%
%ADD15R,1.159000X1.159000*%
%TD*%
%TA.AperFunction,ComponentPad*%
%ADD16C,1.159000*%
%TD*%
%TA.AperFunction,SMDPad,CuDef*%
%ADD17RoundRect,0.250000X-0.412500X-0.650000X0.412500X-0.650000X0.412500X0.650000X-0.412500X0.650000X0*%
%TD*%
%TA.AperFunction,SMDPad,CuDef*%
%ADD18RoundRect,0.250000X-0.650000X0.412500X-0.650000X-0.412500X0.650000X-0.412500X0.650000X0.412500X0*%
%TD*%
%TA.AperFunction,SMDPad,CuDef*%
%ADD19RoundRect,0.150000X-0.825000X-0.150000X0.825000X-0.150000X0.825000X0.150000X-0.825000X0.150000X0*%
%TD*%
%TA.AperFunction,SMDPad,CuDef*%
%ADD20RoundRect,0.550000X-0.550000X-0.900000X0.550000X-0.900000X0.550000X0.900000X-0.550000X0.900000X0*%
%TD*%
%TA.AperFunction,SMDPad,CuDef*%
%ADD21RoundRect,0.250000X0.412500X0.650000X-0.412500X0.650000X-0.412500X-0.650000X0.412500X-0.650000X0*%
%TD*%
%TA.AperFunction,ComponentPad*%
%ADD22RoundRect,0.250000X-0.685000X0.335000X-0.685000X-0.335000X0.685000X-0.335000X0.685000X0.335000X0*%
%TD*%
%TA.AperFunction,ComponentPad*%
%ADD23O,1.870000X1.170000*%
%TD*%
%TA.AperFunction,SMDPad,CuDef*%
%ADD24RoundRect,0.250000X0.650000X-0.412500X0.650000X0.412500X-0.650000X0.412500X-0.650000X-0.412500X0*%
%TD*%
%TA.AperFunction,ViaPad*%
%ADD25C,0.600000*%
%TD*%
%TA.AperFunction,Conductor*%
%ADD26C,0.400000*%
%TD*%
%TA.AperFunction,Conductor*%
%ADD27C,0.600000*%
%TD*%
%TA.AperFunction,Conductor*%
%ADD28C,0.250000*%
%TD*%
G04 APERTURE END LIST*
D10*
%TO.P,J1,1,Pin_1*%
%TO.N,unconnected-(J1-Pin_1-Pad1)*%
X127940000Y-97460000D03*
D11*
%TO.P,J1,2,Pin_2*%
%TO.N,/IOREF*%
X130480000Y-97460000D03*
%TO.P,J1,3,Pin_3*%
%TO.N,/~{RESET}*%
X133020000Y-97460000D03*
%TO.P,J1,4,Pin_4*%
%TO.N,+3V3*%
X135560000Y-97460000D03*
%TO.P,J1,5,Pin_5*%
%TO.N,+5V*%
X138100000Y-97460000D03*
%TO.P,J1,6,Pin_6*%
%TO.N,GND*%
X140640000Y-97460000D03*
%TO.P,J1,7,Pin_7*%
X143180000Y-97460000D03*
%TO.P,J1,8,Pin_8*%
%TO.N,VCC*%
X145720000Y-97460000D03*
%TD*%
D10*
%TO.P,J3,1,Pin_1*%
%TO.N,/A0*%
X150800000Y-97460000D03*
D11*
%TO.P,J3,2,Pin_2*%
%TO.N,/A1*%
X153340000Y-97460000D03*
%TO.P,J3,3,Pin_3*%
%TO.N,/A2*%
X155880000Y-97460000D03*
%TO.P,J3,4,Pin_4*%
%TO.N,/A3*%
X158420000Y-97460000D03*
%TO.P,J3,5,Pin_5*%
%TO.N,/SDA{slash}A4*%
X160960000Y-97460000D03*
%TO.P,J3,6,Pin_6*%
%TO.N,/SCL{slash}A5*%
X163500000Y-97460000D03*
%TD*%
D10*
%TO.P,J2,1,Pin_1*%
%TO.N,unconnected-(J2-Pin_1-Pad1)*%
X118796000Y-49200000D03*
D11*
%TO.P,J2,2,Pin_2*%
%TO.N,unconnected-(J2-Pin_2-Pad2)*%
X121336000Y-49200000D03*
%TO.P,J2,3,Pin_3*%
%TO.N,/AREF*%
X123876000Y-49200000D03*
%TO.P,J2,4,Pin_4*%
%TO.N,GND*%
X126416000Y-49200000D03*
%TO.P,J2,5,Pin_5*%
%TO.N,/13*%
X128956000Y-49200000D03*
%TO.P,J2,6,Pin_6*%
%TO.N,/12*%
X131496000Y-49200000D03*
%TO.P,J2,7,Pin_7*%
%TO.N,/\u002A11*%
X134036000Y-49200000D03*
%TO.P,J2,8,Pin_8*%
%TO.N,/\u002A10*%
X136576000Y-49200000D03*
%TO.P,J2,9,Pin_9*%
%TO.N,/\u002A9*%
X139116000Y-49200000D03*
%TO.P,J2,10,Pin_10*%
%TO.N,/8*%
X141656000Y-49200000D03*
%TD*%
D10*
%TO.P,J4,1,Pin_1*%
%TO.N,/7*%
X145720000Y-49200000D03*
D11*
%TO.P,J4,2,Pin_2*%
%TO.N,/\u002A6*%
X148260000Y-49200000D03*
%TO.P,J4,3,Pin_3*%
%TO.N,/\u002A5*%
X150800000Y-49200000D03*
%TO.P,J4,4,Pin_4*%
%TO.N,/4*%
X153340000Y-49200000D03*
%TO.P,J4,5,Pin_5*%
%TO.N,/\u002A3*%
X155880000Y-49200000D03*
%TO.P,J4,6,Pin_6*%
%TO.N,/2*%
X158420000Y-49200000D03*
%TO.P,J4,7,Pin_7*%
%TO.N,/TX{slash}1*%
X160960000Y-49200000D03*
%TO.P,J4,8,Pin_8*%
%TO.N,/RX{slash}0*%
X163500000Y-49200000D03*
%TD*%
D12*
%TO.P,J8,1,Pin_1*%
%TO.N,GND*%
X160401200Y-91350000D03*
%TD*%
D13*
%TO.P,R1,1*%
%TO.N,Net-(C2-Pad1)*%
X128054500Y-79426000D03*
%TO.P,R1,2*%
%TO.N,Net-(U1-Vref)*%
X124954500Y-79426000D03*
%TD*%
D14*
%TO.P,R3,1*%
%TO.N,Net-(U1-Vout)*%
X124954500Y-71806000D03*
%TO.P,R3,2*%
%TO.N,Net-(C1-Pad1)*%
X128054500Y-71806000D03*
%TD*%
D15*
%TO.P,U1,1,Vdd*%
%TO.N,+5V*%
X113074500Y-71806000D03*
D16*
%TO.P,U1,2,~{CS}*%
%TO.N,/\u002A6*%
X113074500Y-74346000D03*
%TO.P,U1,3,SCK*%
%TO.N,/\u002A5*%
X113074500Y-76886000D03*
%TO.P,U1,4,SDI*%
%TO.N,/4*%
X113074500Y-79426000D03*
%TO.P,U1,5,~{LDAC}*%
%TO.N,/7*%
X120884500Y-79426000D03*
%TO.P,U1,6,Vref*%
%TO.N,Net-(U1-Vref)*%
X120884500Y-76886000D03*
%TO.P,U1,7,Vss*%
%TO.N,GND*%
X120884500Y-74346000D03*
%TO.P,U1,8,Vout*%
%TO.N,Net-(U1-Vout)*%
X120884500Y-71806000D03*
%TD*%
D14*
%TO.P,R5,1*%
%TO.N,Net-(C2-Pad2)*%
X152933000Y-77267000D03*
%TO.P,R5,2*%
%TO.N,Net-(J6-Pin_1)*%
X156033000Y-77267000D03*
%TD*%
D17*
%TO.P,C5,1*%
%TO.N,+5V*%
X115417000Y-67996000D03*
%TO.P,C5,2*%
%TO.N,GND*%
X118542000Y-67996000D03*
%TD*%
D18*
%TO.P,C3,1*%
%TO.N,HT*%
X146482000Y-75831500D03*
%TO.P,C3,2*%
%TO.N,GND*%
X146482000Y-78956500D03*
%TD*%
D19*
%TO.P,U2,1*%
%TO.N,GND*%
X137595000Y-74485000D03*
%TO.P,U2,2*%
%TO.N,Net-(C2-Pad1)*%
X137595000Y-75755000D03*
%TO.P,U2,3*%
%TO.N,Net-(C1-Pad1)*%
X137595000Y-77025000D03*
%TO.P,U2,4*%
%TO.N,-VSW*%
X137595000Y-78295000D03*
%TO.P,U2,5*%
%TO.N,Net-(U2-Pad5)*%
X142545000Y-78295000D03*
%TO.P,U2,6*%
%TO.N,Net-(C2-Pad2)*%
X142545000Y-77025000D03*
%TO.P,U2,7*%
%TO.N,HT*%
X142545000Y-75755000D03*
%TO.P,U2,8*%
%TO.N,Net-(U2-Pad5)*%
X142545000Y-74485000D03*
D20*
%TO.P,U2,9*%
%TO.N,N/C*%
X140070000Y-76390000D03*
%TD*%
D17*
%TO.P,C2,1*%
%TO.N,Net-(C2-Pad1)*%
X138862000Y-84125000D03*
%TO.P,C2,2*%
%TO.N,Net-(C2-Pad2)*%
X141987000Y-84125000D03*
%TD*%
D21*
%TO.P,C1,1*%
%TO.N,Net-(C1-Pad1)*%
X128067000Y-67996000D03*
%TO.P,C1,2*%
%TO.N,GND*%
X124942000Y-67996000D03*
%TD*%
D12*
%TO.P,J5,1,Pin_1*%
%TO.N,HT*%
X160401200Y-83250000D03*
%TD*%
D22*
%TO.P,J6,1,Pin_1*%
%TO.N,Net-(J6-Pin_1)*%
X163881000Y-74370000D03*
D23*
%TO.P,J6,2,Pin_2*%
%TO.N,GND*%
X163881000Y-75870000D03*
%TD*%
D12*
%TO.P,J7,1,Pin_1*%
%TO.N,-VSW*%
X160401200Y-87300000D03*
%TD*%
D24*
%TO.P,C4,1*%
%TO.N,-VSW*%
X134036000Y-78067500D03*
%TO.P,C4,2*%
%TO.N,GND*%
X134036000Y-74942500D03*
%TD*%
D14*
%TO.P,R2,1*%
%TO.N,GND*%
X124954500Y-75616000D03*
%TO.P,R2,2*%
%TO.N,Net-(C2-Pad1)*%
X128054500Y-75616000D03*
%TD*%
%TO.P,R4,1*%
%TO.N,Net-(C2-Pad1)*%
X138836000Y-81458000D03*
%TO.P,R4,2*%
%TO.N,Net-(C2-Pad2)*%
X141936000Y-81458000D03*
%TD*%
D25*
%TO.N,GND*%
X137592000Y-73711000D03*
X123749000Y-75743000D03*
X119612858Y-67923858D03*
X145250500Y-78956500D03*
X123749000Y-75743000D03*
X123749000Y-67996000D03*
%TO.N,/7*%
X145593000Y-54153000D03*
%TO.N,Net-(C2-Pad1)*%
X135814000Y-79553000D03*
X135814000Y-75743000D03*
%TO.N,-VSW*%
X132219500Y-78067500D03*
X132258000Y-80569000D03*
%TD*%
D26*
%TO.N,GND*%
X134493500Y-74485000D02*
X134036000Y-74942500D01*
X137595000Y-73714000D02*
X137592000Y-73711000D01*
X124942000Y-67996000D02*
X123749000Y-67996000D01*
X146482000Y-78956500D02*
X145250500Y-78956500D01*
X124954500Y-75616000D02*
X123876000Y-75616000D01*
X119540716Y-67996000D02*
X119612858Y-67923858D01*
X137595000Y-74485000D02*
X134493500Y-74485000D01*
X145212000Y-78918000D02*
X145250500Y-78956500D01*
X123876000Y-75616000D02*
X123749000Y-75743000D01*
X137595000Y-74485000D02*
X137595000Y-73714000D01*
X118542000Y-67996000D02*
X119540716Y-67996000D01*
D27*
%TO.N,+5V*%
X108636000Y-86919000D02*
X106477000Y-84760000D01*
X113074500Y-71806000D02*
X113074500Y-70338500D01*
X106477000Y-84760000D02*
X106477000Y-73203000D01*
X138100000Y-94285000D02*
X130734000Y-86919000D01*
X130734000Y-86919000D02*
X108636000Y-86919000D01*
X113074500Y-70338500D02*
X115417000Y-67996000D01*
X107874000Y-71806000D02*
X113074500Y-71806000D01*
X138100000Y-97460000D02*
X138100000Y-94285000D01*
X106477000Y-73203000D02*
X107874000Y-71806000D01*
D28*
%TO.N,/7*%
X118923000Y-71425000D02*
X127686000Y-62662000D01*
X120884500Y-79426000D02*
X118923000Y-77464500D01*
X127686000Y-53772000D02*
X128067000Y-53391000D01*
X127686000Y-62662000D02*
X127686000Y-53772000D01*
X118923000Y-77464500D02*
X118923000Y-71425000D01*
X128067000Y-53391000D02*
X144831000Y-53391000D01*
X144831000Y-53391000D02*
X145593000Y-54153000D01*
%TO.N,/4*%
X113074500Y-79426000D02*
X118395392Y-74105108D01*
X149657000Y-52883000D02*
X153340000Y-49200000D01*
X118395392Y-74105108D02*
X118395392Y-71298000D01*
X127178000Y-53391000D02*
X127686000Y-52883000D01*
X127686000Y-52883000D02*
X149657000Y-52883000D01*
X127178000Y-62515392D02*
X127178000Y-53391000D01*
X118395392Y-71298000D02*
X127178000Y-62515392D01*
%TO.N,/\u002A6*%
X127178000Y-51486000D02*
X145974000Y-51486000D01*
X114654099Y-73766501D02*
X125908000Y-62512600D01*
X113653999Y-73766501D02*
X114654099Y-73766501D01*
X125908000Y-52756000D02*
X127178000Y-51486000D01*
X113074500Y-74346000D02*
X113653999Y-73766501D01*
X125908000Y-62512600D02*
X125908000Y-52756000D01*
X145974000Y-51486000D02*
X148260000Y-49200000D01*
%TO.N,/\u002A5*%
X147879000Y-52121000D02*
X150800000Y-49200000D01*
X126543000Y-53137000D02*
X127559000Y-52121000D01*
X113074500Y-75982496D02*
X126543000Y-62513996D01*
X113074500Y-76886000D02*
X113074500Y-75982496D01*
X127559000Y-52121000D02*
X147879000Y-52121000D01*
X126543000Y-62513996D02*
X126543000Y-53137000D01*
D26*
%TO.N,Net-(C1-Pad1)*%
X131369000Y-75743000D02*
X131369000Y-73457000D01*
X129718000Y-71806000D02*
X128054500Y-71806000D01*
X128067000Y-71793500D02*
X128054500Y-71806000D01*
X132196000Y-76570000D02*
X131369000Y-75743000D01*
X135597350Y-77025000D02*
X135142350Y-76570000D01*
X128067000Y-67996000D02*
X128067000Y-71793500D01*
X135142350Y-76570000D02*
X132196000Y-76570000D01*
X131369000Y-73457000D02*
X129718000Y-71806000D01*
X137595000Y-77025000D02*
X135597350Y-77025000D01*
D27*
%TO.N,Net-(J6-Pin_1)*%
X158930000Y-74370000D02*
X163881000Y-74370000D01*
X156033000Y-77267000D02*
X158930000Y-74370000D01*
D26*
%TO.N,Net-(U1-Vref)*%
X122414500Y-76886000D02*
X124954500Y-79426000D01*
X120884500Y-76886000D02*
X122414500Y-76886000D01*
%TO.N,Net-(U1-Vout)*%
X120884500Y-71806000D02*
X124954500Y-71806000D01*
%TO.N,Net-(C2-Pad1)*%
X135802000Y-79565000D02*
X135814000Y-79553000D01*
X136931000Y-79553000D02*
X138836000Y-81458000D01*
X132859133Y-79565000D02*
X135802000Y-79565000D01*
X135826000Y-75755000D02*
X135814000Y-75743000D01*
X128054500Y-75616000D02*
X128054500Y-79426000D01*
X132720133Y-79426000D02*
X132859133Y-79565000D01*
X138836000Y-84099000D02*
X138862000Y-84125000D01*
X138836000Y-81458000D02*
X138836000Y-84099000D01*
X137595000Y-75755000D02*
X135826000Y-75755000D01*
X128054500Y-79426000D02*
X132720133Y-79426000D01*
X135814000Y-79553000D02*
X136931000Y-79553000D01*
%TO.N,Net-(C2-Pad2)*%
X143942000Y-81458000D02*
X141936000Y-81458000D01*
X141987000Y-81509000D02*
X141936000Y-81458000D01*
X144766000Y-77329000D02*
X152871000Y-77329000D01*
X142545000Y-77025000D02*
X144438000Y-77025000D01*
X144450000Y-77013000D02*
X144766000Y-77329000D01*
X144450000Y-80950000D02*
X143942000Y-81458000D01*
X144450000Y-77013000D02*
X144450000Y-80950000D01*
X141987000Y-84125000D02*
X141987000Y-81509000D01*
X144438000Y-77025000D02*
X144450000Y-77013000D01*
X152871000Y-77329000D02*
X152933000Y-77267000D01*
%TO.N,-VSW*%
X132131000Y-78156000D02*
X132219500Y-78067500D01*
X134263500Y-78295000D02*
X137595000Y-78295000D01*
X132258000Y-80569000D02*
X132258000Y-82728000D01*
X136830000Y-87300000D02*
X160401200Y-87300000D01*
X134036000Y-78067500D02*
X134263500Y-78295000D01*
X132258000Y-82728000D02*
X136830000Y-87300000D01*
X134036000Y-78067500D02*
X132219500Y-78067500D01*
%TO.N,HT*%
X146405500Y-75755000D02*
X146482000Y-75831500D01*
X151339650Y-76294000D02*
X146944500Y-76294000D01*
X152076650Y-75557000D02*
X151339650Y-76294000D01*
X154297000Y-75557000D02*
X152076650Y-75557000D01*
X160401200Y-83250000D02*
X158986987Y-83250000D01*
X154418000Y-75678000D02*
X154297000Y-75557000D01*
X142545000Y-75755000D02*
X146405500Y-75755000D01*
X154418000Y-78681013D02*
X154418000Y-75678000D01*
X146944500Y-76294000D02*
X146482000Y-75831500D01*
X158986987Y-83250000D02*
X154418000Y-78681013D01*
%TD*%
M02*
